M48
;Layer_Color=9474304
;FILE_FORMAT=4:4
METRIC,TZ
;TYPE=PLATED
T1F00S00C0.3810
T2F00S00C0.7112
T3F00S00C0.9000
T4F00S00C0.9200
T5F00S00C1.0000
T6F00S00C1.0200
T7F00S00C2.3000
T8F00S00C3.5000
;TYPE=NON_PLATED
T9F00S00C2.0000
%
T01
X78000Y102500
X129500Y101500
X123500Y182000
X178750Y155000
X250000Y156250
X294112Y160183
X301863Y152091
X313000Y145250
X322250Y137750
X330000Y146500
X349750Y144000
X359000Y152750
X350500Y189000
X340750Y198250
X332000Y171250
X320500Y166250
X322250Y180750
X304500Y211000
X291500Y205500
X292250Y223250
X271750Y223500
X255000Y224000
X246500Y234000
X237250Y217750
X228609Y223666
X220250Y234250
X221000Y250500
X207077Y258000
X186000Y250179
X285500Y254558
X315000Y246000
X328250Y233500
X345250Y261000
X281500Y195250
X263000Y213500
X387250Y180250
X378750Y171180
X417462Y210250
X401500Y238500
X392250Y248750
X419500Y257500
X448723Y241684
X456744Y248750
X512138Y251725
X520000Y258950
X519250Y243750
X516500Y225750
X524374Y218345
X544750Y239000
X553375Y232095
X564500Y221425
X573500Y214000
X589000Y196428
X598377Y190593
X610750Y199750
X613500Y171430
X622250Y163429
X631379Y153841
X639129Y146091
X659000Y151000
X657380Y165342
X646241Y165500
X647630Y176343
X666250Y191500
X676750Y181250
X712501Y175500
X706250Y167609
X698179Y160000
X682500Y144000
X673720Y136500
X661380Y123590
X651442Y131590
X653750Y109801
X669000Y109551
X635000Y108077
X623378Y118590
X630000Y80000
X621929Y72750
X647679Y88000
X653722Y227915
X661500Y220137
Y235694
X653722Y243472
X638165
X645944Y235694
Y251250
X630387
X638165Y259028
X653722
X661500Y251250
X669278Y259028
X677056Y251250
X684835Y259028
Y243472
X692613Y251250
X695250Y232750
X677056Y235694
X669278Y243472
X669278Y227915
X682750Y220750
X717250Y211500
X705500Y198750
X719750Y183750
X725750Y247000
X736500Y238750
X753750Y257250
X765385Y227595
X755500Y217354
X583500Y239558
X573750Y248000
X601250Y257500
X537750Y254750
X543500Y157500
X573250Y163000
X565000Y176500
X772960Y235250
X783250Y245000
X802950Y243500
X803000Y258950
X813500Y253500
X870390Y252846
Y242096
X859723Y240335
X861500Y201000
X864890Y190093
X871552Y181668
X873891Y170842
X872250Y151000
X872750Y90250
X808250Y90750
X913000Y176750
X916250Y190500
X910892Y200594
X916000Y220500
X915301Y231168
X910142Y241096
X904392Y250846
X948250Y261000
X947250Y211000
X945500Y171250
X950750Y151000
X917643Y270847
X904346Y281317
X909250Y291500
X904346Y301683
X906642Y320850
X904392Y331600
X912500Y351750
X904892Y361102
X874750Y360500
X869140Y350851
X868140Y340101
X867250Y329250
Y308000
X866000Y295000
X865890Y284098
X872750Y263750
X776386Y264097
X791000Y439000
X811750Y439250
X831500Y446750
X791500Y464250
X791250Y491500
Y520750
X864501Y478251
X887250Y480000
X887500Y471500
X896000
X896250Y480000
X919000Y488500
X909000Y500500
X905250Y514250
X919500Y514750
X921248Y468248
X929750Y476714
X947250Y453250
X948750Y371000
X947500Y341000
X947000Y311000
X871750Y417000
X758300Y436800
X680000Y475750
X680381Y486608
X666500Y526500
X623250Y481250
X588668Y479418
X570250Y465000
X545250Y453500
X535500Y480000
X479101Y454649
X485000Y393750
X510500Y389750
X508250Y349750
X517750Y336000
X512000Y303500
X462371Y306099
X456750Y296243
X440750Y314250
X447250Y349000
X459750Y348500
X481750Y341750
X437500Y356750
X442750Y392750
X398134Y388750
X380719Y328882
X399250Y310250
X407868Y302099
X415618Y292348
X423500Y285000
X434119Y275347
X442620Y266597
X410500Y266000
X546250Y263000
X553362Y271000
X562250Y279250
X581000Y282250
X573376Y292598
X602750Y293000
X616000Y306124
X611750Y327000
X602500Y320750
X591500Y310750
X578500Y342500
X566250Y333750
X591250Y356000
X627250Y344750
X636500Y350750
X642368Y359969
X651130Y368352
X667500Y373923
X675631Y364602
X683381Y356851
X692750Y347000
X706133Y333100
X714500Y326000
X678500Y325500
X668750Y333442
X652058Y316750
X660750Y307058
X661500Y282363
X653722Y274585
X661500Y266806
X669278Y274585
X677056Y266806
X645944Y266806
X625250Y271750
X637750Y285250
X591250Y266000
X619750Y336000
X633500Y401500
X645129Y400854
X644750Y412500
X654250Y393200
X668500Y393250
X747635Y289598
X756971Y283630
X765291Y271209
X743750Y265000
X392250Y468750
X379250Y469000
X372250Y385500
X335750Y374500
X316750Y364250
X302613Y351101
X296500Y387780
X288250Y380000
X324990Y395000
X312250Y439250
X229231Y417231
X238250Y357250
X235500Y337500
X223500Y322750
X182000Y320750
X199250Y293250
X159750Y298000
X159250Y286000
X235860Y284348
X244000Y292500
X227609Y275847
X220000Y268250
X262750Y274750
X276250Y263500
X275500Y288500
X270250Y318750
X278499Y328000
X319500Y325000
X328750Y315750
X338000Y343250
X348250Y334250
X372500Y335750
X368500Y283750
X355750Y296500
X333250Y274000
X169000Y479750
T02
X938500Y511500
T03
X812850Y24500
X838250
X863650
X889050
X914450
X936750Y58850
Y84250
X922000Y448750
X703500Y514000
X22000Y420400
Y395000
Y369600
Y344200
T04
X393500Y496750
X413500
X438500
X368500
T05
X39000Y497750
X26500Y522750
X96500
X117250
X129750Y497750
X174750
X187250Y522750
X208750
X221250Y497750
X266250
X278750Y522750
X84000Y497750
T06
X37450Y45100
Y70500
X62850
X88250
X113650
X139050
Y45100
X113650
X88250
X62850
T07
X469200Y523850
X337800
T08
X37750Y188500
T09
X910250Y118500
Y403500
M30
