G04*
G04 #@! TF.GenerationSoftware,Altium Limited,Altium Designer,19.1.8 (144)*
G04*
G04 Layer_Color=8388736*
%FSLAX44Y44*%
%MOMM*%
G71*
G01*
G75*
%ADD22R,1.3112X0.5508*%
G04:AMPARAMS|DCode=33|XSize=0.3508mm|YSize=1.8508mm|CornerRadius=0mm|HoleSize=0mm|Usage=FLASHONLY|Rotation=45.000|XOffset=0mm|YOffset=0mm|HoleType=Round|Shape=Round|*
%AMOVALD33*
21,1,1.5000,0.3508,0.0000,0.0000,135.0*
1,1,0.3508,0.5303,-0.5303*
1,1,0.3508,-0.5303,0.5303*
%
%ADD33OVALD33*%

G04:AMPARAMS|DCode=34|XSize=0.3508mm|YSize=1.8508mm|CornerRadius=0mm|HoleSize=0mm|Usage=FLASHONLY|Rotation=135.000|XOffset=0mm|YOffset=0mm|HoleType=Round|Shape=Round|*
%AMOVALD34*
21,1,1.5000,0.3508,0.0000,0.0000,225.0*
1,1,0.3508,0.5303,0.5303*
1,1,0.3508,-0.5303,-0.5303*
%
%ADD34OVALD34*%

%ADD35P,7.8500X4X90.0*%
%ADD36R,1.7508X1.0508*%
%ADD37R,1.7508X1.0508*%
G04:AMPARAMS|DCode=38|XSize=1.7508mm|YSize=1.0508mm|CornerRadius=0.2754mm|HoleSize=0mm|Usage=FLASHONLY|Rotation=0.000|XOffset=0mm|YOffset=0mm|HoleType=Round|Shape=RoundedRectangle|*
%AMROUNDEDRECTD38*
21,1,1.7508,0.5000,0,0,0.0*
21,1,1.2000,1.0508,0,0,0.0*
1,1,0.5508,0.6000,-0.2500*
1,1,0.5508,-0.6000,-0.2500*
1,1,0.5508,-0.6000,0.2500*
1,1,0.5508,0.6000,0.2500*
%
%ADD38ROUNDEDRECTD38*%
%ADD39R,0.6508X0.5508*%
%ADD40R,0.5508X0.6508*%
G04:AMPARAMS|DCode=41|XSize=0.9508mm|YSize=1.4508mm|CornerRadius=0mm|HoleSize=0mm|Usage=FLASHONLY|Rotation=135.000|XOffset=0mm|YOffset=0mm|HoleType=Round|Shape=Rectangle|*
%AMROTATEDRECTD41*
4,1,4,0.8491,0.1768,-0.1768,-0.8491,-0.8491,-0.1768,0.1768,0.8491,0.8491,0.1768,0.0*
%
%ADD41ROTATEDRECTD41*%

G04:AMPARAMS|DCode=42|XSize=1.1008mm|YSize=1.0008mm|CornerRadius=0mm|HoleSize=0mm|Usage=FLASHONLY|Rotation=45.000|XOffset=0mm|YOffset=0mm|HoleType=Round|Shape=Rectangle|*
%AMROTATEDRECTD42*
4,1,4,-0.0354,-0.7430,-0.7430,-0.0354,0.0354,0.7430,0.7430,0.0354,-0.0354,-0.7430,0.0*
%
%ADD42ROTATEDRECTD42*%

%ADD43R,2.1508X5.6508*%
%ADD44R,0.8508X0.8508*%
G04:AMPARAMS|DCode=45|XSize=0.5508mm|YSize=0.6508mm|CornerRadius=0mm|HoleSize=0mm|Usage=FLASHONLY|Rotation=45.000|XOffset=0mm|YOffset=0mm|HoleType=Round|Shape=Rectangle|*
%AMROTATEDRECTD45*
4,1,4,0.0354,-0.4248,-0.4248,0.0354,-0.0354,0.4248,0.4248,-0.0354,0.0354,-0.4248,0.0*
%
%ADD45ROTATEDRECTD45*%

%ADD46R,2.4638X1.9304*%
%ADD47R,1.4508X0.9008*%
%ADD48R,0.8508X0.8508*%
%ADD49R,0.9008X1.4508*%
%ADD50R,1.5508X1.5508*%
%ADD51C,1.5508*%
%ADD52R,1.5508X1.5508*%
%ADD53R,1.6008X1.6008*%
%ADD54C,1.6008*%
%ADD55C,2.9508*%
%ADD56C,1.5708*%
%ADD57C,2.0508*%
%ADD58C,5.0508*%
%ADD59C,0.8128*%
%ADD60C,1.3208*%
D22*
X549500Y499000D02*
D03*
Y489500D02*
D03*
Y480000D02*
D03*
X573500D02*
D03*
Y499000D02*
D03*
D33*
X193998Y264008D02*
D03*
X197533Y267544D02*
D03*
X201069Y271079D02*
D03*
X204605Y274615D02*
D03*
X208140Y278150D02*
D03*
X211676Y281686D02*
D03*
X215211Y285222D02*
D03*
X218747Y288757D02*
D03*
X222282Y292293D02*
D03*
X225818Y295828D02*
D03*
X229353Y299364D02*
D03*
X232889Y302899D02*
D03*
X236424Y306435D02*
D03*
X239960Y309970D02*
D03*
X243496Y313506D02*
D03*
X247031Y317041D02*
D03*
X250567Y320577D02*
D03*
X254102Y324112D02*
D03*
X257638Y327648D02*
D03*
X261173Y331183D02*
D03*
X264709Y334719D02*
D03*
X268244Y338255D02*
D03*
X271780Y341790D02*
D03*
X275315Y345326D02*
D03*
X278851Y348861D02*
D03*
X282386Y352397D02*
D03*
X285922Y355932D02*
D03*
X289457Y359468D02*
D03*
X292993Y363003D02*
D03*
X296528Y366539D02*
D03*
X300064Y370074D02*
D03*
X303600Y373610D02*
D03*
X307135Y377145D02*
D03*
X310671Y380681D02*
D03*
X314206Y384216D02*
D03*
X317742Y387752D02*
D03*
X466941Y238552D02*
D03*
X463406Y235017D02*
D03*
X459870Y231481D02*
D03*
X456335Y227946D02*
D03*
X452799Y224410D02*
D03*
X449264Y220875D02*
D03*
X445728Y217339D02*
D03*
X442192Y213804D02*
D03*
X438657Y210268D02*
D03*
X435121Y206733D02*
D03*
X431586Y203197D02*
D03*
X428050Y199662D02*
D03*
X424515Y196126D02*
D03*
X420979Y192591D02*
D03*
X417444Y189055D02*
D03*
X413908Y185519D02*
D03*
X410373Y181984D02*
D03*
X406837Y178448D02*
D03*
X403302Y174913D02*
D03*
X399766Y171377D02*
D03*
X396231Y167842D02*
D03*
X392695Y164306D02*
D03*
X389160Y160771D02*
D03*
X385624Y157235D02*
D03*
X382088Y153700D02*
D03*
X378553Y150164D02*
D03*
X375017Y146629D02*
D03*
X371482Y143093D02*
D03*
X367946Y139558D02*
D03*
X364411Y136022D02*
D03*
X360875Y132486D02*
D03*
X357340Y128951D02*
D03*
X353804Y125415D02*
D03*
X350269Y121880D02*
D03*
X346733Y118344D02*
D03*
X343198Y114809D02*
D03*
X674228Y114778D02*
D03*
X677764Y118314D02*
D03*
X681299Y121849D02*
D03*
X684835Y125385D02*
D03*
X688370Y128921D02*
D03*
X691906Y132456D02*
D03*
X695441Y135992D02*
D03*
X698977Y139527D02*
D03*
X702512Y143063D02*
D03*
X706048Y146598D02*
D03*
X709583Y150134D02*
D03*
X713119Y153669D02*
D03*
X716654Y157205D02*
D03*
X720190Y160740D02*
D03*
X723725Y164276D02*
D03*
X727261Y167811D02*
D03*
X730797Y171347D02*
D03*
X734332Y174883D02*
D03*
X737868Y178418D02*
D03*
X741403Y181954D02*
D03*
X744939Y185489D02*
D03*
X748474Y189025D02*
D03*
X752010Y192560D02*
D03*
X755545Y196096D02*
D03*
X759081Y199631D02*
D03*
X762616Y203167D02*
D03*
X766152Y206702D02*
D03*
X769687Y210238D02*
D03*
X773223Y213773D02*
D03*
X776758Y217309D02*
D03*
X780294Y220844D02*
D03*
X783829Y224380D02*
D03*
X787365Y227915D02*
D03*
X790900Y231451D02*
D03*
X794436Y234987D02*
D03*
X797972Y238522D02*
D03*
X648772Y387722D02*
D03*
X645237Y384186D02*
D03*
X641701Y380651D02*
D03*
X638166Y377115D02*
D03*
X634630Y373579D02*
D03*
X631094Y370044D02*
D03*
X627559Y366508D02*
D03*
X624023Y362973D02*
D03*
X620488Y359437D02*
D03*
X616952Y355902D02*
D03*
X613417Y352366D02*
D03*
X609881Y348831D02*
D03*
X606346Y345295D02*
D03*
X602810Y341760D02*
D03*
X599275Y338224D02*
D03*
X595739Y334689D02*
D03*
X592203Y331153D02*
D03*
X588668Y327618D02*
D03*
X585132Y324082D02*
D03*
X581597Y320546D02*
D03*
X578061Y317011D02*
D03*
X574526Y313475D02*
D03*
X570990Y309940D02*
D03*
X567455Y306404D02*
D03*
X563919Y302869D02*
D03*
X560384Y299333D02*
D03*
X556848Y295798D02*
D03*
X553313Y292262D02*
D03*
X549777Y288727D02*
D03*
X546242Y285191D02*
D03*
X542706Y281656D02*
D03*
X539170Y278120D02*
D03*
X535635Y274585D02*
D03*
X532099Y271049D02*
D03*
X528564Y267514D02*
D03*
X525028Y263978D02*
D03*
D34*
X343198Y387752D02*
D03*
X346733Y384216D02*
D03*
X350269Y380681D02*
D03*
X353804Y377145D02*
D03*
X357340Y373610D02*
D03*
X360875Y370074D02*
D03*
X364411Y366539D02*
D03*
X367946Y363003D02*
D03*
X371482Y359468D02*
D03*
X375017Y355932D02*
D03*
X378553Y352397D02*
D03*
X382088Y348861D02*
D03*
X385624Y345326D02*
D03*
X389160Y341790D02*
D03*
X392695Y338255D02*
D03*
X396231Y334719D02*
D03*
X399766Y331183D02*
D03*
X403302Y327648D02*
D03*
X406837Y324112D02*
D03*
X410373Y320577D02*
D03*
X413908Y317041D02*
D03*
X417444Y313506D02*
D03*
X420979Y309970D02*
D03*
X424515Y306435D02*
D03*
X428050Y302899D02*
D03*
X431586Y299364D02*
D03*
X435121Y295828D02*
D03*
X438657Y292293D02*
D03*
X442192Y288757D02*
D03*
X445728Y285222D02*
D03*
X449264Y281686D02*
D03*
X452799Y278150D02*
D03*
X456335Y274615D02*
D03*
X459870Y271079D02*
D03*
X463406Y267544D02*
D03*
X466941Y264008D02*
D03*
X317742Y114809D02*
D03*
X314206Y118344D02*
D03*
X310671Y121880D02*
D03*
X307135Y125415D02*
D03*
X303600Y128951D02*
D03*
X300064Y132486D02*
D03*
X296528Y136022D02*
D03*
X292993Y139558D02*
D03*
X289457Y143093D02*
D03*
X285922Y146629D02*
D03*
X282386Y150164D02*
D03*
X278851Y153700D02*
D03*
X275315Y157235D02*
D03*
X271780Y160771D02*
D03*
X268244Y164306D02*
D03*
X264709Y167842D02*
D03*
X261173Y171377D02*
D03*
X257638Y174913D02*
D03*
X254102Y178448D02*
D03*
X250567Y181984D02*
D03*
X247031Y185519D02*
D03*
X243496Y189055D02*
D03*
X239960Y192591D02*
D03*
X236424Y196126D02*
D03*
X232889Y199662D02*
D03*
X229353Y203197D02*
D03*
X225818Y206733D02*
D03*
X222282Y210268D02*
D03*
X218747Y213804D02*
D03*
X215211Y217339D02*
D03*
X211676Y220875D02*
D03*
X208140Y224410D02*
D03*
X204605Y227946D02*
D03*
X201069Y231481D02*
D03*
X197533Y235017D02*
D03*
X193998Y238552D02*
D03*
X525028Y238522D02*
D03*
X528564Y234987D02*
D03*
X532099Y231451D02*
D03*
X535635Y227915D02*
D03*
X539170Y224380D02*
D03*
X542706Y220844D02*
D03*
X546242Y217309D02*
D03*
X549777Y213773D02*
D03*
X553313Y210238D02*
D03*
X556848Y206702D02*
D03*
X560384Y203167D02*
D03*
X563919Y199631D02*
D03*
X567455Y196096D02*
D03*
X570990Y192560D02*
D03*
X574526Y189025D02*
D03*
X578061Y185489D02*
D03*
X581597Y181954D02*
D03*
X585132Y178418D02*
D03*
X588668Y174883D02*
D03*
X592203Y171347D02*
D03*
X595739Y167812D02*
D03*
X599275Y164276D02*
D03*
X602810Y160740D02*
D03*
X606346Y157205D02*
D03*
X609881Y153669D02*
D03*
X613417Y150134D02*
D03*
X616952Y146598D02*
D03*
X620488Y143063D02*
D03*
X624023Y139527D02*
D03*
X627559Y135992D02*
D03*
X631094Y132456D02*
D03*
X634630Y128921D02*
D03*
X638166Y125385D02*
D03*
X641701Y121849D02*
D03*
X645237Y118314D02*
D03*
X648772Y114778D02*
D03*
X797972Y263978D02*
D03*
X794436Y267514D02*
D03*
X790900Y271049D02*
D03*
X787365Y274585D02*
D03*
X783829Y278120D02*
D03*
X780294Y281656D02*
D03*
X776758Y285191D02*
D03*
X773223Y288727D02*
D03*
X769687Y292262D02*
D03*
X766152Y295798D02*
D03*
X762616Y299333D02*
D03*
X759081Y302869D02*
D03*
X755545Y306404D02*
D03*
X752010Y309940D02*
D03*
X748474Y313475D02*
D03*
X744939Y317011D02*
D03*
X741403Y320546D02*
D03*
X737868Y324082D02*
D03*
X734332Y327618D02*
D03*
X730797Y331153D02*
D03*
X727261Y334689D02*
D03*
X723725Y338224D02*
D03*
X720190Y341760D02*
D03*
X716654Y345295D02*
D03*
X713119Y348831D02*
D03*
X709583Y352366D02*
D03*
X706048Y355902D02*
D03*
X702512Y359437D02*
D03*
X698977Y362973D02*
D03*
X695441Y366508D02*
D03*
X691906Y370044D02*
D03*
X688370Y373579D02*
D03*
X684835Y377115D02*
D03*
X681299Y380651D02*
D03*
X677764Y384186D02*
D03*
X674228Y387722D02*
D03*
D35*
X661500Y251250D02*
D03*
D36*
X758300Y452730D02*
D03*
X707500D02*
D03*
D37*
X758300Y485750D02*
D03*
D38*
X707500D02*
D03*
D39*
X691000Y485750D02*
D03*
Y475750D02*
D03*
X535500Y499000D02*
D03*
Y489000D02*
D03*
X588668Y499000D02*
D03*
Y489000D02*
D03*
X149537Y280479D02*
D03*
Y270479D02*
D03*
X150068Y298233D02*
D03*
Y308233D02*
D03*
X522000Y312750D02*
D03*
Y322750D02*
D03*
X496000Y301500D02*
D03*
Y291500D02*
D03*
X497000Y344500D02*
D03*
Y334500D02*
D03*
X472500Y351500D02*
D03*
Y341500D02*
D03*
X617250Y415250D02*
D03*
Y425250D02*
D03*
X624250Y512750D02*
D03*
Y522750D02*
D03*
D40*
X559500Y465000D02*
D03*
X549500D02*
D03*
X495500Y313000D02*
D03*
X505500D02*
D03*
X173500Y178000D02*
D03*
X163500D02*
D03*
X819500Y90500D02*
D03*
X829500D02*
D03*
D41*
X240015Y427308D02*
D03*
X248146Y448874D02*
D03*
X261581Y435439D02*
D03*
D42*
X613003Y96247D02*
D03*
X602750Y106500D02*
D03*
X599922Y83166D02*
D03*
X589669Y93419D02*
D03*
D43*
X112237Y239116D02*
D03*
Y334116D02*
D03*
D44*
X481250Y291750D02*
D03*
Y307750D02*
D03*
X633000Y412500D02*
D03*
Y428500D02*
D03*
X947250Y442250D02*
D03*
Y426250D02*
D03*
D45*
X614964Y79714D02*
D03*
X622035Y86785D02*
D03*
D46*
X507249Y499353D02*
D03*
Y454649D02*
D03*
D47*
X606500Y481250D02*
D03*
Y498750D02*
D03*
D48*
X176750Y164750D02*
D03*
X160750D02*
D03*
X860250Y90500D02*
D03*
X844250D02*
D03*
X654000Y522750D02*
D03*
X638000D02*
D03*
D49*
X930250Y426250D02*
D03*
X912750D02*
D03*
D50*
X812850Y24500D02*
D03*
D51*
X838250D02*
D03*
X863650D02*
D03*
X889050D02*
D03*
X914450D02*
D03*
X22000Y420400D02*
D03*
Y395000D02*
D03*
Y369600D02*
D03*
X96500Y522750D02*
D03*
X84000Y497750D02*
D03*
X39000D02*
D03*
X26500Y522750D02*
D03*
X187250D02*
D03*
X174750Y497750D02*
D03*
X129750D02*
D03*
X117250Y522750D02*
D03*
X278750D02*
D03*
X266250Y497750D02*
D03*
X221250D02*
D03*
X208750Y522750D02*
D03*
X936750Y58850D02*
D03*
X703500Y514000D02*
D03*
X922000Y448750D02*
D03*
D52*
X22000Y344200D02*
D03*
X936750Y84250D02*
D03*
D53*
X139050Y70500D02*
D03*
D54*
X113650D02*
D03*
X88250D02*
D03*
X62850D02*
D03*
X37450D02*
D03*
X139050Y45100D02*
D03*
X113650D02*
D03*
X88250D02*
D03*
X62850D02*
D03*
X37450D02*
D03*
D55*
X469200Y523850D02*
D03*
X337800D02*
D03*
D56*
X438500Y496750D02*
D03*
X413500D02*
D03*
X393500D02*
D03*
X368500D02*
D03*
D57*
X910250Y118500D02*
D03*
Y403500D02*
D03*
D58*
X37750Y188500D02*
D03*
D59*
X630387Y251250D02*
D03*
X638165Y259028D02*
D03*
X645944Y266806D02*
D03*
X653722Y274585D02*
D03*
X661500Y282363D02*
D03*
X638165Y243472D02*
D03*
X645944Y251250D02*
D03*
X653722Y259028D02*
D03*
X661500Y266806D02*
D03*
X669278Y274585D02*
D03*
X645944Y235694D02*
D03*
X653722Y243472D02*
D03*
X661500Y251250D02*
D03*
X669278Y259028D02*
D03*
X677056Y266806D02*
D03*
X653722Y227915D02*
D03*
X661500Y235694D02*
D03*
X669278Y243472D02*
D03*
X677056Y251250D02*
D03*
X684835Y259028D02*
D03*
X661500Y220137D02*
D03*
X669278Y227915D02*
D03*
X677056Y235694D02*
D03*
X684835Y243472D02*
D03*
X692613Y251250D02*
D03*
X630000Y80000D02*
D03*
X621929Y72750D02*
D03*
X765291Y271209D02*
D03*
X680381Y486608D02*
D03*
X791000Y439000D02*
D03*
X811750Y439250D02*
D03*
X791500Y464250D02*
D03*
X791250Y491500D02*
D03*
Y520750D02*
D03*
X831500Y446750D02*
D03*
X905250Y514250D02*
D03*
X909000Y500500D02*
D03*
X919000Y488500D02*
D03*
X919500Y514750D02*
D03*
X887500Y471500D02*
D03*
X896000D02*
D03*
X887250Y480000D02*
D03*
X896250D02*
D03*
X871750Y417000D02*
D03*
X864501Y478251D02*
D03*
X921248Y468248D02*
D03*
X929750Y476714D02*
D03*
X562250Y279250D02*
D03*
X553362Y271000D02*
D03*
X680000Y475750D02*
D03*
X758300Y436800D02*
D03*
X221000Y250500D02*
D03*
X235500Y337500D02*
D03*
X379250Y469000D02*
D03*
X392250Y468750D02*
D03*
X159750Y298000D02*
D03*
X910892Y200594D02*
D03*
X916250Y190500D02*
D03*
X229231Y417231D02*
D03*
X199250Y293250D02*
D03*
X129500Y101500D02*
D03*
X78000Y102500D02*
D03*
X510500Y389750D02*
D03*
X485000Y393750D02*
D03*
X169000Y479750D02*
D03*
X437500Y356750D02*
D03*
X462371Y306099D02*
D03*
X335750Y374500D02*
D03*
X610750Y199750D02*
D03*
X598377Y190593D02*
D03*
X573250Y163000D02*
D03*
X565000Y176500D02*
D03*
X589000Y196428D02*
D03*
X591250Y356000D02*
D03*
X316750Y364250D02*
D03*
X302613Y351101D02*
D03*
X447250Y349000D02*
D03*
X578500Y342500D02*
D03*
X508250Y349750D02*
D03*
X459750Y348500D02*
D03*
X481750Y341750D02*
D03*
X517750Y336000D02*
D03*
X611750Y327000D02*
D03*
X566250Y333750D02*
D03*
X440750Y314250D02*
D03*
X442620Y266597D02*
D03*
X387250Y180250D02*
D03*
X320500Y166250D02*
D03*
X294112Y160183D02*
D03*
X270250Y318750D02*
D03*
X330000Y146500D02*
D03*
X186000Y250179D02*
D03*
X380719Y328882D02*
D03*
X372500Y335750D02*
D03*
X407868Y302099D02*
D03*
X399250Y310250D02*
D03*
X434119Y275347D02*
D03*
X359000Y152750D02*
D03*
X313000Y145250D02*
D03*
X322250Y137750D02*
D03*
X301863Y152091D02*
D03*
X237250Y217750D02*
D03*
X220250Y234250D02*
D03*
X255000Y224000D02*
D03*
X276250Y263500D02*
D03*
X285500Y254558D02*
D03*
X275500Y288500D02*
D03*
X262750Y274750D02*
D03*
X235860Y284348D02*
D03*
X244000Y292500D02*
D03*
X228609Y223666D02*
D03*
X207077Y258000D02*
D03*
X227609Y275847D02*
D03*
X349750Y144000D02*
D03*
X378750Y171180D02*
D03*
X417462Y210250D02*
D03*
X456744Y248750D02*
D03*
X423500Y285000D02*
D03*
X456750Y296243D02*
D03*
X324990Y395000D02*
D03*
X278499Y328000D02*
D03*
X220000Y268250D02*
D03*
X867250Y308000D02*
D03*
X913000Y176750D02*
D03*
X872250Y151000D02*
D03*
X873891Y170842D02*
D03*
X871552Y181668D02*
D03*
X864890Y190093D02*
D03*
X915301Y231168D02*
D03*
X910142Y241096D02*
D03*
X904392Y250846D02*
D03*
X872750Y263750D02*
D03*
X870390Y242096D02*
D03*
Y252846D02*
D03*
X904346Y281317D02*
D03*
X917643Y270847D02*
D03*
X865890Y284098D02*
D03*
X866000Y295000D02*
D03*
X570250Y465000D02*
D03*
X535500Y480000D02*
D03*
X588668Y479418D02*
D03*
X623250Y481250D02*
D03*
X479101Y454649D02*
D03*
X947250Y211000D02*
D03*
X948250Y261000D02*
D03*
X947000Y311000D02*
D03*
X947500Y341000D02*
D03*
X948750Y371000D02*
D03*
X950750Y151000D02*
D03*
X904392Y331600D02*
D03*
X520000Y258950D02*
D03*
X564500Y221425D02*
D03*
X613500Y171430D02*
D03*
X635000Y108077D02*
D03*
X653750Y109801D02*
D03*
X669000Y109551D02*
D03*
X673720Y136500D02*
D03*
X706250Y167609D02*
D03*
X712501Y175500D02*
D03*
X755500Y217354D02*
D03*
X802950Y243500D02*
D03*
X803000Y258950D02*
D03*
X667500Y373923D02*
D03*
X654250Y393200D02*
D03*
X516500Y225750D02*
D03*
X524374Y218345D02*
D03*
X519250Y243750D02*
D03*
X537750Y254750D02*
D03*
X546250Y263000D02*
D03*
X553375Y232095D02*
D03*
X544750Y239000D02*
D03*
X591500Y310750D02*
D03*
X602500Y320750D02*
D03*
X573376Y292598D02*
D03*
X627250Y344750D02*
D03*
X636500Y350750D02*
D03*
X642368Y359969D02*
D03*
X668500Y393250D02*
D03*
X675631Y364602D02*
D03*
X714500Y326000D02*
D03*
X706133Y333100D02*
D03*
X756971Y283630D02*
D03*
X747635Y289598D02*
D03*
X772960Y235250D02*
D03*
X765385Y227595D02*
D03*
X783250Y245000D02*
D03*
X719750Y183750D02*
D03*
X682500Y144000D02*
D03*
X622250Y163429D02*
D03*
X647679Y88000D02*
D03*
X668750Y333442D02*
D03*
X652058Y316750D02*
D03*
X660750Y307058D02*
D03*
X616000Y306124D02*
D03*
X583500Y239558D02*
D03*
X645129Y400854D02*
D03*
X651130Y368352D02*
D03*
X512138Y251725D02*
D03*
X573500Y214000D02*
D03*
X623378Y118590D02*
D03*
X813500Y253500D02*
D03*
X543500Y157500D02*
D03*
X945500Y171250D02*
D03*
X916000Y220500D02*
D03*
X909250Y291500D02*
D03*
X904892Y361102D02*
D03*
X912500Y351750D02*
D03*
X683381Y356851D02*
D03*
X906642Y320850D02*
D03*
X904346Y301683D02*
D03*
X874750Y360500D02*
D03*
X869140Y350851D02*
D03*
X868140Y340101D02*
D03*
X867250Y329250D02*
D03*
X512000Y303500D02*
D03*
X947250Y453250D02*
D03*
X666500Y526500D02*
D03*
X808250Y90750D02*
D03*
X872750Y90250D02*
D03*
X644750Y412500D02*
D03*
X178750Y155000D02*
D03*
X545250Y453500D02*
D03*
X442750Y392750D02*
D03*
X372250Y385500D02*
D03*
X398134Y388750D02*
D03*
X159250Y286000D02*
D03*
X288250Y380000D02*
D03*
X296500Y387780D02*
D03*
X238250Y357250D02*
D03*
X223500Y322750D02*
D03*
X312250Y439250D02*
D03*
X123500Y182000D02*
D03*
X639129Y146091D02*
D03*
X651442Y131590D02*
D03*
X659000Y151000D02*
D03*
X646241Y165500D02*
D03*
X698179Y160000D02*
D03*
X633500Y401500D02*
D03*
X776386Y264097D02*
D03*
X725750Y247000D02*
D03*
X736500Y238750D02*
D03*
X753750Y257250D02*
D03*
X743750Y265000D02*
D03*
X692750Y347000D02*
D03*
X678500Y325500D02*
D03*
X619750Y336000D02*
D03*
X637750Y285250D02*
D03*
X625250Y271750D02*
D03*
X602750Y293000D02*
D03*
X448723Y241684D02*
D03*
X415618Y292348D02*
D03*
X419500Y257500D02*
D03*
X410500Y266000D02*
D03*
X401500Y238500D02*
D03*
X392250Y248750D02*
D03*
X368500Y283750D02*
D03*
X355750Y296500D02*
D03*
X345250Y261000D02*
D03*
X333250Y274000D02*
D03*
X338000Y343250D02*
D03*
X348250Y334250D02*
D03*
X319500Y325000D02*
D03*
X328750Y315750D02*
D03*
X315000Y246000D02*
D03*
X328250Y233500D02*
D03*
X304500Y211000D02*
D03*
X292250Y223250D02*
D03*
X246500Y234000D02*
D03*
X271750Y223500D02*
D03*
X263000Y213500D02*
D03*
X291500Y205500D02*
D03*
X281500Y195250D02*
D03*
X340750Y198250D02*
D03*
X350500Y189000D02*
D03*
X322250Y180750D02*
D03*
X332000Y171250D02*
D03*
X182000Y320750D02*
D03*
X631379Y153841D02*
D03*
X647630Y176343D02*
D03*
X657380Y165342D02*
D03*
X676750Y181250D02*
D03*
X666250Y191500D02*
D03*
X591250Y266000D02*
D03*
X601250Y257500D02*
D03*
X573750Y248000D02*
D03*
X705500Y198750D02*
D03*
X717250Y211500D02*
D03*
X695250Y232750D02*
D03*
X682750Y220750D02*
D03*
X661380Y123590D02*
D03*
X250000Y156250D02*
D03*
X861500Y201000D02*
D03*
X859723Y240335D02*
D03*
X581000Y282250D02*
D03*
D60*
X938500Y511500D02*
D03*
M02*
