G04*
G04 #@! TF.GenerationSoftware,Altium Limited,Altium Designer,19.1.8 (144)*
G04*
G04 Layer_Physical_Order=3*
G04 Layer_Color=16440176*
%FSLAX44Y44*%
%MOMM*%
G71*
G01*
G75*
%ADD84C,1.5000*%
%ADD85R,1.5000X1.5000*%
%ADD87C,1.5500*%
%ADD92C,0.7620*%
G36*
X963941Y3059D02*
X3059D01*
Y539191D01*
X328295D01*
X328666Y537713D01*
X328571Y537662D01*
X326054Y535596D01*
X323988Y533079D01*
X322453Y530207D01*
X321507Y527091D01*
X321188Y523850D01*
X321507Y520609D01*
X322453Y517493D01*
X323988Y514621D01*
X326054Y512104D01*
X328571Y510038D01*
X331443Y508503D01*
X334559Y507557D01*
X337800Y507238D01*
X341041Y507557D01*
X344157Y508503D01*
X347029Y510038D01*
X349546Y512104D01*
X351612Y514621D01*
X353148Y517493D01*
X354093Y520609D01*
X354412Y523850D01*
X354093Y527091D01*
X353148Y530207D01*
X351612Y533079D01*
X349546Y535596D01*
X347029Y537662D01*
X346934Y537713D01*
X347305Y539191D01*
X459695D01*
X460066Y537713D01*
X459971Y537662D01*
X457454Y535596D01*
X455388Y533079D01*
X453853Y530207D01*
X452907Y527091D01*
X452588Y523850D01*
X452907Y520609D01*
X453853Y517493D01*
X455388Y514621D01*
X457454Y512104D01*
X459971Y510038D01*
X462843Y508503D01*
X465959Y507557D01*
X469200Y507238D01*
X472441Y507557D01*
X475557Y508503D01*
X478429Y510038D01*
X480946Y512104D01*
X483012Y514621D01*
X484548Y517493D01*
X485493Y520609D01*
X485812Y523850D01*
X485493Y527091D01*
X484548Y530207D01*
X483012Y533079D01*
X480946Y535596D01*
X478429Y537662D01*
X478334Y537713D01*
X478705Y539191D01*
X963941D01*
Y3059D01*
D02*
G37*
%LPC*%
G36*
X666500Y532457D02*
X664221Y532003D01*
X662288Y530712D01*
X660997Y528779D01*
X660544Y526500D01*
X660997Y524221D01*
X662288Y522288D01*
X664221Y520997D01*
X666500Y520544D01*
X668780Y520997D01*
X670712Y522288D01*
X672003Y524221D01*
X672457Y526500D01*
X672003Y528779D01*
X670712Y530712D01*
X668780Y532003D01*
X666500Y532457D01*
D02*
G37*
G36*
X278750Y532364D02*
X276262Y532037D01*
X273943Y531076D01*
X271952Y529548D01*
X270424Y527557D01*
X269463Y525238D01*
X269136Y522750D01*
X269463Y520262D01*
X270424Y517943D01*
X271952Y515952D01*
X273943Y514424D01*
X276262Y513463D01*
X278750Y513136D01*
X281238Y513463D01*
X283557Y514424D01*
X285548Y515952D01*
X287076Y517943D01*
X288037Y520262D01*
X288364Y522750D01*
X288037Y525238D01*
X287076Y527557D01*
X285548Y529548D01*
X283557Y531076D01*
X281238Y532037D01*
X278750Y532364D01*
D02*
G37*
G36*
X208750D02*
X206262Y532037D01*
X203943Y531076D01*
X201952Y529548D01*
X200424Y527557D01*
X199463Y525238D01*
X199136Y522750D01*
X199463Y520262D01*
X200424Y517943D01*
X201952Y515952D01*
X203943Y514424D01*
X206262Y513463D01*
X208750Y513136D01*
X211238Y513463D01*
X213557Y514424D01*
X215548Y515952D01*
X217076Y517943D01*
X218037Y520262D01*
X218364Y522750D01*
X218037Y525238D01*
X217076Y527557D01*
X215548Y529548D01*
X213557Y531076D01*
X211238Y532037D01*
X208750Y532364D01*
D02*
G37*
G36*
X187250D02*
X184762Y532037D01*
X182443Y531076D01*
X180452Y529548D01*
X178924Y527557D01*
X177963Y525238D01*
X177636Y522750D01*
X177963Y520262D01*
X178924Y517943D01*
X180452Y515952D01*
X182443Y514424D01*
X184762Y513463D01*
X187250Y513136D01*
X189738Y513463D01*
X192057Y514424D01*
X194048Y515952D01*
X195576Y517943D01*
X196537Y520262D01*
X196864Y522750D01*
X196537Y525238D01*
X195576Y527557D01*
X194048Y529548D01*
X192057Y531076D01*
X189738Y532037D01*
X187250Y532364D01*
D02*
G37*
G36*
X117250D02*
X114762Y532037D01*
X112443Y531076D01*
X110452Y529548D01*
X108924Y527557D01*
X107963Y525238D01*
X107636Y522750D01*
X107963Y520262D01*
X108924Y517943D01*
X110452Y515952D01*
X112443Y514424D01*
X114762Y513463D01*
X117250Y513136D01*
X119738Y513463D01*
X122057Y514424D01*
X124048Y515952D01*
X125576Y517943D01*
X126537Y520262D01*
X126864Y522750D01*
X126537Y525238D01*
X125576Y527557D01*
X124048Y529548D01*
X122057Y531076D01*
X119738Y532037D01*
X117250Y532364D01*
D02*
G37*
G36*
X96500D02*
X94012Y532037D01*
X91693Y531076D01*
X89702Y529548D01*
X88174Y527557D01*
X87213Y525238D01*
X86886Y522750D01*
X87213Y520262D01*
X88174Y517943D01*
X89702Y515952D01*
X91693Y514424D01*
X94012Y513463D01*
X96500Y513136D01*
X98988Y513463D01*
X101307Y514424D01*
X103298Y515952D01*
X104826Y517943D01*
X105787Y520262D01*
X106114Y522750D01*
X105787Y525238D01*
X104826Y527557D01*
X103298Y529548D01*
X101307Y531076D01*
X98988Y532037D01*
X96500Y532364D01*
D02*
G37*
G36*
X26500D02*
X24012Y532037D01*
X21693Y531076D01*
X19702Y529548D01*
X18174Y527557D01*
X17213Y525238D01*
X16886Y522750D01*
X17213Y520262D01*
X18174Y517943D01*
X19702Y515952D01*
X21693Y514424D01*
X24012Y513463D01*
X26500Y513136D01*
X28988Y513463D01*
X31307Y514424D01*
X33298Y515952D01*
X34826Y517943D01*
X35787Y520262D01*
X36114Y522750D01*
X35787Y525238D01*
X34826Y527557D01*
X33298Y529548D01*
X31307Y531076D01*
X28988Y532037D01*
X26500Y532364D01*
D02*
G37*
G36*
X919500Y520706D02*
X917221Y520253D01*
X915288Y518962D01*
X913997Y517029D01*
X913544Y514750D01*
X913997Y512471D01*
X915288Y510538D01*
X917221Y509247D01*
X919500Y508793D01*
X921779Y509247D01*
X923712Y510538D01*
X925003Y512471D01*
X925456Y514750D01*
X925003Y517029D01*
X923712Y518962D01*
X921779Y520253D01*
X919500Y520706D01*
D02*
G37*
G36*
X905250Y520206D02*
X902971Y519753D01*
X901038Y518462D01*
X899747Y516529D01*
X899294Y514250D01*
X899747Y511971D01*
X901038Y510038D01*
X902971Y508747D01*
X905250Y508293D01*
X907530Y508747D01*
X909462Y510038D01*
X910753Y511971D01*
X911207Y514250D01*
X910753Y516529D01*
X909462Y518462D01*
X907530Y519753D01*
X905250Y520206D01*
D02*
G37*
G36*
X703500Y523614D02*
X701012Y523287D01*
X698693Y522326D01*
X696702Y520798D01*
X695174Y518807D01*
X694213Y516488D01*
X693886Y514000D01*
X694213Y511512D01*
X695174Y509193D01*
X696702Y507202D01*
X698693Y505674D01*
X701012Y504713D01*
X703500Y504386D01*
X705988Y504713D01*
X708307Y505674D01*
X710298Y507202D01*
X711826Y509193D01*
X712787Y511512D01*
X713114Y514000D01*
X712787Y516488D01*
X711826Y518807D01*
X710298Y520798D01*
X708307Y522326D01*
X705988Y523287D01*
X703500Y523614D01*
D02*
G37*
G36*
X938500Y519954D02*
X936312Y519666D01*
X934273Y518822D01*
X932522Y517478D01*
X931178Y515727D01*
X930334Y513688D01*
X930046Y511500D01*
X930334Y509312D01*
X931178Y507273D01*
X932522Y505522D01*
X934273Y504178D01*
X936312Y503334D01*
X938500Y503046D01*
X940688Y503334D01*
X942727Y504178D01*
X944478Y505522D01*
X945822Y507273D01*
X946666Y509312D01*
X946954Y511500D01*
X946666Y513688D01*
X945822Y515727D01*
X944478Y517478D01*
X942727Y518822D01*
X940688Y519666D01*
X938500Y519954D01*
D02*
G37*
G36*
X413500Y506465D02*
X410986Y506134D01*
X408643Y505163D01*
X406630Y503620D01*
X405087Y501608D01*
X404292Y499690D01*
X402708D01*
X401913Y501608D01*
X400370Y503620D01*
X398358Y505163D01*
X396014Y506134D01*
X393500Y506465D01*
X390986Y506134D01*
X388643Y505163D01*
X386630Y503620D01*
X385087Y501608D01*
X384116Y499264D01*
X383785Y496750D01*
X384116Y494236D01*
X385087Y491893D01*
X386630Y489880D01*
X388643Y488336D01*
X390986Y487366D01*
X393500Y487035D01*
X396014Y487366D01*
X398358Y488336D01*
X400370Y489880D01*
X401913Y491893D01*
X402708Y493810D01*
X404292D01*
X405087Y491893D01*
X406630Y489880D01*
X408643Y488336D01*
X410986Y487366D01*
X413500Y487035D01*
X416015Y487366D01*
X418358Y488336D01*
X420370Y489880D01*
X421913Y491893D01*
X422884Y494236D01*
X423215Y496750D01*
X422884Y499264D01*
X421913Y501608D01*
X420370Y503620D01*
X418358Y505163D01*
X416015Y506134D01*
X413500Y506465D01*
D02*
G37*
G36*
X131020Y507709D02*
Y499020D01*
X139709D01*
X139531Y500371D01*
X138520Y502813D01*
X136911Y504911D01*
X134813Y506520D01*
X132371Y507532D01*
X131020Y507709D01*
D02*
G37*
G36*
X128480D02*
X127129Y507532D01*
X124687Y506520D01*
X122589Y504911D01*
X120980Y502813D01*
X119968Y500371D01*
X119791Y499020D01*
X128480D01*
Y507709D01*
D02*
G37*
G36*
X909000Y506456D02*
X906721Y506003D01*
X904788Y504712D01*
X903497Y502779D01*
X903044Y500500D01*
X903497Y498220D01*
X904788Y496288D01*
X906721Y494997D01*
X909000Y494543D01*
X911280Y494997D01*
X913212Y496288D01*
X914503Y498220D01*
X914957Y500500D01*
X914503Y502779D01*
X913212Y504712D01*
X911280Y506003D01*
X909000Y506456D01*
D02*
G37*
G36*
X266250Y507364D02*
X263762Y507037D01*
X261443Y506076D01*
X259452Y504548D01*
X257924Y502557D01*
X256963Y500238D01*
X256636Y497750D01*
X256963Y495262D01*
X257924Y492943D01*
X259452Y490952D01*
X261443Y489424D01*
X263762Y488463D01*
X266250Y488136D01*
X268738Y488463D01*
X271057Y489424D01*
X273048Y490952D01*
X274576Y492943D01*
X275537Y495262D01*
X275864Y497750D01*
X275537Y500238D01*
X274576Y502557D01*
X273048Y504548D01*
X271057Y506076D01*
X268738Y507037D01*
X266250Y507364D01*
D02*
G37*
G36*
X221250D02*
X218762Y507037D01*
X216443Y506076D01*
X214452Y504548D01*
X212924Y502557D01*
X211963Y500238D01*
X211636Y497750D01*
X211963Y495262D01*
X212924Y492943D01*
X214452Y490952D01*
X216443Y489424D01*
X218762Y488463D01*
X221250Y488136D01*
X223738Y488463D01*
X226057Y489424D01*
X228048Y490952D01*
X229576Y492943D01*
X230537Y495262D01*
X230864Y497750D01*
X230537Y500238D01*
X229576Y502557D01*
X228048Y504548D01*
X226057Y506076D01*
X223738Y507037D01*
X221250Y507364D01*
D02*
G37*
G36*
X174750D02*
X172262Y507037D01*
X169943Y506076D01*
X167952Y504548D01*
X166424Y502557D01*
X165463Y500238D01*
X165136Y497750D01*
X165463Y495262D01*
X166424Y492943D01*
X167952Y490952D01*
X169943Y489424D01*
X172262Y488463D01*
X174750Y488136D01*
X177238Y488463D01*
X179557Y489424D01*
X181548Y490952D01*
X183076Y492943D01*
X184037Y495262D01*
X184364Y497750D01*
X184037Y500238D01*
X183076Y502557D01*
X181548Y504548D01*
X179557Y506076D01*
X177238Y507037D01*
X174750Y507364D01*
D02*
G37*
G36*
X84000D02*
X81512Y507037D01*
X79193Y506076D01*
X77202Y504548D01*
X75674Y502557D01*
X74713Y500238D01*
X74386Y497750D01*
X74713Y495262D01*
X75674Y492943D01*
X77202Y490952D01*
X79193Y489424D01*
X81512Y488463D01*
X84000Y488136D01*
X86488Y488463D01*
X88807Y489424D01*
X90798Y490952D01*
X92326Y492943D01*
X93287Y495262D01*
X93614Y497750D01*
X93287Y500238D01*
X92326Y502557D01*
X90798Y504548D01*
X88807Y506076D01*
X86488Y507037D01*
X84000Y507364D01*
D02*
G37*
G36*
X39000D02*
X36512Y507037D01*
X34193Y506076D01*
X32202Y504548D01*
X30674Y502557D01*
X29713Y500238D01*
X29386Y497750D01*
X29713Y495262D01*
X30674Y492943D01*
X32202Y490952D01*
X34193Y489424D01*
X36512Y488463D01*
X39000Y488136D01*
X41488Y488463D01*
X43807Y489424D01*
X45798Y490952D01*
X47326Y492943D01*
X48287Y495262D01*
X48614Y497750D01*
X48287Y500238D01*
X47326Y502557D01*
X45798Y504548D01*
X43807Y506076D01*
X41488Y507037D01*
X39000Y507364D01*
D02*
G37*
G36*
X139709Y496480D02*
X131020D01*
Y487791D01*
X132371Y487968D01*
X134813Y488980D01*
X136911Y490589D01*
X138520Y492687D01*
X139531Y495129D01*
X139709Y496480D01*
D02*
G37*
G36*
X128480D02*
X119791D01*
X119968Y495129D01*
X120980Y492687D01*
X122589Y490589D01*
X124687Y488980D01*
X127129Y487968D01*
X128480Y487791D01*
Y496480D01*
D02*
G37*
G36*
X438500Y506465D02*
X435986Y506134D01*
X433643Y505163D01*
X431630Y503620D01*
X430087Y501608D01*
X429116Y499264D01*
X428785Y496750D01*
X429116Y494236D01*
X430087Y491893D01*
X431630Y489880D01*
X433643Y488336D01*
X435986Y487366D01*
X438500Y487035D01*
X441015Y487366D01*
X443358Y488336D01*
X445370Y489880D01*
X446913Y491893D01*
X447884Y494236D01*
X448215Y496750D01*
X447884Y499264D01*
X446913Y501608D01*
X445370Y503620D01*
X443358Y505163D01*
X441015Y506134D01*
X438500Y506465D01*
D02*
G37*
G36*
X368500D02*
X365986Y506134D01*
X363643Y505163D01*
X361630Y503620D01*
X360087Y501608D01*
X359116Y499264D01*
X358785Y496750D01*
X359116Y494236D01*
X360087Y491893D01*
X361630Y489880D01*
X363643Y488336D01*
X365986Y487366D01*
X368500Y487035D01*
X371014Y487366D01*
X373358Y488336D01*
X375370Y489880D01*
X376913Y491893D01*
X377884Y494236D01*
X378215Y496750D01*
X377884Y499264D01*
X376913Y501608D01*
X375370Y503620D01*
X373358Y505163D01*
X371014Y506134D01*
X368500Y506465D01*
D02*
G37*
G36*
X896250Y485956D02*
X893971Y485503D01*
X892038Y484212D01*
X891462D01*
X889529Y485503D01*
X887250Y485956D01*
X884971Y485503D01*
X883038Y484212D01*
X881747Y482280D01*
X881294Y480000D01*
X881747Y477721D01*
X883038Y475788D01*
X883246Y475649D01*
X881997Y473779D01*
X881544Y471500D01*
X881997Y469221D01*
X883288Y467288D01*
X885221Y465997D01*
X887500Y465544D01*
X889779Y465997D01*
X891712Y467288D01*
X891788D01*
X893721Y465997D01*
X896000Y465544D01*
X898279Y465997D01*
X900212Y467288D01*
X901503Y469221D01*
X901956Y471500D01*
X901503Y473779D01*
X900254Y475649D01*
X900462Y475788D01*
X901753Y477721D01*
X902206Y480000D01*
X901753Y482280D01*
X900462Y484212D01*
X898529Y485503D01*
X896250Y485956D01*
D02*
G37*
G36*
X919000Y494456D02*
X916721Y494003D01*
X914788Y492712D01*
X913497Y490779D01*
X913044Y488500D01*
X913497Y486221D01*
X914788Y484288D01*
X916721Y482997D01*
X919000Y482544D01*
X921280Y482997D01*
X923212Y484288D01*
X924503Y486221D01*
X924957Y488500D01*
X924503Y490779D01*
X923212Y492712D01*
X921280Y494003D01*
X919000Y494456D01*
D02*
G37*
G36*
X623250Y487206D02*
X620971Y486753D01*
X619038Y485462D01*
X617747Y483529D01*
X617294Y481250D01*
X617747Y478970D01*
X619038Y477038D01*
X620971Y475747D01*
X623250Y475294D01*
X625530Y475747D01*
X627462Y477038D01*
X628753Y478970D01*
X629207Y481250D01*
X628753Y483529D01*
X627462Y485462D01*
X625530Y486753D01*
X623250Y487206D01*
D02*
G37*
G36*
X535500Y485956D02*
X533220Y485503D01*
X531288Y484212D01*
X529997Y482280D01*
X529543Y480000D01*
X529997Y477721D01*
X531288Y475788D01*
X533220Y474497D01*
X535500Y474044D01*
X537779Y474497D01*
X539712Y475788D01*
X541003Y477721D01*
X541456Y480000D01*
X541003Y482280D01*
X539712Y484212D01*
X537779Y485503D01*
X535500Y485956D01*
D02*
G37*
G36*
X169000Y485706D02*
X166721Y485253D01*
X164788Y483962D01*
X163497Y482029D01*
X163043Y479750D01*
X163497Y477471D01*
X164788Y475538D01*
X166721Y474247D01*
X169000Y473793D01*
X171279Y474247D01*
X173212Y475538D01*
X174503Y477471D01*
X174956Y479750D01*
X174503Y482029D01*
X173212Y483962D01*
X171279Y485253D01*
X169000Y485706D01*
D02*
G37*
G36*
X588668Y485374D02*
X586389Y484921D01*
X584456Y483630D01*
X583165Y481698D01*
X582712Y479418D01*
X583165Y477139D01*
X584456Y475206D01*
X586389Y473915D01*
X588668Y473462D01*
X590947Y473915D01*
X592880Y475206D01*
X594171Y477139D01*
X594624Y479418D01*
X594171Y481698D01*
X592880Y483630D01*
X590947Y484921D01*
X588668Y485374D01*
D02*
G37*
G36*
X864501Y484207D02*
X862221Y483754D01*
X860289Y482462D01*
X858997Y480530D01*
X858544Y478251D01*
X858997Y475971D01*
X860289Y474039D01*
X862221Y472747D01*
X864501Y472294D01*
X866780Y472747D01*
X868712Y474039D01*
X870004Y475971D01*
X870457Y478251D01*
X870004Y480530D01*
X868712Y482462D01*
X866780Y483754D01*
X864501Y484207D01*
D02*
G37*
G36*
X680000Y481707D02*
X677721Y481253D01*
X675788Y479962D01*
X674497Y478029D01*
X674044Y475750D01*
X674497Y473471D01*
X675788Y471538D01*
X677721Y470247D01*
X680000Y469794D01*
X682280Y470247D01*
X684212Y471538D01*
X685503Y473471D01*
X685956Y475750D01*
X685503Y478029D01*
X684212Y479962D01*
X682280Y481253D01*
X680000Y481707D01*
D02*
G37*
G36*
X379250Y474957D02*
X376971Y474503D01*
X375038Y473212D01*
X373747Y471279D01*
X373294Y469000D01*
X373747Y466721D01*
X375038Y464788D01*
X376971Y463497D01*
X379250Y463044D01*
X381530Y463497D01*
X383462Y464788D01*
X384753Y466721D01*
X384948Y467702D01*
X386502D01*
X386747Y466470D01*
X388038Y464538D01*
X389971Y463247D01*
X392250Y462794D01*
X394529Y463247D01*
X396462Y464538D01*
X397753Y466470D01*
X398206Y468750D01*
X397753Y471029D01*
X396462Y472962D01*
X394529Y474253D01*
X392250Y474706D01*
X389971Y474253D01*
X388038Y472962D01*
X386747Y471029D01*
X386552Y470048D01*
X384998D01*
X384753Y471279D01*
X383462Y473212D01*
X381530Y474503D01*
X379250Y474957D01*
D02*
G37*
G36*
X921248Y474204D02*
X918969Y473751D01*
X917036Y472460D01*
X915745Y470527D01*
X915292Y468248D01*
X915745Y465969D01*
X917036Y464036D01*
X918969Y462745D01*
X921248Y462292D01*
X923528Y462745D01*
X925460Y464036D01*
X926751Y465969D01*
X927205Y468248D01*
X926751Y470527D01*
X925460Y472460D01*
X923528Y473751D01*
X921248Y474204D01*
D02*
G37*
G36*
X479101Y460605D02*
X476822Y460152D01*
X474889Y458861D01*
X473598Y456928D01*
X473145Y454649D01*
X473598Y452369D01*
X474889Y450437D01*
X476822Y449146D01*
X479101Y448692D01*
X481381Y449146D01*
X483313Y450437D01*
X484604Y452369D01*
X485058Y454649D01*
X484604Y456928D01*
X483313Y458861D01*
X481381Y460152D01*
X479101Y460605D01*
D02*
G37*
G36*
X545250Y459456D02*
X542971Y459003D01*
X541038Y457712D01*
X539747Y455779D01*
X539294Y453500D01*
X539747Y451221D01*
X541038Y449288D01*
X542971Y447997D01*
X545250Y447544D01*
X547529Y447997D01*
X549462Y449288D01*
X550753Y451221D01*
X551207Y453500D01*
X550753Y455779D01*
X549462Y457712D01*
X547529Y459003D01*
X545250Y459456D01*
D02*
G37*
G36*
X947250Y459206D02*
X944971Y458753D01*
X943038Y457462D01*
X941747Y455529D01*
X941293Y453250D01*
X941747Y450970D01*
X943038Y449038D01*
X944971Y447747D01*
X947250Y447294D01*
X949529Y447747D01*
X951462Y449038D01*
X952753Y450970D01*
X953206Y453250D01*
X952753Y455529D01*
X951462Y457462D01*
X949529Y458753D01*
X947250Y459206D01*
D02*
G37*
G36*
X831500Y452706D02*
X829221Y452253D01*
X827288Y450962D01*
X825997Y449030D01*
X825544Y446750D01*
X825997Y444471D01*
X827288Y442538D01*
X829221Y441247D01*
X831500Y440794D01*
X833780Y441247D01*
X835712Y442538D01*
X837003Y444471D01*
X837457Y446750D01*
X837003Y449030D01*
X835712Y450962D01*
X833780Y452253D01*
X831500Y452706D01*
D02*
G37*
G36*
X922000Y458364D02*
X919512Y458037D01*
X917193Y457076D01*
X915202Y455548D01*
X913674Y453557D01*
X912713Y451238D01*
X912386Y448750D01*
X912713Y446262D01*
X913674Y443943D01*
X915202Y441952D01*
X917193Y440424D01*
X919512Y439463D01*
X922000Y439136D01*
X924488Y439463D01*
X926807Y440424D01*
X928798Y441952D01*
X930326Y443943D01*
X931287Y446262D01*
X931614Y448750D01*
X931287Y451238D01*
X930326Y453557D01*
X928798Y455548D01*
X926807Y457076D01*
X924488Y458037D01*
X922000Y458364D01*
D02*
G37*
G36*
X312250Y445206D02*
X309971Y444753D01*
X308038Y443462D01*
X306747Y441529D01*
X306294Y439250D01*
X306747Y436971D01*
X308038Y435038D01*
X309971Y433747D01*
X312250Y433293D01*
X314529Y433747D01*
X316462Y435038D01*
X317753Y436971D01*
X318207Y439250D01*
X317753Y441529D01*
X316462Y443462D01*
X314529Y444753D01*
X312250Y445206D01*
D02*
G37*
G36*
X758300Y442756D02*
X756021Y442303D01*
X754088Y441012D01*
X752797Y439079D01*
X752344Y436800D01*
X752797Y434520D01*
X754088Y432588D01*
X756021Y431297D01*
X758300Y430844D01*
X760580Y431297D01*
X762512Y432588D01*
X763803Y434520D01*
X764257Y436800D01*
X763803Y439079D01*
X762512Y441012D01*
X760580Y442303D01*
X758300Y442756D01*
D02*
G37*
G36*
X910520Y415640D02*
X910317Y415627D01*
X910250Y415636D01*
X910183Y415627D01*
X909980Y415640D01*
X907369Y415297D01*
X907176Y415231D01*
X907109Y415222D01*
X907047Y415196D01*
X906847Y415157D01*
X904414Y414149D01*
X904244Y414036D01*
X904182Y414010D01*
X904128Y413969D01*
X903946Y413879D01*
X901857Y412276D01*
X901722Y412122D01*
X901669Y412081D01*
X901628Y412028D01*
X901474Y411893D01*
X899871Y409804D01*
X899781Y409622D01*
X899740Y409568D01*
X899714Y409506D01*
X899601Y409336D01*
X898593Y406903D01*
X898553Y406703D01*
X898528Y406641D01*
X898519Y406574D01*
X898453Y406381D01*
X898110Y403770D01*
X898119Y403634D01*
X898092Y403500D01*
X898119Y403366D01*
X898110Y403229D01*
X898453Y400619D01*
X898519Y400426D01*
X898528Y400359D01*
X898553Y400297D01*
X898593Y400097D01*
X899601Y397664D01*
X899714Y397494D01*
X899740Y397432D01*
X899781Y397379D01*
X899871Y397196D01*
X901474Y395107D01*
X901628Y394972D01*
X901669Y394919D01*
X901722Y394878D01*
X901857Y394724D01*
X903946Y393121D01*
X904128Y393031D01*
X904182Y392990D01*
X904244Y392964D01*
X904414Y392851D01*
X906847Y391843D01*
X907047Y391804D01*
X907109Y391778D01*
X907176Y391769D01*
X907369Y391703D01*
X909980Y391360D01*
X910183Y391373D01*
X910250Y391364D01*
X910317Y391373D01*
X910520Y391360D01*
X913131Y391703D01*
X913324Y391769D01*
X913391Y391778D01*
X913453Y391804D01*
X913653Y391843D01*
X916086Y392851D01*
X916255Y392964D01*
X916318Y392990D01*
X916371Y393031D01*
X916554Y393121D01*
X918643Y394724D01*
X918778Y394878D01*
X918831Y394919D01*
X918872Y394972D01*
X919026Y395107D01*
X920629Y397196D01*
X920719Y397379D01*
X920760Y397432D01*
X920786Y397494D01*
X920899Y397664D01*
X921907Y400097D01*
X921946Y400297D01*
X921972Y400359D01*
X921981Y400426D01*
X922047Y400619D01*
X922390Y403229D01*
X922381Y403366D01*
X922408Y403500D01*
X922381Y403634D01*
X922390Y403770D01*
X922047Y406381D01*
X921981Y406574D01*
X921972Y406641D01*
X921946Y406703D01*
X921907Y406903D01*
X920899Y409336D01*
X920786Y409506D01*
X920760Y409568D01*
X920719Y409621D01*
X920629Y409804D01*
X919026Y411893D01*
X918872Y412028D01*
X918831Y412081D01*
X918778Y412122D01*
X918643Y412276D01*
X916554Y413879D01*
X916372Y413969D01*
X916318Y414010D01*
X916255Y414036D01*
X916086Y414149D01*
X913653Y415157D01*
X913453Y415196D01*
X913391Y415222D01*
X913324Y415231D01*
X913131Y415297D01*
X910520Y415640D01*
D02*
G37*
G36*
X229231Y423188D02*
X226952Y422734D01*
X225019Y421443D01*
X223728Y419511D01*
X223275Y417231D01*
X223728Y414952D01*
X225019Y413019D01*
X226952Y411728D01*
X229231Y411275D01*
X231511Y411728D01*
X233443Y413019D01*
X234734Y414952D01*
X235188Y417231D01*
X234734Y419511D01*
X233443Y421443D01*
X231511Y422734D01*
X229231Y423188D01*
D02*
G37*
G36*
X871750Y422957D02*
X869471Y422503D01*
X867538Y421212D01*
X866247Y419280D01*
X865794Y417000D01*
X866247Y414721D01*
X867538Y412788D01*
X869471Y411497D01*
X871750Y411044D01*
X874030Y411497D01*
X875962Y412788D01*
X877253Y414721D01*
X877707Y417000D01*
X877253Y419280D01*
X875962Y421212D01*
X874030Y422503D01*
X871750Y422957D01*
D02*
G37*
G36*
X22000Y430014D02*
X19512Y429687D01*
X17193Y428726D01*
X15202Y427198D01*
X13674Y425207D01*
X12713Y422888D01*
X12386Y420400D01*
X12713Y417912D01*
X13674Y415593D01*
X15202Y413602D01*
X17193Y412074D01*
X19512Y411113D01*
X22000Y410786D01*
X24488Y411113D01*
X26807Y412074D01*
X28798Y413602D01*
X30326Y415593D01*
X31287Y417912D01*
X31614Y420400D01*
X31287Y422888D01*
X30326Y425207D01*
X28798Y427198D01*
X26807Y428726D01*
X24488Y429687D01*
X22000Y430014D01*
D02*
G37*
G36*
X644750Y418456D02*
X642471Y418003D01*
X640538Y416712D01*
X639247Y414779D01*
X638794Y412500D01*
X639247Y410220D01*
X640538Y408288D01*
X641768Y407467D01*
X641846Y405686D01*
X640918Y405065D01*
X640377Y404257D01*
X640282Y404224D01*
X638614Y404361D01*
X637712Y405712D01*
X635779Y407003D01*
X633500Y407457D01*
X631221Y407003D01*
X629288Y405712D01*
X627997Y403779D01*
X627544Y401500D01*
X627997Y399221D01*
X629288Y397288D01*
X631221Y395997D01*
X633500Y395544D01*
X635779Y395997D01*
X637712Y397288D01*
X638252Y398097D01*
X638348Y398130D01*
X640015Y397992D01*
X640918Y396642D01*
X642850Y395350D01*
X645129Y394897D01*
X647409Y395350D01*
X649341Y396642D01*
X650632Y398574D01*
X651086Y400854D01*
X650632Y403133D01*
X649341Y405065D01*
X648112Y405887D01*
X648034Y407668D01*
X648962Y408288D01*
X650253Y410220D01*
X650706Y412500D01*
X650253Y414779D01*
X648962Y416712D01*
X647029Y418003D01*
X644750Y418456D01*
D02*
G37*
G36*
X324990Y400956D02*
X322710Y400503D01*
X320778Y399212D01*
X319487Y397279D01*
X319033Y395000D01*
X319487Y392721D01*
X320778Y390788D01*
X322710Y389497D01*
X324990Y389044D01*
X327269Y389497D01*
X329202Y390788D01*
X330493Y392721D01*
X330946Y395000D01*
X330493Y397279D01*
X329202Y399212D01*
X327269Y400503D01*
X324990Y400956D01*
D02*
G37*
G36*
X485000Y399706D02*
X482720Y399253D01*
X480788Y397962D01*
X479497Y396030D01*
X479044Y393750D01*
X479497Y391471D01*
X480788Y389538D01*
X482720Y388247D01*
X485000Y387794D01*
X487279Y388247D01*
X489212Y389538D01*
X490503Y391471D01*
X490956Y393750D01*
X490503Y396030D01*
X489212Y397962D01*
X487279Y399253D01*
X485000Y399706D01*
D02*
G37*
G36*
X442750Y398706D02*
X440471Y398253D01*
X438538Y396962D01*
X437247Y395029D01*
X436794Y392750D01*
X437247Y390471D01*
X438538Y388538D01*
X440471Y387247D01*
X442750Y386794D01*
X445029Y387247D01*
X446962Y388538D01*
X448253Y390471D01*
X448707Y392750D01*
X448253Y395029D01*
X446962Y396962D01*
X445029Y398253D01*
X442750Y398706D01*
D02*
G37*
G36*
X296500Y393737D02*
X294221Y393284D01*
X292288Y391992D01*
X290997Y390060D01*
X290543Y387780D01*
X290694Y387024D01*
X289398Y385728D01*
X288250Y385956D01*
X285970Y385503D01*
X284038Y384212D01*
X282747Y382279D01*
X282293Y380000D01*
X282747Y377721D01*
X284038Y375788D01*
X285970Y374497D01*
X288250Y374044D01*
X290529Y374497D01*
X292462Y375788D01*
X293753Y377721D01*
X294206Y380000D01*
X294056Y380756D01*
X295352Y382052D01*
X296500Y381824D01*
X298779Y382277D01*
X300712Y383569D01*
X302003Y385501D01*
X302456Y387780D01*
X302003Y390060D01*
X300712Y391992D01*
X298779Y393284D01*
X296500Y393737D01*
D02*
G37*
G36*
X22000Y404614D02*
X19512Y404287D01*
X17193Y403326D01*
X15202Y401798D01*
X13674Y399807D01*
X12713Y397488D01*
X12386Y395000D01*
X12713Y392512D01*
X13674Y390193D01*
X15202Y388202D01*
X17193Y386674D01*
X19512Y385713D01*
X22000Y385386D01*
X24488Y385713D01*
X26807Y386674D01*
X28798Y388202D01*
X30326Y390193D01*
X31287Y392512D01*
X31614Y395000D01*
X31287Y397488D01*
X30326Y399807D01*
X28798Y401798D01*
X26807Y403326D01*
X24488Y404287D01*
X22000Y404614D01*
D02*
G37*
G36*
X510500Y395706D02*
X508220Y395253D01*
X506288Y393962D01*
X504997Y392029D01*
X504543Y389750D01*
X504997Y387471D01*
X506288Y385538D01*
X508220Y384247D01*
X510500Y383793D01*
X512779Y384247D01*
X514712Y385538D01*
X516003Y387471D01*
X516456Y389750D01*
X516003Y392029D01*
X514712Y393962D01*
X512779Y395253D01*
X510500Y395706D01*
D02*
G37*
G36*
X398134Y394706D02*
X395855Y394253D01*
X393923Y392962D01*
X392631Y391029D01*
X392178Y388750D01*
X392631Y386471D01*
X393923Y384538D01*
X395855Y383247D01*
X398134Y382794D01*
X400414Y383247D01*
X402346Y384538D01*
X403637Y386471D01*
X404091Y388750D01*
X403637Y391029D01*
X402346Y392962D01*
X400414Y394253D01*
X398134Y394706D01*
D02*
G37*
G36*
X372250Y391456D02*
X369971Y391003D01*
X368038Y389712D01*
X366747Y387779D01*
X366294Y385500D01*
X366747Y383220D01*
X368038Y381288D01*
X369971Y379997D01*
X372250Y379543D01*
X374529Y379997D01*
X376462Y381288D01*
X377753Y383220D01*
X378206Y385500D01*
X377753Y387779D01*
X376462Y389712D01*
X374529Y391003D01*
X372250Y391456D01*
D02*
G37*
G36*
X335750Y380457D02*
X333471Y380003D01*
X331538Y378712D01*
X330247Y376780D01*
X329794Y374500D01*
X330247Y372221D01*
X331538Y370288D01*
X333471Y368997D01*
X335750Y368544D01*
X338029Y368997D01*
X339962Y370288D01*
X341253Y372221D01*
X341707Y374500D01*
X341253Y376780D01*
X339962Y378712D01*
X338029Y380003D01*
X335750Y380457D01*
D02*
G37*
G36*
X948750Y376956D02*
X946470Y376503D01*
X944538Y375212D01*
X943247Y373279D01*
X942794Y371000D01*
X943247Y368721D01*
X944538Y366788D01*
X946470Y365497D01*
X948750Y365043D01*
X951029Y365497D01*
X952962Y366788D01*
X954253Y368721D01*
X954706Y371000D01*
X954253Y373279D01*
X952962Y375212D01*
X951029Y376503D01*
X948750Y376956D01*
D02*
G37*
G36*
X651130Y374308D02*
X648850Y373855D01*
X646918Y372564D01*
X645627Y370631D01*
X645173Y368352D01*
X645627Y366073D01*
X646918Y364140D01*
X648850Y362849D01*
X651130Y362396D01*
X653409Y362849D01*
X655342Y364140D01*
X656633Y366073D01*
X657086Y368352D01*
X656633Y370631D01*
X655342Y372564D01*
X653409Y373855D01*
X651130Y374308D01*
D02*
G37*
G36*
X22000Y379214D02*
X19512Y378887D01*
X17193Y377926D01*
X15202Y376398D01*
X13674Y374407D01*
X12713Y372088D01*
X12386Y369600D01*
X12713Y367112D01*
X13674Y364793D01*
X15202Y362802D01*
X17193Y361274D01*
X19512Y360313D01*
X22000Y359986D01*
X24488Y360313D01*
X26807Y361274D01*
X28798Y362802D01*
X30326Y364793D01*
X31287Y367112D01*
X31614Y369600D01*
X31287Y372088D01*
X30326Y374407D01*
X28798Y376398D01*
X26807Y377926D01*
X24488Y378887D01*
X22000Y379214D01*
D02*
G37*
G36*
X675631Y370558D02*
X673352Y370105D01*
X671419Y368814D01*
X670128Y366881D01*
X669675Y364602D01*
X670128Y362322D01*
X671419Y360390D01*
X673352Y359099D01*
X675631Y358645D01*
X677910Y359099D01*
X679843Y360390D01*
X681134Y362322D01*
X681587Y364602D01*
X681134Y366881D01*
X679843Y368814D01*
X677910Y370105D01*
X675631Y370558D01*
D02*
G37*
G36*
X316750Y370206D02*
X314471Y369753D01*
X312538Y368462D01*
X311247Y366529D01*
X310794Y364250D01*
X311247Y361970D01*
X312538Y360038D01*
X314471Y358747D01*
X316750Y358293D01*
X319030Y358747D01*
X320962Y360038D01*
X322253Y361970D01*
X322706Y364250D01*
X322253Y366529D01*
X320962Y368462D01*
X319030Y369753D01*
X316750Y370206D01*
D02*
G37*
G36*
X238250Y363206D02*
X235970Y362753D01*
X234038Y361462D01*
X232747Y359529D01*
X232293Y357250D01*
X232747Y354971D01*
X234038Y353038D01*
X235970Y351747D01*
X238250Y351294D01*
X240529Y351747D01*
X242462Y353038D01*
X243753Y354971D01*
X244206Y357250D01*
X243753Y359529D01*
X242462Y361462D01*
X240529Y362753D01*
X238250Y363206D01*
D02*
G37*
G36*
X591250Y361956D02*
X588971Y361503D01*
X587038Y360212D01*
X585747Y358279D01*
X585294Y356000D01*
X585747Y353721D01*
X587038Y351788D01*
X588971Y350497D01*
X591250Y350043D01*
X593529Y350497D01*
X595462Y351788D01*
X596753Y353721D01*
X597206Y356000D01*
X596753Y358279D01*
X595462Y360212D01*
X593529Y361503D01*
X591250Y361956D01*
D02*
G37*
G36*
X904892Y367058D02*
X902613Y366605D01*
X900680Y365313D01*
X899389Y363381D01*
X898936Y361102D01*
X899389Y358822D01*
X900680Y356890D01*
X902613Y355599D01*
X904892Y355145D01*
X906066Y355379D01*
X906997Y354029D01*
X906544Y351750D01*
X906997Y349470D01*
X908288Y347538D01*
X910221Y346247D01*
X912500Y345793D01*
X914780Y346247D01*
X916712Y347538D01*
X918003Y349470D01*
X918456Y351750D01*
X918003Y354029D01*
X916712Y355962D01*
X914780Y357253D01*
X912500Y357706D01*
X911327Y357473D01*
X910395Y358822D01*
X910849Y361102D01*
X910395Y363381D01*
X909104Y365313D01*
X907172Y366605D01*
X904892Y367058D01*
D02*
G37*
G36*
X302613Y357058D02*
X300333Y356604D01*
X298401Y355313D01*
X297110Y353381D01*
X296656Y351101D01*
X297110Y348822D01*
X298401Y346889D01*
X300333Y345598D01*
X302613Y345145D01*
X304892Y345598D01*
X306825Y346889D01*
X308116Y348822D01*
X308569Y351101D01*
X308116Y353381D01*
X306825Y355313D01*
X304892Y356604D01*
X302613Y357058D01*
D02*
G37*
G36*
X636500Y356706D02*
X634221Y356253D01*
X632288Y354962D01*
X630997Y353029D01*
X630544Y350750D01*
X630997Y348471D01*
X632288Y346538D01*
X634221Y345247D01*
X636500Y344794D01*
X638779Y345247D01*
X640712Y346538D01*
X642003Y348471D01*
X642456Y350750D01*
X642003Y353029D01*
X640712Y354962D01*
X638779Y356253D01*
X636500Y356706D01*
D02*
G37*
G36*
X437500Y362706D02*
X435221Y362253D01*
X433288Y360962D01*
X431997Y359030D01*
X431544Y356750D01*
X431997Y354471D01*
X433288Y352538D01*
X435221Y351247D01*
X437500Y350794D01*
X439780Y351247D01*
X440249Y351561D01*
X441621Y350644D01*
X441294Y349000D01*
X441747Y346721D01*
X443038Y344788D01*
X444971Y343497D01*
X447250Y343044D01*
X449529Y343497D01*
X451462Y344788D01*
X452630Y346537D01*
X453369Y346575D01*
X454216Y346376D01*
X454247Y346221D01*
X455538Y344288D01*
X457471Y342997D01*
X459750Y342544D01*
X462029Y342997D01*
X463962Y344288D01*
X465253Y346221D01*
X465706Y348500D01*
X465253Y350779D01*
X463962Y352712D01*
X462029Y354003D01*
X459750Y354456D01*
X457471Y354003D01*
X455538Y352712D01*
X454370Y350963D01*
X453631Y350925D01*
X452784Y351124D01*
X452753Y351279D01*
X451462Y353212D01*
X449529Y354503D01*
X447250Y354957D01*
X444971Y354503D01*
X444501Y354189D01*
X443129Y355106D01*
X443456Y356750D01*
X443003Y359030D01*
X441712Y360962D01*
X439780Y362253D01*
X437500Y362706D01*
D02*
G37*
G36*
X692750Y352956D02*
X690471Y352503D01*
X688538Y351212D01*
X687247Y349279D01*
X686794Y347000D01*
X687247Y344720D01*
X688538Y342788D01*
X690471Y341497D01*
X692750Y341044D01*
X695029Y341497D01*
X696962Y342788D01*
X698253Y344720D01*
X698707Y347000D01*
X698253Y349279D01*
X696962Y351212D01*
X695029Y352503D01*
X692750Y352956D01*
D02*
G37*
G36*
X578500Y348456D02*
X576221Y348003D01*
X574288Y346712D01*
X572997Y344779D01*
X572544Y342500D01*
X572997Y340221D01*
X574288Y338288D01*
X576221Y336997D01*
X578500Y336544D01*
X580779Y336997D01*
X582712Y338288D01*
X584003Y340221D01*
X584456Y342500D01*
X584003Y344779D01*
X582712Y346712D01*
X580779Y348003D01*
X578500Y348456D01*
D02*
G37*
G36*
X481750Y347706D02*
X479471Y347253D01*
X477538Y345962D01*
X476247Y344029D01*
X475794Y341750D01*
X476247Y339470D01*
X477538Y337538D01*
X479471Y336247D01*
X481750Y335793D01*
X484030Y336247D01*
X485962Y337538D01*
X487253Y339470D01*
X487706Y341750D01*
X487253Y344029D01*
X485962Y345962D01*
X484030Y347253D01*
X481750Y347706D01*
D02*
G37*
G36*
X947500Y346956D02*
X945220Y346503D01*
X943288Y345212D01*
X941997Y343279D01*
X941544Y341000D01*
X941997Y338721D01*
X943288Y336788D01*
X945220Y335497D01*
X947500Y335043D01*
X949779Y335497D01*
X951712Y336788D01*
X953003Y338721D01*
X953456Y341000D01*
X953003Y343279D01*
X951712Y345212D01*
X949779Y346503D01*
X947500Y346956D01*
D02*
G37*
G36*
X29500Y353772D02*
X14500D01*
X13707Y353614D01*
X13035Y353165D01*
X12586Y352493D01*
X12428Y351700D01*
Y336700D01*
X12586Y335907D01*
X13035Y335235D01*
X13707Y334786D01*
X14500Y334628D01*
X29500D01*
X30293Y334786D01*
X30965Y335235D01*
X31414Y335907D01*
X31572Y336700D01*
Y351700D01*
X31414Y352493D01*
X30965Y353165D01*
X30293Y353614D01*
X29500Y353772D01*
D02*
G37*
G36*
X619750Y341956D02*
X617471Y341503D01*
X615538Y340212D01*
X614247Y338279D01*
X613793Y336000D01*
X614186Y334026D01*
X613570Y333108D01*
X613105Y332687D01*
X611750Y332957D01*
X609471Y332503D01*
X607538Y331212D01*
X606247Y329280D01*
X605865Y327360D01*
X605272Y326756D01*
X604372Y326334D01*
X602500Y326707D01*
X600221Y326253D01*
X598288Y324962D01*
X596997Y323030D01*
X596544Y320750D01*
X596997Y318471D01*
X598288Y316538D01*
X600221Y315247D01*
X602500Y314794D01*
X604780Y315247D01*
X606712Y316538D01*
X608003Y318471D01*
X608385Y320390D01*
X608978Y320994D01*
X609878Y321416D01*
X611750Y321044D01*
X614030Y321497D01*
X615962Y322788D01*
X617253Y324721D01*
X617706Y327000D01*
X617314Y328974D01*
X617930Y329892D01*
X618395Y330313D01*
X619750Y330044D01*
X622029Y330497D01*
X623962Y331788D01*
X625253Y333721D01*
X625706Y336000D01*
X625253Y338279D01*
X623962Y340212D01*
X622029Y341503D01*
X619750Y341956D01*
D02*
G37*
G36*
X235500Y343456D02*
X233221Y343003D01*
X231288Y341712D01*
X229997Y339780D01*
X229544Y337500D01*
X229997Y335221D01*
X231288Y333288D01*
X233221Y331997D01*
X235500Y331544D01*
X237780Y331997D01*
X239712Y333288D01*
X241003Y335221D01*
X241457Y337500D01*
X241003Y339780D01*
X239712Y341712D01*
X237780Y343003D01*
X235500Y343456D01*
D02*
G37*
G36*
X517750Y341956D02*
X515471Y341503D01*
X513538Y340212D01*
X512247Y338279D01*
X511794Y336000D01*
X512247Y333721D01*
X513538Y331788D01*
X515471Y330497D01*
X517750Y330044D01*
X520029Y330497D01*
X521962Y331788D01*
X523253Y333721D01*
X523706Y336000D01*
X523253Y338279D01*
X521962Y340212D01*
X520029Y341503D01*
X517750Y341956D01*
D02*
G37*
G36*
X348250Y340206D02*
X345971Y339753D01*
X344038Y338462D01*
X342747Y336530D01*
X342294Y334250D01*
X342747Y331971D01*
X344038Y330038D01*
X345971Y328747D01*
X348250Y328294D01*
X350529Y328747D01*
X352462Y330038D01*
X353753Y331971D01*
X354207Y334250D01*
X353753Y336530D01*
X352462Y338462D01*
X350529Y339753D01*
X348250Y340206D01*
D02*
G37*
G36*
X566250Y339706D02*
X563971Y339253D01*
X562038Y337962D01*
X560747Y336030D01*
X560294Y333750D01*
X560747Y331471D01*
X562038Y329538D01*
X563971Y328247D01*
X566250Y327794D01*
X568529Y328247D01*
X570462Y329538D01*
X571753Y331471D01*
X572206Y333750D01*
X571753Y336030D01*
X570462Y337962D01*
X568529Y339253D01*
X566250Y339706D01*
D02*
G37*
G36*
X706133Y339057D02*
X703853Y338603D01*
X701921Y337312D01*
X700629Y335380D01*
X700176Y333100D01*
X700629Y330821D01*
X701921Y328888D01*
X703853Y327597D01*
X706133Y327144D01*
X708412Y327597D01*
X710344Y328888D01*
X711636Y330821D01*
X712089Y333100D01*
X711636Y335380D01*
X710344Y337312D01*
X708412Y338603D01*
X706133Y339057D01*
D02*
G37*
G36*
X278499Y333956D02*
X276219Y333503D01*
X274287Y332212D01*
X272996Y330280D01*
X272542Y328000D01*
X272996Y325721D01*
X273092Y325577D01*
X273074Y325536D01*
X272084Y324342D01*
X270250Y324706D01*
X267971Y324253D01*
X266038Y322962D01*
X264747Y321030D01*
X264294Y318750D01*
X264747Y316471D01*
X266038Y314538D01*
X267971Y313247D01*
X270250Y312794D01*
X272530Y313247D01*
X274462Y314538D01*
X275753Y316471D01*
X276206Y318750D01*
X275753Y321030D01*
X275657Y321173D01*
X275674Y321214D01*
X276665Y322408D01*
X278499Y322044D01*
X280778Y322497D01*
X282711Y323788D01*
X284002Y325721D01*
X284455Y328000D01*
X284002Y330280D01*
X282711Y332212D01*
X280778Y333503D01*
X278499Y333956D01*
D02*
G37*
G36*
X874750Y366456D02*
X872471Y366003D01*
X870538Y364712D01*
X869247Y362779D01*
X868794Y360500D01*
X869239Y358263D01*
X869234Y358195D01*
X868450Y356670D01*
X866861Y356354D01*
X864929Y355063D01*
X863637Y353131D01*
X863184Y350851D01*
X863637Y348572D01*
X864929Y346639D01*
X864798Y344893D01*
X863929Y344313D01*
X862637Y342380D01*
X862184Y340101D01*
X862637Y337821D01*
X863929Y335889D01*
X863928Y334056D01*
X863038Y333462D01*
X861747Y331529D01*
X861294Y329250D01*
X861747Y326970D01*
X863038Y325038D01*
X864971Y323747D01*
X867250Y323293D01*
X869529Y323747D01*
X871462Y325038D01*
X872753Y326970D01*
X873206Y329250D01*
X872753Y331529D01*
X871462Y333462D01*
X871462Y335294D01*
X872352Y335889D01*
X873643Y337821D01*
X874097Y340101D01*
X873643Y342380D01*
X872352Y344312D01*
X872483Y346058D01*
X873352Y346639D01*
X874643Y348572D01*
X875097Y350851D01*
X874652Y353088D01*
X874656Y353156D01*
X875441Y354681D01*
X877029Y354997D01*
X878962Y356288D01*
X880253Y358220D01*
X880706Y360500D01*
X880253Y362779D01*
X878962Y364712D01*
X877029Y366003D01*
X874750Y366456D01*
D02*
G37*
G36*
X380719Y334838D02*
X378439Y334385D01*
X376507Y333094D01*
X375216Y331161D01*
X374762Y328882D01*
X375216Y326602D01*
X376507Y324670D01*
X378439Y323379D01*
X380719Y322925D01*
X382998Y323379D01*
X384930Y324670D01*
X386222Y326602D01*
X386675Y328882D01*
X386222Y331161D01*
X384930Y333094D01*
X382998Y334385D01*
X380719Y334838D01*
D02*
G37*
G36*
X678500Y331456D02*
X676221Y331003D01*
X674288Y329712D01*
X672997Y327780D01*
X672544Y325500D01*
X672997Y323221D01*
X674288Y321288D01*
X676221Y319997D01*
X678500Y319544D01*
X680779Y319997D01*
X682712Y321288D01*
X684003Y323221D01*
X684456Y325500D01*
X684003Y327780D01*
X682712Y329712D01*
X680779Y331003D01*
X678500Y331456D01*
D02*
G37*
G36*
X223500Y328707D02*
X221221Y328253D01*
X219288Y326962D01*
X217997Y325029D01*
X217544Y322750D01*
X217997Y320471D01*
X219288Y318538D01*
X221221Y317247D01*
X223500Y316793D01*
X225779Y317247D01*
X227712Y318538D01*
X229003Y320471D01*
X229457Y322750D01*
X229003Y325029D01*
X227712Y326962D01*
X225779Y328253D01*
X223500Y328707D01*
D02*
G37*
G36*
X904392Y337557D02*
X902113Y337103D01*
X900180Y335812D01*
X898889Y333880D01*
X898436Y331600D01*
X898889Y329321D01*
X900180Y327388D01*
X901675Y326390D01*
X902105Y325633D01*
X902087Y324548D01*
X901139Y323129D01*
X900686Y320850D01*
X901139Y318570D01*
X902430Y316638D01*
X904363Y315347D01*
X906642Y314893D01*
X908922Y315347D01*
X910854Y316638D01*
X912145Y318570D01*
X912599Y320850D01*
X912145Y323129D01*
X910854Y325061D01*
X909359Y326060D01*
X908929Y326816D01*
X908947Y327902D01*
X909895Y329321D01*
X910349Y331600D01*
X909895Y333880D01*
X908604Y335812D01*
X906672Y337103D01*
X904392Y337557D01*
D02*
G37*
G36*
X182000Y326707D02*
X179720Y326253D01*
X177788Y324962D01*
X176497Y323030D01*
X176043Y320750D01*
X176497Y318471D01*
X177788Y316538D01*
X179720Y315247D01*
X182000Y314794D01*
X184279Y315247D01*
X186212Y316538D01*
X187503Y318471D01*
X187956Y320750D01*
X187503Y323030D01*
X186212Y324962D01*
X184279Y326253D01*
X182000Y326707D01*
D02*
G37*
G36*
X328750Y321706D02*
X326471Y321253D01*
X324538Y319962D01*
X323247Y318029D01*
X322794Y315750D01*
X323247Y313470D01*
X324538Y311538D01*
X326471Y310247D01*
X328750Y309793D01*
X331030Y310247D01*
X332962Y311538D01*
X334253Y313470D01*
X334706Y315750D01*
X334253Y318029D01*
X332962Y319962D01*
X331030Y321253D01*
X328750Y321706D01*
D02*
G37*
G36*
X440750Y320206D02*
X438470Y319753D01*
X436538Y318462D01*
X435247Y316529D01*
X434794Y314250D01*
X435247Y311971D01*
X436538Y310038D01*
X438470Y308747D01*
X440750Y308293D01*
X443029Y308747D01*
X444962Y310038D01*
X446253Y311971D01*
X446706Y314250D01*
X446253Y316529D01*
X444962Y318462D01*
X443029Y319753D01*
X440750Y320206D01*
D02*
G37*
G36*
X947000Y316956D02*
X944721Y316503D01*
X942788Y315212D01*
X941497Y313279D01*
X941043Y311000D01*
X941497Y308720D01*
X942788Y306788D01*
X944721Y305497D01*
X947000Y305044D01*
X949279Y305497D01*
X951212Y306788D01*
X952503Y308720D01*
X952956Y311000D01*
X952503Y313279D01*
X951212Y315212D01*
X949279Y316503D01*
X947000Y316956D01*
D02*
G37*
G36*
X660750Y313014D02*
X658471Y312561D01*
X656538Y311269D01*
X655247Y309337D01*
X654794Y307058D01*
X655247Y304778D01*
X656538Y302846D01*
X658471Y301555D01*
X660750Y301101D01*
X663029Y301555D01*
X664962Y302846D01*
X666253Y304778D01*
X666706Y307058D01*
X666253Y309337D01*
X664962Y311269D01*
X663029Y312561D01*
X660750Y313014D01*
D02*
G37*
G36*
X616000Y312081D02*
X613721Y311627D01*
X611788Y310336D01*
X610497Y308404D01*
X610044Y306124D01*
X610497Y303845D01*
X611788Y301912D01*
X613721Y300621D01*
X616000Y300168D01*
X618279Y300621D01*
X620212Y301912D01*
X621503Y303845D01*
X621956Y306124D01*
X621503Y308404D01*
X620212Y310336D01*
X618279Y311627D01*
X616000Y312081D01*
D02*
G37*
G36*
X462371Y312055D02*
X460091Y311602D01*
X458159Y310311D01*
X456867Y308378D01*
X456414Y306099D01*
X456867Y303820D01*
X457027Y303580D01*
X456191Y302089D01*
X454471Y301747D01*
X452538Y300455D01*
X451247Y298523D01*
X450794Y296243D01*
X451247Y293964D01*
X452538Y292032D01*
X454471Y290740D01*
X456750Y290287D01*
X459030Y290740D01*
X460962Y292032D01*
X462253Y293964D01*
X462706Y296243D01*
X462253Y298523D01*
X462093Y298762D01*
X462929Y300254D01*
X464650Y300596D01*
X466582Y301887D01*
X467874Y303820D01*
X468327Y306099D01*
X467874Y308378D01*
X466582Y310311D01*
X464650Y311602D01*
X462371Y312055D01*
D02*
G37*
G36*
X199250Y299207D02*
X196971Y298753D01*
X195038Y297462D01*
X193747Y295529D01*
X193293Y293250D01*
X193747Y290971D01*
X195038Y289038D01*
X196971Y287747D01*
X199250Y287294D01*
X201529Y287747D01*
X203462Y289038D01*
X204753Y290971D01*
X205206Y293250D01*
X204753Y295529D01*
X203462Y297462D01*
X201529Y298753D01*
X199250Y299207D01*
D02*
G37*
G36*
X747635Y295555D02*
X745355Y295101D01*
X743423Y293810D01*
X742132Y291878D01*
X741678Y289598D01*
X742132Y287319D01*
X743423Y285386D01*
X745355Y284095D01*
X747635Y283642D01*
X749914Y284095D01*
X751846Y285386D01*
X753138Y287319D01*
X753591Y289598D01*
X753138Y291878D01*
X751846Y293810D01*
X749914Y295101D01*
X747635Y295555D01*
D02*
G37*
G36*
X275500Y294457D02*
X273221Y294003D01*
X271288Y292712D01*
X269997Y290779D01*
X269544Y288500D01*
X269997Y286221D01*
X271288Y284288D01*
X273221Y282997D01*
X275500Y282544D01*
X277780Y282997D01*
X279712Y284288D01*
X281003Y286221D01*
X281457Y288500D01*
X281003Y290779D01*
X279712Y292712D01*
X277780Y294003D01*
X275500Y294457D01*
D02*
G37*
G36*
X235860Y290304D02*
X233580Y289851D01*
X231648Y288560D01*
X230357Y286627D01*
X229903Y284348D01*
X230204Y282833D01*
X229028Y281522D01*
X227609Y281804D01*
X225330Y281350D01*
X223397Y280059D01*
X222106Y278127D01*
X221653Y275847D01*
X221793Y275142D01*
X220715Y274064D01*
X220000Y274207D01*
X217721Y273753D01*
X215788Y272462D01*
X214497Y270529D01*
X214044Y268250D01*
X214497Y265971D01*
X215788Y264038D01*
X217721Y262747D01*
X220000Y262294D01*
X222279Y262747D01*
X224212Y264038D01*
X225503Y265971D01*
X225956Y268250D01*
X225816Y268956D01*
X226894Y270033D01*
X227609Y269891D01*
X229889Y270344D01*
X231821Y271636D01*
X233112Y273568D01*
X233566Y275847D01*
X233264Y277362D01*
X234440Y278674D01*
X235860Y278391D01*
X238139Y278845D01*
X240071Y280136D01*
X241363Y282068D01*
X241816Y284348D01*
X241363Y286627D01*
X240071Y288560D01*
X238139Y289851D01*
X235860Y290304D01*
D02*
G37*
G36*
X661500Y288319D02*
X659221Y287866D01*
X657288Y286575D01*
X655997Y284642D01*
X655544Y282363D01*
X655728Y281434D01*
X654651Y280356D01*
X653722Y280541D01*
X651442Y280088D01*
X649510Y278796D01*
X648219Y276864D01*
X647765Y274585D01*
X647950Y273656D01*
X646872Y272578D01*
X645944Y272763D01*
X643664Y272309D01*
X641732Y271018D01*
X640441Y269086D01*
X639987Y266806D01*
X640172Y265878D01*
X639094Y264800D01*
X638165Y264985D01*
X635886Y264531D01*
X633954Y263240D01*
X632662Y261308D01*
X632209Y259028D01*
X632394Y258099D01*
X631316Y257022D01*
X630387Y257206D01*
X628108Y256753D01*
X626175Y255462D01*
X624884Y253529D01*
X624431Y251250D01*
X624884Y248971D01*
X626175Y247038D01*
X628108Y245747D01*
X630387Y245294D01*
X631316Y245478D01*
X632394Y244401D01*
X632209Y243472D01*
X632662Y241192D01*
X633954Y239260D01*
X635886Y237969D01*
X638165Y237515D01*
X639094Y237700D01*
X640172Y236623D01*
X639987Y235694D01*
X640441Y233414D01*
X641732Y231482D01*
X643664Y230191D01*
X645944Y229737D01*
X646872Y229922D01*
X647950Y228844D01*
X647765Y227915D01*
X648219Y225636D01*
X649510Y223704D01*
X651442Y222412D01*
X653722Y221959D01*
X654651Y222144D01*
X655728Y221066D01*
X655544Y220137D01*
X655997Y217858D01*
X657288Y215926D01*
X659221Y214634D01*
X661500Y214181D01*
X663779Y214634D01*
X665712Y215926D01*
X667003Y217858D01*
X667456Y220137D01*
X667272Y221066D01*
X668349Y222144D01*
X669278Y221959D01*
X671558Y222412D01*
X673490Y223704D01*
X674781Y225636D01*
X675235Y227915D01*
X675050Y228844D01*
X676127Y229922D01*
X677056Y229737D01*
X679336Y230191D01*
X681268Y231482D01*
X682559Y233414D01*
X683013Y235694D01*
X682828Y236623D01*
X683906Y237700D01*
X684835Y237516D01*
X687114Y237969D01*
X689046Y239260D01*
X690338Y241192D01*
X690791Y243472D01*
X690606Y244401D01*
X691684Y245478D01*
X692613Y245294D01*
X694892Y245747D01*
X696824Y247038D01*
X698116Y248971D01*
X698569Y251250D01*
X698116Y253529D01*
X696824Y255462D01*
X694892Y256753D01*
X692613Y257206D01*
X691684Y257022D01*
X690606Y258099D01*
X690791Y259028D01*
X690338Y261308D01*
X689046Y263240D01*
X687114Y264531D01*
X684835Y264985D01*
X683906Y264800D01*
X682828Y265877D01*
X683013Y266806D01*
X682559Y269086D01*
X681268Y271018D01*
X679336Y272309D01*
X677056Y272763D01*
X676127Y272578D01*
X675050Y273656D01*
X675235Y274585D01*
X674781Y276864D01*
X673490Y278796D01*
X671558Y280088D01*
X669278Y280541D01*
X668349Y280356D01*
X667272Y281434D01*
X667456Y282363D01*
X667003Y284642D01*
X665712Y286575D01*
X663779Y287866D01*
X661500Y288319D01*
D02*
G37*
G36*
X159750Y303957D02*
X157471Y303503D01*
X155538Y302212D01*
X154247Y300280D01*
X153793Y298000D01*
X154247Y295721D01*
X155538Y293788D01*
X156710Y293005D01*
X156790Y292544D01*
X156593Y291251D01*
X155038Y290212D01*
X153747Y288279D01*
X153294Y286000D01*
X153747Y283721D01*
X155038Y281788D01*
X156971Y280497D01*
X159250Y280044D01*
X161529Y280497D01*
X163462Y281788D01*
X164753Y283721D01*
X165207Y286000D01*
X164753Y288279D01*
X163462Y290212D01*
X162290Y290995D01*
X162210Y291456D01*
X162407Y292749D01*
X163962Y293788D01*
X165253Y295721D01*
X165707Y298000D01*
X165253Y300280D01*
X163962Y302212D01*
X162029Y303503D01*
X159750Y303957D01*
D02*
G37*
G36*
X637750Y291206D02*
X635471Y290753D01*
X633538Y289462D01*
X632247Y287529D01*
X631794Y285250D01*
X632247Y282971D01*
X633538Y281038D01*
X635471Y279747D01*
X637750Y279293D01*
X640030Y279747D01*
X641962Y281038D01*
X643253Y282971D01*
X643707Y285250D01*
X643253Y287529D01*
X641962Y289462D01*
X640030Y290753D01*
X637750Y291206D01*
D02*
G37*
G36*
X399250Y316206D02*
X396971Y315753D01*
X395038Y314462D01*
X393747Y312529D01*
X393293Y310250D01*
X393747Y307971D01*
X395038Y306038D01*
X396971Y304747D01*
X399250Y304293D01*
X400858Y304613D01*
X402125Y303548D01*
X402178Y303440D01*
X401912Y302099D01*
X402365Y299819D01*
X403656Y297887D01*
X405588Y296596D01*
X407868Y296142D01*
X409513Y296469D01*
X410429Y295098D01*
X410115Y294628D01*
X409662Y292348D01*
X410115Y290069D01*
X411406Y288136D01*
X413339Y286845D01*
X415618Y286392D01*
X416293Y286526D01*
X417589Y285230D01*
X417543Y285000D01*
X417997Y282721D01*
X419288Y280788D01*
X421221Y279497D01*
X423500Y279044D01*
X425779Y279497D01*
X427712Y280788D01*
X429003Y282721D01*
X429456Y285000D01*
X429003Y287279D01*
X427712Y289212D01*
X425779Y290503D01*
X423500Y290956D01*
X422825Y290822D01*
X421529Y292118D01*
X421575Y292348D01*
X421121Y294628D01*
X419830Y296560D01*
X417898Y297851D01*
X415618Y298305D01*
X413973Y297978D01*
X413057Y299349D01*
X413371Y299819D01*
X413824Y302099D01*
X413371Y304378D01*
X412080Y306311D01*
X410147Y307602D01*
X407868Y308055D01*
X406260Y307735D01*
X404993Y308800D01*
X404940Y308908D01*
X405206Y310250D01*
X404753Y312529D01*
X403462Y314462D01*
X401529Y315753D01*
X399250Y316206D01*
D02*
G37*
G36*
X867250Y313956D02*
X864971Y313503D01*
X863038Y312212D01*
X861747Y310279D01*
X861294Y308000D01*
X861747Y305721D01*
X863038Y303788D01*
X864971Y302497D01*
X865452Y302401D01*
Y300847D01*
X863720Y300503D01*
X861788Y299212D01*
X860497Y297279D01*
X860043Y295000D01*
X860497Y292721D01*
X861788Y290788D01*
X862447Y290348D01*
Y288824D01*
X861678Y288310D01*
X860387Y286377D01*
X859934Y284098D01*
X860387Y281818D01*
X861678Y279886D01*
X863611Y278595D01*
X865890Y278141D01*
X868170Y278595D01*
X870102Y279886D01*
X871393Y281818D01*
X871847Y284098D01*
X871393Y286377D01*
X870102Y288310D01*
X869443Y288750D01*
Y290274D01*
X870212Y290788D01*
X871503Y292721D01*
X871956Y295000D01*
X871503Y297279D01*
X870212Y299212D01*
X868279Y300503D01*
X867798Y300599D01*
Y302153D01*
X869529Y302497D01*
X871462Y303788D01*
X872753Y305721D01*
X873206Y308000D01*
X872753Y310279D01*
X871462Y312212D01*
X869529Y313503D01*
X867250Y313956D01*
D02*
G37*
G36*
X368500Y289706D02*
X366221Y289253D01*
X364288Y287962D01*
X362997Y286029D01*
X362543Y283750D01*
X362997Y281471D01*
X364288Y279538D01*
X366221Y278247D01*
X368500Y277794D01*
X370779Y278247D01*
X372712Y279538D01*
X374003Y281471D01*
X374456Y283750D01*
X374003Y286029D01*
X372712Y287962D01*
X370779Y289253D01*
X368500Y289706D01*
D02*
G37*
G36*
X573376Y298555D02*
X571096Y298101D01*
X569164Y296810D01*
X567873Y294878D01*
X567420Y292598D01*
X567873Y290319D01*
X569164Y288386D01*
X571096Y287095D01*
X573376Y286642D01*
X575336Y287032D01*
X576112Y286233D01*
X576344Y285797D01*
X575497Y284529D01*
X575044Y282250D01*
X575497Y279971D01*
X576788Y278038D01*
X578721Y276747D01*
X581000Y276294D01*
X583279Y276747D01*
X585212Y278038D01*
X586503Y279971D01*
X586956Y282250D01*
X586503Y284529D01*
X585212Y286462D01*
X583279Y287753D01*
X581000Y288207D01*
X579040Y287817D01*
X578264Y288615D01*
X578032Y289052D01*
X578879Y290319D01*
X579332Y292598D01*
X578879Y294878D01*
X577588Y296810D01*
X575655Y298101D01*
X573376Y298555D01*
D02*
G37*
G36*
X904346Y307639D02*
X902066Y307186D01*
X900134Y305895D01*
X898843Y303962D01*
X898390Y301683D01*
X898843Y299403D01*
X900134Y297471D01*
X902066Y296180D01*
X903348Y295925D01*
X904049Y294232D01*
X903747Y293779D01*
X903294Y291500D01*
X903747Y289221D01*
X904049Y288768D01*
X903348Y287075D01*
X902066Y286820D01*
X900134Y285529D01*
X898843Y283597D01*
X898390Y281317D01*
X898843Y279038D01*
X900134Y277105D01*
X902066Y275814D01*
X904346Y275361D01*
X906625Y275814D01*
X908558Y277105D01*
X909849Y279038D01*
X910302Y281317D01*
X909849Y283597D01*
X909547Y284049D01*
X910248Y285742D01*
X911529Y285997D01*
X913462Y287288D01*
X914753Y289221D01*
X915207Y291500D01*
X914753Y293779D01*
X913462Y295712D01*
X911529Y297003D01*
X910248Y297258D01*
X909547Y298951D01*
X909849Y299403D01*
X910302Y301683D01*
X909849Y303962D01*
X908558Y305895D01*
X906625Y307186D01*
X904346Y307639D01*
D02*
G37*
G36*
X562250Y285207D02*
X559971Y284753D01*
X558038Y283462D01*
X556747Y281530D01*
X556294Y279250D01*
X556747Y276971D01*
X558038Y275038D01*
X559971Y273747D01*
X562250Y273294D01*
X564529Y273747D01*
X566462Y275038D01*
X567753Y276971D01*
X568206Y279250D01*
X567753Y281530D01*
X566462Y283462D01*
X564529Y284753D01*
X562250Y285207D01*
D02*
G37*
G36*
X262750Y280706D02*
X260471Y280253D01*
X258538Y278962D01*
X257247Y277029D01*
X256793Y274750D01*
X257247Y272470D01*
X258538Y270538D01*
X260471Y269247D01*
X262750Y268794D01*
X265029Y269247D01*
X266962Y270538D01*
X268253Y272470D01*
X268706Y274750D01*
X268253Y277029D01*
X266962Y278962D01*
X265029Y280253D01*
X262750Y280706D01*
D02*
G37*
G36*
X917643Y276804D02*
X915363Y276350D01*
X913431Y275059D01*
X912140Y273127D01*
X911686Y270847D01*
X912140Y268568D01*
X913431Y266635D01*
X915363Y265344D01*
X917643Y264891D01*
X919922Y265344D01*
X921855Y266635D01*
X923146Y268568D01*
X923599Y270847D01*
X923146Y273127D01*
X921855Y275059D01*
X919922Y276350D01*
X917643Y276804D01*
D02*
G37*
G36*
X442620Y272554D02*
X440340Y272100D01*
X438408Y270809D01*
X437117Y268876D01*
X436663Y266597D01*
X437117Y264318D01*
X438408Y262385D01*
X440340Y261094D01*
X442620Y260641D01*
X444899Y261094D01*
X446832Y262385D01*
X448123Y264318D01*
X448576Y266597D01*
X448123Y268876D01*
X446832Y270809D01*
X444899Y272100D01*
X442620Y272554D01*
D02*
G37*
G36*
X591250Y271957D02*
X588971Y271503D01*
X587038Y270212D01*
X585747Y268279D01*
X585294Y266000D01*
X585747Y263721D01*
X587038Y261788D01*
X588971Y260497D01*
X591250Y260044D01*
X593529Y260497D01*
X595462Y261788D01*
X596753Y263721D01*
X597206Y266000D01*
X596753Y268279D01*
X595462Y270212D01*
X593529Y271503D01*
X591250Y271957D01*
D02*
G37*
G36*
X765291Y277165D02*
X763012Y276712D01*
X761079Y275421D01*
X759788Y273488D01*
X759335Y271209D01*
X759788Y268930D01*
X761079Y266997D01*
X763012Y265706D01*
X765291Y265252D01*
X767571Y265706D01*
X769503Y266997D01*
X769600Y267141D01*
X770883Y266376D01*
X770429Y264097D01*
X770883Y261817D01*
X772174Y259885D01*
X774107Y258594D01*
X776386Y258141D01*
X778665Y258594D01*
X780598Y259885D01*
X781889Y261817D01*
X782342Y264097D01*
X781889Y266376D01*
X780598Y268309D01*
X778665Y269600D01*
X776386Y270053D01*
X774107Y269600D01*
X772174Y268309D01*
X772077Y268164D01*
X770794Y268930D01*
X771248Y271209D01*
X770794Y273488D01*
X769503Y275421D01*
X767571Y276712D01*
X765291Y277165D01*
D02*
G37*
G36*
X546250Y268957D02*
X543971Y268503D01*
X542038Y267212D01*
X540747Y265280D01*
X540294Y263000D01*
X540747Y260721D01*
X542038Y258788D01*
X543971Y257497D01*
X546250Y257044D01*
X548530Y257497D01*
X550462Y258788D01*
X551753Y260721D01*
X552206Y263000D01*
X551753Y265280D01*
X550462Y267212D01*
X548530Y268503D01*
X546250Y268957D01*
D02*
G37*
G36*
X345250Y266957D02*
X342971Y266503D01*
X341038Y265212D01*
X339747Y263279D01*
X339294Y261000D01*
X339747Y258721D01*
X341038Y256788D01*
X342971Y255497D01*
X345250Y255044D01*
X347529Y255497D01*
X349462Y256788D01*
X350753Y258721D01*
X351207Y261000D01*
X350753Y263279D01*
X349462Y265212D01*
X347529Y266503D01*
X345250Y266957D01*
D02*
G37*
G36*
X948250Y266956D02*
X945971Y266503D01*
X944038Y265212D01*
X942747Y263279D01*
X942294Y261000D01*
X942747Y258720D01*
X944038Y256788D01*
X945971Y255497D01*
X948250Y255044D01*
X950529Y255497D01*
X952462Y256788D01*
X953753Y258720D01*
X954206Y261000D01*
X953753Y263279D01*
X952462Y265212D01*
X950529Y266503D01*
X948250Y266956D01*
D02*
G37*
G36*
X419500Y263456D02*
X417221Y263003D01*
X415288Y261712D01*
X413997Y259779D01*
X413544Y257500D01*
X413997Y255221D01*
X415288Y253288D01*
X417221Y251997D01*
X419500Y251544D01*
X421779Y251997D01*
X423712Y253288D01*
X425003Y255221D01*
X425457Y257500D01*
X425003Y259779D01*
X423712Y261712D01*
X421779Y263003D01*
X419500Y263456D01*
D02*
G37*
G36*
X753750Y263207D02*
X751471Y262753D01*
X749538Y261462D01*
X748247Y259529D01*
X747794Y257250D01*
X748247Y254971D01*
X749538Y253038D01*
X751471Y251747D01*
X753750Y251294D01*
X756030Y251747D01*
X757962Y253038D01*
X759253Y254971D01*
X759706Y257250D01*
X759253Y259529D01*
X757962Y261462D01*
X756030Y262753D01*
X753750Y263207D01*
D02*
G37*
G36*
X276250Y269457D02*
X273971Y269003D01*
X272038Y267712D01*
X270747Y265779D01*
X270294Y263500D01*
X270747Y261221D01*
X272038Y259288D01*
X273971Y257997D01*
X276250Y257544D01*
X278529Y257997D01*
X279269Y258491D01*
X280368Y257393D01*
X279997Y256837D01*
X279544Y254558D01*
X279997Y252278D01*
X281288Y250346D01*
X283221Y249055D01*
X285500Y248601D01*
X287780Y249055D01*
X289712Y250346D01*
X291003Y252278D01*
X291457Y254558D01*
X291003Y256837D01*
X289712Y258769D01*
X287780Y260061D01*
X285500Y260514D01*
X283221Y260061D01*
X282481Y259566D01*
X281382Y260665D01*
X281753Y261221D01*
X282206Y263500D01*
X281753Y265779D01*
X280462Y267712D01*
X278529Y269003D01*
X276250Y269457D01*
D02*
G37*
G36*
X813500Y259457D02*
X811221Y259003D01*
X809288Y257712D01*
X807997Y255779D01*
X807543Y253500D01*
X807997Y251221D01*
X809288Y249288D01*
X811221Y247997D01*
X813500Y247544D01*
X815779Y247997D01*
X817712Y249288D01*
X819003Y251221D01*
X819456Y253500D01*
X819003Y255779D01*
X817712Y257712D01*
X815779Y259003D01*
X813500Y259457D01*
D02*
G37*
G36*
X512138Y257681D02*
X509859Y257228D01*
X507926Y255937D01*
X506635Y254004D01*
X506182Y251725D01*
X506635Y249445D01*
X507926Y247513D01*
X509859Y246222D01*
X512138Y245768D01*
X514417Y246222D01*
X516350Y247513D01*
X517641Y249445D01*
X518094Y251725D01*
X517641Y254004D01*
X516350Y255937D01*
X514417Y257228D01*
X512138Y257681D01*
D02*
G37*
G36*
X872750Y269706D02*
X870471Y269253D01*
X868538Y267962D01*
X867247Y266029D01*
X866794Y263750D01*
X867247Y261471D01*
X868273Y259935D01*
X868156Y258785D01*
X867843Y258170D01*
X866179Y257058D01*
X864887Y255126D01*
X864434Y252846D01*
X864887Y250567D01*
X866179Y248634D01*
X866779Y248233D01*
Y246709D01*
X866179Y246308D01*
X865385Y245120D01*
X864134Y244626D01*
X863502Y244836D01*
X862002Y245838D01*
X859723Y246292D01*
X857443Y245838D01*
X855511Y244547D01*
X854220Y242615D01*
X853766Y240335D01*
X854220Y238056D01*
X855511Y236123D01*
X857443Y234832D01*
X859723Y234379D01*
X862002Y234832D01*
X863934Y236123D01*
X864728Y237311D01*
X865979Y237805D01*
X866611Y237595D01*
X868111Y236593D01*
X870390Y236139D01*
X872670Y236593D01*
X874602Y237884D01*
X875893Y239816D01*
X876347Y242096D01*
X875893Y244375D01*
X874602Y246308D01*
X874002Y246709D01*
Y248233D01*
X874602Y248634D01*
X875893Y250567D01*
X876347Y252846D01*
X875893Y255126D01*
X874868Y256661D01*
X874985Y257811D01*
X875298Y258426D01*
X876962Y259538D01*
X878253Y261471D01*
X878706Y263750D01*
X878253Y266029D01*
X876962Y267962D01*
X875029Y269253D01*
X872750Y269706D01*
D02*
G37*
G36*
X221000Y256457D02*
X218721Y256003D01*
X216788Y254712D01*
X215497Y252780D01*
X215044Y250500D01*
X215497Y248221D01*
X216788Y246288D01*
X218721Y244997D01*
X221000Y244544D01*
X223279Y244997D01*
X225212Y246288D01*
X226503Y248221D01*
X226957Y250500D01*
X226503Y252780D01*
X225212Y254712D01*
X223279Y256003D01*
X221000Y256457D01*
D02*
G37*
G36*
X186000Y256135D02*
X183721Y255682D01*
X181788Y254391D01*
X180497Y252458D01*
X180044Y250179D01*
X180497Y247899D01*
X181788Y245967D01*
X183721Y244676D01*
X186000Y244223D01*
X188279Y244676D01*
X190212Y245967D01*
X191503Y247899D01*
X191957Y250179D01*
X191503Y252458D01*
X190212Y254391D01*
X188279Y255682D01*
X186000Y256135D01*
D02*
G37*
G36*
X573750Y253957D02*
X571471Y253503D01*
X569538Y252212D01*
X568247Y250280D01*
X567794Y248000D01*
X568247Y245721D01*
X569538Y243788D01*
X571471Y242497D01*
X573750Y242044D01*
X576030Y242497D01*
X577962Y243788D01*
X579253Y245721D01*
X579706Y248000D01*
X579253Y250280D01*
X577962Y252212D01*
X576030Y253503D01*
X573750Y253957D01*
D02*
G37*
G36*
X448723Y247640D02*
X446444Y247187D01*
X444511Y245895D01*
X443220Y243963D01*
X442767Y241684D01*
X443220Y239404D01*
X444511Y237472D01*
X446444Y236180D01*
X448723Y235727D01*
X451003Y236180D01*
X452935Y237472D01*
X454226Y239404D01*
X454680Y241684D01*
X454226Y243963D01*
X452935Y245895D01*
X451003Y247187D01*
X448723Y247640D01*
D02*
G37*
G36*
X544750Y244956D02*
X542471Y244503D01*
X540538Y243212D01*
X539247Y241280D01*
X538794Y239000D01*
X539247Y236721D01*
X540538Y234788D01*
X542471Y233497D01*
X544750Y233044D01*
X547029Y233497D01*
X548962Y234788D01*
X550253Y236721D01*
X550706Y239000D01*
X550253Y241280D01*
X548962Y243212D01*
X547029Y244503D01*
X544750Y244956D01*
D02*
G37*
G36*
X736500Y244706D02*
X734221Y244253D01*
X732288Y242962D01*
X730997Y241029D01*
X730544Y238750D01*
X730997Y236471D01*
X732288Y234538D01*
X734221Y233247D01*
X736500Y232794D01*
X738779Y233247D01*
X740712Y234538D01*
X742003Y236471D01*
X742457Y238750D01*
X742003Y241029D01*
X740712Y242962D01*
X738779Y244253D01*
X736500Y244706D01*
D02*
G37*
G36*
X401500Y244457D02*
X399221Y244003D01*
X397288Y242712D01*
X395997Y240779D01*
X395544Y238500D01*
X395997Y236221D01*
X397288Y234288D01*
X399221Y232997D01*
X401500Y232544D01*
X403779Y232997D01*
X405712Y234288D01*
X407003Y236221D01*
X407457Y238500D01*
X407003Y240779D01*
X405712Y242712D01*
X403779Y244003D01*
X401500Y244457D01*
D02*
G37*
G36*
X772960Y241206D02*
X770680Y240753D01*
X768748Y239462D01*
X767456Y237529D01*
X767003Y235250D01*
X767456Y232971D01*
X768748Y231038D01*
X770680Y229747D01*
X772960Y229293D01*
X775239Y229747D01*
X777171Y231038D01*
X778463Y232971D01*
X778916Y235250D01*
X778463Y237529D01*
X777171Y239462D01*
X775239Y240753D01*
X772960Y241206D01*
D02*
G37*
G36*
X328250Y239456D02*
X325970Y239003D01*
X324038Y237712D01*
X322747Y235779D01*
X322294Y233500D01*
X322747Y231220D01*
X324038Y229288D01*
X325970Y227997D01*
X328250Y227544D01*
X330529Y227997D01*
X332462Y229288D01*
X333753Y231220D01*
X334206Y233500D01*
X333753Y235779D01*
X332462Y237712D01*
X330529Y239003D01*
X328250Y239456D01*
D02*
G37*
G36*
X682750Y226707D02*
X680471Y226253D01*
X678538Y224962D01*
X677247Y223029D01*
X676794Y220750D01*
X677247Y218471D01*
X678538Y216538D01*
X680471Y215247D01*
X682750Y214794D01*
X685029Y215247D01*
X686962Y216538D01*
X688253Y218471D01*
X688706Y220750D01*
X688253Y223029D01*
X686962Y224962D01*
X685029Y226253D01*
X682750Y226707D01*
D02*
G37*
G36*
X904392Y256803D02*
X902113Y256349D01*
X900180Y255058D01*
X898889Y253126D01*
X898436Y250846D01*
X898889Y248567D01*
X900180Y246634D01*
X902113Y245343D01*
X903886Y244991D01*
X904738Y243523D01*
X904639Y243375D01*
X904186Y241096D01*
X904639Y238816D01*
X905931Y236884D01*
X907863Y235593D01*
X909219Y235323D01*
X909943Y233664D01*
X909798Y233447D01*
X909345Y231168D01*
X909798Y228888D01*
X911089Y226956D01*
X911747Y226517D01*
X911788Y224712D01*
X910497Y222779D01*
X910043Y220500D01*
X910497Y218221D01*
X911788Y216288D01*
X913720Y214997D01*
X916000Y214543D01*
X918279Y214997D01*
X920212Y216288D01*
X921503Y218221D01*
X921956Y220500D01*
X921503Y222779D01*
X920212Y224712D01*
X919555Y225151D01*
X919513Y226956D01*
X920804Y228888D01*
X921258Y231168D01*
X920804Y233447D01*
X919513Y235380D01*
X917581Y236671D01*
X916225Y236941D01*
X915501Y238600D01*
X915646Y238816D01*
X916099Y241096D01*
X915646Y243375D01*
X914354Y245308D01*
X912422Y246599D01*
X910649Y246952D01*
X909796Y248419D01*
X909895Y248567D01*
X910349Y250846D01*
X909895Y253126D01*
X908604Y255058D01*
X906672Y256349D01*
X904392Y256803D01*
D02*
G37*
G36*
X524374Y224301D02*
X522094Y223848D01*
X520162Y222556D01*
X518871Y220624D01*
X518417Y218345D01*
X518871Y216065D01*
X520162Y214133D01*
X522094Y212842D01*
X524374Y212388D01*
X526653Y212842D01*
X528586Y214133D01*
X529877Y216065D01*
X530330Y218345D01*
X529877Y220624D01*
X528586Y222556D01*
X526653Y223848D01*
X524374Y224301D01*
D02*
G37*
G36*
X228609Y229623D02*
X226330Y229169D01*
X224397Y227878D01*
X223106Y225946D01*
X222653Y223666D01*
X223106Y221387D01*
X224397Y219454D01*
X226330Y218163D01*
X228609Y217710D01*
X229818Y217950D01*
X231058Y217782D01*
X231474Y216844D01*
X231747Y215471D01*
X233038Y213538D01*
X234970Y212247D01*
X237250Y211794D01*
X239529Y212247D01*
X241462Y213538D01*
X242753Y215471D01*
X243206Y217750D01*
X242753Y220030D01*
X241462Y221962D01*
X239529Y223253D01*
X237250Y223706D01*
X236041Y223466D01*
X234802Y223634D01*
X234385Y224572D01*
X234112Y225946D01*
X232821Y227878D01*
X230889Y229169D01*
X228609Y229623D01*
D02*
G37*
G36*
X755500Y223311D02*
X753221Y222857D01*
X751288Y221566D01*
X749997Y219634D01*
X749544Y217354D01*
X749997Y215075D01*
X751288Y213142D01*
X753221Y211851D01*
X755500Y211398D01*
X757779Y211851D01*
X759712Y213142D01*
X761003Y215075D01*
X761457Y217354D01*
X761003Y219634D01*
X759712Y221566D01*
X757779Y222857D01*
X755500Y223311D01*
D02*
G37*
G36*
X573500Y219956D02*
X571221Y219503D01*
X569288Y218212D01*
X567997Y216280D01*
X567543Y214000D01*
X567997Y211721D01*
X569288Y209788D01*
X571221Y208497D01*
X573500Y208044D01*
X575779Y208497D01*
X577712Y209788D01*
X579003Y211721D01*
X579456Y214000D01*
X579003Y216280D01*
X577712Y218212D01*
X575779Y219503D01*
X573500Y219956D01*
D02*
G37*
G36*
X246500Y239956D02*
X244221Y239503D01*
X242288Y238212D01*
X240997Y236279D01*
X240544Y234000D01*
X240997Y231721D01*
X242288Y229788D01*
X244221Y228497D01*
X246500Y228043D01*
X248780Y228497D01*
X249441Y228939D01*
X250540Y227840D01*
X249497Y226280D01*
X249044Y224000D01*
X249497Y221721D01*
X250788Y219788D01*
X252721Y218497D01*
X255000Y218044D01*
X257279Y218497D01*
X257894Y218907D01*
X258788Y217712D01*
X257497Y215779D01*
X257044Y213500D01*
X257497Y211221D01*
X258788Y209288D01*
X260721Y207997D01*
X263000Y207544D01*
X265280Y207997D01*
X267212Y209288D01*
X268503Y211221D01*
X268957Y213500D01*
X268503Y215779D01*
X267212Y217712D01*
X265280Y219003D01*
X263000Y219457D01*
X260721Y219003D01*
X260107Y218593D01*
X259212Y219788D01*
X260503Y221721D01*
X260956Y224000D01*
X260503Y226280D01*
X259212Y228212D01*
X257279Y229503D01*
X255000Y229956D01*
X252721Y229503D01*
X252059Y229061D01*
X250960Y230160D01*
X252003Y231721D01*
X252456Y234000D01*
X252003Y236279D01*
X250712Y238212D01*
X248780Y239503D01*
X246500Y239956D01*
D02*
G37*
G36*
X304500Y216957D02*
X302221Y216503D01*
X300288Y215212D01*
X298997Y213279D01*
X298543Y211000D01*
X298997Y208721D01*
X300288Y206788D01*
X302221Y205497D01*
X304500Y205044D01*
X306779Y205497D01*
X308712Y206788D01*
X310003Y208721D01*
X310457Y211000D01*
X310003Y213279D01*
X308712Y215212D01*
X306779Y216503D01*
X304500Y216957D01*
D02*
G37*
G36*
X947250Y216956D02*
X944970Y216503D01*
X943038Y215212D01*
X941747Y213279D01*
X941293Y211000D01*
X941747Y208720D01*
X943038Y206788D01*
X944970Y205497D01*
X947250Y205043D01*
X949529Y205497D01*
X951462Y206788D01*
X952753Y208720D01*
X953206Y211000D01*
X952753Y213279D01*
X951462Y215212D01*
X949529Y216503D01*
X947250Y216956D01*
D02*
G37*
G36*
X417462Y216206D02*
X415182Y215753D01*
X413250Y214462D01*
X411959Y212529D01*
X411506Y210250D01*
X411959Y207971D01*
X413250Y206038D01*
X415182Y204747D01*
X417462Y204293D01*
X419741Y204747D01*
X421674Y206038D01*
X422965Y207971D01*
X423418Y210250D01*
X422965Y212529D01*
X421674Y214462D01*
X419741Y215753D01*
X417462Y216206D01*
D02*
G37*
G36*
X610750Y205706D02*
X608471Y205253D01*
X606538Y203962D01*
X605247Y202029D01*
X604794Y199750D01*
X605247Y197470D01*
X606538Y195538D01*
X608471Y194247D01*
X610750Y193794D01*
X613030Y194247D01*
X614962Y195538D01*
X616253Y197470D01*
X616707Y199750D01*
X616253Y202029D01*
X614962Y203962D01*
X613030Y205253D01*
X610750Y205706D01*
D02*
G37*
G36*
X705500Y204706D02*
X703221Y204253D01*
X701288Y202962D01*
X699997Y201029D01*
X699544Y198750D01*
X699997Y196471D01*
X701288Y194538D01*
X703221Y193247D01*
X705500Y192794D01*
X707779Y193247D01*
X709712Y194538D01*
X711003Y196471D01*
X711457Y198750D01*
X711003Y201029D01*
X709712Y202962D01*
X707779Y204253D01*
X705500Y204706D01*
D02*
G37*
G36*
X281500Y201206D02*
X279221Y200753D01*
X277288Y199462D01*
X275997Y197529D01*
X275543Y195250D01*
X275997Y192971D01*
X277288Y191038D01*
X279221Y189747D01*
X281500Y189294D01*
X283779Y189747D01*
X285712Y191038D01*
X287003Y192971D01*
X287456Y195250D01*
X287003Y197529D01*
X285712Y199462D01*
X283779Y200753D01*
X281500Y201206D01*
D02*
G37*
G36*
X589000Y202384D02*
X586721Y201931D01*
X584788Y200640D01*
X583497Y198707D01*
X583044Y196428D01*
X583497Y194148D01*
X584788Y192216D01*
X586721Y190925D01*
X589000Y190471D01*
X590933Y190856D01*
X591497Y190756D01*
X592551Y189941D01*
X592874Y188314D01*
X594165Y186381D01*
X596098Y185090D01*
X598377Y184637D01*
X600657Y185090D01*
X602589Y186381D01*
X603880Y188314D01*
X604334Y190593D01*
X603880Y192873D01*
X602589Y194805D01*
X600657Y196096D01*
X598377Y196550D01*
X596444Y196165D01*
X595880Y196265D01*
X594827Y197080D01*
X594503Y198707D01*
X593212Y200640D01*
X591279Y201931D01*
X589000Y202384D01*
D02*
G37*
G36*
X910892Y206550D02*
X908613Y206097D01*
X906681Y204806D01*
X905389Y202873D01*
X904936Y200594D01*
X905389Y198314D01*
X906681Y196382D01*
X908613Y195091D01*
X910242Y194767D01*
X911001Y193327D01*
X911013Y193178D01*
X910747Y192779D01*
X910294Y190500D01*
X910747Y188221D01*
X912038Y186288D01*
X913971Y184997D01*
X916250Y184543D01*
X918530Y184997D01*
X920462Y186288D01*
X921753Y188221D01*
X922206Y190500D01*
X921753Y192779D01*
X920462Y194712D01*
X918530Y196003D01*
X916901Y196327D01*
X916142Y197767D01*
X916129Y197916D01*
X916395Y198314D01*
X916849Y200594D01*
X916395Y202873D01*
X915104Y204806D01*
X913172Y206097D01*
X910892Y206550D01*
D02*
G37*
G36*
X350500Y194956D02*
X348221Y194503D01*
X346288Y193212D01*
X344997Y191279D01*
X344544Y189000D01*
X344997Y186721D01*
X346288Y184788D01*
X348221Y183497D01*
X350500Y183044D01*
X352780Y183497D01*
X354712Y184788D01*
X356003Y186721D01*
X356456Y189000D01*
X356003Y191279D01*
X354712Y193212D01*
X352780Y194503D01*
X350500Y194956D01*
D02*
G37*
G36*
X719750Y189706D02*
X717470Y189253D01*
X715538Y187962D01*
X714247Y186029D01*
X713793Y183750D01*
X714247Y181471D01*
X715538Y179538D01*
X717470Y178247D01*
X719750Y177794D01*
X722029Y178247D01*
X723962Y179538D01*
X725253Y181471D01*
X725706Y183750D01*
X725253Y186029D01*
X723962Y187962D01*
X722029Y189253D01*
X719750Y189706D01*
D02*
G37*
G36*
X387250Y186206D02*
X384971Y185753D01*
X383038Y184462D01*
X381747Y182530D01*
X381293Y180250D01*
X381746Y177976D01*
X381464Y177468D01*
X380735Y176742D01*
X378750Y177137D01*
X376470Y176683D01*
X374538Y175392D01*
X373247Y173460D01*
X372794Y171180D01*
X373247Y168901D01*
X374538Y166968D01*
X376470Y165677D01*
X378750Y165224D01*
X381029Y165677D01*
X382962Y166968D01*
X384253Y168901D01*
X384706Y171180D01*
X384254Y173454D01*
X384536Y173962D01*
X385265Y174688D01*
X387250Y174294D01*
X389529Y174747D01*
X391462Y176038D01*
X392753Y177971D01*
X393206Y180250D01*
X392753Y182530D01*
X391462Y184462D01*
X389529Y185753D01*
X387250Y186206D01*
D02*
G37*
G36*
X123500Y187956D02*
X121221Y187503D01*
X119288Y186212D01*
X117997Y184279D01*
X117544Y182000D01*
X117997Y179720D01*
X119288Y177788D01*
X121221Y176497D01*
X123500Y176043D01*
X125779Y176497D01*
X127712Y177788D01*
X129003Y179720D01*
X129457Y182000D01*
X129003Y184279D01*
X127712Y186212D01*
X125779Y187503D01*
X123500Y187956D01*
D02*
G37*
G36*
X676750Y187206D02*
X674471Y186753D01*
X672538Y185462D01*
X671247Y183529D01*
X670794Y181250D01*
X671247Y178971D01*
X672538Y177038D01*
X674471Y175747D01*
X676750Y175294D01*
X679029Y175747D01*
X680962Y177038D01*
X682253Y178971D01*
X682707Y181250D01*
X682253Y183529D01*
X680962Y185462D01*
X679029Y186753D01*
X676750Y187206D01*
D02*
G37*
G36*
X913000Y182706D02*
X910721Y182253D01*
X908788Y180962D01*
X907497Y179029D01*
X907044Y176750D01*
X907497Y174471D01*
X908788Y172538D01*
X910721Y171247D01*
X913000Y170793D01*
X915279Y171247D01*
X917212Y172538D01*
X918503Y174471D01*
X918957Y176750D01*
X918503Y179029D01*
X917212Y180962D01*
X915279Y182253D01*
X913000Y182706D01*
D02*
G37*
G36*
X565000Y182456D02*
X562721Y182003D01*
X560788Y180712D01*
X559497Y178779D01*
X559044Y176500D01*
X559497Y174221D01*
X560788Y172288D01*
X562721Y170997D01*
X565000Y170544D01*
X567280Y170997D01*
X569212Y172288D01*
X570503Y174221D01*
X570956Y176500D01*
X570503Y178779D01*
X569212Y180712D01*
X567280Y182003D01*
X565000Y182456D01*
D02*
G37*
G36*
X332000Y177206D02*
X329720Y176753D01*
X327788Y175462D01*
X326497Y173529D01*
X326044Y171250D01*
X326054Y171196D01*
X324958Y170596D01*
X324636Y170512D01*
X322779Y171753D01*
X320500Y172206D01*
X318221Y171753D01*
X316288Y170462D01*
X314997Y168529D01*
X314543Y166250D01*
X314997Y163971D01*
X316288Y162038D01*
X318221Y160747D01*
X320500Y160294D01*
X322779Y160747D01*
X324712Y162038D01*
X326003Y163971D01*
X326456Y166250D01*
X326446Y166304D01*
X327542Y166904D01*
X327864Y166988D01*
X329720Y165747D01*
X332000Y165294D01*
X334279Y165747D01*
X336212Y167038D01*
X337503Y168971D01*
X337956Y171250D01*
X337503Y173529D01*
X336212Y175462D01*
X334279Y176753D01*
X332000Y177206D01*
D02*
G37*
G36*
X945500D02*
X943221Y176753D01*
X941288Y175462D01*
X939997Y173529D01*
X939544Y171250D01*
X939997Y168971D01*
X941288Y167038D01*
X943221Y165747D01*
X945500Y165294D01*
X947779Y165747D01*
X949712Y167038D01*
X951003Y168971D01*
X951457Y171250D01*
X951003Y173529D01*
X949712Y175462D01*
X947779Y176753D01*
X945500Y177206D01*
D02*
G37*
G36*
X861500Y206957D02*
X859221Y206503D01*
X857288Y205212D01*
X855997Y203279D01*
X855544Y201000D01*
X855997Y198721D01*
X857288Y196788D01*
X859221Y195497D01*
X859715Y195399D01*
X859789Y195315D01*
X860294Y193730D01*
X859387Y192373D01*
X858934Y190093D01*
X859387Y187814D01*
X860678Y185881D01*
X862611Y184590D01*
X864890Y184137D01*
X865814Y182767D01*
X865595Y181668D01*
X866049Y179388D01*
X867340Y177456D01*
X868935Y176390D01*
X869299Y175737D01*
X869370Y174592D01*
X868388Y173122D01*
X867934Y170842D01*
X868388Y168563D01*
X869679Y166630D01*
X871611Y165339D01*
X873891Y164886D01*
X876170Y165339D01*
X878102Y166630D01*
X879394Y168563D01*
X879847Y170842D01*
X879394Y173122D01*
X878102Y175054D01*
X876507Y176120D01*
X876144Y176773D01*
X876072Y177919D01*
X877055Y179388D01*
X877508Y181668D01*
X877055Y183947D01*
X875763Y185880D01*
X873831Y187171D01*
X871552Y187624D01*
X870628Y188995D01*
X870847Y190093D01*
X870393Y192373D01*
X869102Y194305D01*
X867170Y195596D01*
X866675Y195695D01*
X866601Y195778D01*
X866096Y197364D01*
X867003Y198721D01*
X867457Y201000D01*
X867003Y203279D01*
X865712Y205212D01*
X863780Y206503D01*
X861500Y206957D01*
D02*
G37*
G36*
X37750Y215616D02*
X33508Y215282D01*
X29371Y214288D01*
X25440Y212660D01*
X21812Y210437D01*
X18576Y207674D01*
X15813Y204438D01*
X13590Y200810D01*
X11961Y196879D01*
X10968Y192742D01*
X10634Y188500D01*
X10968Y184258D01*
X11961Y180121D01*
X13590Y176190D01*
X15813Y172562D01*
X18576Y169326D01*
X21812Y166563D01*
X25440Y164340D01*
X29371Y162712D01*
X33508Y161718D01*
X37750Y161384D01*
X41992Y161718D01*
X46129Y162712D01*
X50060Y164340D01*
X53688Y166563D01*
X56924Y169326D01*
X59687Y172562D01*
X61910Y176190D01*
X63538Y180121D01*
X64532Y184258D01*
X64866Y188500D01*
X64532Y192742D01*
X63538Y196879D01*
X61910Y200810D01*
X59687Y204438D01*
X56924Y207674D01*
X53688Y210437D01*
X50060Y212660D01*
X46129Y214288D01*
X41992Y215282D01*
X37750Y215616D01*
D02*
G37*
G36*
X646241Y171457D02*
X643962Y171003D01*
X642029Y169712D01*
X640738Y167779D01*
X640285Y165500D01*
X640738Y163221D01*
X642029Y161288D01*
X643962Y159997D01*
X646241Y159544D01*
X648521Y159997D01*
X650453Y161288D01*
X650841Y161869D01*
X652674D01*
X653168Y161130D01*
X655101Y159839D01*
X657380Y159386D01*
X659660Y159839D01*
X661592Y161130D01*
X662883Y163063D01*
X663336Y165342D01*
X662883Y167621D01*
X661592Y169554D01*
X659660Y170845D01*
X657380Y171299D01*
X655101Y170845D01*
X653168Y169554D01*
X652780Y168973D01*
X650947D01*
X650453Y169712D01*
X648521Y171003D01*
X646241Y171457D01*
D02*
G37*
G36*
X573250Y168957D02*
X570971Y168503D01*
X569038Y167212D01*
X567747Y165280D01*
X567294Y163000D01*
X567747Y160721D01*
X569038Y158788D01*
X570971Y157497D01*
X573250Y157044D01*
X575530Y157497D01*
X577462Y158788D01*
X578753Y160721D01*
X579207Y163000D01*
X578753Y165280D01*
X577462Y167212D01*
X575530Y168503D01*
X573250Y168957D01*
D02*
G37*
G36*
X698179Y165956D02*
X695900Y165503D01*
X693967Y164212D01*
X692676Y162279D01*
X692223Y160000D01*
X692676Y157721D01*
X693967Y155788D01*
X695900Y154497D01*
X698179Y154044D01*
X700458Y154497D01*
X702391Y155788D01*
X703682Y157721D01*
X704135Y160000D01*
X703682Y162279D01*
X702391Y164212D01*
X700458Y165503D01*
X698179Y165956D01*
D02*
G37*
G36*
X250000Y162206D02*
X247721Y161753D01*
X245788Y160462D01*
X244497Y158530D01*
X244044Y156250D01*
X244497Y153971D01*
X245788Y152038D01*
X247721Y150747D01*
X250000Y150294D01*
X252279Y150747D01*
X254212Y152038D01*
X255503Y153971D01*
X255956Y156250D01*
X255503Y158530D01*
X254212Y160462D01*
X252279Y161753D01*
X250000Y162206D01*
D02*
G37*
G36*
X178750Y160956D02*
X176471Y160503D01*
X174538Y159212D01*
X173247Y157279D01*
X172794Y155000D01*
X173247Y152720D01*
X174538Y150788D01*
X176471Y149497D01*
X178750Y149044D01*
X181029Y149497D01*
X182962Y150788D01*
X184253Y152720D01*
X184706Y155000D01*
X184253Y157279D01*
X182962Y159212D01*
X181029Y160503D01*
X178750Y160956D01*
D02*
G37*
G36*
X622250Y169385D02*
X619971Y168932D01*
X618038Y167641D01*
X616747Y165708D01*
X616294Y163429D01*
X616747Y161150D01*
X618038Y159217D01*
X619971Y157926D01*
X622250Y157472D01*
X624529Y157926D01*
X625572Y158622D01*
X625829Y158794D01*
X626928Y157696D01*
X626728Y157396D01*
X625876Y156121D01*
X625422Y153841D01*
X625876Y151562D01*
X627167Y149630D01*
X629099Y148338D01*
X631379Y147885D01*
X633658Y148338D01*
X635591Y149630D01*
X636882Y151562D01*
X637335Y153841D01*
X636882Y156121D01*
X635591Y158053D01*
X633658Y159345D01*
X631379Y159798D01*
X629099Y159345D01*
X628057Y158648D01*
X627800Y158476D01*
X626701Y159575D01*
X626901Y159874D01*
X627753Y161150D01*
X628206Y163429D01*
X627753Y165708D01*
X626462Y167641D01*
X624529Y168932D01*
X622250Y169385D01*
D02*
G37*
G36*
X359000Y158707D02*
X356721Y158253D01*
X354788Y156962D01*
X353497Y155029D01*
X353044Y152750D01*
X353497Y150471D01*
X354788Y148538D01*
X356721Y147247D01*
X359000Y146794D01*
X361279Y147247D01*
X363212Y148538D01*
X364503Y150471D01*
X364956Y152750D01*
X364503Y155029D01*
X363212Y156962D01*
X361279Y158253D01*
X359000Y158707D01*
D02*
G37*
G36*
X294112Y166140D02*
X291833Y165686D01*
X289900Y164395D01*
X288609Y162463D01*
X288156Y160183D01*
X288609Y157904D01*
X289900Y155971D01*
X291833Y154680D01*
X294112Y154227D01*
X294805Y154365D01*
X296101Y153069D01*
X295906Y152091D01*
X296360Y149812D01*
X297651Y147880D01*
X299583Y146588D01*
X301863Y146135D01*
X304142Y146588D01*
X306075Y147880D01*
X307366Y149812D01*
X307819Y152091D01*
X307366Y154371D01*
X306075Y156303D01*
X304142Y157594D01*
X301863Y158048D01*
X301171Y157910D01*
X299874Y159206D01*
X300069Y160183D01*
X299615Y162463D01*
X298324Y164395D01*
X296392Y165686D01*
X294112Y166140D01*
D02*
G37*
G36*
X872250Y156957D02*
X869970Y156503D01*
X868038Y155212D01*
X866747Y153279D01*
X866293Y151000D01*
X866747Y148721D01*
X868038Y146788D01*
X869970Y145497D01*
X872250Y145044D01*
X874529Y145497D01*
X876462Y146788D01*
X877753Y148721D01*
X878206Y151000D01*
X877753Y153279D01*
X876462Y155212D01*
X874529Y156503D01*
X872250Y156957D01*
D02*
G37*
G36*
X659000D02*
X656721Y156503D01*
X654788Y155212D01*
X653497Y153279D01*
X653044Y151000D01*
X653497Y148721D01*
X654788Y146788D01*
X656721Y145497D01*
X659000Y145044D01*
X661279Y145497D01*
X663212Y146788D01*
X664503Y148721D01*
X664957Y151000D01*
X664503Y153279D01*
X663212Y155212D01*
X661279Y156503D01*
X659000Y156957D01*
D02*
G37*
G36*
X950750Y156956D02*
X948470Y156503D01*
X946538Y155212D01*
X945247Y153279D01*
X944793Y151000D01*
X945247Y148720D01*
X946538Y146788D01*
X948470Y145497D01*
X950750Y145043D01*
X953029Y145497D01*
X954962Y146788D01*
X956253Y148720D01*
X956706Y151000D01*
X956253Y153279D01*
X954962Y155212D01*
X953029Y156503D01*
X950750Y156956D01*
D02*
G37*
G36*
X330000Y152457D02*
X327721Y152003D01*
X325788Y150712D01*
X324497Y148779D01*
X324044Y146500D01*
X324374Y144838D01*
X323375Y143611D01*
X323201Y143517D01*
X322250Y143706D01*
X319971Y143253D01*
X318038Y141962D01*
X316747Y140029D01*
X316294Y137750D01*
X316747Y135471D01*
X318038Y133538D01*
X319971Y132247D01*
X322250Y131793D01*
X324529Y132247D01*
X326462Y133538D01*
X327753Y135471D01*
X328206Y137750D01*
X327876Y139412D01*
X328875Y140639D01*
X329049Y140733D01*
X330000Y140544D01*
X332279Y140997D01*
X334212Y142288D01*
X335503Y144221D01*
X335956Y146500D01*
X335503Y148779D01*
X334212Y150712D01*
X332279Y152003D01*
X330000Y152457D01*
D02*
G37*
G36*
X682500Y149956D02*
X680221Y149503D01*
X678288Y148212D01*
X676997Y146279D01*
X676544Y144000D01*
X676997Y141721D01*
X678288Y139788D01*
X680221Y138497D01*
X682500Y138043D01*
X684780Y138497D01*
X686712Y139788D01*
X688003Y141721D01*
X688456Y144000D01*
X688003Y146279D01*
X686712Y148212D01*
X684780Y149503D01*
X682500Y149956D01*
D02*
G37*
G36*
X910520Y130640D02*
X910317Y130627D01*
X910250Y130636D01*
X910183Y130627D01*
X909980Y130640D01*
X907369Y130297D01*
X907176Y130231D01*
X907109Y130222D01*
X907047Y130196D01*
X906847Y130157D01*
X904414Y129149D01*
X904244Y129036D01*
X904182Y129010D01*
X904128Y128969D01*
X903946Y128879D01*
X901857Y127276D01*
X901722Y127122D01*
X901669Y127081D01*
X901628Y127028D01*
X901474Y126893D01*
X899871Y124804D01*
X899781Y124621D01*
X899740Y124568D01*
X899714Y124506D01*
X899601Y124336D01*
X898593Y121903D01*
X898553Y121703D01*
X898528Y121641D01*
X898519Y121574D01*
X898453Y121381D01*
X898110Y118770D01*
X898119Y118634D01*
X898092Y118500D01*
X898119Y118366D01*
X898110Y118230D01*
X898453Y115619D01*
X898519Y115426D01*
X898528Y115359D01*
X898553Y115296D01*
X898593Y115097D01*
X899601Y112664D01*
X899714Y112494D01*
X899740Y112432D01*
X899781Y112379D01*
X899871Y112196D01*
X901474Y110107D01*
X901628Y109972D01*
X901669Y109919D01*
X901722Y109878D01*
X901857Y109724D01*
X903946Y108121D01*
X904128Y108031D01*
X904182Y107990D01*
X904244Y107964D01*
X904414Y107851D01*
X906847Y106843D01*
X907047Y106804D01*
X907109Y106778D01*
X907176Y106769D01*
X907369Y106703D01*
X909980Y106360D01*
X910183Y106373D01*
X910250Y106364D01*
X910317Y106373D01*
X910520Y106360D01*
X913131Y106703D01*
X913324Y106769D01*
X913391Y106778D01*
X913453Y106804D01*
X913653Y106843D01*
X916086Y107851D01*
X916255Y107964D01*
X916318Y107990D01*
X916371Y108031D01*
X916554Y108121D01*
X918643Y109724D01*
X918778Y109878D01*
X918831Y109919D01*
X918872Y109972D01*
X919026Y110107D01*
X920629Y112196D01*
X920719Y112378D01*
X920760Y112432D01*
X920786Y112494D01*
X920899Y112664D01*
X921907Y115097D01*
X921946Y115296D01*
X921972Y115359D01*
X921981Y115426D01*
X922047Y115619D01*
X922390Y118230D01*
X922381Y118366D01*
X922408Y118500D01*
X922381Y118634D01*
X922390Y118770D01*
X922047Y121381D01*
X921981Y121574D01*
X921972Y121641D01*
X921946Y121703D01*
X921907Y121903D01*
X920899Y124336D01*
X920786Y124506D01*
X920760Y124568D01*
X920719Y124621D01*
X920629Y124804D01*
X919026Y126893D01*
X918872Y127028D01*
X918831Y127081D01*
X918778Y127122D01*
X918643Y127276D01*
X916554Y128879D01*
X916372Y128969D01*
X916318Y129010D01*
X916255Y129036D01*
X916086Y129149D01*
X913653Y130157D01*
X913453Y130196D01*
X913391Y130222D01*
X913324Y130231D01*
X913131Y130297D01*
X910520Y130640D01*
D02*
G37*
G36*
X661380Y129546D02*
X659101Y129093D01*
X657168Y127802D01*
X655877Y125870D01*
X655424Y123590D01*
X655877Y121311D01*
X657168Y119378D01*
X659101Y118087D01*
X661380Y117634D01*
X663660Y118087D01*
X665592Y119378D01*
X666883Y121311D01*
X667337Y123590D01*
X666883Y125870D01*
X665592Y127802D01*
X663660Y129093D01*
X661380Y129546D01*
D02*
G37*
G36*
X623378Y124546D02*
X621099Y124093D01*
X619167Y122802D01*
X617875Y120869D01*
X617422Y118590D01*
X617875Y116310D01*
X619167Y114378D01*
X621099Y113087D01*
X623378Y112633D01*
X625658Y113087D01*
X627590Y114378D01*
X628881Y116310D01*
X629335Y118590D01*
X628881Y120869D01*
X627590Y122802D01*
X625658Y124093D01*
X623378Y124546D01*
D02*
G37*
G36*
X129500Y107457D02*
X127221Y107003D01*
X125288Y105712D01*
X123997Y103779D01*
X123544Y101500D01*
X123997Y99221D01*
X125288Y97288D01*
X127221Y95997D01*
X129500Y95544D01*
X131779Y95997D01*
X133712Y97288D01*
X135003Y99221D01*
X135456Y101500D01*
X135003Y103779D01*
X133712Y105712D01*
X131779Y107003D01*
X129500Y107457D01*
D02*
G37*
G36*
X944250Y94340D02*
X938020D01*
Y85520D01*
X946840D01*
Y91750D01*
X946643Y92741D01*
X946081Y93581D01*
X945241Y94143D01*
X944250Y94340D01*
D02*
G37*
G36*
X935480D02*
X929250D01*
X928259Y94143D01*
X927419Y93581D01*
X926857Y92741D01*
X926660Y91750D01*
Y85520D01*
X935480D01*
Y94340D01*
D02*
G37*
G36*
X872750Y96207D02*
X870471Y95753D01*
X868538Y94462D01*
X867247Y92529D01*
X866794Y90250D01*
X867247Y87971D01*
X868538Y86038D01*
X870471Y84747D01*
X872750Y84294D01*
X875029Y84747D01*
X876962Y86038D01*
X878253Y87971D01*
X878706Y90250D01*
X878253Y92529D01*
X876962Y94462D01*
X875029Y95753D01*
X872750Y96207D01*
D02*
G37*
G36*
X647679Y93956D02*
X645399Y93503D01*
X643467Y92212D01*
X642176Y90279D01*
X641722Y88000D01*
X642176Y85721D01*
X643467Y83788D01*
X645399Y82497D01*
X647679Y82044D01*
X649958Y82497D01*
X651891Y83788D01*
X653182Y85721D01*
X653635Y88000D01*
X653182Y90279D01*
X651891Y92212D01*
X649958Y93503D01*
X647679Y93956D01*
D02*
G37*
G36*
X946840Y82980D02*
X938020D01*
Y74160D01*
X944250D01*
X945241Y74357D01*
X946081Y74919D01*
X946643Y75759D01*
X946840Y76750D01*
Y82980D01*
D02*
G37*
G36*
X935480D02*
X926660D01*
Y76750D01*
X926857Y75759D01*
X927419Y74919D01*
X928259Y74357D01*
X929250Y74160D01*
X935480D01*
Y82980D01*
D02*
G37*
G36*
X630000Y85956D02*
X627721Y85503D01*
X625788Y84212D01*
X624497Y82279D01*
X624044Y80000D01*
X624497Y77720D01*
X625788Y75788D01*
X627721Y74497D01*
X630000Y74043D01*
X632280Y74497D01*
X634212Y75788D01*
X635503Y77720D01*
X635956Y80000D01*
X635503Y82279D01*
X634212Y84212D01*
X632280Y85503D01*
X630000Y85956D01*
D02*
G37*
G36*
X146800Y80322D02*
X131300D01*
X130507Y80164D01*
X129835Y79715D01*
X129386Y79043D01*
X129228Y78250D01*
Y62750D01*
X129386Y61957D01*
X129835Y61285D01*
X130507Y60836D01*
X131300Y60678D01*
X146800D01*
X147593Y60836D01*
X148265Y61285D01*
X148714Y61957D01*
X148872Y62750D01*
Y78250D01*
X148714Y79043D01*
X148265Y79715D01*
X147593Y80164D01*
X146800Y80322D01*
D02*
G37*
G36*
X113650Y80366D02*
X111096Y80030D01*
X108717Y79044D01*
X106673Y77477D01*
X105105Y75433D01*
X104120Y73054D01*
X103784Y70500D01*
X104120Y67946D01*
X105105Y65567D01*
X106673Y63523D01*
X108717Y61955D01*
X111096Y60970D01*
X113650Y60634D01*
X116204Y60970D01*
X118583Y61955D01*
X120627Y63523D01*
X122194Y65567D01*
X123180Y67946D01*
X123516Y70500D01*
X123180Y73054D01*
X122194Y75433D01*
X120627Y77477D01*
X118583Y79044D01*
X116204Y80030D01*
X113650Y80366D01*
D02*
G37*
G36*
X88250D02*
X85696Y80030D01*
X83317Y79044D01*
X81273Y77477D01*
X79705Y75433D01*
X78720Y73054D01*
X78384Y70500D01*
X78720Y67946D01*
X79705Y65567D01*
X81273Y63523D01*
X83317Y61955D01*
X85696Y60970D01*
X88250Y60634D01*
X90804Y60970D01*
X93183Y61955D01*
X95227Y63523D01*
X96795Y65567D01*
X97780Y67946D01*
X98116Y70500D01*
X97780Y73054D01*
X96795Y75433D01*
X95227Y77477D01*
X93183Y79044D01*
X90804Y80030D01*
X88250Y80366D01*
D02*
G37*
G36*
X62850D02*
X60296Y80030D01*
X57917Y79044D01*
X55873Y77477D01*
X54305Y75433D01*
X53320Y73054D01*
X52984Y70500D01*
X53320Y67946D01*
X54305Y65567D01*
X55873Y63523D01*
X57917Y61955D01*
X60296Y60970D01*
X62850Y60634D01*
X65404Y60970D01*
X67783Y61955D01*
X69827Y63523D01*
X71395Y65567D01*
X72380Y67946D01*
X72716Y70500D01*
X72380Y73054D01*
X71395Y75433D01*
X69827Y77477D01*
X67783Y79044D01*
X65404Y80030D01*
X62850Y80366D01*
D02*
G37*
G36*
X37450D02*
X34896Y80030D01*
X32517Y79044D01*
X30473Y77477D01*
X28905Y75433D01*
X27920Y73054D01*
X27584Y70500D01*
X27920Y67946D01*
X28905Y65567D01*
X30473Y63523D01*
X32517Y61955D01*
X34896Y60970D01*
X37450Y60634D01*
X40004Y60970D01*
X42383Y61955D01*
X44427Y63523D01*
X45995Y65567D01*
X46980Y67946D01*
X47316Y70500D01*
X46980Y73054D01*
X45995Y75433D01*
X44427Y77477D01*
X42383Y79044D01*
X40004Y80030D01*
X37450Y80366D01*
D02*
G37*
G36*
X936750Y68464D02*
X934262Y68137D01*
X931943Y67176D01*
X929952Y65648D01*
X928424Y63657D01*
X927463Y61338D01*
X927136Y58850D01*
X927463Y56362D01*
X928424Y54043D01*
X929952Y52052D01*
X931943Y50524D01*
X934262Y49563D01*
X936750Y49236D01*
X939238Y49563D01*
X941557Y50524D01*
X943548Y52052D01*
X945076Y54043D01*
X946037Y56362D01*
X946364Y58850D01*
X946037Y61338D01*
X945076Y63657D01*
X943548Y65648D01*
X941557Y67176D01*
X939238Y68137D01*
X936750Y68464D01*
D02*
G37*
G36*
X114920Y55312D02*
Y46370D01*
X123862D01*
X123675Y47786D01*
X122638Y50289D01*
X120989Y52439D01*
X118839Y54088D01*
X116336Y55125D01*
X114920Y55312D01*
D02*
G37*
G36*
X112380Y55312D02*
X110964Y55125D01*
X108461Y54088D01*
X106311Y52439D01*
X104662Y50289D01*
X103625Y47786D01*
X103438Y46370D01*
X112380D01*
Y55312D01*
D02*
G37*
G36*
X139050Y54966D02*
X136496Y54630D01*
X134117Y53644D01*
X132073Y52077D01*
X130505Y50033D01*
X129520Y47654D01*
X129184Y45100D01*
X129520Y42546D01*
X130505Y40167D01*
X132073Y38123D01*
X134117Y36555D01*
X136496Y35570D01*
X139050Y35234D01*
X141604Y35570D01*
X143983Y36555D01*
X146027Y38123D01*
X147594Y40167D01*
X148580Y42546D01*
X148916Y45100D01*
X148580Y47654D01*
X147594Y50033D01*
X146027Y52077D01*
X143983Y53644D01*
X141604Y54630D01*
X139050Y54966D01*
D02*
G37*
G36*
X88250D02*
X85696Y54630D01*
X83317Y53644D01*
X81273Y52077D01*
X79705Y50033D01*
X78720Y47654D01*
X78384Y45100D01*
X78720Y42546D01*
X79705Y40167D01*
X81273Y38123D01*
X83317Y36555D01*
X85696Y35570D01*
X88250Y35234D01*
X90804Y35570D01*
X93183Y36555D01*
X95227Y38123D01*
X96795Y40167D01*
X97780Y42546D01*
X98116Y45100D01*
X97780Y47654D01*
X96795Y50033D01*
X95227Y52077D01*
X93183Y53644D01*
X90804Y54630D01*
X88250Y54966D01*
D02*
G37*
G36*
X62850D02*
X60296Y54630D01*
X57917Y53644D01*
X55873Y52077D01*
X54305Y50033D01*
X53320Y47654D01*
X52984Y45100D01*
X53320Y42546D01*
X54305Y40167D01*
X55873Y38123D01*
X57917Y36555D01*
X60296Y35570D01*
X62850Y35234D01*
X65404Y35570D01*
X67783Y36555D01*
X69827Y38123D01*
X71395Y40167D01*
X72380Y42546D01*
X72716Y45100D01*
X72380Y47654D01*
X71395Y50033D01*
X69827Y52077D01*
X67783Y53644D01*
X65404Y54630D01*
X62850Y54966D01*
D02*
G37*
G36*
X37450D02*
X34896Y54630D01*
X32517Y53644D01*
X30473Y52077D01*
X28905Y50033D01*
X27920Y47654D01*
X27584Y45100D01*
X27920Y42546D01*
X28905Y40167D01*
X30473Y38123D01*
X32517Y36555D01*
X34896Y35570D01*
X37450Y35234D01*
X40004Y35570D01*
X42383Y36555D01*
X44427Y38123D01*
X45995Y40167D01*
X46980Y42546D01*
X47316Y45100D01*
X46980Y47654D01*
X45995Y50033D01*
X44427Y52077D01*
X42383Y53644D01*
X40004Y54630D01*
X37450Y54966D01*
D02*
G37*
G36*
X112380Y43830D02*
X103438D01*
X103625Y42414D01*
X104662Y39911D01*
X106311Y37761D01*
X108461Y36112D01*
X110964Y35075D01*
X112380Y34888D01*
Y43830D01*
D02*
G37*
G36*
X123862D02*
X114920D01*
Y34888D01*
X116336Y35075D01*
X118839Y36112D01*
X120989Y37761D01*
X122638Y39911D01*
X123675Y42414D01*
X123862Y43830D01*
D02*
G37*
G36*
X820350Y34072D02*
X805350D01*
X804557Y33914D01*
X803885Y33465D01*
X803436Y32793D01*
X803278Y32000D01*
Y17000D01*
X803436Y16207D01*
X803885Y15535D01*
X804557Y15086D01*
X805350Y14928D01*
X820350D01*
X821143Y15086D01*
X821815Y15535D01*
X822264Y16207D01*
X822422Y17000D01*
Y32000D01*
X822264Y32793D01*
X821815Y33465D01*
X821143Y33914D01*
X820350Y34072D01*
D02*
G37*
G36*
X914450Y34114D02*
X911962Y33787D01*
X909643Y32826D01*
X907652Y31298D01*
X906124Y29307D01*
X905163Y26988D01*
X904836Y24500D01*
X905163Y22012D01*
X906124Y19693D01*
X907652Y17702D01*
X909643Y16174D01*
X911962Y15213D01*
X914450Y14886D01*
X916938Y15213D01*
X919257Y16174D01*
X921248Y17702D01*
X922776Y19693D01*
X923737Y22012D01*
X924064Y24500D01*
X923737Y26988D01*
X922776Y29307D01*
X921248Y31298D01*
X919257Y32826D01*
X916938Y33787D01*
X914450Y34114D01*
D02*
G37*
G36*
X889050D02*
X886562Y33787D01*
X884243Y32826D01*
X882252Y31298D01*
X880724Y29307D01*
X879763Y26988D01*
X879436Y24500D01*
X879763Y22012D01*
X880724Y19693D01*
X882252Y17702D01*
X884243Y16174D01*
X886562Y15213D01*
X889050Y14886D01*
X891538Y15213D01*
X893857Y16174D01*
X895848Y17702D01*
X897376Y19693D01*
X898337Y22012D01*
X898664Y24500D01*
X898337Y26988D01*
X897376Y29307D01*
X895848Y31298D01*
X893857Y32826D01*
X891538Y33787D01*
X889050Y34114D01*
D02*
G37*
G36*
X863650D02*
X861162Y33787D01*
X858843Y32826D01*
X856852Y31298D01*
X855324Y29307D01*
X854363Y26988D01*
X854036Y24500D01*
X854363Y22012D01*
X855324Y19693D01*
X856852Y17702D01*
X858843Y16174D01*
X861162Y15213D01*
X863650Y14886D01*
X866138Y15213D01*
X868457Y16174D01*
X870448Y17702D01*
X871976Y19693D01*
X872937Y22012D01*
X873264Y24500D01*
X872937Y26988D01*
X871976Y29307D01*
X870448Y31298D01*
X868457Y32826D01*
X866138Y33787D01*
X863650Y34114D01*
D02*
G37*
G36*
X838250D02*
X835762Y33787D01*
X833443Y32826D01*
X831452Y31298D01*
X829924Y29307D01*
X828963Y26988D01*
X828636Y24500D01*
X828963Y22012D01*
X829924Y19693D01*
X831452Y17702D01*
X833443Y16174D01*
X835762Y15213D01*
X838250Y14886D01*
X840738Y15213D01*
X843057Y16174D01*
X845048Y17702D01*
X846576Y19693D01*
X847537Y22012D01*
X847864Y24500D01*
X847537Y26988D01*
X846576Y29307D01*
X845048Y31298D01*
X843057Y32826D01*
X840738Y33787D01*
X838250Y34114D01*
D02*
G37*
%LPD*%
D84*
X129750Y497750D02*
D03*
D85*
X936750Y84250D02*
D03*
D87*
X113650Y45100D02*
D03*
D92*
X621929Y72750D02*
D03*
X680381Y486608D02*
D03*
X791000Y439000D02*
D03*
X811750Y439250D02*
D03*
X791500Y464250D02*
D03*
X791250Y491500D02*
D03*
Y520750D02*
D03*
X929750Y476714D02*
D03*
X553362Y271000D02*
D03*
X78000Y102500D02*
D03*
X508250Y349750D02*
D03*
X372500Y335750D02*
D03*
X434119Y275347D02*
D03*
X313000Y145250D02*
D03*
X220250Y234250D02*
D03*
X244000Y292500D02*
D03*
X207077Y258000D02*
D03*
X349750Y144000D02*
D03*
X456744Y248750D02*
D03*
X570250Y465000D02*
D03*
X520000Y258950D02*
D03*
X564500Y221425D02*
D03*
X613500Y171430D02*
D03*
X635000Y108077D02*
D03*
X653750Y109801D02*
D03*
X669000Y109551D02*
D03*
X673720Y136500D02*
D03*
X706250Y167609D02*
D03*
X712501Y175500D02*
D03*
X802950Y243500D02*
D03*
X803000Y258950D02*
D03*
X667500Y373923D02*
D03*
X654250Y393200D02*
D03*
X516500Y225750D02*
D03*
X519250Y243750D02*
D03*
X537750Y254750D02*
D03*
X553375Y232095D02*
D03*
X591500Y310750D02*
D03*
X627250Y344750D02*
D03*
X642368Y359969D02*
D03*
X668500Y393250D02*
D03*
X714500Y326000D02*
D03*
X756971Y283630D02*
D03*
X765385Y227595D02*
D03*
X783250Y245000D02*
D03*
X668750Y333442D02*
D03*
X652058Y316750D02*
D03*
X583500Y239558D02*
D03*
X543500Y157500D02*
D03*
X683381Y356851D02*
D03*
X512000Y303500D02*
D03*
X808250Y90750D02*
D03*
X639129Y146091D02*
D03*
X651442Y131590D02*
D03*
X725750Y247000D02*
D03*
X743750Y265000D02*
D03*
X625250Y271750D02*
D03*
X602750Y293000D02*
D03*
X410500Y266000D02*
D03*
X392250Y248750D02*
D03*
X355750Y296500D02*
D03*
X333250Y274000D02*
D03*
X338000Y343250D02*
D03*
X319500Y325000D02*
D03*
X315000Y246000D02*
D03*
X292250Y223250D02*
D03*
X271750Y223500D02*
D03*
X291500Y205500D02*
D03*
X340750Y198250D02*
D03*
X322250Y180750D02*
D03*
X647630Y176343D02*
D03*
X666250Y191500D02*
D03*
X601250Y257500D02*
D03*
X717250Y211500D02*
D03*
X695250Y232750D02*
D03*
M02*
