G04*
G04 #@! TF.GenerationSoftware,Altium Limited,Altium Designer,19.1.8 (144)*
G04*
G04 Layer_Color=32896*
%FSLAX44Y44*%
%MOMM*%
G71*
G01*
G75*
%ADD11C,0.2540*%
%ADD12C,0.1270*%
%ADD13C,0.1524*%
%ADD130C,0.1500*%
D11*
X876510Y499880D02*
X874605Y500980D01*
Y498780D01*
X876510Y499880D01*
X650000Y45237D02*
Y30000D01*
X641293D01*
X638173Y45237D02*
X637448Y44511D01*
X636722Y45237D01*
X637448Y45962D01*
X638173Y45237D01*
X637448Y40158D02*
Y30000D01*
X625331Y37981D02*
X626782Y39432D01*
X628233Y40158D01*
X630410D01*
X631861Y39432D01*
X633312Y37981D01*
X634038Y35804D01*
Y34353D01*
X633312Y32177D01*
X631861Y30726D01*
X630410Y30000D01*
X628233D01*
X626782Y30726D01*
X625331Y32177D01*
X622066Y35804D02*
X613359D01*
Y37256D01*
X614085Y38707D01*
X614810Y39432D01*
X616261Y40158D01*
X618438D01*
X619889Y39432D01*
X621340Y37981D01*
X622066Y35804D01*
Y34353D01*
X621340Y32177D01*
X619889Y30726D01*
X618438Y30000D01*
X616261D01*
X614810Y30726D01*
X613359Y32177D01*
X610094Y40158D02*
Y30000D01*
Y37256D02*
X607918Y39432D01*
X606466Y40158D01*
X604290D01*
X602839Y39432D01*
X602113Y37256D01*
Y30000D01*
X590141Y37981D02*
X590867Y39432D01*
X593044Y40158D01*
X595220D01*
X597397Y39432D01*
X598122Y37981D01*
X597397Y36530D01*
X595946Y35804D01*
X592318Y35079D01*
X590867Y34353D01*
X590141Y32902D01*
Y32177D01*
X590867Y30726D01*
X593044Y30000D01*
X595220D01*
X597397Y30726D01*
X598122Y32177D01*
X586949Y35804D02*
X578242D01*
Y37256D01*
X578968Y38707D01*
X579693Y39432D01*
X581144Y40158D01*
X583321D01*
X584772Y39432D01*
X586223Y37981D01*
X586949Y35804D01*
Y34353D01*
X586223Y32177D01*
X584772Y30726D01*
X583321Y30000D01*
X581144D01*
X579693Y30726D01*
X578242Y32177D01*
X566270Y45237D02*
Y30000D01*
Y37981D02*
X567722Y39432D01*
X569173Y40158D01*
X571349D01*
X572800Y39432D01*
X574252Y37981D01*
X574977Y35804D01*
Y34353D01*
X574252Y32177D01*
X572800Y30726D01*
X571349Y30000D01*
X569173D01*
X567722Y30726D01*
X566270Y32177D01*
X550236Y40158D02*
Y32902D01*
X549510Y30726D01*
X548059Y30000D01*
X545882D01*
X544431Y30726D01*
X542254Y32902D01*
Y40158D02*
Y30000D01*
X538264Y40158D02*
Y30000D01*
Y37256D02*
X536087Y39432D01*
X534636Y40158D01*
X532459D01*
X531008Y39432D01*
X530283Y37256D01*
Y30000D01*
X517585Y45237D02*
Y30000D01*
Y37981D02*
X519037Y39432D01*
X520488Y40158D01*
X522664D01*
X524115Y39432D01*
X525567Y37981D01*
X526292Y35804D01*
Y34353D01*
X525567Y32177D01*
X524115Y30726D01*
X522664Y30000D01*
X520488D01*
X519037Y30726D01*
X517585Y32177D01*
X513522Y35804D02*
X504816D01*
Y37256D01*
X505541Y38707D01*
X506267Y39432D01*
X507718Y40158D01*
X509894D01*
X511346Y39432D01*
X512797Y37981D01*
X513522Y35804D01*
Y34353D01*
X512797Y32177D01*
X511346Y30726D01*
X509894Y30000D01*
X507718D01*
X506267Y30726D01*
X504816Y32177D01*
X501551Y40158D02*
Y30000D01*
Y35804D02*
X500825Y37981D01*
X499374Y39432D01*
X497923Y40158D01*
X495746D01*
X471512Y41609D02*
X472238Y43060D01*
X473689Y44511D01*
X475140Y45237D01*
X478042D01*
X479494Y44511D01*
X480945Y43060D01*
X481670Y41609D01*
X482396Y39432D01*
Y35804D01*
X481670Y33628D01*
X480945Y32177D01*
X479494Y30726D01*
X478042Y30000D01*
X475140D01*
X473689Y30726D01*
X472238Y32177D01*
X471512Y33628D01*
X457799Y45237D02*
X467232D01*
Y30000D01*
X457799D01*
X467232Y37981D02*
X461427D01*
X455260Y45237D02*
Y30000D01*
Y45237D02*
X448730D01*
X446553Y44511D01*
X445828Y43786D01*
X445102Y42334D01*
Y40883D01*
X445828Y39432D01*
X446553Y38707D01*
X448730Y37981D01*
X455260D01*
X450181D02*
X445102Y30000D01*
X441692Y45237D02*
Y30000D01*
Y45237D02*
X431534Y30000D01*
Y45237D02*
Y30000D01*
X411001Y45237D02*
X412452Y44511D01*
X413903Y43060D01*
X414629Y41609D01*
X415354Y39432D01*
Y35804D01*
X414629Y33628D01*
X413903Y32177D01*
X412452Y30726D01*
X411001Y30000D01*
X408099D01*
X406647Y30726D01*
X405196Y32177D01*
X404471Y33628D01*
X403745Y35804D01*
Y39432D01*
X404471Y41609D01*
X405196Y43060D01*
X406647Y44511D01*
X408099Y45237D01*
X411001D01*
X400190D02*
Y30000D01*
X390032Y45237D02*
Y30000D01*
X400190Y37981D02*
X390032D01*
X385824Y45237D02*
Y30000D01*
X377117D01*
X363477Y40158D02*
X359123Y30000D01*
X354770Y40158D02*
X359123Y30000D01*
X351577Y31451D02*
X352303Y30726D01*
X351577Y30000D01*
X350852Y30726D01*
X351577Y31451D01*
X347514Y42334D02*
X346063Y43060D01*
X343887Y45237D01*
Y30000D01*
X335615Y31451D02*
X336341Y30726D01*
X335615Y30000D01*
X334890Y30726D01*
X335615Y31451D01*
X330826Y41609D02*
Y42334D01*
X330101Y43786D01*
X329375Y44511D01*
X327924Y45237D01*
X325022D01*
X323571Y44511D01*
X322845Y43786D01*
X322120Y42334D01*
Y40883D01*
X322845Y39432D01*
X324296Y37256D01*
X331552Y30000D01*
X321394D01*
D12*
X872190Y495310D02*
X879570D01*
X872190Y456190D02*
Y463568D01*
X903930Y456190D02*
X911310D01*
Y487932D02*
Y495310D01*
X903930D02*
X911310D01*
Y456190D02*
Y463568D01*
X872190Y456190D02*
X879570D01*
X872190Y487932D02*
Y495310D01*
X829216Y472750D02*
X837216D01*
X829216Y451750D02*
X837216D01*
X807216D02*
X814716D01*
X807216Y472750D02*
X815216D01*
X837216Y451750D02*
Y472750D01*
X807216Y451750D02*
Y472750D01*
X865500Y422750D02*
X873500D01*
X865500Y443750D02*
X873500D01*
X888000D02*
X895500D01*
X887500Y422750D02*
X895500D01*
X865500D02*
Y443750D01*
X895500Y422750D02*
Y443750D01*
X498497Y258818D02*
X501679Y262000D01*
X498497Y258818D02*
X505568Y251747D01*
X508750Y254929D01*
X515821Y262000D02*
X519003Y265182D01*
X511932Y272253D02*
X519003Y265182D01*
X508750Y269071D02*
X511932Y272253D01*
X196821Y297750D02*
X200003Y300932D01*
X192932Y308003D02*
X200003Y300932D01*
X189750Y304821D02*
X192932Y308003D01*
X179497Y294568D02*
X182679Y297750D01*
X179497Y294568D02*
X186568Y287497D01*
X189750Y290679D01*
X178568Y295747D02*
X181750Y298929D01*
X171497Y302818D02*
X178568Y295747D01*
X171497Y302818D02*
X174679Y306000D01*
X181750Y313071D02*
X184932Y316253D01*
X192003Y309182D01*
X188821Y306000D02*
X192003Y309182D01*
X220497Y261318D02*
X223679Y264500D01*
X220497Y261318D02*
X227568Y254247D01*
X230750Y257429D01*
X237821Y264500D02*
X241003Y267682D01*
X233932Y274753D02*
X241003Y267682D01*
X230750Y271571D02*
X233932Y274753D01*
X289321Y317500D02*
X292503Y320682D01*
X285432Y327753D02*
X292503Y320682D01*
X282250Y324571D02*
X285432Y327753D01*
X271997Y314318D02*
X275179Y317500D01*
X271997Y314318D02*
X279068Y307247D01*
X282250Y310429D01*
X245181Y241962D02*
X255611Y252392D01*
X261975Y246028D01*
X257025Y230472D02*
X263389Y224108D01*
X273642Y234361D01*
X267278Y240725D02*
X273642Y234361D01*
X245181Y241962D02*
X251545Y235598D01*
X256931Y253212D02*
X267361Y263642D01*
X273725Y257278D01*
X268775Y241722D02*
X275139Y235358D01*
X285392Y245611D01*
X279028Y251975D02*
X285392Y245611D01*
X256931Y253212D02*
X263295Y246848D01*
X321568Y381753D02*
X324750Y378571D01*
X314497Y374682D02*
X321568Y381753D01*
X314497Y374682D02*
X317679Y371500D01*
X324750Y364429D02*
X327932Y361247D01*
X335003Y368318D01*
X331821Y371500D02*
X335003Y368318D01*
X301568Y174003D02*
X304750Y170821D01*
X294497Y166932D02*
X301568Y174003D01*
X294497Y166932D02*
X297679Y163750D01*
X304750Y156679D02*
X307932Y153497D01*
X315003Y160568D01*
X311821Y163750D02*
X315003Y160568D01*
X339321Y133500D02*
X342503Y136682D01*
X335432Y143753D02*
X342503Y136682D01*
X332250Y140571D02*
X335432Y143753D01*
X321997Y130318D02*
X325179Y133500D01*
X321997Y130318D02*
X329068Y123247D01*
X332250Y126429D01*
X382571Y182250D02*
X385753Y185432D01*
X378682Y192503D02*
X385753Y185432D01*
X375500Y189321D02*
X378682Y192503D01*
X365247Y179068D02*
X368429Y182250D01*
X365247Y179068D02*
X372318Y171997D01*
X375500Y175179D01*
X409068Y291753D02*
X412250Y288571D01*
X401997Y284682D02*
X409068Y291753D01*
X401997Y284682D02*
X405179Y281500D01*
X412250Y274429D02*
X415432Y271247D01*
X422503Y278318D01*
X419321Y281500D02*
X422503Y278318D01*
X353071Y155250D02*
X356253Y158432D01*
X349182Y165503D02*
X356253Y158432D01*
X346000Y162321D02*
X349182Y165503D01*
X335747Y152068D02*
X338929Y155250D01*
X335747Y152068D02*
X342818Y144997D01*
X346000Y148179D01*
X330821Y155250D02*
X334003Y158432D01*
X326932Y165503D02*
X334003Y158432D01*
X323750Y162321D02*
X326932Y165503D01*
X313497Y152068D02*
X316679Y155250D01*
X313497Y152068D02*
X320568Y144997D01*
X323750Y148179D01*
X236247Y277568D02*
X239429Y280750D01*
X236247Y277568D02*
X243318Y270497D01*
X246500Y273679D01*
X253571Y280750D02*
X256753Y283932D01*
X249682Y291003D02*
X256753Y283932D01*
X246500Y287821D02*
X249682Y291003D01*
X430500Y257179D02*
X433682Y253997D01*
X440753Y261068D01*
X437571Y264250D02*
X440753Y261068D01*
X427318Y274503D02*
X430500Y271321D01*
X420247Y267432D02*
X427318Y274503D01*
X420247Y267432D02*
X423429Y264250D01*
X435747Y249068D02*
X438929Y252250D01*
X435747Y249068D02*
X442818Y241997D01*
X446000Y245179D01*
X453071Y252250D02*
X456253Y255432D01*
X449182Y262503D02*
X456253Y255432D01*
X446000Y259321D02*
X449182Y262503D01*
X368750Y317929D02*
X371932Y314747D01*
X379003Y321818D01*
X375821Y325000D02*
X379003Y321818D01*
X365568Y335253D02*
X368750Y332071D01*
X358497Y328182D02*
X365568Y335253D01*
X358497Y328182D02*
X361679Y325000D01*
X185997Y243818D02*
X189179Y247000D01*
X185997Y243818D02*
X193068Y236747D01*
X196250Y239929D01*
X203321Y247000D02*
X206503Y250182D01*
X199432Y257253D02*
X206503Y250182D01*
X196250Y254071D02*
X199432Y257253D01*
X231250Y230179D02*
X234432Y226997D01*
X241503Y234068D01*
X238321Y237250D02*
X241503Y234068D01*
X228068Y247503D02*
X231250Y244321D01*
X220997Y240432D02*
X228068Y247503D01*
X220997Y240432D02*
X224179Y237250D01*
X552318Y156997D02*
X555500Y160179D01*
X545247Y164068D02*
X552318Y156997D01*
X545247Y164068D02*
X548429Y167250D01*
X555500Y174321D02*
X558682Y177503D01*
X565753Y170432D01*
X562571Y167250D02*
X565753Y170432D01*
X88000Y95500D02*
X92500D01*
Y85500D02*
Y95500D01*
X88000Y85500D02*
X92500D01*
X73500D02*
X78000D01*
X73500D02*
Y95500D01*
X78000D01*
X125000Y84750D02*
X129500D01*
X125000D02*
Y94750D01*
X129500D01*
X139500D02*
X144000D01*
Y84750D02*
Y94750D01*
X139500Y84750D02*
X144000D01*
X513500Y207929D02*
X516682Y204747D01*
X523753Y211818D01*
X520571Y215000D02*
X523753Y211818D01*
X510318Y225253D02*
X513500Y222071D01*
X503247Y218182D02*
X510318Y225253D01*
X503247Y218182D02*
X506429Y215000D01*
X505818Y250003D02*
X509000Y246821D01*
X498747Y242932D02*
X505818Y250003D01*
X498747Y242932D02*
X501929Y239750D01*
X509000Y232679D02*
X512182Y229497D01*
X519253Y236568D01*
X516071Y239750D02*
X519253Y236568D01*
X556068Y249753D02*
X559250Y246571D01*
X548997Y242682D02*
X556068Y249753D01*
X548997Y242682D02*
X552179Y239500D01*
X559250Y232429D02*
X562432Y229247D01*
X569503Y236318D01*
X566321Y239500D02*
X569503Y236318D01*
X557571Y253500D02*
X560753Y256682D01*
X553682Y263753D02*
X560753Y256682D01*
X550500Y260571D02*
X553682Y263753D01*
X540247Y250318D02*
X543429Y253500D01*
X540247Y250318D02*
X547318Y243247D01*
X550500Y246429D01*
X572321Y268250D02*
X575503Y271432D01*
X568432Y278503D02*
X575503Y271432D01*
X565250Y275321D02*
X568432Y278503D01*
X554997Y265068D02*
X558179Y268250D01*
X554997Y265068D02*
X562068Y257997D01*
X565250Y261179D01*
X574750Y218179D02*
X577932Y214997D01*
X585003Y222068D01*
X581821Y225250D02*
X585003Y222068D01*
X571568Y235503D02*
X574750Y232321D01*
X564497Y228432D02*
X571568Y235503D01*
X564497Y228432D02*
X567679Y225250D01*
X625500Y166679D02*
X628682Y163497D01*
X635753Y170568D01*
X632571Y173750D02*
X635753Y170568D01*
X622318Y184003D02*
X625500Y180821D01*
X615247Y176932D02*
X622318Y184003D01*
X615247Y176932D02*
X618429Y173750D01*
X659250Y129679D02*
X662432Y126497D01*
X669503Y133568D01*
X666321Y136750D02*
X669503Y133568D01*
X656068Y147003D02*
X659250Y143821D01*
X648997Y139932D02*
X656068Y147003D01*
X648997Y139932D02*
X652179Y136750D01*
X640068Y164003D02*
X643250Y160821D01*
X632997Y156932D02*
X640068Y164003D01*
X632997Y156932D02*
X636179Y153750D01*
X643250Y146679D02*
X646432Y143497D01*
X653503Y150568D01*
X650321Y153750D02*
X653503Y150568D01*
X678571Y148500D02*
X681753Y151682D01*
X674682Y158753D02*
X681753Y151682D01*
X671500Y155571D02*
X674682Y158753D01*
X661247Y145318D02*
X664429Y148500D01*
X661247Y145318D02*
X668318Y138247D01*
X671500Y141429D01*
X684247Y167568D02*
X687429Y170750D01*
X684247Y167568D02*
X691318Y160497D01*
X694500Y163679D01*
X701571Y170750D02*
X704753Y173932D01*
X697682Y181003D02*
X704753Y173932D01*
X694500Y177821D02*
X697682Y181003D01*
X715321Y186500D02*
X718503Y189682D01*
X711432Y196753D02*
X718503Y189682D01*
X708250Y193571D02*
X711432Y196753D01*
X697997Y183318D02*
X701179Y186500D01*
X697997Y183318D02*
X705068Y176247D01*
X708250Y179429D01*
X821071Y240250D02*
X824253Y243432D01*
X817182Y250503D02*
X824253Y243432D01*
X814000Y247321D02*
X817182Y250503D01*
X803747Y237068D02*
X806929Y240250D01*
X803747Y237068D02*
X810818Y229997D01*
X814000Y233179D01*
X742997Y226568D02*
X746179Y229750D01*
X742997Y226568D02*
X750068Y219497D01*
X753250Y222679D01*
X760321Y229750D02*
X763503Y232932D01*
X756432Y240003D02*
X763503Y232932D01*
X753250Y236821D02*
X756432Y240003D01*
X787818Y266753D02*
X791000Y263571D01*
X780747Y259682D02*
X787818Y266753D01*
X780747Y259682D02*
X783929Y256500D01*
X791000Y249429D02*
X794182Y246247D01*
X801253Y253318D01*
X798071Y256500D02*
X801253Y253318D01*
X761247Y245068D02*
X764429Y248250D01*
X761247Y245068D02*
X768318Y237997D01*
X771500Y241179D01*
X778571Y248250D02*
X781753Y251432D01*
X774682Y258503D02*
X781753Y251432D01*
X771500Y255321D02*
X774682Y258503D01*
X700068Y332003D02*
X703250Y328821D01*
X692997Y324932D02*
X700068Y332003D01*
X692997Y324932D02*
X696179Y321750D01*
X703250Y314679D02*
X706432Y311497D01*
X713503Y318568D01*
X710321Y321750D02*
X713503Y318568D01*
X681750Y336929D02*
X684932Y333747D01*
X692003Y340818D01*
X688821Y344000D02*
X692003Y340818D01*
X678568Y354253D02*
X681750Y351071D01*
X671497Y347182D02*
X678568Y354253D01*
X671497Y347182D02*
X674679Y344000D01*
X664250Y354679D02*
X667432Y351497D01*
X674503Y358568D01*
X671321Y361750D02*
X674503Y358568D01*
X661068Y372003D02*
X664250Y368821D01*
X653997Y364932D02*
X661068Y372003D01*
X653997Y364932D02*
X657179Y361750D01*
X649247Y378318D02*
X652429Y381500D01*
X649247Y378318D02*
X656318Y371247D01*
X659500Y374429D01*
X666571Y381500D02*
X669753Y384682D01*
X662682Y391753D02*
X669753Y384682D01*
X659500Y388571D02*
X662682Y391753D01*
X655068Y413753D02*
X658250Y410571D01*
X647997Y406682D02*
X655068Y413753D01*
X647997Y406682D02*
X651179Y403500D01*
X658250Y396429D02*
X661432Y393247D01*
X668503Y400318D01*
X665321Y403500D02*
X668503Y400318D01*
X619497Y329318D02*
X622679Y332500D01*
X619497Y329318D02*
X626568Y322247D01*
X629750Y325429D01*
X636821Y332500D02*
X640003Y335682D01*
X632932Y342753D02*
X640003Y335682D01*
X629750Y339571D02*
X632932Y342753D01*
X636497Y343818D02*
X639679Y347000D01*
X636497Y343818D02*
X643568Y336747D01*
X646750Y339929D01*
X653821Y347000D02*
X657003Y350182D01*
X649932Y357253D02*
X657003Y350182D01*
X646750Y354071D02*
X649932Y357253D01*
X611321Y308250D02*
X614503Y311432D01*
X607432Y318503D02*
X614503Y311432D01*
X604250Y315321D02*
X607432Y318503D01*
X593997Y305068D02*
X597179Y308250D01*
X593997Y305068D02*
X601068Y297997D01*
X604250Y301179D01*
X649997Y94818D02*
X653179Y98000D01*
X649997Y94818D02*
X657068Y87747D01*
X660250Y90929D01*
X667321Y98000D02*
X670503Y101182D01*
X663432Y108253D02*
X670503Y101182D01*
X660250Y105071D02*
X663432Y108253D01*
X633997Y95318D02*
X637179Y98500D01*
X633997Y95318D02*
X641068Y88247D01*
X644250Y91429D01*
X651321Y98500D02*
X654503Y101682D01*
X647432Y108753D02*
X654503Y101682D01*
X644250Y105571D02*
X647432Y108753D01*
X740568Y289003D02*
X743750Y285821D01*
X733497Y281932D02*
X740568Y289003D01*
X733497Y281932D02*
X736679Y278750D01*
X743750Y271679D02*
X746932Y268497D01*
X754003Y275568D01*
X750821Y278750D02*
X754003Y275568D01*
X618568Y117003D02*
X621750Y113821D01*
X611497Y109932D02*
X618568Y117003D01*
X611497Y109932D02*
X614679Y106750D01*
X621750Y99679D02*
X624932Y96497D01*
X632003Y103568D01*
X628821Y106750D02*
X632003Y103568D01*
X591139Y238358D02*
X601569Y248788D01*
X584775Y244722D02*
X591139Y238358D01*
X583361Y266642D02*
X589725Y260278D01*
X573108Y256389D02*
X583361Y266642D01*
X573108Y256389D02*
X579472Y250025D01*
X595205Y255152D02*
X601569Y248788D01*
X650681Y324212D02*
X661111Y334642D01*
X667475Y328278D01*
X662525Y312722D02*
X668889Y306358D01*
X679142Y316611D01*
X672778Y322975D02*
X679142Y316611D01*
X650681Y324212D02*
X657045Y317848D01*
X648431Y181962D02*
X658861Y192392D01*
X665225Y186028D01*
X660275Y170472D02*
X666639Y164108D01*
X676892Y174361D01*
X670528Y180725D02*
X676892Y174361D01*
X648431Y181962D02*
X654795Y175598D01*
X725931Y255712D02*
X736361Y266142D01*
X742725Y259778D01*
X737775Y244222D02*
X744139Y237858D01*
X754392Y248111D01*
X748028Y254475D02*
X754392Y248111D01*
X725931Y255712D02*
X732295Y249348D01*
X280962Y223569D02*
X291392Y213139D01*
X285028Y206775D02*
X291392Y213139D01*
X263108Y205361D02*
X269472Y211725D01*
X263108Y205361D02*
X273361Y195108D01*
X279725Y201472D01*
X274598Y217205D02*
X280962Y223569D01*
X322181Y188712D02*
X332611Y199142D01*
X338975Y192778D01*
X334025Y177222D02*
X340389Y170858D01*
X350642Y181111D01*
X344278Y187475D02*
X350642Y181111D01*
X322181Y188712D02*
X328545Y182348D01*
X391431Y256462D02*
X401861Y266892D01*
X408225Y260528D01*
X403275Y244972D02*
X409639Y238608D01*
X419892Y248861D01*
X413528Y255225D02*
X419892Y248861D01*
X391431Y256462D02*
X397795Y250098D01*
X319431Y333712D02*
X329861Y344142D01*
X336225Y337778D01*
X331275Y322222D02*
X337639Y315858D01*
X347892Y326111D01*
X341528Y332475D02*
X347892Y326111D01*
X319431Y333712D02*
X325795Y327348D01*
X291719Y231182D02*
X306568Y246031D01*
X312932Y209969D02*
X327781Y224818D01*
X306568Y246031D02*
X312225Y240374D01*
X291719Y231182D02*
X297022Y225879D01*
X307275Y215626D02*
X312932Y209969D01*
X322124Y230475D02*
X327781Y224818D01*
X602469Y286068D02*
X617318Y271219D01*
X623682Y307281D02*
X638531Y292432D01*
X602469Y286068D02*
X608126Y291725D01*
X617318Y271219D02*
X622621Y276522D01*
X632874Y286775D02*
X638531Y292432D01*
X618025Y301624D02*
X623682Y307281D01*
X332719Y281932D02*
X347568Y296781D01*
X353932Y260719D02*
X368781Y275568D01*
X347568Y296781D02*
X353225Y291124D01*
X332719Y281932D02*
X338022Y276629D01*
X348275Y266376D02*
X353932Y260719D01*
X363124Y281225D02*
X368781Y275568D01*
X703182Y233531D02*
X718031Y218682D01*
X681969Y212318D02*
X696818Y197469D01*
X712374Y213025D02*
X718031Y218682D01*
X697879Y228228D02*
X703182Y233531D01*
X681969Y212318D02*
X687626Y217975D01*
X696818Y197469D02*
X702475Y203126D01*
X493000Y385500D02*
Y390000D01*
Y385500D02*
X503000D01*
Y390000D01*
Y400000D02*
Y404500D01*
X493000D02*
X503000D01*
X493000Y400000D02*
Y404500D01*
X173750Y475000D02*
X178250D01*
X173750D02*
Y485000D01*
X178250D01*
X188250D02*
X192750D01*
Y475000D02*
Y485000D01*
X188250Y475000D02*
X192750D01*
X166500Y73098D02*
X162268D01*
X164384D01*
Y66750D01*
X155920Y72040D02*
X156978Y73098D01*
X159094D01*
X160152Y72040D01*
Y67808D01*
X159094Y66750D01*
X156978D01*
X155920Y67808D01*
X153804Y73098D02*
Y66750D01*
Y68866D01*
X149572Y73098D01*
X152746Y69924D01*
X149572Y66750D01*
X162268Y45790D02*
X163326Y46848D01*
X165442D01*
X166500Y45790D01*
Y41558D01*
X165442Y40500D01*
X163326D01*
X162268Y41558D01*
Y43674D01*
X164384D01*
X160152Y40500D02*
Y46848D01*
X155920Y40500D01*
Y46848D01*
X153804D02*
Y40500D01*
X150630D01*
X149572Y41558D01*
Y45790D01*
X150630Y46848D01*
X153804D01*
X119750Y89098D02*
X115518D01*
X117634D01*
Y82750D01*
X113402Y89098D02*
Y82750D01*
X110228D01*
X109170Y83808D01*
Y88040D01*
X110228Y89098D01*
X113402D01*
X103880D02*
X105996D01*
X107054Y88040D01*
Y83808D01*
X105996Y82750D01*
X103880D01*
X102822Y83808D01*
Y88040D01*
X103880Y89098D01*
X124250Y32540D02*
X123192Y33598D01*
X121076D01*
X120018Y32540D01*
Y31482D01*
X121076Y30424D01*
X122134D01*
X121076D01*
X120018Y29366D01*
Y28308D01*
X121076Y27250D01*
X123192D01*
X124250Y28308D01*
X117902Y27250D02*
Y28308D01*
X116844D01*
Y27250D01*
X117902D01*
X112612Y32540D02*
X111554Y33598D01*
X109438D01*
X108380Y32540D01*
Y31482D01*
X109438Y30424D01*
X110496D01*
X109438D01*
X108380Y29366D01*
Y28308D01*
X109438Y27250D01*
X111554D01*
X112612Y28308D01*
X106264Y33598D02*
Y29366D01*
X104148Y27250D01*
X102032Y29366D01*
Y33598D01*
X98500Y117598D02*
X94268D01*
X96384D01*
Y111250D01*
X92152D02*
Y117598D01*
X90036Y115482D01*
X87920Y117598D01*
Y111250D01*
X81572Y116540D02*
X82630Y117598D01*
X84746D01*
X85804Y116540D01*
Y115482D01*
X84746Y114424D01*
X82630D01*
X81572Y113366D01*
Y112308D01*
X82630Y111250D01*
X84746D01*
X85804Y112308D01*
X104500Y18000D02*
Y22232D01*
X101326D01*
X100268Y21174D01*
Y18000D01*
X93920Y23290D02*
X94978Y24348D01*
X97094D01*
X98152Y23290D01*
Y22232D01*
X97094Y21174D01*
X94978D01*
X93920Y20116D01*
Y19058D01*
X94978Y18000D01*
X97094D01*
X98152Y19058D01*
X91804Y18000D02*
Y24348D01*
X88630D01*
X87572Y23290D01*
Y21174D01*
X88630Y20116D01*
X91804D01*
X89688D02*
X87572Y18000D01*
X81224Y23290D02*
X82282Y24348D01*
X84398D01*
X85456Y23290D01*
Y22232D01*
X84398Y21174D01*
X82282D01*
X81224Y20116D01*
Y19058D01*
X82282Y18000D01*
X84398D01*
X85456Y19058D01*
X79108Y24348D02*
X74876D01*
X76992D01*
Y18000D01*
X77500Y29250D02*
Y33482D01*
X74326D01*
X73268Y32424D01*
Y29250D01*
X71152Y35598D02*
X66920D01*
X69036D01*
Y29250D01*
X64804D02*
Y35598D01*
X61630D01*
X60572Y34540D01*
Y32424D01*
X61630Y31366D01*
X64804D01*
X62688D02*
X60572Y29250D01*
X54224Y34540D02*
X55282Y35598D01*
X57398D01*
X58456Y34540D01*
Y33482D01*
X57398Y32424D01*
X55282D01*
X54224Y31366D01*
Y30308D01*
X55282Y29250D01*
X57398D01*
X58456Y30308D01*
X52108Y35598D02*
X47876D01*
X49992D01*
Y29250D01*
X27750Y73848D02*
X23518D01*
X25634D01*
Y67500D01*
X21402Y73848D02*
Y67500D01*
X18228D01*
X17170Y68558D01*
Y72790D01*
X18228Y73848D01*
X21402D01*
X15054D02*
X12938D01*
X13996D01*
Y67500D01*
X15054D01*
X12938D01*
X22268Y46790D02*
X23326Y47848D01*
X25442D01*
X26500Y46790D01*
Y42558D01*
X25442Y41500D01*
X23326D01*
X22268Y42558D01*
Y44674D01*
X24384D01*
X20152Y41500D02*
Y47848D01*
X15920Y41500D01*
Y47848D01*
X13804D02*
Y41500D01*
X10630D01*
X9572Y42558D01*
Y46790D01*
X10630Y47848D01*
X13804D01*
X896250Y512618D02*
Y507328D01*
X895192Y506270D01*
X893076D01*
X892018Y507328D01*
Y512618D01*
X886728Y506270D02*
Y512618D01*
X889902Y509444D01*
X885670D01*
X794750Y511848D02*
Y505500D01*
X790518D01*
X788402Y510790D02*
X787344Y511848D01*
X785228D01*
X784170Y510790D01*
Y509732D01*
X785228Y508674D01*
X786286D01*
X785228D01*
X784170Y507616D01*
Y506558D01*
X785228Y505500D01*
X787344D01*
X788402Y506558D01*
X852518Y464040D02*
X853576Y465098D01*
X855692D01*
X856750Y464040D01*
Y459808D01*
X855692Y458750D01*
X853576D01*
X852518Y459808D01*
X846170Y465098D02*
X848286Y464040D01*
X850402Y461924D01*
Y459808D01*
X849344Y458750D01*
X847228D01*
X846170Y459808D01*
Y460866D01*
X847228Y461924D01*
X850402D01*
X844054Y464040D02*
X842996Y465098D01*
X840880D01*
X839822Y464040D01*
Y462982D01*
X840880Y461924D01*
X839822Y460866D01*
Y459808D01*
X840880Y458750D01*
X842996D01*
X844054Y459808D01*
Y460866D01*
X842996Y461924D01*
X844054Y462982D01*
Y464040D01*
X842996Y461924D02*
X840880D01*
X857268Y435790D02*
X858326Y436848D01*
X860442D01*
X861500Y435790D01*
Y431558D01*
X860442Y430500D01*
X858326D01*
X857268Y431558D01*
X850920Y436848D02*
X853036Y435790D01*
X855152Y433674D01*
Y431558D01*
X854094Y430500D01*
X851978D01*
X850920Y431558D01*
Y432616D01*
X851978Y433674D01*
X855152D01*
X848804Y436848D02*
X844572D01*
Y435790D01*
X848804Y431558D01*
Y430500D01*
X500518Y271790D02*
X501576Y272848D01*
X503692D01*
X504750Y271790D01*
Y267558D01*
X503692Y266500D01*
X501576D01*
X500518Y267558D01*
X494170Y272848D02*
X496286Y271790D01*
X498402Y269674D01*
Y267558D01*
X497344Y266500D01*
X495228D01*
X494170Y267558D01*
Y268616D01*
X495228Y269674D01*
X498402D01*
X488880Y266500D02*
Y272848D01*
X492054Y269674D01*
X487822D01*
X912018Y86348D02*
X914134D01*
X913076D01*
Y81058D01*
X914134Y80000D01*
X915192D01*
X916250Y81058D01*
X909902Y80000D02*
X907786D01*
X908844D01*
Y86348D01*
X909902Y85290D01*
X502000Y407750D02*
Y414098D01*
X498826D01*
X497768Y413040D01*
Y410924D01*
X498826Y409866D01*
X502000D01*
X499884D02*
X497768Y407750D01*
X495652D02*
X493536D01*
X494594D01*
Y414098D01*
X495652Y413040D01*
X269250Y286598D02*
Y280250D01*
X265018D01*
X262902D02*
X260786D01*
X261844D01*
Y286598D01*
X262902Y285540D01*
X187018Y284540D02*
X188076Y285598D01*
X190192D01*
X191250Y284540D01*
Y280308D01*
X190192Y279250D01*
X188076D01*
X187018Y280308D01*
X181728Y279250D02*
Y285598D01*
X184902Y282424D01*
X180670D01*
X177500Y309750D02*
Y316098D01*
X174326D01*
X173268Y315040D01*
Y312924D01*
X174326Y311866D01*
X177500D01*
X175384D02*
X173268Y309750D01*
X171152D02*
X169036D01*
X170094D01*
Y316098D01*
X171152Y315040D01*
X165862D02*
X164804Y316098D01*
X162688D01*
X161630Y315040D01*
Y310808D01*
X162688Y309750D01*
X164804D01*
X165862Y310808D01*
Y315040D01*
X217018Y279040D02*
X218076Y280098D01*
X220192D01*
X221250Y279040D01*
Y274808D01*
X220192Y273750D01*
X218076D01*
X217018Y274808D01*
X210670Y280098D02*
X212786Y279040D01*
X214902Y276924D01*
Y274808D01*
X213844Y273750D01*
X211728D01*
X210670Y274808D01*
Y275866D01*
X211728Y276924D01*
X214902D01*
X267268Y331540D02*
X268326Y332598D01*
X270442D01*
X271500Y331540D01*
Y327308D01*
X270442Y326250D01*
X268326D01*
X267268Y327308D01*
X265152Y332598D02*
X260920D01*
Y331540D01*
X265152Y327308D01*
Y326250D01*
X314000Y322848D02*
Y316500D01*
X309768D01*
X303420D02*
X307652D01*
X303420Y320732D01*
Y321790D01*
X304478Y322848D01*
X306594D01*
X307652Y321790D01*
X245018Y227540D02*
X246076Y228598D01*
X248192D01*
X249250Y227540D01*
Y223308D01*
X248192Y222250D01*
X246076D01*
X245018Y223308D01*
X242902Y227540D02*
X241844Y228598D01*
X239728D01*
X238670Y227540D01*
Y226482D01*
X239728Y225424D01*
X238670Y224366D01*
Y223308D01*
X239728Y222250D01*
X241844D01*
X242902Y223308D01*
Y224366D01*
X241844Y225424D01*
X242902Y226482D01*
Y227540D01*
X241844Y225424D02*
X239728D01*
X289268Y266040D02*
X290326Y267098D01*
X292442D01*
X293500Y266040D01*
Y261808D01*
X292442Y260750D01*
X290326D01*
X289268Y261808D01*
X287152D02*
X286094Y260750D01*
X283978D01*
X282920Y261808D01*
Y266040D01*
X283978Y267098D01*
X286094D01*
X287152Y266040D01*
Y264982D01*
X286094Y263924D01*
X282920D01*
X337268Y387540D02*
X338326Y388598D01*
X340442D01*
X341500Y387540D01*
Y383308D01*
X340442Y382250D01*
X338326D01*
X337268Y383308D01*
X335152Y382250D02*
X333036D01*
X334094D01*
Y388598D01*
X335152Y387540D01*
X329862D02*
X328804Y388598D01*
X326688D01*
X325630Y387540D01*
Y383308D01*
X326688Y382250D01*
X328804D01*
X329862Y383308D01*
Y387540D01*
X291268Y152790D02*
X292326Y153848D01*
X294442D01*
X295500Y152790D01*
Y148558D01*
X294442Y147500D01*
X292326D01*
X291268Y148558D01*
X289152Y147500D02*
X287036D01*
X288094D01*
Y153848D01*
X289152Y152790D01*
X283862Y147500D02*
X281746D01*
X282804D01*
Y153848D01*
X283862Y152790D01*
X347768Y128290D02*
X348826Y129348D01*
X350942D01*
X352000Y128290D01*
Y124058D01*
X350942Y123000D01*
X348826D01*
X347768Y124058D01*
X345652Y123000D02*
X343536D01*
X344594D01*
Y129348D01*
X345652Y128290D01*
X336130Y123000D02*
X340362D01*
X336130Y127232D01*
Y128290D01*
X337188Y129348D01*
X339304D01*
X340362Y128290D01*
X397018Y172290D02*
X398076Y173348D01*
X400192D01*
X401250Y172290D01*
Y168058D01*
X400192Y167000D01*
X398076D01*
X397018Y168058D01*
X394902Y167000D02*
X392786D01*
X393844D01*
Y173348D01*
X394902Y172290D01*
X389612D02*
X388554Y173348D01*
X386438D01*
X385380Y172290D01*
Y171232D01*
X386438Y170174D01*
X387496D01*
X386438D01*
X385380Y169116D01*
Y168058D01*
X386438Y167000D01*
X388554D01*
X389612Y168058D01*
X433518Y297290D02*
X434576Y298348D01*
X436692D01*
X437750Y297290D01*
Y293058D01*
X436692Y292000D01*
X434576D01*
X433518Y293058D01*
X431402Y292000D02*
X429286D01*
X430344D01*
Y298348D01*
X431402Y297290D01*
X422938Y292000D02*
Y298348D01*
X426112Y295174D01*
X421880D01*
X368018Y144790D02*
X369076Y145848D01*
X371192D01*
X372250Y144790D01*
Y140558D01*
X371192Y139500D01*
X369076D01*
X368018Y140558D01*
X365902Y139500D02*
X363786D01*
X364844D01*
Y145848D01*
X365902Y144790D01*
X356380Y145848D02*
X360612D01*
Y142674D01*
X358496Y143732D01*
X357438D01*
X356380Y142674D01*
Y140558D01*
X357438Y139500D01*
X359554D01*
X360612Y140558D01*
X304768Y139290D02*
X305826Y140348D01*
X307942D01*
X309000Y139290D01*
Y135058D01*
X307942Y134000D01*
X305826D01*
X304768Y135058D01*
X302652Y134000D02*
X300536D01*
X301594D01*
Y140348D01*
X302652Y139290D01*
X293130Y140348D02*
X295246Y139290D01*
X297362Y137174D01*
Y135058D01*
X296304Y134000D01*
X294188D01*
X293130Y135058D01*
Y136116D01*
X294188Y137174D01*
X297362D01*
X232518Y296790D02*
X233576Y297848D01*
X235692D01*
X236750Y296790D01*
Y292558D01*
X235692Y291500D01*
X233576D01*
X232518Y292558D01*
X230402Y291500D02*
X228286D01*
X229344D01*
Y297848D01*
X230402Y296790D01*
X225112Y297848D02*
X220880D01*
Y296790D01*
X225112Y292558D01*
Y291500D01*
X452768Y278540D02*
X453826Y279598D01*
X455942D01*
X457000Y278540D01*
Y274308D01*
X455942Y273250D01*
X453826D01*
X452768Y274308D01*
X450652Y273250D02*
X448536D01*
X449594D01*
Y279598D01*
X450652Y278540D01*
X445362D02*
X444304Y279598D01*
X442188D01*
X441130Y278540D01*
Y277482D01*
X442188Y276424D01*
X441130Y275366D01*
Y274308D01*
X442188Y273250D01*
X444304D01*
X445362Y274308D01*
Y275366D01*
X444304Y276424D01*
X445362Y277482D01*
Y278540D01*
X444304Y276424D02*
X442188D01*
X466268Y240790D02*
X467326Y241848D01*
X469442D01*
X470500Y240790D01*
Y236558D01*
X469442Y235500D01*
X467326D01*
X466268Y236558D01*
X464152Y235500D02*
X462036D01*
X463094D01*
Y241848D01*
X464152Y240790D01*
X458862Y236558D02*
X457804Y235500D01*
X455688D01*
X454630Y236558D01*
Y240790D01*
X455688Y241848D01*
X457804D01*
X458862Y240790D01*
Y239732D01*
X457804Y238674D01*
X454630D01*
X392768Y341540D02*
X393826Y342598D01*
X395942D01*
X397000Y341540D01*
Y337308D01*
X395942Y336250D01*
X393826D01*
X392768Y337308D01*
X386420Y336250D02*
X390652D01*
X386420Y340482D01*
Y341540D01*
X387478Y342598D01*
X389594D01*
X390652Y341540D01*
X384304D02*
X383246Y342598D01*
X381130D01*
X380072Y341540D01*
Y337308D01*
X381130Y336250D01*
X383246D01*
X384304Y337308D01*
Y341540D01*
X179018Y244540D02*
X180076Y245598D01*
X182192D01*
X183250Y244540D01*
Y240308D01*
X182192Y239250D01*
X180076D01*
X179018Y240308D01*
X172670Y239250D02*
X176902D01*
X172670Y243482D01*
Y244540D01*
X173728Y245598D01*
X175844D01*
X176902Y244540D01*
X170554Y239250D02*
X168438D01*
X169496D01*
Y245598D01*
X170554Y244540D01*
X218518Y226790D02*
X219576Y227848D01*
X221692D01*
X222750Y226790D01*
Y222558D01*
X221692Y221500D01*
X219576D01*
X218518Y222558D01*
X212170Y221500D02*
X216402D01*
X212170Y225732D01*
Y226790D01*
X213228Y227848D01*
X215344D01*
X216402Y226790D01*
X205822Y221500D02*
X210054D01*
X205822Y225732D01*
Y226790D01*
X206880Y227848D01*
X208996D01*
X210054Y226790D01*
X550500Y171250D02*
Y177598D01*
X547326D01*
X546268Y176540D01*
Y174424D01*
X547326Y173366D01*
X550500D01*
X548384D02*
X546268Y171250D01*
X544152Y176540D02*
X543094Y177598D01*
X540978D01*
X539920Y176540D01*
Y175482D01*
X540978Y174424D01*
X542036D01*
X540978D01*
X539920Y173366D01*
Y172308D01*
X540978Y171250D01*
X543094D01*
X544152Y172308D01*
X96250Y100000D02*
Y106348D01*
X93076D01*
X92018Y105290D01*
Y103174D01*
X93076Y102116D01*
X96250D01*
X94134D02*
X92018Y100000D01*
X85670Y106348D02*
X87786Y105290D01*
X89902Y103174D01*
Y101058D01*
X88844Y100000D01*
X86728D01*
X85670Y101058D01*
Y102116D01*
X86728Y103174D01*
X89902D01*
X188250Y465000D02*
Y471348D01*
X185076D01*
X184018Y470290D01*
Y468174D01*
X185076Y467116D01*
X188250D01*
X186134D02*
X184018Y465000D01*
X181902Y471348D02*
X177670D01*
Y470290D01*
X181902Y466058D01*
Y465000D01*
X148750Y98750D02*
Y105098D01*
X145576D01*
X144518Y104040D01*
Y101924D01*
X145576Y100866D01*
X148750D01*
X146634D02*
X144518Y98750D01*
X142402Y99808D02*
X141344Y98750D01*
X139228D01*
X138170Y99808D01*
Y104040D01*
X139228Y105098D01*
X141344D01*
X142402Y104040D01*
Y102982D01*
X141344Y101924D01*
X138170D01*
X505268Y209790D02*
X506326Y210848D01*
X508442D01*
X509500Y209790D01*
Y205558D01*
X508442Y204500D01*
X506326D01*
X505268Y205558D01*
X498920Y204500D02*
X503152D01*
X498920Y208732D01*
Y209790D01*
X499978Y210848D01*
X502094D01*
X503152Y209790D01*
X493630Y204500D02*
Y210848D01*
X496804Y207674D01*
X492572D01*
X500268Y234540D02*
X501326Y235598D01*
X503442D01*
X504500Y234540D01*
Y230308D01*
X503442Y229250D01*
X501326D01*
X500268Y230308D01*
X493920Y229250D02*
X498152D01*
X493920Y233482D01*
Y234540D01*
X494978Y235598D01*
X497094D01*
X498152Y234540D01*
X487572Y235598D02*
X491804D01*
Y232424D01*
X489688Y233482D01*
X488630D01*
X487572Y232424D01*
Y230308D01*
X488630Y229250D01*
X490746D01*
X491804Y230308D01*
X543268Y232290D02*
X544326Y233348D01*
X546442D01*
X547500Y232290D01*
Y228058D01*
X546442Y227000D01*
X544326D01*
X543268Y228058D01*
X536920Y227000D02*
X541152D01*
X536920Y231232D01*
Y232290D01*
X537978Y233348D01*
X540094D01*
X541152Y232290D01*
X530572Y233348D02*
X532688Y232290D01*
X534804Y230174D01*
Y228058D01*
X533746Y227000D01*
X531630D01*
X530572Y228058D01*
Y229116D01*
X531630Y230174D01*
X534804D01*
X535768Y267040D02*
X536826Y268098D01*
X538942D01*
X540000Y267040D01*
Y262808D01*
X538942Y261750D01*
X536826D01*
X535768Y262808D01*
X529420Y261750D02*
X533652D01*
X529420Y265982D01*
Y267040D01*
X530478Y268098D01*
X532594D01*
X533652Y267040D01*
X527304Y268098D02*
X523072D01*
Y267040D01*
X527304Y262808D01*
Y261750D01*
X551518Y283040D02*
X552576Y284098D01*
X554692D01*
X555750Y283040D01*
Y278808D01*
X554692Y277750D01*
X552576D01*
X551518Y278808D01*
X545170Y277750D02*
X549402D01*
X545170Y281982D01*
Y283040D01*
X546228Y284098D01*
X548344D01*
X549402Y283040D01*
X543054D02*
X541996Y284098D01*
X539880D01*
X538822Y283040D01*
Y281982D01*
X539880Y280924D01*
X538822Y279866D01*
Y278808D01*
X539880Y277750D01*
X541996D01*
X543054Y278808D01*
Y279866D01*
X541996Y280924D01*
X543054Y281982D01*
Y283040D01*
X541996Y280924D02*
X539880D01*
X563018Y213790D02*
X564076Y214848D01*
X566192D01*
X567250Y213790D01*
Y209558D01*
X566192Y208500D01*
X564076D01*
X563018Y209558D01*
X556670Y208500D02*
X560902D01*
X556670Y212732D01*
Y213790D01*
X557728Y214848D01*
X559844D01*
X560902Y213790D01*
X554554Y209558D02*
X553496Y208500D01*
X551380D01*
X550322Y209558D01*
Y213790D01*
X551380Y214848D01*
X553496D01*
X554554Y213790D01*
Y212732D01*
X553496Y211674D01*
X550322D01*
X612268Y164040D02*
X613326Y165098D01*
X615442D01*
X616500Y164040D01*
Y159808D01*
X615442Y158750D01*
X613326D01*
X612268Y159808D01*
X610152Y164040D02*
X609094Y165098D01*
X606978D01*
X605920Y164040D01*
Y162982D01*
X606978Y161924D01*
X608036D01*
X606978D01*
X605920Y160866D01*
Y159808D01*
X606978Y158750D01*
X609094D01*
X610152Y159808D01*
X603804Y164040D02*
X602746Y165098D01*
X600630D01*
X599572Y164040D01*
Y159808D01*
X600630Y158750D01*
X602746D01*
X603804Y159808D01*
Y164040D01*
X650518Y124540D02*
X651576Y125598D01*
X653692D01*
X654750Y124540D01*
Y120308D01*
X653692Y119250D01*
X651576D01*
X650518Y120308D01*
X648402Y124540D02*
X647344Y125598D01*
X645228D01*
X644170Y124540D01*
Y123482D01*
X645228Y122424D01*
X646286D01*
X645228D01*
X644170Y121366D01*
Y120308D01*
X645228Y119250D01*
X647344D01*
X648402Y120308D01*
X642054Y119250D02*
X639938D01*
X640996D01*
Y125598D01*
X642054Y124540D01*
X628268Y146290D02*
X629326Y147348D01*
X631442D01*
X632500Y146290D01*
Y142058D01*
X631442Y141000D01*
X629326D01*
X628268Y142058D01*
X626152Y146290D02*
X625094Y147348D01*
X622978D01*
X621920Y146290D01*
Y145232D01*
X622978Y144174D01*
X624036D01*
X622978D01*
X621920Y143116D01*
Y142058D01*
X622978Y141000D01*
X625094D01*
X626152Y142058D01*
X615572Y141000D02*
X619804D01*
X615572Y145232D01*
Y146290D01*
X616630Y147348D01*
X618746D01*
X619804Y146290D01*
X692518Y137040D02*
X693576Y138098D01*
X695692D01*
X696750Y137040D01*
Y132808D01*
X695692Y131750D01*
X693576D01*
X692518Y132808D01*
X690402Y137040D02*
X689344Y138098D01*
X687228D01*
X686170Y137040D01*
Y135982D01*
X687228Y134924D01*
X688286D01*
X687228D01*
X686170Y133866D01*
Y132808D01*
X687228Y131750D01*
X689344D01*
X690402Y132808D01*
X684054Y137040D02*
X682996Y138098D01*
X680880D01*
X679822Y137040D01*
Y135982D01*
X680880Y134924D01*
X681938D01*
X680880D01*
X679822Y133866D01*
Y132808D01*
X680880Y131750D01*
X682996D01*
X684054Y132808D01*
X717018Y160290D02*
X718076Y161348D01*
X720192D01*
X721250Y160290D01*
Y156058D01*
X720192Y155000D01*
X718076D01*
X717018Y156058D01*
X714902Y160290D02*
X713844Y161348D01*
X711728D01*
X710670Y160290D01*
Y159232D01*
X711728Y158174D01*
X712786D01*
X711728D01*
X710670Y157116D01*
Y156058D01*
X711728Y155000D01*
X713844D01*
X714902Y156058D01*
X705380Y155000D02*
Y161348D01*
X708554Y158174D01*
X704322D01*
X731518Y175790D02*
X732576Y176848D01*
X734692D01*
X735750Y175790D01*
Y171558D01*
X734692Y170500D01*
X732576D01*
X731518Y171558D01*
X729402Y175790D02*
X728344Y176848D01*
X726228D01*
X725170Y175790D01*
Y174732D01*
X726228Y173674D01*
X727286D01*
X726228D01*
X725170Y172616D01*
Y171558D01*
X726228Y170500D01*
X728344D01*
X729402Y171558D01*
X718822Y176848D02*
X723054D01*
Y173674D01*
X720938Y174732D01*
X719880D01*
X718822Y173674D01*
Y171558D01*
X719880Y170500D01*
X721996D01*
X723054Y171558D01*
X831268Y234790D02*
X832326Y235848D01*
X834442D01*
X835500Y234790D01*
Y230558D01*
X834442Y229500D01*
X832326D01*
X831268Y230558D01*
X829152Y234790D02*
X828094Y235848D01*
X825978D01*
X824920Y234790D01*
Y233732D01*
X825978Y232674D01*
X827036D01*
X825978D01*
X824920Y231616D01*
Y230558D01*
X825978Y229500D01*
X828094D01*
X829152Y230558D01*
X818572Y235848D02*
X820688Y234790D01*
X822804Y232674D01*
Y230558D01*
X821746Y229500D01*
X819630D01*
X818572Y230558D01*
Y231616D01*
X819630Y232674D01*
X822804D01*
X776018Y219040D02*
X777076Y220098D01*
X779192D01*
X780250Y219040D01*
Y214808D01*
X779192Y213750D01*
X777076D01*
X776018Y214808D01*
X773902Y219040D02*
X772844Y220098D01*
X770728D01*
X769670Y219040D01*
Y217982D01*
X770728Y216924D01*
X771786D01*
X770728D01*
X769670Y215866D01*
Y214808D01*
X770728Y213750D01*
X772844D01*
X773902Y214808D01*
X767554Y220098D02*
X763322D01*
Y219040D01*
X767554Y214808D01*
Y213750D01*
X805518Y272290D02*
X806576Y273348D01*
X808692D01*
X809750Y272290D01*
Y268058D01*
X808692Y267000D01*
X806576D01*
X805518Y268058D01*
X803402Y272290D02*
X802344Y273348D01*
X800228D01*
X799170Y272290D01*
Y271232D01*
X800228Y270174D01*
X801286D01*
X800228D01*
X799170Y269116D01*
Y268058D01*
X800228Y267000D01*
X802344D01*
X803402Y268058D01*
X797054Y272290D02*
X795996Y273348D01*
X793880D01*
X792822Y272290D01*
Y271232D01*
X793880Y270174D01*
X792822Y269116D01*
Y268058D01*
X793880Y267000D01*
X795996D01*
X797054Y268058D01*
Y269116D01*
X795996Y270174D01*
X797054Y271232D01*
Y272290D01*
X795996Y270174D02*
X793880D01*
X793518Y236790D02*
X794576Y237848D01*
X796692D01*
X797750Y236790D01*
Y232558D01*
X796692Y231500D01*
X794576D01*
X793518Y232558D01*
X791402Y236790D02*
X790344Y237848D01*
X788228D01*
X787170Y236790D01*
Y235732D01*
X788228Y234674D01*
X789286D01*
X788228D01*
X787170Y233616D01*
Y232558D01*
X788228Y231500D01*
X790344D01*
X791402Y232558D01*
X785054D02*
X783996Y231500D01*
X781880D01*
X780822Y232558D01*
Y236790D01*
X781880Y237848D01*
X783996D01*
X785054Y236790D01*
Y235732D01*
X783996Y234674D01*
X780822D01*
X725768Y338040D02*
X726826Y339098D01*
X728942D01*
X730000Y338040D01*
Y333808D01*
X728942Y332750D01*
X726826D01*
X725768Y333808D01*
X720478Y332750D02*
Y339098D01*
X723652Y335924D01*
X719420D01*
X717304Y338040D02*
X716246Y339098D01*
X714130D01*
X713072Y338040D01*
Y333808D01*
X714130Y332750D01*
X716246D01*
X717304Y333808D01*
Y338040D01*
X701018Y358040D02*
X702076Y359098D01*
X704192D01*
X705250Y358040D01*
Y353808D01*
X704192Y352750D01*
X702076D01*
X701018Y353808D01*
X695728Y352750D02*
Y359098D01*
X698902Y355924D01*
X694670D01*
X692554Y352750D02*
X690438D01*
X691496D01*
Y359098D01*
X692554Y358040D01*
X687018Y376290D02*
X688076Y377348D01*
X690192D01*
X691250Y376290D01*
Y372058D01*
X690192Y371000D01*
X688076D01*
X687018Y372058D01*
X681728Y371000D02*
Y377348D01*
X684902Y374174D01*
X680670D01*
X674322Y371000D02*
X678554D01*
X674322Y375232D01*
Y376290D01*
X675380Y377348D01*
X677496D01*
X678554Y376290D01*
X646018Y388290D02*
X647076Y389348D01*
X649192D01*
X650250Y388290D01*
Y384058D01*
X649192Y383000D01*
X647076D01*
X646018Y384058D01*
X640728Y383000D02*
Y389348D01*
X643902Y386174D01*
X639670D01*
X637554Y388290D02*
X636496Y389348D01*
X634380D01*
X633322Y388290D01*
Y387232D01*
X634380Y386174D01*
X635438D01*
X634380D01*
X633322Y385116D01*
Y384058D01*
X634380Y383000D01*
X636496D01*
X637554Y384058D01*
X674768Y413290D02*
X675826Y414348D01*
X677942D01*
X679000Y413290D01*
Y409058D01*
X677942Y408000D01*
X675826D01*
X674768Y409058D01*
X669478Y408000D02*
Y414348D01*
X672652Y411174D01*
X668420D01*
X663130Y408000D02*
Y414348D01*
X666304Y411174D01*
X662072D01*
X616518Y347790D02*
X617576Y348848D01*
X619692D01*
X620750Y347790D01*
Y343558D01*
X619692Y342500D01*
X617576D01*
X616518Y343558D01*
X611228Y342500D02*
Y348848D01*
X614402Y345674D01*
X610170D01*
X603822Y348848D02*
X608054D01*
Y345674D01*
X605938Y346732D01*
X604880D01*
X603822Y345674D01*
Y343558D01*
X604880Y342500D01*
X606996D01*
X608054Y343558D01*
X630518Y363040D02*
X631576Y364098D01*
X633692D01*
X634750Y363040D01*
Y358808D01*
X633692Y357750D01*
X631576D01*
X630518Y358808D01*
X625228Y357750D02*
Y364098D01*
X628402Y360924D01*
X624170D01*
X617822Y364098D02*
X619938Y363040D01*
X622054Y360924D01*
Y358808D01*
X620996Y357750D01*
X618880D01*
X617822Y358808D01*
Y359866D01*
X618880Y360924D01*
X622054D01*
X591268Y322540D02*
X592326Y323598D01*
X594442D01*
X595500Y322540D01*
Y318308D01*
X594442Y317250D01*
X592326D01*
X591268Y318308D01*
X585978Y317250D02*
Y323598D01*
X589152Y320424D01*
X584920D01*
X582804Y323598D02*
X578572D01*
Y322540D01*
X582804Y318308D01*
Y317250D01*
X676518Y94040D02*
X677576Y95098D01*
X679692D01*
X680750Y94040D01*
Y89808D01*
X679692Y88750D01*
X677576D01*
X676518Y89808D01*
X671228Y88750D02*
Y95098D01*
X674402Y91924D01*
X670170D01*
X668054Y94040D02*
X666996Y95098D01*
X664880D01*
X663822Y94040D01*
Y92982D01*
X664880Y91924D01*
X663822Y90866D01*
Y89808D01*
X664880Y88750D01*
X666996D01*
X668054Y89808D01*
Y90866D01*
X666996Y91924D01*
X668054Y92982D01*
Y94040D01*
X666996Y91924D02*
X664880D01*
X631518Y90790D02*
X632576Y91848D01*
X634692D01*
X635750Y90790D01*
Y86558D01*
X634692Y85500D01*
X632576D01*
X631518Y86558D01*
X626228Y85500D02*
Y91848D01*
X629402Y88674D01*
X625170D01*
X623054Y86558D02*
X621996Y85500D01*
X619880D01*
X618822Y86558D01*
Y90790D01*
X619880Y91848D01*
X621996D01*
X623054Y90790D01*
Y89732D01*
X621996Y88674D01*
X618822D01*
X767768Y297290D02*
X768826Y298348D01*
X770942D01*
X772000Y297290D01*
Y293058D01*
X770942Y292000D01*
X768826D01*
X767768Y293058D01*
X761420Y298348D02*
X765652D01*
Y295174D01*
X763536Y296232D01*
X762478D01*
X761420Y295174D01*
Y293058D01*
X762478Y292000D01*
X764594D01*
X765652Y293058D01*
X759304Y297290D02*
X758246Y298348D01*
X756130D01*
X755072Y297290D01*
Y293058D01*
X756130Y292000D01*
X758246D01*
X759304Y293058D01*
Y297290D01*
X613518Y101540D02*
X614576Y102598D01*
X616692D01*
X617750Y101540D01*
Y97308D01*
X616692Y96250D01*
X614576D01*
X613518Y97308D01*
X607170Y102598D02*
X611402D01*
Y99424D01*
X609286Y100482D01*
X608228D01*
X607170Y99424D01*
Y97308D01*
X608228Y96250D01*
X610344D01*
X611402Y97308D01*
X605054Y96250D02*
X602938D01*
X603996D01*
Y102598D01*
X605054Y101540D01*
X613268Y241290D02*
X614326Y242348D01*
X616442D01*
X617500Y241290D01*
Y237058D01*
X616442Y236000D01*
X614326D01*
X613268Y237058D01*
X606920Y242348D02*
X611152D01*
Y239174D01*
X609036Y240232D01*
X607978D01*
X606920Y239174D01*
Y237058D01*
X607978Y236000D01*
X610094D01*
X611152Y237058D01*
X600572Y236000D02*
X604804D01*
X600572Y240232D01*
Y241290D01*
X601630Y242348D01*
X603746D01*
X604804Y241290D01*
X678518Y302040D02*
X679576Y303098D01*
X681692D01*
X682750Y302040D01*
Y297808D01*
X681692Y296750D01*
X679576D01*
X678518Y297808D01*
X672170Y303098D02*
X676402D01*
Y299924D01*
X674286Y300982D01*
X673228D01*
X672170Y299924D01*
Y297808D01*
X673228Y296750D01*
X675344D01*
X676402Y297808D01*
X670054Y302040D02*
X668996Y303098D01*
X666880D01*
X665822Y302040D01*
Y300982D01*
X666880Y299924D01*
X667938D01*
X666880D01*
X665822Y298866D01*
Y297808D01*
X666880Y296750D01*
X668996D01*
X670054Y297808D01*
X652768Y200540D02*
X653826Y201598D01*
X655942D01*
X657000Y200540D01*
Y196308D01*
X655942Y195250D01*
X653826D01*
X652768Y196308D01*
X646420Y201598D02*
X650652D01*
Y198424D01*
X648536Y199482D01*
X647478D01*
X646420Y198424D01*
Y196308D01*
X647478Y195250D01*
X649594D01*
X650652Y196308D01*
X641130Y195250D02*
Y201598D01*
X644304Y198424D01*
X640072D01*
X717268Y257040D02*
X718326Y258098D01*
X720442D01*
X721500Y257040D01*
Y252808D01*
X720442Y251750D01*
X718326D01*
X717268Y252808D01*
X710920Y258098D02*
X715152D01*
Y254924D01*
X713036Y255982D01*
X711978D01*
X710920Y254924D01*
Y252808D01*
X711978Y251750D01*
X714094D01*
X715152Y252808D01*
X704572Y258098D02*
X708804D01*
Y254924D01*
X706688Y255982D01*
X705630D01*
X704572Y254924D01*
Y252808D01*
X705630Y251750D01*
X707746D01*
X708804Y252808D01*
X263768Y196540D02*
X264826Y197598D01*
X266942D01*
X268000Y196540D01*
Y192308D01*
X266942Y191250D01*
X264826D01*
X263768Y192308D01*
X257420Y197598D02*
X261652D01*
Y194424D01*
X259536Y195482D01*
X258478D01*
X257420Y194424D01*
Y192308D01*
X258478Y191250D01*
X260594D01*
X261652Y192308D01*
X251072Y197598D02*
X253188Y196540D01*
X255304Y194424D01*
Y192308D01*
X254246Y191250D01*
X252130D01*
X251072Y192308D01*
Y193366D01*
X252130Y194424D01*
X255304D01*
X359768Y202790D02*
X360826Y203848D01*
X362942D01*
X364000Y202790D01*
Y198558D01*
X362942Y197500D01*
X360826D01*
X359768Y198558D01*
X353420Y203848D02*
X357652D01*
Y200674D01*
X355536Y201732D01*
X354478D01*
X353420Y200674D01*
Y198558D01*
X354478Y197500D01*
X356594D01*
X357652Y198558D01*
X351304Y203848D02*
X347072D01*
Y202790D01*
X351304Y198558D01*
Y197500D01*
X389768Y239290D02*
X390826Y240348D01*
X392942D01*
X394000Y239290D01*
Y235058D01*
X392942Y234000D01*
X390826D01*
X389768Y235058D01*
X383420Y240348D02*
X387652D01*
Y237174D01*
X385536Y238232D01*
X384478D01*
X383420Y237174D01*
Y235058D01*
X384478Y234000D01*
X386594D01*
X387652Y235058D01*
X381304Y239290D02*
X380246Y240348D01*
X378130D01*
X377072Y239290D01*
Y238232D01*
X378130Y237174D01*
X377072Y236116D01*
Y235058D01*
X378130Y234000D01*
X380246D01*
X381304Y235058D01*
Y236116D01*
X380246Y237174D01*
X381304Y238232D01*
Y239290D01*
X380246Y237174D02*
X378130D01*
X317172Y344386D02*
X318230Y345444D01*
X320346D01*
X321404Y344386D01*
Y340154D01*
X320346Y339096D01*
X318230D01*
X317172Y340154D01*
X310824Y345444D02*
X315056D01*
Y342270D01*
X312940Y343328D01*
X311882D01*
X310824Y342270D01*
Y340154D01*
X311882Y339096D01*
X313998D01*
X315056Y340154D01*
X308708D02*
X307650Y339096D01*
X305534D01*
X304476Y340154D01*
Y344386D01*
X305534Y345444D01*
X307650D01*
X308708Y344386D01*
Y343328D01*
X307650Y342270D01*
X304476D01*
X335518Y247040D02*
X336576Y248098D01*
X338692D01*
X339750Y247040D01*
Y242808D01*
X338692Y241750D01*
X336576D01*
X335518Y242808D01*
X329170Y248098D02*
X331286Y247040D01*
X333402Y244924D01*
Y242808D01*
X332344Y241750D01*
X330228D01*
X329170Y242808D01*
Y243866D01*
X330228Y244924D01*
X333402D01*
X327054Y247040D02*
X325996Y248098D01*
X323880D01*
X322822Y247040D01*
Y242808D01*
X323880Y241750D01*
X325996D01*
X327054Y242808D01*
Y247040D01*
X642518Y278040D02*
X643576Y279098D01*
X645692D01*
X646750Y278040D01*
Y273808D01*
X645692Y272750D01*
X643576D01*
X642518Y273808D01*
X636170Y279098D02*
X638286Y278040D01*
X640402Y275924D01*
Y273808D01*
X639344Y272750D01*
X637228D01*
X636170Y273808D01*
Y274866D01*
X637228Y275924D01*
X640402D01*
X634054Y272750D02*
X631938D01*
X632996D01*
Y279098D01*
X634054Y278040D01*
X333268Y265040D02*
X334326Y266098D01*
X336442D01*
X337500Y265040D01*
Y260808D01*
X336442Y259750D01*
X334326D01*
X333268Y260808D01*
X326920Y266098D02*
X329036Y265040D01*
X331152Y262924D01*
Y260808D01*
X330094Y259750D01*
X327978D01*
X326920Y260808D01*
Y261866D01*
X327978Y262924D01*
X331152D01*
X320572Y259750D02*
X324804D01*
X320572Y263982D01*
Y265040D01*
X321630Y266098D01*
X323746D01*
X324804Y265040D01*
X736018Y213290D02*
X737076Y214348D01*
X739192D01*
X740250Y213290D01*
Y209058D01*
X739192Y208000D01*
X737076D01*
X736018Y209058D01*
X729670Y214348D02*
X731786Y213290D01*
X733902Y211174D01*
Y209058D01*
X732844Y208000D01*
X730728D01*
X729670Y209058D01*
Y210116D01*
X730728Y211174D01*
X733902D01*
X727554Y213290D02*
X726496Y214348D01*
X724380D01*
X723322Y213290D01*
Y212232D01*
X724380Y211174D01*
X725438D01*
X724380D01*
X723322Y210116D01*
Y209058D01*
X724380Y208000D01*
X726496D01*
X727554Y209058D01*
D13*
X804703Y528014D02*
Y531797D01*
X858297Y478203D02*
Y481986D01*
X804703Y478203D02*
X858297D01*
X804703D02*
Y481986D01*
Y531797D02*
X858297D01*
Y528014D02*
Y531797D01*
D130*
X241636Y266114D02*
X254364Y253386D01*
X263556Y268235D02*
X266385Y265407D01*
X242343Y241365D02*
X266385Y265407D01*
X239515Y244194D02*
X242343Y241365D01*
X229615Y254093D02*
X232444Y251265D01*
X229615Y254093D02*
X253657Y278135D01*
X256485Y275306D01*
X284636Y310364D02*
X297364Y297636D01*
X272615Y298343D02*
X275444Y295515D01*
X272615Y298343D02*
X296657Y322385D01*
X299485Y319556D01*
X306556Y312485D02*
X309385Y309657D01*
X285343Y285615D02*
X309385Y309657D01*
X282515Y288444D02*
X285343Y285615D01*
M02*
