G04*
G04 #@! TF.GenerationSoftware,Altium Limited,Altium Designer,19.1.8 (144)*
G04*
G04 Layer_Physical_Order=4*
G04 Layer_Color=16711680*
%FSLAX44Y44*%
%MOMM*%
G71*
G01*
G75*
%ADD13C,0.1524*%
%ADD67R,0.6000X0.5000*%
%ADD68R,0.5000X0.6000*%
G04:AMPARAMS|DCode=73|XSize=0.5mm|YSize=0.6mm|CornerRadius=0mm|HoleSize=0mm|Usage=FLASHONLY|Rotation=45.000|XOffset=0mm|YOffset=0mm|HoleType=Round|Shape=Rectangle|*
%AMROTATEDRECTD73*
4,1,4,0.0354,-0.3889,-0.3889,0.0354,-0.0354,0.3889,0.3889,-0.0354,0.0354,-0.3889,0.0*
%
%ADD73ROTATEDRECTD73*%

%ADD77R,0.8500X1.4000*%
%ADD78C,0.2032*%
%ADD79C,0.6350*%
%ADD80C,0.3810*%
%ADD82C,0.5080*%
%ADD83R,1.5000X1.5000*%
%ADD84C,1.5000*%
%ADD85R,1.5000X1.5000*%
%ADD86R,1.5500X1.5500*%
%ADD87C,1.5500*%
%ADD88C,2.9000*%
%ADD89C,1.5200*%
%ADD90C,2.0000*%
%ADD91C,5.0000*%
%ADD92C,0.7620*%
%ADD93C,1.2700*%
%ADD94R,1.7000X1.7000*%
%ADD95R,0.8500X0.2800*%
%ADD96R,0.2800X0.8500*%
%ADD97R,1.4986X4.2000*%
%ADD98R,1.8000X0.6000*%
%ADD99O,1.8000X0.6000*%
G04:AMPARAMS|DCode=100|XSize=1.4mm|YSize=1.3mm|CornerRadius=0mm|HoleSize=0mm|Usage=FLASHONLY|Rotation=315.000|XOffset=0mm|YOffset=0mm|HoleType=Round|Shape=Rectangle|*
%AMROTATEDRECTD100*
4,1,4,-0.9546,0.0354,-0.0354,0.9546,0.9546,-0.0354,0.0354,-0.9546,-0.9546,0.0354,0.0*
%
%ADD100ROTATEDRECTD100*%

G04:AMPARAMS|DCode=101|XSize=0.8mm|YSize=0.9mm|CornerRadius=0mm|HoleSize=0mm|Usage=FLASHONLY|Rotation=135.000|XOffset=0mm|YOffset=0mm|HoleType=Round|Shape=Rectangle|*
%AMROTATEDRECTD101*
4,1,4,0.6010,0.0354,-0.0354,-0.6010,-0.6010,-0.0354,0.0354,0.6010,0.6010,0.0354,0.0*
%
%ADD101ROTATEDRECTD101*%

G04:AMPARAMS|DCode=102|XSize=0.5mm|YSize=0.6mm|CornerRadius=0mm|HoleSize=0mm|Usage=FLASHONLY|Rotation=315.000|XOffset=0mm|YOffset=0mm|HoleType=Round|Shape=Rectangle|*
%AMROTATEDRECTD102*
4,1,4,-0.3889,-0.0354,0.0354,0.3889,0.3889,0.0354,-0.0354,-0.3889,-0.3889,-0.0354,0.0*
%
%ADD102ROTATEDRECTD102*%

G04:AMPARAMS|DCode=103|XSize=0.8mm|YSize=0.9mm|CornerRadius=0mm|HoleSize=0mm|Usage=FLASHONLY|Rotation=45.000|XOffset=0mm|YOffset=0mm|HoleType=Round|Shape=Rectangle|*
%AMROTATEDRECTD103*
4,1,4,0.0354,-0.6010,-0.6010,0.0354,-0.0354,0.6010,0.6010,-0.0354,0.0354,-0.6010,0.0*
%
%ADD103ROTATEDRECTD103*%

G04:AMPARAMS|DCode=104|XSize=0.85mm|YSize=1.4mm|CornerRadius=0mm|HoleSize=0mm|Usage=FLASHONLY|Rotation=135.000|XOffset=0mm|YOffset=0mm|HoleType=Round|Shape=Rectangle|*
%AMROTATEDRECTD104*
4,1,4,0.7955,0.1945,-0.1945,-0.7955,-0.7955,-0.1945,0.1945,0.7955,0.7955,0.1945,0.0*
%
%ADD104ROTATEDRECTD104*%

G04:AMPARAMS|DCode=105|XSize=0.85mm|YSize=1.4mm|CornerRadius=0mm|HoleSize=0mm|Usage=FLASHONLY|Rotation=225.000|XOffset=0mm|YOffset=0mm|HoleType=Round|Shape=Rectangle|*
%AMROTATEDRECTD105*
4,1,4,-0.1945,0.7955,0.7955,-0.1945,0.1945,-0.7955,-0.7955,0.1945,-0.1945,0.7955,0.0*
%
%ADD105ROTATEDRECTD105*%

G36*
X944932Y511449D02*
X945155Y510829D01*
X945502Y510132D01*
X945972Y509359D01*
X946564Y508510D01*
X948117Y506583D01*
X950162Y504351D01*
X951369Y503121D01*
X946879Y498631D01*
X945649Y499838D01*
X941490Y503436D01*
X940641Y504028D01*
X939868Y504498D01*
X939171Y504845D01*
X938551Y505068D01*
X938006Y505169D01*
X944831Y511994D01*
X944932Y511449D01*
D02*
G37*
G36*
X273398Y500103D02*
X273560Y499823D01*
X273748Y499575D01*
X273960Y499360D01*
X274196Y499179D01*
X274458Y499030D01*
X274744Y498915D01*
X275054Y498832D01*
X275390Y498783D01*
X275750Y498766D01*
Y496734D01*
X275390Y496717D01*
X275054Y496668D01*
X274744Y496586D01*
X274458Y496470D01*
X274196Y496321D01*
X273960Y496140D01*
X273748Y495925D01*
X273560Y495678D01*
X273398Y495397D01*
X273260Y495083D01*
Y500417D01*
X273398Y500103D01*
D02*
G37*
G36*
X896250Y497832D02*
X895650Y497340D01*
X895520D01*
Y490500D01*
X892980D01*
Y497340D01*
X892850D01*
X891859Y497143D01*
X891750Y497070D01*
X891641Y497143D01*
X890650Y497340D01*
X890520D01*
Y490500D01*
X887980D01*
Y497340D01*
X887850D01*
X886859Y497143D01*
X886750Y497070D01*
X886641Y497143D01*
X885650Y497340D01*
X885520D01*
Y490500D01*
X884250D01*
Y489230D01*
X880260D01*
Y486724D01*
X872750D01*
X871957Y486566D01*
X871648Y486360D01*
X869502D01*
X868313Y486123D01*
X867304Y485449D01*
X866235Y484379D01*
X860719Y484128D01*
X859617Y485180D01*
Y503730D01*
X849534D01*
Y505000D01*
X848264D01*
Y528590D01*
X842041D01*
X841500Y529034D01*
Y535750D01*
X896250D01*
Y497832D01*
D02*
G37*
G36*
X182393Y496909D02*
X182665Y495511D01*
X183043Y494139D01*
X183528Y492793D01*
X184120Y491473D01*
X184818Y490178D01*
X185623Y488910D01*
X186535Y487667D01*
X187553Y486450D01*
X188678Y485259D01*
X187241Y483822D01*
X186050Y484947D01*
X184833Y485965D01*
X183590Y486877D01*
X182322Y487682D01*
X181027Y488380D01*
X179707Y488972D01*
X178361Y489457D01*
X176989Y489836D01*
X175591Y490107D01*
X174167Y490273D01*
X182227Y498333D01*
X182393Y496909D01*
D02*
G37*
G36*
X91643D02*
X91915Y495511D01*
X92293Y494139D01*
X92778Y492793D01*
X93370Y491473D01*
X94068Y490178D01*
X94873Y488910D01*
X95785Y487667D01*
X96803Y486450D01*
X97928Y485259D01*
X96491Y483822D01*
X95300Y484947D01*
X94083Y485965D01*
X92840Y486877D01*
X91572Y487682D01*
X90277Y488380D01*
X88957Y488972D01*
X87611Y489457D01*
X86239Y489836D01*
X84841Y490107D01*
X83417Y490273D01*
X91477Y498333D01*
X91643Y496909D01*
D02*
G37*
G36*
X398564Y490821D02*
X395112Y485577D01*
X394740Y484840D01*
X394474Y484206D01*
X394315Y483676D01*
X394262Y483250D01*
X392738D01*
X392685Y483676D01*
X392526Y484206D01*
X392260Y484840D01*
X391888Y485577D01*
X390826Y487364D01*
X389339Y489565D01*
X387427Y492181D01*
X399573D01*
X398564Y490821D01*
D02*
G37*
G36*
X416205Y489648D02*
X415524Y489343D01*
X414760Y488916D01*
X413914Y488366D01*
X411973Y486900D01*
X409700Y484944D01*
X405670Y481092D01*
X403711Y481288D01*
X404467Y482163D01*
X405107Y483158D01*
X405630Y484273D01*
X406036Y485508D01*
X406325Y486862D01*
X406496Y488337D01*
X406552Y489931D01*
X406490Y491645D01*
X406311Y493479D01*
X406015Y495433D01*
X416205Y489648D01*
D02*
G37*
G36*
X190728Y481839D02*
X190850Y481666D01*
X191055Y481514D01*
X191342Y481382D01*
X191710Y481270D01*
X192160Y481179D01*
X192693Y481107D01*
X194003Y481026D01*
X194781Y481016D01*
Y478984D01*
X194003Y478974D01*
X192160Y478821D01*
X191710Y478730D01*
X191342Y478618D01*
X191055Y478486D01*
X190850Y478334D01*
X190728Y478161D01*
X190686Y477968D01*
Y482032D01*
X190728Y481839D01*
D02*
G37*
G36*
X171828Y482407D02*
X172337Y482115D01*
X172897Y481857D01*
X173508Y481634D01*
X174171Y481445D01*
X174869Y481294D01*
X175158Y481382D01*
X175445Y481514D01*
X175650Y481666D01*
X175772Y481839D01*
X175814Y482032D01*
Y481157D01*
X177332Y481033D01*
X178250Y481016D01*
Y478984D01*
X177396Y478963D01*
X175814Y478797D01*
Y477968D01*
X175772Y478161D01*
X175650Y478334D01*
X175445Y478486D01*
X175158Y478618D01*
X175063Y478647D01*
X174384Y478463D01*
X173732Y478233D01*
X173120Y477962D01*
X172549Y477650D01*
X172018Y477295D01*
X171528Y476899D01*
X171370Y482733D01*
X171828Y482407D01*
D02*
G37*
G36*
X867442Y480789D02*
X867957Y480469D01*
X868522Y480187D01*
X869137Y479943D01*
X869803Y479736D01*
X870519Y479567D01*
X871286Y479436D01*
X871647Y479394D01*
X872417Y479439D01*
X872620Y479491D01*
X872742Y479551D01*
X872783Y479618D01*
Y479313D01*
X873888Y479267D01*
Y477235D01*
X872970Y477216D01*
X872783Y477199D01*
Y476884D01*
X872742Y476950D01*
X872620Y477010D01*
X872417Y477063D01*
X872133Y477108D01*
X871964Y477126D01*
X871286Y477065D01*
X870519Y476934D01*
X869803Y476765D01*
X869137Y476558D01*
X868522Y476314D01*
X867957Y476032D01*
X867442Y475712D01*
X866977Y475355D01*
Y481146D01*
X867442Y480789D01*
D02*
G37*
G36*
X925500Y480869D02*
X924247Y478993D01*
X924142Y478468D01*
X918302D01*
X917113Y478231D01*
X916105Y477557D01*
X915087Y476540D01*
X913558Y476585D01*
X913340Y476851D01*
Y476981D01*
X906500D01*
Y479521D01*
X913340D01*
Y479651D01*
X913143Y480642D01*
X913069Y480751D01*
X913143Y480861D01*
X913340Y481852D01*
Y481982D01*
X906500D01*
Y483252D01*
X905230D01*
Y487242D01*
X903240D01*
Y489230D01*
X899250D01*
Y491770D01*
X903240D01*
Y494750D01*
X903043Y495741D01*
X902481Y496581D01*
X901641Y497143D01*
X900650Y497340D01*
X899733D01*
X898322Y497832D01*
Y521000D01*
X925500D01*
Y480869D01*
D02*
G37*
G36*
X910758Y474550D02*
X910880Y474490D01*
X911083Y474437D01*
X911367Y474392D01*
X911733Y474353D01*
X913318Y474279D01*
X914781Y474265D01*
Y472233D01*
X914009Y472230D01*
X911083Y472061D01*
X910880Y472009D01*
X910758Y471949D01*
X910717Y471882D01*
Y474616D01*
X910758Y474550D01*
D02*
G37*
G36*
X872783Y471882D02*
X872755Y471949D01*
X872672Y472009D01*
X872533Y472061D01*
X872338Y472107D01*
X872087Y472146D01*
X871419Y472202D01*
X869999Y472233D01*
Y474265D01*
X870528Y474269D01*
X872338Y474392D01*
X872533Y474437D01*
X872672Y474490D01*
X872755Y474550D01*
X872783Y474616D01*
Y471882D01*
D02*
G37*
G36*
X821500Y529034D02*
X820959Y528590D01*
X814736D01*
Y505000D01*
Y481410D01*
X820959D01*
X821500Y480966D01*
Y470693D01*
X820758Y470452D01*
X819976Y470440D01*
X819547Y471081D01*
X818707Y471643D01*
X817716Y471840D01*
X814736D01*
Y462250D01*
Y452660D01*
X817716D01*
X818707Y452857D01*
X819547Y453419D01*
X819976Y454060D01*
X820758Y454048D01*
X821500Y453807D01*
Y420000D01*
X779750D01*
Y535750D01*
X821500D01*
Y529034D01*
D02*
G37*
G36*
X918772Y465353D02*
X918307Y465710D01*
X917792Y466029D01*
X917227Y466311D01*
X916611Y466555D01*
X915945Y466762D01*
X915229Y466931D01*
X914463Y467063D01*
X913646Y467157D01*
X913137Y467178D01*
X911083Y467060D01*
X910880Y467007D01*
X910758Y466948D01*
X910717Y466881D01*
Y469615D01*
X910758Y469548D01*
X910880Y469489D01*
X911083Y469436D01*
X911367Y469390D01*
X911733Y469352D01*
X912928Y469296D01*
X914463Y469433D01*
X915229Y469565D01*
X915945Y469734D01*
X916611Y469941D01*
X917227Y470185D01*
X917792Y470467D01*
X918307Y470786D01*
X918772Y471143D01*
Y465353D01*
D02*
G37*
G36*
X386470Y475142D02*
X385866Y474508D01*
X384832Y473233D01*
X384403Y472592D01*
X384031Y471949D01*
X383718Y471305D01*
X383464Y470658D01*
X383267Y470008D01*
X383129Y469357D01*
X383049Y468704D01*
X378954Y472799D01*
X379607Y472879D01*
X380258Y473017D01*
X380908Y473214D01*
X381555Y473468D01*
X382200Y473781D01*
X382842Y474152D01*
X383483Y474582D01*
X384121Y475070D01*
X384758Y475616D01*
X385392Y476220D01*
X386470Y475142D01*
D02*
G37*
G36*
X399470Y474892D02*
X398866Y474258D01*
X397832Y472983D01*
X397403Y472342D01*
X397031Y471699D01*
X396718Y471055D01*
X396464Y470407D01*
X396267Y469758D01*
X396129Y469107D01*
X396049Y468454D01*
X391954Y472548D01*
X392607Y472629D01*
X393258Y472767D01*
X393908Y472963D01*
X394555Y473218D01*
X395200Y473531D01*
X395842Y473903D01*
X396483Y474332D01*
X397121Y474820D01*
X397758Y475365D01*
X398392Y475970D01*
X399470Y474892D01*
D02*
G37*
G36*
X878839Y466840D02*
X878666Y466718D01*
X878514Y466515D01*
X878382Y466231D01*
X878270Y465865D01*
X878179Y465418D01*
X878107Y464890D01*
X878026Y463589D01*
X878016Y462817D01*
X875984D01*
X875974Y463589D01*
X875821Y465418D01*
X875730Y465865D01*
X875618Y466231D01*
X875486Y466515D01*
X875334Y466718D01*
X875161Y466840D01*
X874968Y466881D01*
X879032D01*
X878839Y466840D01*
D02*
G37*
G36*
X895520Y454160D02*
X895650D01*
X896500Y453463D01*
Y442994D01*
X896198Y442758D01*
X894976Y442319D01*
X894491Y442643D01*
X893500Y442840D01*
X890520D01*
Y433250D01*
X887980D01*
Y442840D01*
X885000D01*
X884009Y442643D01*
X883169Y442081D01*
X883024Y441864D01*
X881500Y442327D01*
Y452904D01*
X882850Y454160D01*
X882980D01*
Y461000D01*
X885520D01*
Y454160D01*
X885650D01*
X886641Y454357D01*
X886750Y454430D01*
X886859Y454357D01*
X887850Y454160D01*
X887980D01*
Y461000D01*
X890520D01*
Y454160D01*
X890650D01*
X891641Y454357D01*
X891750Y454430D01*
X891859Y454357D01*
X892850Y454160D01*
X892980D01*
Y461000D01*
X895520D01*
Y454160D01*
D02*
G37*
G36*
X833410Y455283D02*
X835183D01*
X834845Y455207D01*
X834543Y454978D01*
X834276Y454597D01*
X834045Y454064D01*
X833849Y453378D01*
X833689Y452540D01*
X833616Y451952D01*
X833653Y451440D01*
X833762Y450828D01*
X833890Y450301D01*
X834039Y449859D01*
X834207Y449500D01*
X834395Y449226D01*
X833429D01*
X833423Y449111D01*
X833405Y447663D01*
X829595D01*
X829576Y449111D01*
X829566Y449226D01*
X828605D01*
X828793Y449500D01*
X828961Y449859D01*
X829110Y450301D01*
X829239Y450828D01*
X829347Y451440D01*
X829367Y451621D01*
X829290Y452540D01*
X829119Y453378D01*
X828909Y454064D01*
X828662Y454597D01*
X828376Y454978D01*
X828052Y455207D01*
X827690Y455283D01*
X829590D01*
X829595Y455765D01*
X833405D01*
X833410Y455283D01*
D02*
G37*
G36*
X545546Y449701D02*
X544965Y449626D01*
X544375Y449487D01*
X543776Y449287D01*
X543168Y449024D01*
X542551Y448700D01*
X541925Y448313D01*
X541290Y447864D01*
X540646Y447353D01*
X539331Y446144D01*
X537894Y447581D01*
X538529Y448243D01*
X539614Y449540D01*
X540063Y450175D01*
X540450Y450801D01*
X540774Y451418D01*
X541037Y452026D01*
X541237Y452625D01*
X541376Y453215D01*
X541451Y453796D01*
X545546Y449701D01*
D02*
G37*
G36*
X929630Y448501D02*
X930393Y445134D01*
X930697Y444193D01*
X931027Y443343D01*
X931382Y442583D01*
X931762Y441914D01*
X932167Y441335D01*
X932597Y440847D01*
X929903Y438153D01*
X929415Y438583D01*
X928836Y438988D01*
X928167Y439368D01*
X927407Y439723D01*
X926557Y440053D01*
X925616Y440357D01*
X923462Y440891D01*
X922249Y441120D01*
X920945Y441325D01*
X929426Y449805D01*
X929630Y448501D01*
D02*
G37*
G36*
X312546Y435452D02*
X311965Y435376D01*
X311375Y435237D01*
X310776Y435037D01*
X310168Y434774D01*
X309551Y434450D01*
X308925Y434063D01*
X308290Y433614D01*
X307646Y433103D01*
X306331Y431894D01*
X304894Y433331D01*
X305529Y433993D01*
X306614Y435290D01*
X307063Y435925D01*
X307450Y436551D01*
X307774Y437168D01*
X308037Y437776D01*
X308237Y438375D01*
X308375Y438965D01*
X308451Y439546D01*
X312546Y435452D01*
D02*
G37*
G36*
X892698Y426207D02*
X892374Y425978D01*
X892088Y425597D01*
X891841Y425064D01*
X891631Y424378D01*
X891460Y423540D01*
X891326Y422549D01*
X891174Y420111D01*
X891155Y418663D01*
X887345D01*
X887326Y420111D01*
X887040Y423540D01*
X886869Y424378D01*
X886659Y425064D01*
X886412Y425597D01*
X886126Y425978D01*
X885802Y426207D01*
X885440Y426283D01*
X893060D01*
X892698Y426207D01*
D02*
G37*
G36*
X875198D02*
X874874Y425978D01*
X874589Y425597D01*
X874341Y425064D01*
X874131Y424378D01*
X873960Y423540D01*
X873836Y422617D01*
X873903Y421690D01*
X874012Y421078D01*
X874140Y420551D01*
X874289Y420109D01*
X874457Y419750D01*
X874645Y419477D01*
X873666D01*
X873655Y418663D01*
X869845D01*
X869835Y419477D01*
X868855D01*
X869043Y419750D01*
X869211Y420109D01*
X869360Y420551D01*
X869489Y421078D01*
X869597Y421690D01*
X869652Y422198D01*
X869540Y423540D01*
X869369Y424378D01*
X869159Y425064D01*
X868912Y425597D01*
X868626Y425978D01*
X868302Y426207D01*
X867940Y426283D01*
X875560D01*
X875198Y426207D01*
D02*
G37*
G36*
X29643Y419559D02*
X29915Y418161D01*
X30293Y416789D01*
X30778Y415443D01*
X31370Y414123D01*
X32068Y412828D01*
X32873Y411560D01*
X33785Y410317D01*
X34803Y409100D01*
X35928Y407909D01*
X34491Y406472D01*
X33300Y407597D01*
X32083Y408615D01*
X30840Y409527D01*
X29572Y410332D01*
X28277Y411030D01*
X26957Y411622D01*
X25611Y412107D01*
X24239Y412485D01*
X22841Y412757D01*
X21417Y412923D01*
X29477Y420983D01*
X29643Y419559D01*
D02*
G37*
G36*
X652030Y406317D02*
X651654Y405922D01*
X652373Y405224D01*
X652206Y405329D01*
X651996Y405363D01*
X651742Y405325D01*
X651445Y405215D01*
X651105Y405034D01*
X650723Y404780D01*
X650670Y404739D01*
X650576Y404616D01*
X650190Y404039D01*
X649855Y403456D01*
X649568Y402868D01*
X649332Y402275D01*
X649145Y401676D01*
X649007Y401072D01*
X648920Y400463D01*
X644739Y404644D01*
X645348Y404731D01*
X645952Y404869D01*
X646551Y405056D01*
X647144Y405292D01*
X647732Y405579D01*
X648315Y405914D01*
X648892Y406300D01*
X649464Y406735D01*
X650031Y407220D01*
X650593Y407754D01*
X652030Y406317D01*
D02*
G37*
G36*
X634535Y409969D02*
X634685Y408285D01*
X634817Y407519D01*
X634986Y406803D01*
X635193Y406137D01*
X635437Y405521D01*
X635719Y404956D01*
X636038Y404441D01*
X636395Y403977D01*
X630605D01*
X630962Y404441D01*
X631281Y404956D01*
X631563Y405521D01*
X631807Y406137D01*
X632014Y406803D01*
X632183Y407519D01*
X632315Y408285D01*
X632409Y409102D01*
X632484Y410887D01*
X634516D01*
X634535Y409969D01*
D02*
G37*
G36*
X495064Y397733D02*
X495023Y397923D01*
X494901Y398093D01*
X494698Y398244D01*
X494413Y398374D01*
X494048Y398484D01*
X493601Y398574D01*
X493072Y398644D01*
X491772Y398724D01*
X491431Y398728D01*
X491223Y398508D01*
X490773Y397975D01*
X490367Y397431D01*
X490007Y396877D01*
X489691Y396312D01*
X489421Y395737D01*
X489195Y395152D01*
X489014Y394556D01*
X488878Y393950D01*
X488787Y393333D01*
X484583Y397537D01*
X485200Y397628D01*
X485806Y397764D01*
X486402Y397945D01*
X486987Y398171D01*
X487562Y398441D01*
X488127Y398757D01*
X488681Y399117D01*
X489225Y399523D01*
X489758Y399973D01*
X490281Y400468D01*
X491000Y399750D01*
Y400766D01*
X491772Y400776D01*
X493601Y400926D01*
X494048Y401016D01*
X494413Y401126D01*
X494698Y401256D01*
X494901Y401406D01*
X495023Y401576D01*
X495064Y401766D01*
Y397733D01*
D02*
G37*
G36*
X661852Y398595D02*
X661185Y397906D01*
X660489Y397109D01*
X661146Y396451D01*
X660981Y396559D01*
X660771Y396594D01*
X660519Y396557D01*
X660223Y396448D01*
X659883Y396266D01*
X659690Y396138D01*
X659561Y395970D01*
X658796Y394788D01*
X658508Y394229D01*
X658284Y393692D01*
X658123Y393177D01*
X658025Y392683D01*
X654169Y397009D01*
X654827Y397054D01*
X655482Y397161D01*
X656134Y397330D01*
X656784Y397561D01*
X657432Y397853D01*
X658077Y398208D01*
X658212Y398296D01*
X658269Y398402D01*
X658378Y398698D01*
X658415Y398951D01*
X658380Y399160D01*
X658272Y399325D01*
X658864Y398733D01*
X659359Y399104D01*
X659996Y399645D01*
X660631Y400247D01*
X661852Y398595D01*
D02*
G37*
G36*
X500978Y401589D02*
X501100Y401416D01*
X501305Y401264D01*
X501592Y401132D01*
X501960Y401020D01*
X502411Y400928D01*
X502943Y400857D01*
X504253Y400776D01*
X505031Y400766D01*
Y398734D01*
X504253Y398724D01*
X502411Y398571D01*
X501960Y398480D01*
X501592Y398368D01*
X501305Y398236D01*
X501100Y398084D01*
X500978Y397911D01*
X500937Y397718D01*
Y401782D01*
X500978Y401589D01*
D02*
G37*
G36*
X450106Y398669D02*
X449471Y398007D01*
X448386Y396710D01*
X447937Y396075D01*
X447550Y395449D01*
X447226Y394832D01*
X446963Y394224D01*
X446763Y393625D01*
X446624Y393035D01*
X446549Y392454D01*
X442454Y396549D01*
X443035Y396624D01*
X443625Y396763D01*
X444224Y396963D01*
X444832Y397226D01*
X445449Y397550D01*
X446075Y397937D01*
X446710Y398386D01*
X447354Y398897D01*
X448669Y400106D01*
X450106Y398669D01*
D02*
G37*
G36*
X507949Y386920D02*
X507468Y387312D01*
X506940Y387663D01*
X506367Y387973D01*
X505747Y388241D01*
X505080Y388468D01*
X504367Y388654D01*
X503608Y388798D01*
X503028Y388873D01*
X502411Y388821D01*
X501960Y388730D01*
X501592Y388618D01*
X501305Y388486D01*
X501100Y388334D01*
X500978Y388161D01*
X500937Y387968D01*
Y392032D01*
X500978Y391839D01*
X501100Y391666D01*
X501305Y391514D01*
X501592Y391382D01*
X501960Y391270D01*
X502411Y391179D01*
X502943Y391107D01*
X503013Y391103D01*
X503838Y391169D01*
X504610Y391287D01*
X505329Y391440D01*
X505992Y391626D01*
X506601Y391846D01*
X507156Y392100D01*
X507656Y392388D01*
X508101Y392710D01*
X507949Y386920D01*
D02*
G37*
G36*
X297535Y396250D02*
X297685Y394566D01*
X297817Y393799D01*
X297986Y393083D01*
X298193Y392417D01*
X298437Y391802D01*
X298719Y391236D01*
X299038Y390722D01*
X299395Y390257D01*
X293605D01*
X293962Y390722D01*
X294281Y391236D01*
X294563Y391802D01*
X294807Y392417D01*
X295014Y393083D01*
X295183Y393799D01*
X295315Y394566D01*
X295409Y395383D01*
X295484Y397168D01*
X297516D01*
X297535Y396250D01*
D02*
G37*
G36*
X669632Y389612D02*
X669432Y389523D01*
X669170Y389360D01*
X668847Y389124D01*
X668015Y388432D01*
X667360Y387825D01*
X666634Y386967D01*
X666380Y386584D01*
X666199Y386245D01*
X666089Y385948D01*
X666052Y385696D01*
X666088Y385487D01*
X666195Y385322D01*
X665482Y386035D01*
X664857Y385420D01*
X662503Y385939D01*
X663016Y386499D01*
X663465Y387087D01*
X663836Y387681D01*
X663322Y388195D01*
X663487Y388088D01*
X663696Y388052D01*
X663949Y388089D01*
X664062Y388131D01*
X664168Y388344D01*
X664422Y389014D01*
X664611Y389712D01*
X664735Y390437D01*
X664795Y391189D01*
X664790Y391970D01*
X664719Y392778D01*
X669632Y389612D01*
D02*
G37*
G36*
X366369Y391852D02*
X367001Y391321D01*
X367639Y390853D01*
X368283Y390446D01*
X368933Y390101D01*
X369588Y389819D01*
X370250Y389599D01*
X370916Y389440D01*
X371589Y389344D01*
X372267Y389310D01*
X368485Y384916D01*
X368383Y385382D01*
X368217Y385873D01*
X367987Y386389D01*
X367693Y386932D01*
X367335Y387500D01*
X366914Y388094D01*
X365878Y389358D01*
X365265Y390029D01*
X364588Y390726D01*
X365742Y392445D01*
X366369Y391852D01*
D02*
G37*
G36*
X933174Y390162D02*
X933460Y386719D01*
X933631Y385877D01*
X933841Y385189D01*
X934088Y384653D01*
X934374Y384271D01*
X934698Y384041D01*
X935060Y383965D01*
X933367D01*
X933375Y383922D01*
X933454Y383610D01*
X933546Y383342D01*
X933650Y383117D01*
X933766Y382937D01*
X928734D01*
X928850Y383117D01*
X928954Y383342D01*
X929046Y383610D01*
X929125Y383922D01*
X929133Y383965D01*
X927440D01*
X927802Y384041D01*
X928126Y384271D01*
X928411Y384653D01*
X928659Y385189D01*
X928869Y385877D01*
X929040Y386719D01*
X929174Y387713D01*
X929326Y390162D01*
X929345Y391615D01*
X933155D01*
X933174Y390162D01*
D02*
G37*
G36*
X891174Y390133D02*
X891460Y386691D01*
X891631Y385849D01*
X891841Y385161D01*
X892088Y384625D01*
X892374Y384243D01*
X892698Y384013D01*
X893060Y383937D01*
X891372D01*
X891375Y383922D01*
X891454Y383610D01*
X891546Y383342D01*
X891650Y383117D01*
X891766Y382937D01*
X886734D01*
X886850Y383117D01*
X886954Y383342D01*
X887046Y383610D01*
X887125Y383922D01*
X887128Y383937D01*
X885440D01*
X885802Y384013D01*
X886126Y384243D01*
X886412Y384625D01*
X886659Y385161D01*
X886869Y385849D01*
X887040Y386691D01*
X887173Y387685D01*
X887326Y390133D01*
X887345Y391587D01*
X891155D01*
X891174Y390133D01*
D02*
G37*
G36*
X29655Y394275D02*
X29927Y392850D01*
X30278Y391481D01*
X30710Y390168D01*
X31221Y388911D01*
X31811Y387711D01*
X32481Y386566D01*
X33231Y385477D01*
X34060Y384445D01*
X34968Y383468D01*
X33532Y382032D01*
X32555Y382940D01*
X31523Y383769D01*
X30434Y384519D01*
X29289Y385189D01*
X28089Y385779D01*
X26832Y386290D01*
X25519Y386722D01*
X24150Y387073D01*
X22725Y387346D01*
X21244Y387538D01*
X29462Y395756D01*
X29655Y394275D01*
D02*
G37*
G36*
X401851Y387490D02*
X401849Y386712D01*
X401913Y385962D01*
X402041Y385238D01*
X402233Y384541D01*
X402491Y383871D01*
X402813Y383228D01*
X403200Y382612D01*
X403651Y382023D01*
X404168Y381461D01*
X401842Y380914D01*
X401089Y381660D01*
X397504Y384850D01*
X397233Y385014D01*
X397022Y385106D01*
X401917Y388294D01*
X401851Y387490D01*
D02*
G37*
G36*
X282993Y386721D02*
X284290Y385636D01*
X284925Y385187D01*
X285551Y384800D01*
X286168Y384476D01*
X286776Y384213D01*
X287375Y384013D01*
X287965Y383875D01*
X288546Y383798D01*
X284452Y379704D01*
X284375Y380285D01*
X284237Y380875D01*
X284037Y381474D01*
X283774Y382082D01*
X283450Y382699D01*
X283063Y383325D01*
X282614Y383960D01*
X282103Y384604D01*
X280894Y385919D01*
X282331Y387356D01*
X282993Y386721D01*
D02*
G37*
G36*
X376094Y384839D02*
X376190Y384166D01*
X376349Y383500D01*
X376569Y382838D01*
X376851Y382183D01*
X377196Y381533D01*
X377603Y380889D01*
X378071Y380251D01*
X378602Y379619D01*
X379195Y378992D01*
X377476Y377838D01*
X376779Y378515D01*
X374844Y380164D01*
X374250Y380585D01*
X373682Y380943D01*
X373139Y381237D01*
X372623Y381467D01*
X372132Y381633D01*
X371666Y381735D01*
X376060Y385517D01*
X376094Y384839D01*
D02*
G37*
G36*
X655678Y374805D02*
X655513Y374912D01*
X655304Y374948D01*
X655051Y374911D01*
X654755Y374801D01*
X654416Y374620D01*
X654033Y374366D01*
X653606Y374040D01*
X652622Y373171D01*
X652164Y372725D01*
X652190Y372414D01*
X652214Y372284D01*
X652245Y372175D01*
X652280Y372086D01*
X652321Y372016D01*
X652368Y371967D01*
X652420Y371937D01*
X649839D01*
X649892Y371967D01*
X649938Y372016D01*
X649979Y372086D01*
X650015Y372175D01*
X650045Y372284D01*
X650070Y372414D01*
X650089Y372563D01*
X650111Y372921D01*
X650114Y373130D01*
X651563D01*
X650628Y374065D01*
X651171Y374622D01*
X652366Y376033D01*
X652620Y376416D01*
X652801Y376755D01*
X652911Y377052D01*
X652948Y377304D01*
X652912Y377513D01*
X652805Y377678D01*
X655678Y374805D01*
D02*
G37*
G36*
X946273Y373577D02*
X948750Y373540D01*
Y368460D01*
X946273Y368378D01*
Y368105D01*
X946138Y368172D01*
X945897Y368232D01*
X945552Y368286D01*
X944967Y368335D01*
X938025Y368107D01*
Y373893D01*
X938286Y373826D01*
X938727Y373766D01*
X940150Y373667D01*
X942735Y373629D01*
X946138Y373828D01*
X946273Y373895D01*
Y373577D01*
D02*
G37*
G36*
X320321Y371776D02*
X320209Y371840D01*
X320058Y371848D01*
X319869Y371798D01*
X319642Y371691D01*
X319376Y371527D01*
X319071Y371307D01*
X318728Y371029D01*
X317927Y370302D01*
X317808Y370185D01*
X317847Y369985D01*
X317949Y369651D01*
X318091Y369289D01*
X318274Y368899D01*
X318498Y368482D01*
X319067Y367564D01*
X319798Y366536D01*
X313702D01*
X314088Y367064D01*
X315002Y368482D01*
X315226Y368899D01*
X315409Y369289D01*
X315551Y369651D01*
X315653Y369985D01*
X315714Y370292D01*
X315734Y370571D01*
X316750D01*
X316032Y371289D01*
X316481Y371748D01*
X317486Y372892D01*
X317706Y373197D01*
X317870Y373463D01*
X317977Y373690D01*
X318027Y373880D01*
X318019Y374030D01*
X317955Y374142D01*
X320321Y371776D01*
D02*
G37*
G36*
X335787Y370690D02*
X335115Y370653D01*
X334448Y370553D01*
X333785Y370391D01*
X333128Y370168D01*
X332475Y369882D01*
X331826Y369534D01*
X331798Y369516D01*
X331693Y369231D01*
X331656Y368979D01*
X331691Y368769D01*
X331799Y368604D01*
X331241Y369162D01*
X331183Y369124D01*
X330544Y368653D01*
X329910Y368119D01*
X329281Y367523D01*
X328106Y369221D01*
X328780Y369915D01*
X329563Y370840D01*
X328925Y371478D01*
X329091Y371370D01*
X329300Y371335D01*
X329552Y371372D01*
X329848Y371481D01*
X330188Y371663D01*
X330355Y371774D01*
X330421Y371851D01*
X330840Y372447D01*
X331196Y373019D01*
X331488Y373567D01*
X331716Y374090D01*
X331881Y374589D01*
X331982Y375063D01*
X335787Y370690D01*
D02*
G37*
G36*
X668341Y370207D02*
X667992Y370099D01*
X667601Y369924D01*
X667169Y369682D01*
X666694Y369372D01*
X665620Y368551D01*
X665178Y368175D01*
X664667Y367571D01*
X664413Y367188D01*
X664231Y366848D01*
X664122Y366552D01*
X664085Y366300D01*
X664120Y366091D01*
X664228Y365925D01*
X663525Y366628D01*
X662969Y366103D01*
X660980Y366988D01*
X661535Y367583D01*
X661996Y368157D01*
X661354Y368799D01*
X661519Y368691D01*
X661729Y368656D01*
X661981Y368693D01*
X662277Y368802D01*
X662517Y368930D01*
X662823Y369471D01*
X663126Y370134D01*
X663366Y370814D01*
X663543Y371511D01*
X663657Y372225D01*
X663708Y372956D01*
X663696Y373704D01*
X668341Y370207D01*
D02*
G37*
G36*
X924475Y368107D02*
X924212Y368174D01*
X923764Y368234D01*
X922313Y368333D01*
X913522Y368460D01*
Y373540D01*
X924475Y373893D01*
Y368107D01*
D02*
G37*
G36*
X896288Y373826D02*
X896736Y373766D01*
X898187Y373667D01*
X906978Y373540D01*
Y368460D01*
X896025Y368107D01*
Y373893D01*
X896288Y373826D01*
D02*
G37*
G36*
X27999Y374410D02*
X29179Y373614D01*
X30417Y372911D01*
X31712Y372302D01*
X33064Y371787D01*
X34473Y371365D01*
X35940Y371037D01*
X37463Y370803D01*
X39043Y370663D01*
X40681Y370616D01*
Y368584D01*
X39043Y368537D01*
X37463Y368397D01*
X35940Y368162D01*
X34473Y367835D01*
X33064Y367413D01*
X31712Y366898D01*
X30417Y366289D01*
X29179Y365587D01*
X27999Y364790D01*
X26875Y363900D01*
Y375299D01*
X27999Y374410D01*
D02*
G37*
G36*
X675522Y360793D02*
X674804Y360783D01*
X674099Y360710D01*
X673405Y360574D01*
X672724Y360377D01*
X672054Y360116D01*
X671397Y359793D01*
X671283Y359726D01*
X671193Y359481D01*
X671156Y359229D01*
X671191Y359020D01*
X671299Y358854D01*
X670747Y359406D01*
X670117Y358960D01*
X669495Y358450D01*
X668885Y357877D01*
X667870Y359736D01*
X668567Y360448D01*
X669099Y361054D01*
X668425Y361728D01*
X668591Y361620D01*
X668800Y361585D01*
X669052Y361622D01*
X669348Y361731D01*
X669688Y361913D01*
X670071Y362166D01*
X670087Y362178D01*
X670263Y362380D01*
X670698Y362956D01*
X671371Y364005D01*
X671609Y364478D01*
X671782Y364917D01*
X671890Y365322D01*
X675522Y360793D01*
D02*
G37*
G36*
X923012Y359088D02*
X922973Y359278D01*
X922839Y359447D01*
X922609Y359597D01*
X922285Y359727D01*
X921867Y359836D01*
X921353Y359926D01*
X920745Y359996D01*
X919243Y360076D01*
X918351Y360086D01*
X918435Y362118D01*
X919328Y362127D01*
X921447Y362276D01*
X921967Y362366D01*
X922395Y362475D01*
X922729Y362604D01*
X922969Y362752D01*
X923117Y362921D01*
X923171Y363110D01*
X923012Y359088D01*
D02*
G37*
G36*
X877491Y363237D02*
X877973Y362981D01*
X878514Y362755D01*
X879115Y362559D01*
X879774Y362393D01*
X880141Y362324D01*
X880339Y362375D01*
X880668Y362505D01*
X880902Y362654D01*
X881043Y362824D01*
X881090Y363013D01*
Y362190D01*
X882108Y362076D01*
X883005Y362031D01*
X883960Y362016D01*
X884240Y359984D01*
X883361Y359962D01*
X882525Y359894D01*
X881732Y359782D01*
X881090Y359647D01*
Y358987D01*
X881043Y359176D01*
X880902Y359346D01*
X880668Y359495D01*
X880609Y359518D01*
X880273Y359422D01*
X879608Y359175D01*
X878985Y358883D01*
X878405Y358546D01*
X877868Y358164D01*
X877374Y357737D01*
X877256Y359974D01*
X876393Y359984D01*
Y362016D01*
X877148Y362024D01*
X877069Y363523D01*
X877491Y363237D01*
D02*
G37*
G36*
X907833Y363640D02*
X908348Y363320D01*
X908913Y363038D01*
X909529Y362794D01*
X910195Y362588D01*
X910911Y362418D01*
X911678Y362287D01*
X912495Y362193D01*
X914279Y362118D01*
Y360086D01*
X913362Y360067D01*
X911678Y359916D01*
X910911Y359785D01*
X910195Y359616D01*
X909529Y359409D01*
X908913Y359165D01*
X908348Y358883D01*
X907833Y358563D01*
X907369Y358206D01*
Y363997D01*
X907833Y363640D01*
D02*
G37*
G36*
X232993Y363971D02*
X234290Y362886D01*
X234925Y362437D01*
X235551Y362050D01*
X236168Y361726D01*
X236776Y361463D01*
X237375Y361263D01*
X237965Y361124D01*
X238546Y361049D01*
X234452Y356954D01*
X234375Y357535D01*
X234237Y358125D01*
X234037Y358724D01*
X233774Y359332D01*
X233450Y359949D01*
X233063Y360575D01*
X232614Y361210D01*
X232103Y361854D01*
X230894Y363169D01*
X232331Y364606D01*
X232993Y363971D01*
D02*
G37*
G36*
X442718Y360532D02*
X442530Y360314D01*
X442351Y360049D01*
X442182Y359736D01*
X442022Y359376D01*
X441873Y358968D01*
X441733Y358512D01*
X441483Y357457D01*
X441272Y356211D01*
X436961Y360522D01*
X437608Y360622D01*
X439262Y360983D01*
X439718Y361123D01*
X440126Y361273D01*
X440486Y361432D01*
X440799Y361601D01*
X441064Y361780D01*
X441282Y361968D01*
X442718Y360532D01*
D02*
G37*
G36*
X587085Y361631D02*
X587481Y361320D01*
X587908Y361035D01*
X588366Y360776D01*
X588854Y360544D01*
X589373Y360337D01*
X589922Y360158D01*
X590503Y360004D01*
X591113Y359877D01*
X591754Y359776D01*
X587473Y355496D01*
X587373Y356137D01*
X587092Y357327D01*
X586912Y357877D01*
X586707Y358396D01*
X586474Y358884D01*
X586216Y359342D01*
X585930Y359769D01*
X585619Y360165D01*
X585282Y360532D01*
X586718Y361968D01*
X587085Y361631D01*
D02*
G37*
G36*
X646243Y359684D02*
X646381Y359094D01*
X646581Y358495D01*
X646844Y357887D01*
X647168Y357270D01*
X647555Y356644D01*
X648004Y356009D01*
X648418Y355488D01*
X649537Y354500D01*
X649721Y354396D01*
X649852Y354356D01*
X649932Y354378D01*
X649669Y354110D01*
X649724Y354049D01*
X648287Y352613D01*
X648241Y352657D01*
X647530Y351933D01*
X647637Y352099D01*
X647671Y352309D01*
X647633Y352563D01*
X647524Y352859D01*
X647342Y353199D01*
X647088Y353582D01*
X646844Y353901D01*
X646328Y354333D01*
X645693Y354782D01*
X645067Y355168D01*
X644450Y355493D01*
X643842Y355756D01*
X643243Y355956D01*
X642653Y356094D01*
X642072Y356170D01*
X646167Y360265D01*
X646243Y359684D01*
D02*
G37*
G36*
X683892Y353076D02*
X683249Y352975D01*
X682062Y352699D01*
X681517Y352524D01*
X681005Y352326D01*
X680525Y352102D01*
X680078Y351855D01*
X679664Y351583D01*
X679282Y351287D01*
X678933Y350966D01*
X677496Y352403D01*
X677817Y352752D01*
X678113Y353134D01*
X678385Y353548D01*
X678632Y353995D01*
X678855Y354475D01*
X679054Y354987D01*
X679229Y355532D01*
X679379Y356109D01*
X679606Y357362D01*
X683892Y353076D01*
D02*
G37*
G36*
X915441Y354288D02*
X915956Y353969D01*
X916521Y353687D01*
X917137Y353442D01*
X917803Y353236D01*
X918519Y353067D01*
X919286Y352935D01*
X920102Y352841D01*
X920510Y352824D01*
X922076Y352924D01*
X922664Y353013D01*
X923160Y353122D01*
X923563Y353250D01*
X923874Y353398D01*
X924092Y353566D01*
X924218Y353754D01*
X922595Y349730D01*
X922624Y349921D01*
X922550Y350091D01*
X922372Y350242D01*
X922090Y350372D01*
X921705Y350483D01*
X921217Y350573D01*
X920624Y350644D01*
X920339Y350659D01*
X919286Y350565D01*
X918519Y350433D01*
X917803Y350264D01*
X917137Y350057D01*
X916521Y349813D01*
X915956Y349531D01*
X915441Y349212D01*
X914977Y348855D01*
Y354645D01*
X915441Y354288D01*
D02*
G37*
G36*
X453792Y355916D02*
X453235Y355319D01*
X452741Y354706D01*
X452310Y354076D01*
X451941Y353430D01*
X451636Y352767D01*
X451394Y352088D01*
X451215Y351393D01*
X451098Y350681D01*
X451045Y349952D01*
X451054Y349207D01*
X446422Y352719D01*
X446777Y352827D01*
X447173Y353002D01*
X447609Y353244D01*
X448088Y353553D01*
X448606Y353929D01*
X449768Y354882D01*
X451093Y356104D01*
X451817Y356815D01*
X453792Y355916D01*
D02*
G37*
G36*
X872025Y353449D02*
X872531Y353148D01*
X873090Y352883D01*
X873702Y352653D01*
X874367Y352458D01*
X875084Y352299D01*
X875855Y352175D01*
X877480Y352040D01*
X879399Y352175D01*
X879916Y352265D01*
X880339Y352375D01*
X880668Y352505D01*
X880902Y352654D01*
X881043Y352824D01*
X881090Y353013D01*
Y348987D01*
X881043Y349176D01*
X880902Y349346D01*
X880668Y349495D01*
X880339Y349625D01*
X879916Y349735D01*
X879399Y349824D01*
X878789Y349894D01*
X877592Y349958D01*
X875991Y349805D01*
X875229Y349666D01*
X874514Y349487D01*
X873848Y349268D01*
X873230Y349009D01*
X872659Y348711D01*
X872136Y348373D01*
X871662Y347995D01*
X871571Y353785D01*
X872025Y353449D01*
D02*
G37*
G36*
X692787Y343190D02*
X692115Y343153D01*
X691448Y343053D01*
X690785Y342891D01*
X690128Y342668D01*
X689475Y342382D01*
X688826Y342034D01*
X688798Y342016D01*
X688693Y341731D01*
X688656Y341479D01*
X688691Y341269D01*
X688799Y341104D01*
X688241Y341662D01*
X688183Y341624D01*
X687544Y341153D01*
X686910Y340619D01*
X686281Y340023D01*
X685106Y341721D01*
X685780Y342415D01*
X686563Y343340D01*
X685925Y343978D01*
X686091Y343870D01*
X686300Y343835D01*
X686552Y343872D01*
X686848Y343981D01*
X687188Y344163D01*
X687355Y344274D01*
X687421Y344351D01*
X687840Y344947D01*
X688196Y345519D01*
X688488Y346067D01*
X688716Y346590D01*
X688881Y347089D01*
X688982Y347563D01*
X692787Y343190D01*
D02*
G37*
G36*
X945023Y343558D02*
X947500Y343540D01*
Y338460D01*
X945023Y338368D01*
Y338105D01*
X944888Y338172D01*
X944647Y338232D01*
X944302Y338286D01*
X943852Y338324D01*
X938025Y338107D01*
Y343893D01*
X938273Y343826D01*
X938677Y343766D01*
X939236Y343713D01*
X941488Y343629D01*
X944888Y343828D01*
X945023Y343895D01*
Y343558D01*
D02*
G37*
G36*
X640375Y350468D02*
X640514Y349877D01*
X640714Y349277D01*
X640977Y348668D01*
X641302Y348050D01*
X641689Y347424D01*
X641716Y347385D01*
X641937Y347267D01*
X642234Y347157D01*
X642486Y347120D01*
X642695Y347156D01*
X642860Y347263D01*
X642247Y346650D01*
X642648Y346145D01*
X643856Y344831D01*
X642419Y343394D01*
X641758Y344029D01*
X640596Y344999D01*
X639987Y344390D01*
X640094Y344555D01*
X640130Y344764D01*
X640093Y345017D01*
X639983Y345313D01*
X639865Y345534D01*
X639826Y345561D01*
X639200Y345948D01*
X638582Y346273D01*
X637973Y346536D01*
X637373Y346736D01*
X636782Y346875D01*
X636200Y346952D01*
X640298Y351050D01*
X640375Y350468D01*
D02*
G37*
G36*
X575542Y340099D02*
X575019Y340694D01*
X574468Y341227D01*
X573888Y341698D01*
X573281Y342105D01*
X572645Y342450D01*
X571982Y342732D01*
X571290Y342952D01*
X570570Y343109D01*
X569822Y343203D01*
X569046Y343234D01*
X570165Y345266D01*
X571215Y345272D01*
X575638Y345541D01*
X576063Y345625D01*
X576398Y345721D01*
X576644Y345827D01*
X575542Y340099D01*
D02*
G37*
G36*
X484318Y344639D02*
X484765Y344432D01*
X485280Y344250D01*
X485862Y344092D01*
X486511Y343958D01*
X488011Y343763D01*
X488862Y343703D01*
X490765Y343654D01*
X491273Y341622D01*
X490425Y341597D01*
X489615Y341521D01*
X488842Y341395D01*
X488106Y341217D01*
X487408Y340990D01*
X486748Y340712D01*
X486125Y340383D01*
X485540Y340004D01*
X484992Y339574D01*
X484482Y339094D01*
X483937Y344870D01*
X484318Y344639D01*
D02*
G37*
G36*
X338242Y339448D02*
X337641Y339379D01*
X337034Y339248D01*
X336421Y339054D01*
X335802Y338799D01*
X335176Y338482D01*
X334545Y338103D01*
X334042Y337754D01*
X333913Y337559D01*
X333731Y337220D01*
X333622Y336923D01*
X333585Y336671D01*
X333620Y336462D01*
X333728Y336297D01*
X333051Y336973D01*
X332615Y336593D01*
X331960Y335965D01*
X330576Y337456D01*
X331220Y338124D01*
X331531Y338493D01*
X330854Y339170D01*
X331020Y339063D01*
X331228Y339027D01*
X331481Y339064D01*
X331777Y339174D01*
X332117Y339355D01*
X332409Y339549D01*
X332776Y340058D01*
X333171Y340679D01*
X333503Y341287D01*
X333772Y341884D01*
X333979Y342468D01*
X334124Y343040D01*
X334206Y343601D01*
X338242Y339448D01*
D02*
G37*
G36*
X924475Y338107D02*
X924212Y338174D01*
X923764Y338234D01*
X922313Y338333D01*
X913522Y338460D01*
Y343540D01*
X924475Y343893D01*
Y338107D01*
D02*
G37*
G36*
X896288Y343826D02*
X896736Y343766D01*
X898187Y343667D01*
X906978Y343540D01*
Y338460D01*
X896025Y338107D01*
Y343893D01*
X896288Y343826D01*
D02*
G37*
G36*
X230414Y344297D02*
X231717Y343192D01*
X232349Y342734D01*
X232967Y342337D01*
X233573Y342004D01*
X234166Y341732D01*
X234746Y341523D01*
X235313Y341376D01*
X235867Y341292D01*
X231697Y337274D01*
X231630Y337881D01*
X231501Y338493D01*
X231310Y339110D01*
X231057Y339733D01*
X230742Y340360D01*
X230365Y340993D01*
X229926Y341631D01*
X229425Y342274D01*
X228862Y342922D01*
X228238Y343576D01*
X229744Y344943D01*
X230414Y344297D01*
D02*
G37*
G36*
X630968Y343494D02*
X630967Y342718D01*
X631031Y341967D01*
X631160Y341244D01*
X631354Y340547D01*
X631612Y339878D01*
X631787Y339529D01*
X632019Y339443D01*
X632271Y339406D01*
X632481Y339441D01*
X632646Y339549D01*
X632088Y338991D01*
X632322Y338618D01*
X632775Y338029D01*
X633292Y337466D01*
X630972Y336912D01*
X630489Y337392D01*
X629772Y336675D01*
X629880Y336841D01*
X629915Y337049D01*
X629878Y337302D01*
X629769Y337598D01*
X629587Y337938D01*
X629333Y338321D01*
X629037Y338708D01*
X626628Y340848D01*
X626355Y341013D01*
X626142Y341105D01*
X631033Y344298D01*
X630968Y343494D01*
D02*
G37*
G36*
X520691Y338538D02*
X521206Y338219D01*
X521771Y337937D01*
X522387Y337693D01*
X523053Y337486D01*
X523769Y337317D01*
X524535Y337185D01*
X525352Y337091D01*
X527137Y337016D01*
Y334984D01*
X526219Y334965D01*
X524535Y334815D01*
X523769Y334683D01*
X523053Y334514D01*
X522387Y334308D01*
X521771Y334063D01*
X521206Y333781D01*
X520691Y333462D01*
X520227Y333105D01*
Y338895D01*
X520691Y338538D01*
D02*
G37*
G36*
X872015Y339816D02*
X872153Y339226D01*
X872353Y338627D01*
X872616Y338019D01*
X872941Y337402D01*
X873327Y336776D01*
X873776Y336141D01*
X874288Y335496D01*
X875496Y334181D01*
X874060Y332744D01*
X873398Y333380D01*
X872100Y334464D01*
X871465Y334913D01*
X870839Y335300D01*
X870222Y335625D01*
X869614Y335887D01*
X869015Y336088D01*
X868425Y336226D01*
X867844Y336302D01*
X871939Y340397D01*
X872015Y339816D01*
D02*
G37*
G36*
X372796Y331951D02*
X372215Y331875D01*
X371625Y331737D01*
X371026Y331537D01*
X370418Y331274D01*
X369801Y330950D01*
X369175Y330563D01*
X368949Y330403D01*
X368948Y330402D01*
X368767Y330063D01*
X368657Y329767D01*
X368620Y329514D01*
X368656Y329305D01*
X368763Y329140D01*
X368121Y329782D01*
X367896Y329603D01*
X366581Y328394D01*
X365144Y329831D01*
X365779Y330493D01*
X366522Y331381D01*
X365890Y332013D01*
X366055Y331906D01*
X366264Y331870D01*
X366516Y331907D01*
X366813Y332017D01*
X367152Y332198D01*
X367153Y332199D01*
X367313Y332425D01*
X367700Y333051D01*
X368024Y333668D01*
X368287Y334276D01*
X368487Y334875D01*
X368625Y335465D01*
X368702Y336046D01*
X372796Y331951D01*
D02*
G37*
G36*
X563166Y331513D02*
X562650Y332173D01*
X562111Y332763D01*
X561547Y333283D01*
X560960Y333735D01*
X560348Y334116D01*
X559713Y334429D01*
X559053Y334672D01*
X558369Y334845D01*
X557662Y334949D01*
X556930Y334984D01*
X557460Y337016D01*
X564620Y337194D01*
X563166Y331513D01*
D02*
G37*
G36*
X882475Y333893D02*
X880289Y331024D01*
X880390Y331218D01*
X880382Y331391D01*
X880266Y331544D01*
X880040Y331677D01*
X879706Y331789D01*
X879263Y331881D01*
X878712Y331952D01*
X877282Y332034D01*
X876404Y332044D01*
X877024Y334076D01*
X882475Y333893D01*
D02*
G37*
G36*
X325291Y332184D02*
X325456Y332335D01*
X326877Y330882D01*
X326738Y330738D01*
X327453Y330022D01*
X327288Y330130D01*
X327079Y330165D01*
X326827Y330128D01*
X326530Y330019D01*
X326191Y329837D01*
X325808Y329584D01*
X325525Y329367D01*
X325150Y328920D01*
X324698Y328285D01*
X324309Y327661D01*
X323983Y327047D01*
X323718Y326442D01*
X323515Y325847D01*
X323375Y325262D01*
X323297Y324688D01*
X319220Y328800D01*
X319807Y328874D01*
X320402Y329010D01*
X321006Y329208D01*
X321617Y329468D01*
X322237Y329791D01*
X322864Y330176D01*
X323500Y330622D01*
X323830Y330883D01*
X324141Y331250D01*
X324395Y331633D01*
X324576Y331973D01*
X324686Y332269D01*
X324723Y332522D01*
X324687Y332730D01*
X324580Y332896D01*
X325291Y332184D01*
D02*
G37*
G36*
X348251Y330440D02*
X347568Y330409D01*
X346891Y330315D01*
X346221Y330160D01*
X345557Y329942D01*
X344900Y329662D01*
X344249Y329320D01*
X343605Y328917D01*
X343342Y328725D01*
X343105Y328367D01*
X342924Y328027D01*
X342814Y327731D01*
X342777Y327478D01*
X342813Y327270D01*
X342920Y327104D01*
X342216Y327809D01*
X341711Y327332D01*
X340574Y329068D01*
X340762Y329262D01*
X340047Y329978D01*
X340212Y329870D01*
X340421Y329835D01*
X340673Y329872D01*
X340970Y329981D01*
X341309Y330163D01*
X341692Y330417D01*
X342030Y330675D01*
X342908Y331702D01*
X343332Y332293D01*
X343691Y332858D01*
X343986Y333396D01*
X344217Y333908D01*
X344385Y334393D01*
X344488Y334851D01*
X348251Y330440D01*
D02*
G37*
G36*
X922657Y329580D02*
X922667Y329771D01*
X922576Y329941D01*
X922386Y330092D01*
X922095Y330223D01*
X921704Y330333D01*
X921213Y330424D01*
X920621Y330494D01*
X919138Y330574D01*
X918246Y330584D01*
X918683Y332616D01*
X919613Y332626D01*
X921853Y332774D01*
X922416Y332863D01*
X922888Y332972D01*
X923267Y333100D01*
X923556Y333248D01*
X923752Y333416D01*
X923857Y333604D01*
X922657Y329580D01*
D02*
G37*
G36*
X669046Y329644D02*
X668465Y329568D01*
X667875Y329430D01*
X667276Y329229D01*
X666668Y328967D01*
X666051Y328642D01*
X665425Y328255D01*
X665176Y328079D01*
X665163Y328059D01*
X664981Y327719D01*
X664872Y327423D01*
X664835Y327171D01*
X664870Y326962D01*
X664978Y326796D01*
X664332Y327443D01*
X664146Y327295D01*
X662831Y326086D01*
X661394Y327523D01*
X662029Y328185D01*
X662740Y329035D01*
X662104Y329670D01*
X662270Y329563D01*
X662478Y329527D01*
X662731Y329564D01*
X663027Y329674D01*
X663367Y329855D01*
X663387Y329869D01*
X663563Y330117D01*
X663950Y330743D01*
X664274Y331360D01*
X664537Y331968D01*
X664737Y332567D01*
X664875Y333158D01*
X664951Y333739D01*
X669046Y329644D01*
D02*
G37*
G36*
X907333Y334138D02*
X907848Y333819D01*
X908413Y333537D01*
X909029Y333293D01*
X909695Y333086D01*
X910411Y332917D01*
X911178Y332785D01*
X911994Y332691D01*
X913779Y332616D01*
Y330584D01*
X912862Y330565D01*
X911178Y330415D01*
X910411Y330284D01*
X909695Y330114D01*
X909029Y329908D01*
X908413Y329663D01*
X907848Y329381D01*
X907333Y329062D01*
X906869Y328705D01*
Y334496D01*
X907333Y334138D01*
D02*
G37*
G36*
X706834Y329355D02*
X706421Y329248D01*
X705974Y329076D01*
X705495Y328839D01*
X704983Y328536D01*
X704437Y328168D01*
X703658Y327558D01*
X703413Y327188D01*
X703231Y326848D01*
X703122Y326552D01*
X703085Y326300D01*
X703120Y326091D01*
X703228Y325925D01*
X702540Y326613D01*
X701217Y325351D01*
X699377Y326385D01*
X699953Y326997D01*
X700466Y327621D01*
X700909Y328244D01*
X700354Y328799D01*
X700519Y328691D01*
X700729Y328656D01*
X700981Y328693D01*
X701236Y328787D01*
X701305Y328901D01*
X701630Y329557D01*
X701894Y330225D01*
X702095Y330904D01*
X702234Y331594D01*
X702310Y332296D01*
X702324Y333008D01*
X706834Y329355D01*
D02*
G37*
G36*
X623611Y335498D02*
X623727Y334859D01*
X623905Y334219D01*
X624145Y333579D01*
X624446Y332939D01*
X624720Y332456D01*
X624948Y332372D01*
X625201Y332335D01*
X625409Y332370D01*
X625575Y332478D01*
X625043Y331946D01*
X625235Y331658D01*
X625723Y331016D01*
X626272Y330375D01*
X626883Y329733D01*
X625287Y328455D01*
X624605Y329114D01*
X623321Y330224D01*
X622701Y329604D01*
X622809Y329770D01*
X622844Y329978D01*
X622807Y330231D01*
X622698Y330527D01*
X622557Y330791D01*
X622061Y331123D01*
X621470Y331468D01*
X620898Y331750D01*
X620344Y331969D01*
X619809Y332125D01*
X619291Y332218D01*
X623558Y336136D01*
X623611Y335498D01*
D02*
G37*
G36*
X605561Y333106D02*
X606181Y332600D01*
X606813Y332157D01*
X607459Y331776D01*
X608119Y331458D01*
X608791Y331203D01*
X609477Y331010D01*
X610176Y330880D01*
X610888Y330812D01*
X611613Y330807D01*
X608015Y326249D01*
X607907Y326641D01*
X607733Y327068D01*
X607493Y327531D01*
X607188Y328031D01*
X606816Y328566D01*
X605876Y329745D01*
X604673Y331068D01*
X603972Y331783D01*
X604955Y333674D01*
X605561Y333106D01*
D02*
G37*
G36*
X381015Y325083D02*
X380434Y325007D01*
X379844Y324869D01*
X379245Y324669D01*
X378637Y324406D01*
X378020Y324082D01*
X377394Y323695D01*
X376759Y323246D01*
X376677Y323181D01*
X376458Y322925D01*
X376256Y322609D01*
X376122Y322341D01*
X376056Y322119D01*
X376058Y321945D01*
X376128Y321818D01*
X375640Y322298D01*
X374799Y321526D01*
X373363Y322963D01*
X373998Y323625D01*
X374131Y323783D01*
X373433Y324470D01*
X373600Y324363D01*
X373809Y324329D01*
X374062Y324366D01*
X374359Y324476D01*
X374698Y324658D01*
X375065Y324900D01*
X375083Y324922D01*
X375532Y325557D01*
X375918Y326183D01*
X376243Y326800D01*
X376506Y327408D01*
X376706Y328007D01*
X376844Y328597D01*
X376920Y329178D01*
X381015Y325083D01*
D02*
G37*
G36*
X659414Y322669D02*
X658778Y322007D01*
X658068Y321158D01*
X658704Y320522D01*
X658538Y320630D01*
X658329Y320665D01*
X658077Y320628D01*
X657781Y320519D01*
X657441Y320337D01*
X657421Y320324D01*
X657245Y320075D01*
X656858Y319449D01*
X656533Y318832D01*
X656271Y318224D01*
X656070Y317625D01*
X655932Y317035D01*
X655856Y316454D01*
X651761Y320549D01*
X652343Y320625D01*
X652933Y320763D01*
X653531Y320963D01*
X654140Y321226D01*
X654757Y321550D01*
X655383Y321937D01*
X655631Y322113D01*
X655645Y322133D01*
X655826Y322473D01*
X655936Y322769D01*
X655973Y323022D01*
X655937Y323231D01*
X655830Y323396D01*
X656476Y322750D01*
X656662Y322897D01*
X657977Y324106D01*
X659414Y322669D01*
D02*
G37*
G36*
X218243Y329471D02*
X219540Y328386D01*
X220175Y327937D01*
X220801Y327550D01*
X221418Y327226D01*
X222026Y326963D01*
X222625Y326763D01*
X223215Y326624D01*
X223796Y326549D01*
X219701Y322454D01*
X219625Y323035D01*
X219487Y323625D01*
X219287Y324224D01*
X219024Y324832D01*
X218700Y325449D01*
X218313Y326075D01*
X217864Y326710D01*
X217353Y327354D01*
X216144Y328669D01*
X217581Y330106D01*
X218243Y329471D01*
D02*
G37*
G36*
X871124Y328965D02*
X871263Y328375D01*
X871463Y327776D01*
X871726Y327168D01*
X872050Y326551D01*
X872437Y325925D01*
X872886Y325290D01*
X873397Y324646D01*
X874606Y323331D01*
X873169Y321894D01*
X872507Y322529D01*
X871210Y323614D01*
X870575Y324063D01*
X869949Y324450D01*
X869332Y324774D01*
X868724Y325037D01*
X868125Y325237D01*
X867535Y325376D01*
X866954Y325452D01*
X871049Y329546D01*
X871124Y328965D01*
D02*
G37*
G36*
X714796Y322201D02*
X714215Y322126D01*
X713625Y321987D01*
X713026Y321787D01*
X712418Y321524D01*
X711801Y321200D01*
X711175Y320813D01*
X710631Y320429D01*
X710448Y320152D01*
X710267Y319813D01*
X710157Y319517D01*
X710120Y319264D01*
X710156Y319055D01*
X710263Y318890D01*
X709585Y319567D01*
X708581Y318644D01*
X707144Y320081D01*
X707779Y320743D01*
X708067Y321086D01*
X707390Y321763D01*
X707555Y321656D01*
X707764Y321620D01*
X708017Y321657D01*
X708313Y321767D01*
X708652Y321948D01*
X708929Y322131D01*
X709313Y322675D01*
X709700Y323301D01*
X710024Y323918D01*
X710287Y324526D01*
X710487Y325125D01*
X710626Y325715D01*
X710702Y326296D01*
X714796Y322201D01*
D02*
G37*
G36*
X334485Y322991D02*
X334632Y323127D01*
X336085Y321706D01*
X335931Y321545D01*
X336646Y320830D01*
X336480Y320938D01*
X336272Y320973D01*
X336019Y320936D01*
X335723Y320826D01*
X335383Y320645D01*
X335000Y320391D01*
X334742Y320194D01*
X334372Y319750D01*
X333926Y319114D01*
X333541Y318487D01*
X333218Y317867D01*
X332958Y317256D01*
X332760Y316652D01*
X332624Y316057D01*
X332550Y315470D01*
X328438Y319547D01*
X329012Y319625D01*
X329597Y319765D01*
X330192Y319968D01*
X330797Y320233D01*
X331411Y320559D01*
X332035Y320948D01*
X332670Y321400D01*
X332996Y321660D01*
X333334Y322058D01*
X333587Y322441D01*
X333769Y322781D01*
X333878Y323077D01*
X333915Y323329D01*
X333880Y323538D01*
X333772Y323704D01*
X334485Y322991D01*
D02*
G37*
G36*
X282375Y327842D02*
X282524Y327282D01*
X282736Y326707D01*
X283009Y326119D01*
X283346Y325517D01*
X283745Y324900D01*
X283851Y324755D01*
X283883Y324734D01*
X284223Y324552D01*
X284519Y324443D01*
X284771Y324406D01*
X284981Y324441D01*
X285146Y324549D01*
X284510Y323913D01*
X285317Y322965D01*
X285966Y322292D01*
X284618Y320766D01*
X283968Y321388D01*
X282878Y322281D01*
X282272Y321675D01*
X282380Y321841D01*
X282415Y322049D01*
X282378Y322302D01*
X282269Y322598D01*
X282162Y322798D01*
X282040Y322881D01*
X281405Y323255D01*
X280774Y323567D01*
X280148Y323817D01*
X279526Y324005D01*
X278907Y324132D01*
X278293Y324196D01*
X282289Y328388D01*
X282375Y327842D01*
D02*
G37*
G36*
X678994Y321722D02*
X678491Y321626D01*
X677967Y321467D01*
X677424Y321245D01*
X676860Y320959D01*
X676275Y320610D01*
X675671Y320199D01*
X674875Y319564D01*
X674609Y319250D01*
X674355Y318867D01*
X674174Y318527D01*
X674064Y318231D01*
X674027Y317978D01*
X674063Y317770D01*
X674170Y317604D01*
X673458Y318316D01*
X673049Y317920D01*
X671418Y319163D01*
X672000Y319774D01*
X671296Y320478D01*
X671462Y320370D01*
X671671Y320335D01*
X671923Y320372D01*
X672219Y320481D01*
X672559Y320663D01*
X672913Y320897D01*
X673051Y321080D01*
X673471Y321722D01*
X673829Y322365D01*
X674126Y323010D01*
X674360Y323656D01*
X674532Y324304D01*
X674643Y324952D01*
X674691Y325603D01*
X678994Y321722D01*
D02*
G37*
G36*
X881090Y318986D02*
X881043Y319176D01*
X880902Y319346D01*
X880668Y319495D01*
X880339Y319625D01*
X879916Y319735D01*
X879399Y319824D01*
X878789Y319894D01*
X877285Y319974D01*
X876393Y319984D01*
Y322016D01*
X877285Y322026D01*
X879399Y322175D01*
X879916Y322265D01*
X880339Y322375D01*
X880668Y322505D01*
X880902Y322654D01*
X881043Y322824D01*
X881090Y323013D01*
Y318986D01*
D02*
G37*
G36*
X923235Y318842D02*
X923175Y319030D01*
X923023Y319199D01*
X922777Y319348D01*
X922439Y319477D01*
X922008Y319586D01*
X921483Y319675D01*
X920866Y319744D01*
X919352Y319824D01*
X918455Y319834D01*
X918330Y321866D01*
X919224Y321876D01*
X921334Y322025D01*
X921846Y322115D01*
X922263Y322225D01*
X922584Y322354D01*
X922810Y322504D01*
X922940Y322674D01*
X922975Y322863D01*
X923235Y318842D01*
D02*
G37*
G36*
X909583Y323388D02*
X910098Y323069D01*
X910664Y322787D01*
X911279Y322542D01*
X911945Y322336D01*
X912661Y322166D01*
X913428Y322035D01*
X914245Y321941D01*
X916029Y321866D01*
Y319834D01*
X915112Y319815D01*
X913428Y319664D01*
X912661Y319533D01*
X911945Y319364D01*
X911279Y319157D01*
X910664Y318913D01*
X910098Y318631D01*
X909583Y318311D01*
X909119Y317954D01*
Y323745D01*
X909583Y323388D01*
D02*
G37*
G36*
X606377Y320611D02*
X606660Y319419D01*
X606842Y318868D01*
X607051Y318346D01*
X607287Y317854D01*
X607551Y317392D01*
X607841Y316959D01*
X608159Y316556D01*
X608504Y316183D01*
X607067Y314746D01*
X606694Y315091D01*
X606291Y315409D01*
X605858Y315699D01*
X605396Y315963D01*
X604904Y316199D01*
X604382Y316408D01*
X603831Y316590D01*
X603250Y316745D01*
X602639Y316873D01*
X601999Y316973D01*
X606277Y321251D01*
X606377Y320611D01*
D02*
G37*
G36*
X436852Y321348D02*
X439342Y319181D01*
X439865Y318806D01*
X440349Y318498D01*
X440792Y318256D01*
X441196Y318081D01*
X441559Y317973D01*
X436945Y314440D01*
X436951Y315181D01*
X436894Y315905D01*
X436774Y316614D01*
X436591Y317307D01*
X436346Y317985D01*
X436038Y318647D01*
X435667Y319293D01*
X435233Y319923D01*
X434736Y320538D01*
X434176Y321137D01*
X436130Y322057D01*
X436852Y321348D01*
D02*
G37*
G36*
X944523Y313559D02*
X947000Y313540D01*
Y308460D01*
X944523Y308363D01*
Y308105D01*
X944388Y308172D01*
X944147Y308232D01*
X943802Y308286D01*
X943413Y308319D01*
X938025Y308107D01*
Y313893D01*
X938268Y313826D01*
X938657Y313766D01*
X939191Y313713D01*
X941123Y313637D01*
X944388Y313828D01*
X944523Y313895D01*
Y313559D01*
D02*
G37*
G36*
X668106Y312977D02*
X667471Y312315D01*
X667216Y312010D01*
X667896Y311330D01*
X667730Y311437D01*
X667522Y311473D01*
X667269Y311436D01*
X666973Y311327D01*
X666633Y311145D01*
X666338Y310949D01*
X665937Y310383D01*
X665550Y309757D01*
X665226Y309140D01*
X664963Y308531D01*
X664763Y307932D01*
X664624Y307342D01*
X664548Y306761D01*
X660454Y310856D01*
X661035Y310932D01*
X661625Y311070D01*
X662224Y311271D01*
X662832Y311533D01*
X663449Y311858D01*
X664075Y312245D01*
X664641Y312645D01*
X664837Y312941D01*
X665019Y313281D01*
X665128Y313577D01*
X665165Y313829D01*
X665130Y314038D01*
X665022Y314204D01*
X665702Y313524D01*
X666669Y314414D01*
X668106Y312977D01*
D02*
G37*
G36*
X185877Y320563D02*
X186023Y319996D01*
X186232Y319416D01*
X186504Y318823D01*
X186837Y318218D01*
X187234Y317599D01*
X187693Y316967D01*
X188797Y315664D01*
X189443Y314994D01*
X188076Y313488D01*
X187422Y314112D01*
X186131Y315176D01*
X185493Y315615D01*
X184860Y315992D01*
X184233Y316307D01*
X183610Y316560D01*
X182993Y316751D01*
X182381Y316880D01*
X181774Y316947D01*
X185792Y321117D01*
X185877Y320563D01*
D02*
G37*
G36*
X274592Y319413D02*
X274647Y319468D01*
X275168Y318960D01*
X276481Y317835D01*
X276835Y317593D01*
X277148Y317418D01*
X277419Y317310D01*
X277648Y317268D01*
X277836Y317293D01*
X277982Y317385D01*
X277337Y316740D01*
X278817Y315298D01*
X277862Y313380D01*
X277341Y313848D01*
X276784Y314249D01*
X276190Y314582D01*
X275559Y314847D01*
X275470Y314873D01*
X275294Y314697D01*
X275386Y314843D01*
X275393Y314896D01*
X274892Y315044D01*
X274187Y315174D01*
X273446Y315236D01*
X272668Y315230D01*
X271854Y315156D01*
X271002Y315015D01*
X273766Y320218D01*
X274592Y319413D01*
D02*
G37*
G36*
X288959Y319956D02*
X288923Y319747D01*
X288959Y319496D01*
X289067Y319201D01*
X289246Y318864D01*
X289498Y318483D01*
X289821Y318059D01*
X290389Y317415D01*
X291543Y316437D01*
X291926Y316184D01*
X292266Y316002D01*
X292562Y315893D01*
X292814Y315856D01*
X293023Y315891D01*
X293189Y315999D01*
X290315Y313125D01*
X290423Y313290D01*
X290458Y313499D01*
X290421Y313752D01*
X290312Y314048D01*
X290130Y314387D01*
X289876Y314771D01*
X289550Y315197D01*
X288977Y315846D01*
X287831Y316816D01*
X287450Y317068D01*
X287113Y317247D01*
X286818Y317355D01*
X286567Y317391D01*
X286358Y317355D01*
X286193Y317247D01*
X289067Y320121D01*
X288959Y319956D01*
D02*
G37*
G36*
X463393Y310880D02*
X463411Y310651D01*
X463442Y310442D01*
X463484Y310253D01*
X463539Y310085D01*
X463607Y309936D01*
X463686Y309808D01*
X463778Y309700D01*
X463882Y309612D01*
X463998Y309544D01*
X460743D01*
X460859Y309612D01*
X460963Y309700D01*
X461055Y309808D01*
X461134Y309936D01*
X461202Y310085D01*
X461257Y310253D01*
X461300Y310442D01*
X461330Y310651D01*
X461348Y310880D01*
X461355Y311129D01*
X463387D01*
X463393Y310880D01*
D02*
G37*
G36*
X924475Y308107D02*
X924212Y308174D01*
X923764Y308234D01*
X922313Y308333D01*
X913522Y308460D01*
Y313540D01*
X924475Y313893D01*
Y308107D01*
D02*
G37*
G36*
X896288Y313826D02*
X896736Y313766D01*
X898187Y313667D01*
X906978Y313540D01*
Y308460D01*
X896025Y308107D01*
Y313893D01*
X896288Y313826D01*
D02*
G37*
G36*
X595378Y310547D02*
X595514Y309941D01*
X595696Y309344D01*
X595924Y308757D01*
X596198Y308180D01*
X596517Y307611D01*
X596883Y307053D01*
X597294Y306503D01*
X597751Y305963D01*
X598254Y305433D01*
X596817Y303996D01*
X596287Y304499D01*
X595747Y304956D01*
X595197Y305367D01*
X594639Y305732D01*
X594070Y306052D01*
X593493Y306326D01*
X592906Y306554D01*
X592309Y306736D01*
X591703Y306872D01*
X591088Y306962D01*
X595288Y311162D01*
X595378Y310547D01*
D02*
G37*
G36*
X188713Y308709D02*
X188677Y308501D01*
X188713Y308249D01*
X188820Y307955D01*
X189000Y307617D01*
X189251Y307236D01*
X189575Y306812D01*
X190051Y306273D01*
X191125Y305363D01*
X191508Y305109D01*
X191848Y304927D01*
X192058Y304850D01*
X192110Y305180D01*
X192180Y305854D01*
X192260Y307529D01*
X192269Y308529D01*
X194301Y307822D01*
X194312Y306885D01*
X194461Y304641D01*
X194550Y304084D01*
X194660Y303621D01*
X194789Y303253D01*
X194938Y302981D01*
X195107Y302803D01*
X195296Y302721D01*
X191275Y303428D01*
X191464Y303447D01*
X191633Y303576D01*
X191782Y303814D01*
X191854Y304007D01*
X189897Y302050D01*
X190005Y302215D01*
X190040Y302425D01*
X190003Y302677D01*
X189894Y302973D01*
X189712Y303313D01*
X189459Y303696D01*
X189132Y304123D01*
X188652Y304667D01*
X187585Y305570D01*
X187204Y305821D01*
X186866Y306001D01*
X186572Y306108D01*
X186320Y306144D01*
X186112Y306108D01*
X185947Y306001D01*
X188820Y308874D01*
X188713Y308709D01*
D02*
G37*
G36*
X401788Y307309D02*
X401469Y306794D01*
X401187Y306229D01*
X400943Y305613D01*
X400736Y304947D01*
X400567Y304231D01*
X400435Y303465D01*
X400341Y302648D01*
X400266Y300863D01*
X398234D01*
X398215Y301780D01*
X398065Y303465D01*
X397933Y304231D01*
X397764Y304947D01*
X397557Y305613D01*
X397313Y306229D01*
X397031Y306794D01*
X396712Y307309D01*
X396355Y307773D01*
X402145D01*
X401788Y307309D01*
D02*
G37*
G36*
X922623Y299662D02*
X922643Y299853D01*
X922562Y300024D01*
X922378Y300175D01*
X922092Y300305D01*
X921705Y300416D01*
X921215Y300506D01*
X920623Y300576D01*
X919133Y300657D01*
X918235Y300667D01*
X918746Y302699D01*
X919692Y302709D01*
X921976Y302857D01*
X922553Y302946D01*
X923038Y303054D01*
X923430Y303183D01*
X923731Y303331D01*
X923940Y303499D01*
X924056Y303687D01*
X922623Y299662D01*
D02*
G37*
G36*
X870897Y306531D02*
X870853Y305728D01*
X870875Y304958D01*
X870964Y304222D01*
X871119Y303519D01*
X871340Y302849D01*
X871628Y302212D01*
X871983Y301608D01*
X872404Y301038D01*
X872891Y300501D01*
X871057Y299461D01*
X865927Y304427D01*
X871007Y307367D01*
X870897Y306531D01*
D02*
G37*
G36*
X410809Y304637D02*
X411324Y304318D01*
X411889Y304036D01*
X412505Y303791D01*
X413171Y303585D01*
X413887Y303415D01*
X414653Y303284D01*
X415470Y303190D01*
X417255Y303115D01*
Y301083D01*
X416337Y301064D01*
X414653Y300914D01*
X413887Y300782D01*
X413171Y300613D01*
X412505Y300406D01*
X411889Y300162D01*
X411324Y299880D01*
X410809Y299561D01*
X410344Y299203D01*
Y304994D01*
X410809Y304637D01*
D02*
G37*
G36*
X907287Y304221D02*
X907802Y303902D01*
X908367Y303620D01*
X908983Y303375D01*
X909649Y303169D01*
X910365Y302999D01*
X911132Y302868D01*
X911948Y302774D01*
X913733Y302699D01*
Y300667D01*
X912815Y300648D01*
X911132Y300498D01*
X910365Y300366D01*
X909649Y300197D01*
X908983Y299990D01*
X908367Y299746D01*
X907802Y299464D01*
X907287Y299144D01*
X906823Y298787D01*
Y304578D01*
X907287Y304221D01*
D02*
G37*
G36*
X619874Y305840D02*
X620013Y305250D01*
X620213Y304650D01*
X620476Y304042D01*
X620800Y303425D01*
X621187Y302799D01*
X621620Y302187D01*
X621957Y301964D01*
X622296Y301782D01*
X622592Y301673D01*
X622845Y301636D01*
X623054Y301671D01*
X623219Y301779D01*
X622537Y301096D01*
X623356Y300205D01*
X621919Y298768D01*
X621257Y299404D01*
X621032Y299592D01*
X620345Y298905D01*
X620453Y299071D01*
X620488Y299280D01*
X620451Y299532D01*
X620342Y299828D01*
X620160Y300168D01*
X619938Y300504D01*
X619325Y300937D01*
X618699Y301324D01*
X618082Y301649D01*
X617474Y301911D01*
X616875Y302112D01*
X616285Y302250D01*
X615704Y302326D01*
X619799Y306421D01*
X619874Y305840D01*
D02*
G37*
G36*
X181516Y301513D02*
X181481Y301305D01*
X181516Y301053D01*
X181624Y300759D01*
X181804Y300421D01*
X182055Y300040D01*
X182379Y299617D01*
X182855Y299076D01*
X183929Y298167D01*
X184312Y297913D01*
X184652Y297731D01*
X184948Y297622D01*
X185201Y297585D01*
X185410Y297620D01*
X185575Y297728D01*
X182701Y294854D01*
X182809Y295019D01*
X182844Y295229D01*
X182807Y295481D01*
X182698Y295777D01*
X182516Y296117D01*
X182262Y296500D01*
X181936Y296926D01*
X181456Y297471D01*
X180389Y298374D01*
X180008Y298625D01*
X179670Y298805D01*
X179376Y298912D01*
X179124Y298948D01*
X178916Y298912D01*
X178751Y298805D01*
X181624Y301678D01*
X181516Y301513D01*
D02*
G37*
G36*
X282856Y294419D02*
X282221Y293757D01*
X281586Y292998D01*
X282229Y292355D01*
X282063Y292463D01*
X281854Y292498D01*
X281602Y292461D01*
X281306Y292352D01*
X280966Y292170D01*
X280900Y292126D01*
X280687Y291825D01*
X280300Y291199D01*
X279976Y290582D01*
X279713Y289974D01*
X279513Y289375D01*
X279375Y288785D01*
X279298Y288204D01*
X275204Y292299D01*
X275785Y292374D01*
X276375Y292513D01*
X276974Y292713D01*
X277582Y292976D01*
X278199Y293300D01*
X278825Y293687D01*
X279126Y293900D01*
X279170Y293966D01*
X279352Y294306D01*
X279461Y294602D01*
X279498Y294854D01*
X279463Y295063D01*
X279355Y295229D01*
X280011Y294573D01*
X280104Y294647D01*
X281419Y295856D01*
X282856Y294419D01*
D02*
G37*
G36*
X196773Y290355D02*
X196309Y290712D01*
X195794Y291031D01*
X195229Y291313D01*
X194613Y291558D01*
X193947Y291764D01*
X193231Y291933D01*
X192465Y292065D01*
X191648Y292159D01*
X191025Y292185D01*
X189389Y292071D01*
X188837Y291980D01*
X188373Y291868D01*
X187999Y291736D01*
X187715Y291584D01*
X187520Y291411D01*
X187414Y291218D01*
X188636Y295282D01*
X188632Y295089D01*
X188741Y294916D01*
X188965Y294764D01*
X189302Y294632D01*
X189753Y294520D01*
X190318Y294429D01*
X190997Y294357D01*
X191386Y294339D01*
X192465Y294435D01*
X193231Y294567D01*
X193947Y294736D01*
X194613Y294943D01*
X195229Y295187D01*
X195794Y295469D01*
X196309Y295788D01*
X196773Y296145D01*
Y290355D01*
D02*
G37*
G36*
X356153Y292711D02*
X355613Y292623D01*
X355058Y292473D01*
X354488Y292260D01*
X353903Y291984D01*
X353303Y291646D01*
X352688Y291245D01*
X352058Y290782D01*
X351711Y290485D01*
X351343Y290051D01*
X351090Y289668D01*
X350908Y289328D01*
X350799Y289032D01*
X350762Y288780D01*
X350797Y288571D01*
X350905Y288405D01*
X350188Y289122D01*
X350078Y289016D01*
X348537Y290348D01*
X348744Y290565D01*
X348031Y291279D01*
X348196Y291171D01*
X348405Y291136D01*
X348658Y291173D01*
X348954Y291282D01*
X349293Y291464D01*
X349677Y291718D01*
X349861Y291859D01*
X350210Y292285D01*
X350644Y292924D01*
X351015Y293560D01*
X351325Y294193D01*
X351573Y294822D01*
X351759Y295448D01*
X351883Y296071D01*
X351945Y296691D01*
X356153Y292711D01*
D02*
G37*
G36*
X878523Y294883D02*
X880064Y293557D01*
X880454Y293296D01*
X880782Y293125D01*
X881049Y293044D01*
X881254Y293054D01*
X881397Y293154D01*
X881478Y293345D01*
X880656Y289502D01*
X880571Y289656D01*
X880418Y289870D01*
X880197Y290145D01*
X879126Y291335D01*
X876744Y293774D01*
X877886Y295506D01*
X878523Y294883D01*
D02*
G37*
G36*
X912191Y294038D02*
X912706Y293719D01*
X913271Y293437D01*
X913887Y293193D01*
X914553Y292986D01*
X915269Y292817D01*
X916036Y292685D01*
X916852Y292591D01*
X918631Y292516D01*
X919529Y292526D01*
X921744Y292675D01*
X922298Y292764D01*
X922760Y292873D01*
X923131Y293002D01*
X923409Y293151D01*
X923596Y293319D01*
X923690Y293508D01*
X922707Y289487D01*
X922706Y289676D01*
X922607Y289846D01*
X922409Y289995D01*
X922112Y290125D01*
X921717Y290235D01*
X921223Y290324D01*
X920630Y290394D01*
X919148Y290474D01*
X918503Y290481D01*
X917719Y290465D01*
X916036Y290315D01*
X915269Y290183D01*
X914553Y290014D01*
X913887Y289807D01*
X913271Y289563D01*
X912706Y289281D01*
X912191Y288962D01*
X911727Y288605D01*
Y294395D01*
X912191Y294038D01*
D02*
G37*
G36*
X460625Y295959D02*
X460763Y295369D01*
X460963Y294770D01*
X461226Y294161D01*
X461550Y293545D01*
X461937Y292918D01*
X462386Y292283D01*
X462897Y291639D01*
X464106Y290324D01*
X462669Y288887D01*
X462007Y289523D01*
X460710Y290607D01*
X460075Y291056D01*
X459449Y291443D01*
X458832Y291768D01*
X458224Y292030D01*
X457625Y292231D01*
X457035Y292369D01*
X456454Y292445D01*
X460549Y296540D01*
X460625Y295959D01*
D02*
G37*
G36*
X416031Y288561D02*
X415494Y288472D01*
X414943Y288320D01*
X414375Y288106D01*
X413793Y287829D01*
X413194Y287490D01*
X412580Y287088D01*
X412447Y286989D01*
X412413Y286938D01*
X412231Y286598D01*
X412122Y286302D01*
X412085Y286049D01*
X412120Y285841D01*
X412228Y285675D01*
X411589Y286314D01*
X410645Y285506D01*
X409969Y284853D01*
X408419Y286176D01*
X409037Y286824D01*
X409954Y287948D01*
X409354Y288549D01*
X409520Y288441D01*
X409729Y288406D01*
X409981Y288443D01*
X410277Y288552D01*
X410447Y288643D01*
X410520Y288751D01*
X410890Y289388D01*
X411198Y290022D01*
X411445Y290653D01*
X411629Y291281D01*
X411752Y291907D01*
X411813Y292530D01*
X416031Y288561D01*
D02*
G37*
G36*
X869874Y294715D02*
X870013Y294125D01*
X870213Y293526D01*
X870476Y292918D01*
X870800Y292301D01*
X871187Y291675D01*
X871636Y291040D01*
X872147Y290396D01*
X873356Y289081D01*
X871919Y287644D01*
X871257Y288279D01*
X869960Y289364D01*
X869325Y289813D01*
X868699Y290200D01*
X868082Y290524D01*
X867474Y290787D01*
X866875Y290987D01*
X866285Y291126D01*
X865704Y291201D01*
X869799Y295296D01*
X869874Y294715D01*
D02*
G37*
G36*
X606589Y293390D02*
X606763Y292971D01*
X607004Y292514D01*
X607310Y292020D01*
X607683Y291489D01*
X608595Y290355D01*
X609199Y289843D01*
X609582Y289590D01*
X609922Y289408D01*
X610218Y289299D01*
X610470Y289262D01*
X610679Y289297D01*
X610845Y289405D01*
X610131Y288690D01*
X610539Y288274D01*
X609578Y286361D01*
X608974Y286926D01*
X608639Y287199D01*
X607971Y286531D01*
X608079Y286696D01*
X608114Y286905D01*
X608077Y287158D01*
X607968Y287454D01*
X607786Y287794D01*
X607746Y287854D01*
X607724Y287869D01*
X607078Y288246D01*
X606418Y288561D01*
X605744Y288813D01*
X605056Y289002D01*
X604353Y289128D01*
X603637Y289192D01*
X602906Y289193D01*
X606481Y293771D01*
X606589Y293390D01*
D02*
G37*
G36*
X747900Y285797D02*
X747308Y285725D01*
X746709Y285591D01*
X746102Y285394D01*
X745487Y285136D01*
X744866Y284816D01*
X744237Y284433D01*
X743936Y284223D01*
X743913Y284188D01*
X743731Y283848D01*
X743622Y283552D01*
X743585Y283300D01*
X743620Y283091D01*
X743728Y282925D01*
X743077Y283576D01*
X742957Y283481D01*
X741647Y282281D01*
X740240Y283748D01*
X740880Y284414D01*
X741501Y285152D01*
X740854Y285799D01*
X741020Y285691D01*
X741228Y285656D01*
X741481Y285693D01*
X741777Y285802D01*
X742117Y285984D01*
X742212Y286047D01*
X742427Y286347D01*
X742818Y286970D01*
X743146Y287582D01*
X743413Y288184D01*
X743617Y288775D01*
X743759Y289355D01*
X743839Y289925D01*
X747900Y285797D01*
D02*
G37*
G36*
X631941Y291653D02*
X632406Y291260D01*
X633072Y291926D01*
X632964Y291761D01*
X632927Y291553D01*
X632962Y291303D01*
X633069Y291010D01*
X633246Y290674D01*
X633304Y290586D01*
X633859Y290231D01*
X634506Y289880D01*
X635157Y289592D01*
X635812Y289366D01*
X636471Y289202D01*
X637135Y289100D01*
X637802Y289060D01*
X633979Y284703D01*
X633880Y285184D01*
X633716Y285688D01*
X633489Y286216D01*
X633199Y286767D01*
X632844Y287342D01*
X632426Y287940D01*
X631955Y288522D01*
X631828Y288629D01*
X631450Y288878D01*
X631114Y289056D01*
X630821Y289162D01*
X630571Y289197D01*
X630363Y289160D01*
X630198Y289052D01*
X630901Y289755D01*
X630792Y289876D01*
X630119Y290568D01*
X631310Y292251D01*
X631941Y291653D01*
D02*
G37*
G36*
X247765Y291418D02*
X247797Y290668D01*
X247892Y289938D01*
X248051Y289230D01*
X248273Y288542D01*
X248559Y287876D01*
X248630Y287744D01*
X248769Y287693D01*
X249021Y287656D01*
X249230Y287691D01*
X249396Y287799D01*
X248880Y287283D01*
X248909Y287230D01*
X249321Y286605D01*
X249798Y286002D01*
X250338Y285419D01*
X248231Y284654D01*
X247494Y285380D01*
X247219Y285622D01*
X246522Y284925D01*
X246630Y285091D01*
X246665Y285300D01*
X246628Y285552D01*
X246519Y285848D01*
X246337Y286188D01*
X246084Y286571D01*
X245969Y286721D01*
X244541Y287976D01*
X244097Y288288D01*
X243701Y288531D01*
X243354Y288704D01*
X243056Y288809D01*
X247797Y292190D01*
X247765Y291418D01*
D02*
G37*
G36*
X423606Y281192D02*
X422957Y281142D01*
X422310Y281031D01*
X421663Y280858D01*
X421018Y280623D01*
X420374Y280326D01*
X419731Y279968D01*
X419434Y279773D01*
X419302Y279527D01*
X419193Y279231D01*
X419156Y278979D01*
X419191Y278769D01*
X419299Y278604D01*
X418671Y279232D01*
X418448Y279064D01*
X417809Y278519D01*
X417170Y277913D01*
X415923Y279539D01*
X416587Y280225D01*
X417094Y280808D01*
X416425Y281478D01*
X416591Y281370D01*
X416800Y281335D01*
X417052Y281372D01*
X417348Y281481D01*
X417688Y281663D01*
X417959Y281842D01*
X418200Y282160D01*
X418960Y283351D01*
X419245Y283916D01*
X419467Y284461D01*
X419626Y284985D01*
X419722Y285490D01*
X423606Y281192D01*
D02*
G37*
G36*
X922847Y279304D02*
X922828Y279493D01*
X922712Y279663D01*
X922499Y279813D01*
X922189Y279942D01*
X921781Y280052D01*
X921276Y280142D01*
X920674Y280212D01*
X919177Y280291D01*
X918283Y280301D01*
X918524Y282333D01*
X919434Y282343D01*
X921607Y282492D01*
X922146Y282581D01*
X922592Y282690D01*
X922946Y282819D01*
X923207Y282968D01*
X923376Y283137D01*
X923452Y283325D01*
X922847Y279304D01*
D02*
G37*
G36*
X583850Y284884D02*
X584374Y284544D01*
X584903Y284245D01*
X585438Y283985D01*
X585977Y283765D01*
X586521Y283586D01*
X587071Y283446D01*
X587625Y283346D01*
X588185Y283286D01*
X588750Y283266D01*
Y281234D01*
X588185Y281214D01*
X587625Y281154D01*
X587071Y281054D01*
X586521Y280914D01*
X585977Y280735D01*
X585438Y280515D01*
X584903Y280255D01*
X584374Y279956D01*
X583850Y279616D01*
X583331Y279237D01*
Y285263D01*
X583850Y284884D01*
D02*
G37*
G36*
X620590Y279387D02*
X620553Y279179D01*
X620588Y278929D01*
X620694Y278636D01*
X620872Y278300D01*
X621121Y277922D01*
X621294Y277694D01*
X621558Y277468D01*
X622188Y277005D01*
X622803Y276604D01*
X623403Y276266D01*
X623988Y275990D01*
X624558Y275777D01*
X625113Y275627D01*
X625653Y275539D01*
X621445Y271559D01*
X621383Y272179D01*
X621259Y272802D01*
X621073Y273428D01*
X620825Y274057D01*
X620515Y274690D01*
X620144Y275326D01*
X619710Y275965D01*
X619546Y276177D01*
X619454Y276255D01*
X619076Y276504D01*
X618740Y276681D01*
X618447Y276788D01*
X618197Y276823D01*
X617989Y276786D01*
X617824Y276678D01*
X618531Y277385D01*
X618037Y277902D01*
X619578Y279234D01*
X619986Y278841D01*
X620698Y279552D01*
X620590Y279387D01*
D02*
G37*
G36*
X368691Y279945D02*
X368071Y279883D01*
X367448Y279759D01*
X366822Y279573D01*
X366193Y279325D01*
X365560Y279015D01*
X364924Y278644D01*
X364285Y278210D01*
X363951Y277952D01*
X363718Y277677D01*
X363464Y277293D01*
X363282Y276954D01*
X363173Y276658D01*
X363136Y276405D01*
X363171Y276196D01*
X363279Y276031D01*
X362565Y276744D01*
X362348Y276537D01*
X361016Y278078D01*
X361122Y278188D01*
X360405Y278904D01*
X360571Y278797D01*
X360780Y278762D01*
X361032Y278799D01*
X361328Y278908D01*
X361668Y279090D01*
X362051Y279343D01*
X362397Y279608D01*
X362781Y280058D01*
X363245Y280688D01*
X363646Y281303D01*
X363984Y281903D01*
X364260Y282488D01*
X364473Y283058D01*
X364623Y283613D01*
X364711Y284153D01*
X368691Y279945D01*
D02*
G37*
G36*
X338929Y280762D02*
X339402Y281213D01*
X340734Y279672D01*
X340383Y279307D01*
X341095Y278596D01*
X340929Y278703D01*
X340720Y278738D01*
X340468Y278701D01*
X340172Y278592D01*
X339832Y278410D01*
X339449Y278157D01*
X339208Y277973D01*
X338969Y277692D01*
X338505Y277062D01*
X338104Y276447D01*
X337766Y275847D01*
X337490Y275262D01*
X337277Y274692D01*
X337127Y274137D01*
X337039Y273597D01*
X333059Y277805D01*
X333679Y277867D01*
X334302Y277991D01*
X334928Y278177D01*
X335557Y278425D01*
X336190Y278735D01*
X336826Y279106D01*
X337465Y279540D01*
X337689Y279713D01*
X337782Y279823D01*
X338036Y280207D01*
X338218Y280546D01*
X338327Y280842D01*
X338364Y281095D01*
X338329Y281304D01*
X338221Y281469D01*
X338929Y280762D01*
D02*
G37*
G36*
X756914Y279820D02*
X756212Y279800D01*
X755519Y279717D01*
X754837Y279572D01*
X754163Y279364D01*
X753499Y279095D01*
X752844Y278763D01*
X752199Y278369D01*
X751624Y277955D01*
X751238Y277500D01*
X750984Y277117D01*
X750802Y276777D01*
X750693Y276481D01*
X750656Y276229D01*
X750691Y276019D01*
X750799Y275854D01*
X747925Y278728D01*
X748091Y278620D01*
X748299Y278585D01*
X748552Y278622D01*
X748848Y278731D01*
X749188Y278913D01*
X749571Y279167D01*
X749997Y279493D01*
X750378Y279829D01*
X751613Y281252D01*
X752042Y281835D01*
X752707Y282910D01*
X752943Y283402D01*
X753113Y283863D01*
X753219Y284294D01*
X756914Y279820D01*
D02*
G37*
G36*
X907287Y283855D02*
X907802Y283536D01*
X908367Y283254D01*
X908983Y283010D01*
X909649Y282803D01*
X910365Y282634D01*
X911132Y282502D01*
X911948Y282408D01*
X913733Y282333D01*
Y280301D01*
X912815Y280282D01*
X911132Y280132D01*
X910365Y280001D01*
X909649Y279831D01*
X908983Y279625D01*
X908367Y279380D01*
X907802Y279098D01*
X907287Y278779D01*
X906823Y278422D01*
Y284213D01*
X907287Y283855D01*
D02*
G37*
G36*
X869745Y284362D02*
X869916Y283909D01*
X870153Y283425D01*
X870454Y282908D01*
X870821Y282359D01*
X871749Y281166D01*
X872311Y280522D01*
X873629Y279138D01*
X872578Y277316D01*
X871963Y277893D01*
X871339Y278409D01*
X870704Y278862D01*
X870058Y279253D01*
X869402Y279582D01*
X868736Y279848D01*
X868059Y280051D01*
X867373Y280193D01*
X866675Y280272D01*
X865967Y280289D01*
X869638Y284783D01*
X869745Y284362D01*
D02*
G37*
G36*
X239734Y284063D02*
X239872Y283473D01*
X240073Y282874D01*
X240335Y282266D01*
X240660Y281649D01*
X241047Y281023D01*
X241138Y280894D01*
X241416Y280745D01*
X241712Y280636D01*
X241965Y280599D01*
X242174Y280634D01*
X242339Y280742D01*
X241712Y280115D01*
X242007Y279744D01*
X243216Y278429D01*
X241779Y276992D01*
X241117Y277627D01*
X240086Y278489D01*
X239466Y277868D01*
X239573Y278034D01*
X239608Y278243D01*
X239571Y278495D01*
X239462Y278791D01*
X239313Y279070D01*
X239184Y279161D01*
X238559Y279548D01*
X237941Y279872D01*
X237333Y280135D01*
X236734Y280335D01*
X236144Y280473D01*
X235563Y280549D01*
X239658Y284644D01*
X239734Y284063D01*
D02*
G37*
G36*
X262767Y270940D02*
X262089Y270906D01*
X261416Y270810D01*
X260750Y270651D01*
X260088Y270431D01*
X259433Y270149D01*
X258960Y269898D01*
X258914Y269773D01*
X258877Y269521D01*
X258912Y269312D01*
X259020Y269146D01*
X258525Y269641D01*
X258139Y269398D01*
X257501Y268929D01*
X256869Y268398D01*
X256242Y267805D01*
X255088Y269524D01*
X255765Y270221D01*
X256768Y271398D01*
X256146Y272020D01*
X256312Y271912D01*
X256521Y271877D01*
X256773Y271914D01*
X257069Y272023D01*
X257409Y272205D01*
X257483Y272254D01*
X257835Y272750D01*
X258193Y273318D01*
X258487Y273860D01*
X258717Y274377D01*
X258883Y274868D01*
X258985Y275334D01*
X262767Y270940D01*
D02*
G37*
G36*
X565928Y277894D02*
X565886Y277121D01*
X565897Y276391D01*
X565960Y275705D01*
X566076Y275063D01*
X566243Y274464D01*
X566463Y273909D01*
X566735Y273397D01*
X567060Y272929D01*
X567437Y272504D01*
X565606Y271461D01*
X560944Y275671D01*
X566022Y278710D01*
X565928Y277894D01*
D02*
G37*
G36*
X434415Y271549D02*
X433834Y271473D01*
X433244Y271335D01*
X432645Y271134D01*
X432037Y270872D01*
X431420Y270547D01*
X430794Y270160D01*
X430499Y269952D01*
X430459Y269891D01*
X430278Y269552D01*
X430168Y269256D01*
X430131Y269003D01*
X430167Y268794D01*
X430274Y268629D01*
X429620Y269283D01*
X429515Y269200D01*
X428200Y267991D01*
X426763Y269428D01*
X427399Y270090D01*
X428042Y270860D01*
X427400Y271502D01*
X427566Y271395D01*
X427775Y271360D01*
X428027Y271397D01*
X428324Y271506D01*
X428663Y271687D01*
X428723Y271727D01*
X428932Y272022D01*
X429319Y272649D01*
X429644Y273265D01*
X429906Y273874D01*
X430107Y274473D01*
X430245Y275063D01*
X430321Y275644D01*
X434415Y271549D01*
D02*
G37*
G36*
X878297Y274484D02*
X879806Y273192D01*
X880184Y272943D01*
X880499Y272787D01*
X880752Y272721D01*
X880943Y272747D01*
X881071Y272864D01*
X881136Y273073D01*
X880656Y269502D01*
X880650Y269458D01*
X880557Y269506D01*
X880376Y269647D01*
X880109Y269880D01*
X876672Y273222D01*
X877669Y275098D01*
X878297Y274484D01*
D02*
G37*
G36*
X920584Y273386D02*
X921099Y273066D01*
X921664Y272784D01*
X922280Y272540D01*
X922679Y272416D01*
X922809Y272502D01*
X922939Y272671D01*
X922973Y272861D01*
X923009Y272318D01*
X923662Y272164D01*
X924428Y272032D01*
X925245Y271938D01*
X927030Y271863D01*
Y269831D01*
X926112Y269812D01*
X924428Y269662D01*
X923662Y269531D01*
X923199Y269421D01*
X923238Y268839D01*
X923178Y269028D01*
X923026Y269196D01*
X922818Y269322D01*
X922280Y269155D01*
X921664Y268910D01*
X921099Y268628D01*
X920584Y268309D01*
X920119Y267952D01*
Y269781D01*
X919353Y269821D01*
X918456Y269831D01*
X918329Y271863D01*
X919223Y271873D01*
X920119Y271937D01*
Y273743D01*
X920584Y273386D01*
D02*
G37*
G36*
X768232Y273747D02*
X768747Y273428D01*
X769312Y273146D01*
X769928Y272901D01*
X770594Y272695D01*
X771310Y272526D01*
X772077Y272394D01*
X772894Y272300D01*
X774678Y272225D01*
Y270193D01*
X773761Y270174D01*
X772077Y270024D01*
X771310Y269892D01*
X770594Y269723D01*
X769928Y269516D01*
X769312Y269272D01*
X768747Y268990D01*
X768232Y268671D01*
X767768Y268314D01*
Y274104D01*
X768232Y273747D01*
D02*
G37*
G36*
X231446Y275137D02*
X231536Y274454D01*
X231688Y273780D01*
X231902Y273112D01*
X232178Y272452D01*
X232516Y271800D01*
X232644Y271595D01*
X232723Y271552D01*
X233019Y271443D01*
X233272Y271406D01*
X233480Y271441D01*
X233646Y271549D01*
X233058Y270961D01*
X233379Y270518D01*
X233904Y269889D01*
X234491Y269267D01*
X232731Y268153D01*
X232030Y268836D01*
X231440Y269343D01*
X230772Y268675D01*
X230880Y268841D01*
X230915Y269050D01*
X230878Y269302D01*
X230769Y269598D01*
X230587Y269938D01*
X230374Y270260D01*
X230096Y270499D01*
X229507Y270925D01*
X228946Y271286D01*
X228414Y271583D01*
X227910Y271816D01*
X227433Y271985D01*
X226985Y272089D01*
X231419Y275827D01*
X231446Y275137D01*
D02*
G37*
G36*
X353469Y266221D02*
X353304Y266329D01*
X353095Y266364D01*
X352842Y266327D01*
X352546Y266218D01*
X352207Y266036D01*
X351824Y265782D01*
X351423Y265476D01*
X350915Y264873D01*
X350461Y264239D01*
X350069Y263617D01*
X349740Y263005D01*
X349473Y262405D01*
X349268Y261815D01*
X349126Y261236D01*
X349046Y260669D01*
X344989Y264801D01*
X345583Y264873D01*
X346184Y265006D01*
X346792Y265202D01*
X347407Y265460D01*
X348030Y265780D01*
X348659Y266162D01*
X349296Y266606D01*
X349734Y266951D01*
X350157Y267449D01*
X350410Y267832D01*
X350592Y268172D01*
X350701Y268468D01*
X350738Y268720D01*
X350703Y268929D01*
X350596Y269095D01*
X353469Y266221D01*
D02*
G37*
G36*
X442161Y262815D02*
X441356Y262882D01*
X440578Y262884D01*
X439827Y262821D01*
X439103Y262694D01*
X438406Y262501D01*
X437737Y262244D01*
X437496Y262124D01*
X437443Y261981D01*
X437406Y261728D01*
X437441Y261520D01*
X437549Y261354D01*
X437024Y261879D01*
X436478Y261536D01*
X435889Y261085D01*
X435327Y260569D01*
X434784Y262900D01*
X435391Y263512D01*
X434675Y264228D01*
X434841Y264120D01*
X435050Y264085D01*
X435302Y264122D01*
X435598Y264231D01*
X435938Y264413D01*
X436321Y264667D01*
X436675Y264937D01*
X438721Y267234D01*
X438885Y267504D01*
X438977Y267713D01*
X442161Y262815D01*
D02*
G37*
G36*
X557239Y270770D02*
X557377Y270168D01*
X557568Y269568D01*
X557811Y268970D01*
X558106Y268375D01*
X558453Y267782D01*
X558853Y267191D01*
X559305Y266603D01*
X559809Y266017D01*
X560366Y265433D01*
X558929Y263996D01*
X558345Y264553D01*
X557170Y265509D01*
X556580Y265909D01*
X555987Y266256D01*
X555391Y266551D01*
X554794Y266794D01*
X554194Y266984D01*
X553592Y267122D01*
X552988Y267208D01*
X557153Y271374D01*
X557239Y270770D01*
D02*
G37*
G36*
X945774Y263557D02*
X946461Y263543D01*
X948250Y263540D01*
Y258460D01*
X945774Y258374D01*
Y258105D01*
X945638Y258172D01*
X945397Y258232D01*
X945052Y258286D01*
X944518Y258331D01*
X938025Y258107D01*
Y263893D01*
X938281Y263826D01*
X938707Y263766D01*
X940070Y263667D01*
X942188Y263626D01*
X945638Y263828D01*
X945774Y263895D01*
Y263557D01*
D02*
G37*
G36*
X410603Y262191D02*
X409952Y262143D01*
X409304Y262032D01*
X408656Y261860D01*
X408010Y261626D01*
X407365Y261329D01*
X406722Y260971D01*
X406080Y260551D01*
X406065Y260540D01*
X405913Y260309D01*
X405731Y259970D01*
X405622Y259673D01*
X405585Y259421D01*
X405620Y259212D01*
X405728Y259046D01*
X405043Y259731D01*
X404801Y259524D01*
X404163Y258918D01*
X402920Y260549D01*
X403562Y261212D01*
X402854Y261920D01*
X403019Y261813D01*
X403228Y261777D01*
X403481Y261814D01*
X403777Y261924D01*
X404117Y262105D01*
X404500Y262359D01*
X404683Y262499D01*
X404724Y262546D01*
X405199Y263171D01*
X405959Y264360D01*
X406245Y264924D01*
X406467Y265467D01*
X406626Y265991D01*
X406722Y266494D01*
X410603Y262191D01*
D02*
G37*
G36*
X591633Y262209D02*
X591086Y262123D01*
X590524Y261975D01*
X589949Y261764D01*
X589360Y261491D01*
X588756Y261155D01*
X588139Y260756D01*
X587626Y260382D01*
X587413Y260059D01*
X587231Y259720D01*
X587122Y259423D01*
X587085Y259171D01*
X587120Y258962D01*
X587228Y258797D01*
X586547Y259477D01*
X586205Y259186D01*
X585532Y258538D01*
X584010Y259889D01*
X584632Y260541D01*
X585016Y261008D01*
X584354Y261670D01*
X584520Y261563D01*
X584729Y261527D01*
X584981Y261564D01*
X585277Y261674D01*
X585617Y261855D01*
X585784Y261966D01*
X586128Y262469D01*
X586503Y263103D01*
X586815Y263733D01*
X587066Y264359D01*
X587254Y264980D01*
X587381Y265597D01*
X587446Y266210D01*
X591633Y262209D01*
D02*
G37*
G36*
X744133Y261209D02*
X743586Y261123D01*
X743024Y260975D01*
X742449Y260764D01*
X741860Y260491D01*
X741256Y260155D01*
X740639Y259756D01*
X740453Y259620D01*
X740413Y259559D01*
X740231Y259219D01*
X740122Y258923D01*
X740085Y258671D01*
X740120Y258462D01*
X740228Y258297D01*
X739587Y258937D01*
X738705Y258186D01*
X738032Y257538D01*
X736510Y258889D01*
X737132Y259541D01*
X737967Y260557D01*
X737354Y261170D01*
X737520Y261063D01*
X737729Y261027D01*
X737981Y261064D01*
X738277Y261174D01*
X738512Y261299D01*
X738628Y261469D01*
X739003Y262103D01*
X739315Y262733D01*
X739566Y263359D01*
X739754Y263980D01*
X739881Y264597D01*
X739946Y265210D01*
X744133Y261209D01*
D02*
G37*
G36*
X223874Y267938D02*
X224009Y267341D01*
X224207Y266737D01*
X224467Y266125D01*
X224789Y265505D01*
X225173Y264877D01*
X225329Y264654D01*
X225652Y264481D01*
X225948Y264372D01*
X226201Y264335D01*
X226409Y264370D01*
X226575Y264478D01*
X225936Y263839D01*
X226127Y263597D01*
X227330Y262286D01*
X225874Y260868D01*
X225209Y261507D01*
X224337Y262239D01*
X223701Y261604D01*
X223809Y261770D01*
X223844Y261978D01*
X223807Y262231D01*
X223698Y262527D01*
X223516Y262867D01*
X223502Y262888D01*
X223276Y263049D01*
X222652Y263439D01*
X222038Y263766D01*
X221434Y264031D01*
X220841Y264234D01*
X220257Y264375D01*
X219684Y264453D01*
X223800Y268526D01*
X223874Y267938D01*
D02*
G37*
G36*
X779212Y266752D02*
X780232Y266104D01*
X780723Y265841D01*
X781202Y265619D01*
X781667Y265437D01*
X782120Y265295D01*
X782561Y265194D01*
X782988Y265133D01*
X783403Y265113D01*
Y264097D01*
X784121Y264815D01*
X784570Y264375D01*
X785688Y263389D01*
X785985Y263172D01*
X786244Y263009D01*
X786465Y262903D01*
X786648Y262852D01*
X786793Y262857D01*
X786900Y262917D01*
X784583Y260600D01*
X784643Y260707D01*
X784648Y260852D01*
X784597Y261035D01*
X784491Y261256D01*
X784329Y261515D01*
X784111Y261811D01*
X783509Y262519D01*
X782989Y263061D01*
X782988Y263061D01*
X782561Y263000D01*
X782120Y262899D01*
X781667Y262757D01*
X781202Y262575D01*
X780723Y262353D01*
X780232Y262089D01*
X779212Y261442D01*
X778683Y261057D01*
Y267136D01*
X779212Y266752D01*
D02*
G37*
G36*
X228732Y262786D02*
X228910Y262617D01*
X229182Y262468D01*
X229550Y262339D01*
X230013Y262229D01*
X230570Y262140D01*
X231223Y262070D01*
X232813Y261990D01*
X233751Y261980D01*
X234458Y259949D01*
X233458Y259939D01*
X231110Y259789D01*
X230545Y259700D01*
X230089Y259590D01*
X229743Y259461D01*
X229505Y259312D01*
X229376Y259143D01*
X229357Y258954D01*
X228650Y262975D01*
X228732Y262786D01*
D02*
G37*
G36*
X276492Y259698D02*
X275891Y259629D01*
X275284Y259498D01*
X274671Y259304D01*
X274051Y259049D01*
X273426Y258732D01*
X272795Y258353D01*
X272158Y257911D01*
X271880Y257694D01*
X271667Y257442D01*
X271413Y257059D01*
X271231Y256719D01*
X271122Y256423D01*
X271085Y256171D01*
X271120Y255962D01*
X271228Y255797D01*
X270516Y256508D01*
X270210Y256215D01*
X268826Y257706D01*
X269068Y257957D01*
X268354Y258670D01*
X268519Y258563D01*
X268729Y258527D01*
X268981Y258564D01*
X269277Y258674D01*
X269617Y258855D01*
X270000Y259109D01*
X270257Y259306D01*
X270570Y259676D01*
X271026Y260308D01*
X271421Y260929D01*
X271752Y261537D01*
X272022Y262134D01*
X272229Y262718D01*
X272374Y263290D01*
X272456Y263851D01*
X276492Y259698D01*
D02*
G37*
G36*
X514045Y265247D02*
X514675Y264722D01*
X515250Y264304D01*
X515820Y264874D01*
X515713Y264709D01*
X515677Y264501D01*
X515713Y264249D01*
X515820Y263955D01*
X515830Y263938D01*
X515957Y263859D01*
X516609Y263520D01*
X517268Y263244D01*
X517935Y263029D01*
X518610Y262877D01*
X519292Y262787D01*
X519982Y262759D01*
X516241Y258328D01*
X516137Y258777D01*
X515969Y259254D01*
X515736Y259759D01*
X515439Y260292D01*
X515078Y260853D01*
X514652Y261442D01*
X514500Y261626D01*
X514204Y261821D01*
X513866Y262001D01*
X513572Y262108D01*
X513320Y262144D01*
X513112Y262108D01*
X512947Y262001D01*
X513627Y262681D01*
X513608Y262703D01*
X512307Y264077D01*
X513423Y265835D01*
X514045Y265247D01*
D02*
G37*
G36*
X924475Y258107D02*
X924212Y258174D01*
X923764Y258234D01*
X922313Y258333D01*
X913522Y258460D01*
Y263540D01*
X924475Y263893D01*
Y258107D01*
D02*
G37*
G36*
X896288Y263826D02*
X896736Y263766D01*
X898187Y263667D01*
X906978Y263540D01*
Y258460D01*
X896025Y258107D01*
Y263893D01*
X896288Y263826D01*
D02*
G37*
G36*
X236566Y261312D02*
X237934Y260123D01*
X238104Y260018D01*
X238241Y259958D01*
X238343Y259942D01*
X238411Y259970D01*
X236466Y258025D01*
X236494Y258093D01*
X236479Y258196D01*
X236418Y258332D01*
X236314Y258503D01*
X236165Y258708D01*
X235733Y259220D01*
X235124Y259870D01*
X234753Y260246D01*
X236190Y261683D01*
X236566Y261312D01*
D02*
G37*
G36*
X802605Y255160D02*
X801814Y255212D01*
X801047Y255199D01*
X800304Y255122D01*
X799587Y254981D01*
X798893Y254776D01*
X798224Y254507D01*
X798002Y254391D01*
X797943Y254231D01*
X797906Y253979D01*
X797941Y253769D01*
X798049Y253604D01*
X797519Y254134D01*
X796960Y253775D01*
X796365Y253313D01*
X795794Y252787D01*
X795150Y255016D01*
X795889Y255763D01*
X795890Y255763D01*
X795175Y256478D01*
X795340Y256370D01*
X795549Y256335D01*
X795802Y256372D01*
X796098Y256481D01*
X796438Y256663D01*
X796821Y256917D01*
X797099Y257129D01*
X798827Y259080D01*
X799067Y259439D01*
X799237Y259743D01*
X799335Y259991D01*
X802605Y255160D01*
D02*
G37*
G36*
X550128Y262804D02*
X550264Y262197D01*
X550443Y261602D01*
X550667Y261018D01*
X550935Y260445D01*
X551246Y259884D01*
X551317Y259774D01*
X551559Y259645D01*
X551856Y259535D01*
X552109Y259498D01*
X552319Y259532D01*
X552485Y259638D01*
X551844Y259009D01*
X552002Y258796D01*
X552445Y258269D01*
X552933Y257754D01*
X551496Y256317D01*
X550981Y256805D01*
X550454Y257248D01*
X550224Y257419D01*
X550193Y257389D01*
X550186Y257440D01*
X550178Y257453D01*
X549916Y257648D01*
X549366Y258004D01*
X548805Y258315D01*
X548232Y258583D01*
X547648Y258807D01*
X547053Y258986D01*
X546446Y259122D01*
X545828Y259214D01*
X550037Y263422D01*
X550128Y262804D01*
D02*
G37*
G36*
X399712Y254468D02*
X399064Y253795D01*
X398773Y253453D01*
X399454Y252772D01*
X399288Y252880D01*
X399079Y252915D01*
X398827Y252878D01*
X398531Y252769D01*
X398191Y252587D01*
X397869Y252374D01*
X397494Y251861D01*
X397095Y251243D01*
X396759Y250640D01*
X396486Y250051D01*
X396275Y249476D01*
X396127Y248914D01*
X396041Y248367D01*
X392040Y252554D01*
X392653Y252619D01*
X393270Y252745D01*
X393891Y252934D01*
X394517Y253185D01*
X395147Y253497D01*
X395781Y253872D01*
X396284Y254216D01*
X396395Y254383D01*
X396576Y254723D01*
X396686Y255019D01*
X396723Y255271D01*
X396687Y255480D01*
X396580Y255646D01*
X397253Y254972D01*
X397709Y255368D01*
X398361Y255990D01*
X399712Y254468D01*
D02*
G37*
G36*
X207374Y254202D02*
X206793Y254125D01*
X206203Y253987D01*
X205604Y253787D01*
X204995Y253524D01*
X204378Y253200D01*
X203752Y252813D01*
X203220Y252437D01*
X203044Y252171D01*
X202862Y251831D01*
X202753Y251535D01*
X202716Y251282D01*
X202751Y251073D01*
X202859Y250908D01*
X202182Y251585D01*
X201158Y250644D01*
X199721Y252081D01*
X200357Y252743D01*
X200661Y253106D01*
X199985Y253782D01*
X200151Y253674D01*
X200360Y253639D01*
X200612Y253676D01*
X200908Y253785D01*
X201248Y253967D01*
X201514Y254143D01*
X201890Y254675D01*
X202277Y255301D01*
X202602Y255918D01*
X202864Y256526D01*
X203065Y257125D01*
X203203Y257715D01*
X203279Y258296D01*
X207374Y254202D01*
D02*
G37*
G36*
X419851Y253706D02*
X419290Y253624D01*
X418718Y253479D01*
X418134Y253272D01*
X417537Y253002D01*
X416929Y252671D01*
X416308Y252276D01*
X415676Y251820D01*
X415533Y251705D01*
X415359Y251500D01*
X415105Y251117D01*
X414924Y250777D01*
X414814Y250481D01*
X414777Y250229D01*
X414813Y250019D01*
X414920Y249854D01*
X414221Y250553D01*
X413705Y250076D01*
X412215Y251460D01*
X412753Y252021D01*
X412047Y252728D01*
X412212Y252620D01*
X412421Y252585D01*
X412673Y252622D01*
X412970Y252731D01*
X413309Y252913D01*
X413692Y253167D01*
X413746Y253207D01*
X413911Y253408D01*
X414353Y254045D01*
X414732Y254676D01*
X415049Y255302D01*
X415304Y255921D01*
X415498Y256534D01*
X415629Y257141D01*
X415698Y257742D01*
X419851Y253706D01*
D02*
G37*
G36*
X580953Y252522D02*
X580788Y252630D01*
X580579Y252665D01*
X580327Y252628D01*
X580031Y252519D01*
X579691Y252337D01*
X579308Y252083D01*
X578881Y251757D01*
X577897Y250888D01*
X577340Y250345D01*
X575903Y251782D01*
X576446Y252340D01*
X577641Y253750D01*
X577895Y254133D01*
X578076Y254473D01*
X578186Y254769D01*
X578223Y255022D01*
X578187Y255231D01*
X578080Y255396D01*
X580953Y252522D01*
D02*
G37*
G36*
X601601Y253706D02*
X601040Y253624D01*
X600468Y253479D01*
X599884Y253272D01*
X599287Y253002D01*
X598679Y252671D01*
X598058Y252276D01*
X597425Y251820D01*
X597163Y251609D01*
X596859Y251250D01*
X596605Y250867D01*
X596423Y250527D01*
X596314Y250231D01*
X596277Y249979D01*
X596312Y249770D01*
X596420Y249604D01*
X595711Y250313D01*
X595456Y250076D01*
X593965Y251460D01*
X594258Y251766D01*
X593546Y252478D01*
X593712Y252370D01*
X593921Y252335D01*
X594173Y252372D01*
X594469Y252481D01*
X594809Y252663D01*
X595192Y252917D01*
X595364Y253048D01*
X595661Y253408D01*
X596103Y254045D01*
X596482Y254676D01*
X596799Y255302D01*
X597054Y255921D01*
X597248Y256534D01*
X597379Y257141D01*
X597448Y257742D01*
X601601Y253706D01*
D02*
G37*
G36*
X731797Y254179D02*
X731861Y254240D01*
X732851Y253125D01*
X733953Y252022D01*
X733788Y252130D01*
X733579Y252165D01*
X733327Y252128D01*
X733030Y252019D01*
X732691Y251837D01*
X732308Y251583D01*
X731917Y251285D01*
X731455Y250742D01*
X730994Y250110D01*
X730595Y249494D01*
X730259Y248890D01*
X729986Y248301D01*
X729775Y247726D01*
X729627Y247164D01*
X729541Y246617D01*
X725540Y250804D01*
X726153Y250869D01*
X726770Y250996D01*
X727391Y251184D01*
X728017Y251435D01*
X728647Y251747D01*
X729281Y252122D01*
X729920Y252558D01*
X730314Y252865D01*
X730641Y253250D01*
X730895Y253633D01*
X731076Y253973D01*
X731186Y254269D01*
X731223Y254522D01*
X731187Y254731D01*
X731080Y254896D01*
X731797Y254179D01*
D02*
G37*
G36*
X754317Y253482D02*
X753844Y253381D01*
X753347Y253216D01*
X752825Y252988D01*
X752278Y252695D01*
X751707Y252339D01*
X751111Y251919D01*
X750267Y251231D01*
X749859Y250750D01*
X749605Y250367D01*
X749424Y250027D01*
X749314Y249731D01*
X749277Y249478D01*
X749313Y249270D01*
X749420Y249104D01*
X748705Y249819D01*
X748481Y249602D01*
X746779Y250773D01*
X747252Y251273D01*
X746546Y251978D01*
X746712Y251870D01*
X746921Y251835D01*
X747173Y251872D01*
X747469Y251981D01*
X747809Y252163D01*
X748185Y252412D01*
X748379Y252675D01*
X748788Y253318D01*
X749135Y253967D01*
X749420Y254620D01*
X749643Y255279D01*
X749804Y255942D01*
X749903Y256610D01*
X749940Y257283D01*
X754317Y253482D01*
D02*
G37*
G36*
X285796Y250759D02*
X285215Y250683D01*
X284625Y250545D01*
X284026Y250345D01*
X283418Y250082D01*
X282801Y249757D01*
X282175Y249370D01*
X281540Y248922D01*
X281198Y248650D01*
X280859Y248250D01*
X280605Y247867D01*
X280424Y247527D01*
X280314Y247231D01*
X280277Y246978D01*
X280313Y246770D01*
X280420Y246604D01*
X279707Y247317D01*
X279581Y247202D01*
X278144Y248638D01*
X278262Y248762D01*
X277547Y249478D01*
X277712Y249370D01*
X277921Y249335D01*
X278173Y249372D01*
X278470Y249481D01*
X278809Y249663D01*
X279192Y249917D01*
X279476Y250133D01*
X279864Y250598D01*
X280313Y251233D01*
X280700Y251859D01*
X281024Y252476D01*
X281287Y253084D01*
X281487Y253683D01*
X281625Y254273D01*
X281702Y254854D01*
X285796Y250759D01*
D02*
G37*
G36*
X541625Y254636D02*
X541877Y253466D01*
X542026Y252943D01*
X542372Y252023D01*
X542569Y251626D01*
X542782Y251270D01*
X543010Y250956D01*
X543254Y250683D01*
X541817Y249246D01*
X541544Y249490D01*
X541230Y249718D01*
X540874Y249931D01*
X540477Y250128D01*
X540037Y250309D01*
X539557Y250474D01*
X538470Y250757D01*
X537864Y250875D01*
X537217Y250977D01*
X541522Y255283D01*
X541625Y254636D01*
D02*
G37*
G36*
X189875Y249897D02*
X190014Y249305D01*
X190214Y248706D01*
X190477Y248097D01*
X190802Y247479D01*
X191089Y247015D01*
X191152Y246981D01*
X191448Y246872D01*
X191700Y246835D01*
X191910Y246870D01*
X192075Y246978D01*
X191504Y246407D01*
X191637Y246218D01*
X192148Y245574D01*
X193356Y244260D01*
X191919Y242823D01*
X191258Y243458D01*
X189961Y244541D01*
X189772Y244675D01*
X189201Y244104D01*
X189309Y244270D01*
X189344Y244478D01*
X189307Y244731D01*
X189198Y245027D01*
X189164Y245090D01*
X188700Y245377D01*
X188082Y245702D01*
X187473Y245965D01*
X186873Y246165D01*
X186282Y246304D01*
X185700Y246381D01*
X187031Y247711D01*
X187024Y247718D01*
X188461Y249154D01*
X188468Y249148D01*
X189798Y250479D01*
X189875Y249897D01*
D02*
G37*
G36*
X923239Y248838D02*
X923179Y249027D01*
X923027Y249195D01*
X922781Y249344D01*
X922442Y249473D01*
X922010Y249582D01*
X921486Y249672D01*
X920868Y249741D01*
X919353Y249820D01*
X918456Y249830D01*
X918329Y251862D01*
X919223Y251872D01*
X921333Y252022D01*
X921845Y252112D01*
X922261Y252221D01*
X922582Y252351D01*
X922808Y252501D01*
X922938Y252670D01*
X922972Y252860D01*
X923239Y248838D01*
D02*
G37*
G36*
X451372Y255414D02*
X452459Y254514D01*
X453070Y255124D01*
X452963Y254959D01*
X452927Y254751D01*
X452963Y254499D01*
X453070Y254205D01*
X453190Y253979D01*
X453302Y253902D01*
X453933Y253521D01*
X454557Y253204D01*
X455175Y252948D01*
X455787Y252754D01*
X456392Y252622D01*
X456991Y252552D01*
X452949Y248405D01*
X452868Y248967D01*
X452723Y249542D01*
X452517Y250128D01*
X452248Y250725D01*
X451917Y251335D01*
X451524Y251956D01*
X451432Y252083D01*
X451116Y252251D01*
X450822Y252358D01*
X450570Y252394D01*
X450362Y252358D01*
X450197Y252251D01*
X450830Y252884D01*
X450550Y253233D01*
X449327Y254557D01*
X450716Y256042D01*
X451372Y255414D01*
D02*
G37*
G36*
X907333Y253384D02*
X907848Y253065D01*
X908413Y252783D01*
X909029Y252539D01*
X909695Y252332D01*
X910411Y252163D01*
X911178Y252031D01*
X911994Y251937D01*
X913779Y251862D01*
Y249830D01*
X912862Y249811D01*
X911178Y249661D01*
X910411Y249530D01*
X909695Y249360D01*
X909029Y249154D01*
X908413Y248909D01*
X907848Y248627D01*
X907333Y248308D01*
X906869Y247951D01*
Y253742D01*
X907333Y253384D01*
D02*
G37*
G36*
X506759Y258385D02*
X508052Y257316D01*
X508176Y257230D01*
X508749Y257803D01*
X508642Y257638D01*
X508606Y257430D01*
X508642Y257178D01*
X508749Y256884D01*
X508785Y256816D01*
X509320Y256494D01*
X509945Y256177D01*
X510563Y255921D01*
X511176Y255728D01*
X511782Y255596D01*
X512383Y255527D01*
X508425Y251460D01*
X512952Y248003D01*
X512591Y247895D01*
X512189Y247720D01*
X511747Y247478D01*
X511266Y247170D01*
X510743Y246794D01*
X509801Y246024D01*
X509417Y245571D01*
X509163Y245188D01*
X508981Y244848D01*
X508872Y244552D01*
X508835Y244300D01*
X508870Y244090D01*
X508978Y243925D01*
X508266Y244636D01*
X508254Y244625D01*
X507532Y243916D01*
X505572Y244830D01*
X506131Y245429D01*
X506628Y246043D01*
X506722Y246181D01*
X506104Y246799D01*
X506269Y246691D01*
X506479Y246656D01*
X506731Y246693D01*
X507027Y246802D01*
X507182Y246885D01*
X507431Y247319D01*
X507739Y247981D01*
X507983Y248659D01*
X508165Y249353D01*
X508284Y250063D01*
X508340Y250789D01*
X508334Y251446D01*
X508262Y251938D01*
X508117Y252511D01*
X507910Y253096D01*
X507641Y253693D01*
X507310Y254302D01*
X506971Y254836D01*
X506795Y254930D01*
X506501Y255037D01*
X506249Y255073D01*
X506041Y255037D01*
X505876Y254930D01*
X506477Y255531D01*
X506460Y255555D01*
X505941Y256200D01*
X504717Y257525D01*
X506103Y259013D01*
X506759Y258385D01*
D02*
G37*
G36*
X874266Y252602D02*
X874408Y252021D01*
X874612Y251430D01*
X874878Y250828D01*
X875207Y250215D01*
X875597Y249592D01*
X876050Y248958D01*
X876566Y248314D01*
X877783Y246993D01*
X876375Y245528D01*
X875716Y246159D01*
X874421Y247235D01*
X873785Y247680D01*
X873156Y248063D01*
X872535Y248384D01*
X871921Y248642D01*
X871314Y248839D01*
X870715Y248973D01*
X870123Y249046D01*
X874187Y253172D01*
X874266Y252602D01*
D02*
G37*
G36*
X743740Y244861D02*
X743118Y244209D01*
X742508Y243468D01*
X743146Y242830D01*
X742980Y242938D01*
X742772Y242973D01*
X742519Y242936D01*
X742223Y242826D01*
X741883Y242645D01*
X741860Y242630D01*
X741622Y242281D01*
X741247Y241647D01*
X740935Y241017D01*
X740684Y240391D01*
X740496Y239770D01*
X740369Y239153D01*
X740304Y238540D01*
X736117Y242541D01*
X736664Y242627D01*
X737226Y242775D01*
X737801Y242986D01*
X738390Y243259D01*
X738993Y243595D01*
X739610Y243994D01*
X739960Y244249D01*
X740087Y244441D01*
X740269Y244781D01*
X740378Y245077D01*
X740415Y245329D01*
X740380Y245538D01*
X740272Y245704D01*
X740933Y245043D01*
X741545Y245564D01*
X742218Y246212D01*
X743740Y244861D01*
D02*
G37*
G36*
X815712Y250360D02*
X815461Y250098D01*
X815239Y249830D01*
X815047Y249558D01*
X814885Y249281D01*
X814752Y248999D01*
X814649Y248711D01*
X814575Y248419D01*
X814545Y248217D01*
X814593Y248170D01*
X815954Y246984D01*
X816124Y246879D01*
X816259Y246819D01*
X816361Y246803D01*
X816428Y246831D01*
X814490Y244893D01*
X814518Y244960D01*
X814502Y245062D01*
X814442Y245197D01*
X814337Y245367D01*
X814188Y245571D01*
X813758Y246081D01*
X813151Y246728D01*
X812782Y247103D01*
X813500Y247821D01*
X812484D01*
X812469Y248123D01*
X812425Y248419D01*
X812351Y248711D01*
X812248Y248999D01*
X812115Y249281D01*
X811953Y249558D01*
X811761Y249830D01*
X811539Y250098D01*
X811289Y250360D01*
X811008Y250618D01*
X815992D01*
X815712Y250360D01*
D02*
G37*
G36*
X777130Y251165D02*
X777752Y250653D01*
X777955Y250510D01*
X778570Y251124D01*
X778463Y250959D01*
X778427Y250751D01*
X778463Y250499D01*
X778570Y250205D01*
X778657Y250042D01*
X779032Y249818D01*
X779689Y249493D01*
X780358Y249232D01*
X781039Y249032D01*
X781730Y248895D01*
X782434Y248821D01*
X783149Y248809D01*
X779507Y244289D01*
X779400Y244698D01*
X779227Y245140D01*
X778989Y245616D01*
X778686Y246126D01*
X778317Y246670D01*
X777570Y247620D01*
X777335Y247820D01*
X776954Y248071D01*
X776616Y248251D01*
X776322Y248358D01*
X776070Y248394D01*
X775862Y248358D01*
X775697Y248251D01*
X776394Y248948D01*
X775495Y249890D01*
X776519Y251739D01*
X777130Y251165D01*
D02*
G37*
G36*
X406485Y245741D02*
X406868Y246113D01*
X408531Y244902D01*
X407943Y244282D01*
X408646Y243580D01*
X408480Y243687D01*
X408271Y243723D01*
X408019Y243686D01*
X407723Y243576D01*
X407383Y243395D01*
X407049Y243174D01*
X406914Y242992D01*
X406499Y242349D01*
X406146Y241704D01*
X405854Y241055D01*
X405625Y240403D01*
X405458Y239748D01*
X405353Y239090D01*
X405309Y238429D01*
X400973Y242273D01*
X401462Y242372D01*
X401973Y242534D01*
X402507Y242759D01*
X403063Y243048D01*
X403642Y243400D01*
X404242Y243816D01*
X405032Y244452D01*
X405334Y244808D01*
X405587Y245191D01*
X405769Y245531D01*
X405878Y245827D01*
X405915Y246079D01*
X405880Y246288D01*
X405772Y246454D01*
X406485Y245741D01*
D02*
G37*
G36*
X590146Y243330D02*
X589981Y243438D01*
X589771Y243473D01*
X589519Y243436D01*
X589223Y243326D01*
X588883Y243145D01*
X588500Y242891D01*
X588074Y242565D01*
X587090Y241696D01*
X586532Y241153D01*
X585095Y242590D01*
X585638Y243147D01*
X586833Y244558D01*
X587087Y244941D01*
X587269Y245281D01*
X587378Y245577D01*
X587415Y245829D01*
X587380Y246038D01*
X587272Y246204D01*
X590146Y243330D01*
D02*
G37*
G36*
X444016Y248620D02*
X445327Y247477D01*
X445382Y247435D01*
X445999Y248053D01*
X445891Y247888D01*
X445856Y247680D01*
X445891Y247428D01*
X445999Y247134D01*
X446133Y246882D01*
X447136Y246234D01*
X447697Y245945D01*
X448237Y245719D01*
X448756Y245556D01*
X449254Y245456D01*
X448146Y244470D01*
X448154Y244461D01*
X446718Y243024D01*
X446624Y243116D01*
X444915Y241594D01*
X444869Y242254D01*
X444763Y242910D01*
X444596Y243561D01*
X444370Y244208D01*
X444083Y244850D01*
X443869Y245244D01*
X443751Y245287D01*
X443499Y245323D01*
X443291Y245287D01*
X443126Y245180D01*
X443618Y245672D01*
X443329Y246122D01*
X442862Y246751D01*
X442334Y247376D01*
X441746Y247996D01*
X443329Y249286D01*
X444016Y248620D01*
D02*
G37*
G36*
X253686Y240192D02*
X253069Y239545D01*
X252558Y238918D01*
X253204Y238272D01*
X253038Y238380D01*
X252829Y238415D01*
X252577Y238378D01*
X252281Y238269D01*
X251941Y238087D01*
X251878Y238046D01*
X251591Y237619D01*
X251222Y236981D01*
X250915Y236346D01*
X250670Y235713D01*
X250487Y235082D01*
X250365Y234454D01*
X250306Y233828D01*
X246078Y237787D01*
X246610Y237876D01*
X247159Y238029D01*
X247723Y238244D01*
X248304Y238522D01*
X248901Y238862D01*
X249514Y239266D01*
X249949Y239589D01*
X250145Y239883D01*
X250326Y240223D01*
X250436Y240519D01*
X250473Y240772D01*
X250437Y240980D01*
X250330Y241146D01*
X251005Y240471D01*
X251449Y240852D01*
X252126Y241506D01*
X253686Y240192D01*
D02*
G37*
G36*
X315403Y242211D02*
X314863Y242123D01*
X314308Y241973D01*
X313738Y241760D01*
X313153Y241484D01*
X312553Y241146D01*
X311938Y240745D01*
X311308Y240282D01*
X310823Y239867D01*
X310343Y239301D01*
X310089Y238918D01*
X309908Y238578D01*
X309799Y238282D01*
X309762Y238030D01*
X309797Y237821D01*
X309904Y237655D01*
X307031Y240529D01*
X307196Y240421D01*
X307405Y240386D01*
X307658Y240423D01*
X307954Y240532D01*
X308293Y240714D01*
X308677Y240968D01*
X308983Y241202D01*
X309460Y241785D01*
X309894Y242424D01*
X310265Y243060D01*
X310575Y243693D01*
X310823Y244322D01*
X311009Y244948D01*
X311133Y245571D01*
X311195Y246191D01*
X315403Y242211D01*
D02*
G37*
G36*
X547486Y241745D02*
X548512Y241144D01*
X549014Y240900D01*
X549510Y240693D01*
X549999Y240524D01*
X550481Y240392D01*
X550956Y240299D01*
X551425Y240242D01*
X551479Y240240D01*
X551499Y240260D01*
X552756Y241701D01*
X552783Y241779D01*
X552773Y241824D01*
X554503Y240094D01*
X554458Y240104D01*
X554380Y240077D01*
X554271Y240011D01*
X554129Y239908D01*
X553749Y239587D01*
X552939Y238820D01*
X552605Y238489D01*
X551886Y239207D01*
Y238191D01*
X551467Y238170D01*
X551036Y238105D01*
X550592Y237997D01*
X550136Y237846D01*
X549667Y237652D01*
X549186Y237414D01*
X548693Y237133D01*
X547669Y236442D01*
X547139Y236032D01*
X546963Y242102D01*
X547486Y241745D01*
D02*
G37*
G36*
X879196Y245594D02*
X880773Y244231D01*
X881184Y243948D01*
X881537Y243751D01*
X881833Y243639D01*
X882072Y243614D01*
X882253Y243674D01*
X882377Y243820D01*
X880467Y240039D01*
X880521Y240250D01*
X880497Y240512D01*
X880393Y240825D01*
X880210Y241189D01*
X879949Y241605D01*
X879608Y242071D01*
X878690Y243157D01*
X877457Y244446D01*
X878556Y246220D01*
X879196Y245594D01*
D02*
G37*
G36*
X227504Y240067D02*
X226893Y239429D01*
X225993Y238344D01*
X226610Y237737D01*
X226444Y237843D01*
X226234Y237878D01*
X225981Y237840D01*
X225685Y237731D01*
X225458Y237609D01*
X225414Y237547D01*
X225039Y236930D01*
X224723Y236317D01*
X224465Y235710D01*
X224266Y235107D01*
X224127Y234510D01*
X224046Y233918D01*
X219918Y238046D01*
X220510Y238127D01*
X221108Y238266D01*
X221710Y238465D01*
X222317Y238723D01*
X222930Y239039D01*
X223547Y239414D01*
X223727Y239540D01*
X223772Y239613D01*
X223900Y239887D01*
X223959Y240115D01*
X223950Y240297D01*
X223872Y240432D01*
X224334Y239978D01*
X224797Y240341D01*
X226067Y241504D01*
X227504Y240067D01*
D02*
G37*
G36*
X519781Y239977D02*
X519294Y239878D01*
X518784Y239716D01*
X518251Y239491D01*
X517696Y239201D01*
X517118Y238849D01*
X516518Y238433D01*
X516357Y238303D01*
X516234Y238117D01*
X516052Y237777D01*
X515943Y237481D01*
X515906Y237229D01*
X515941Y237020D01*
X516049Y236854D01*
X515384Y237519D01*
X515250Y237410D01*
X514582Y236804D01*
X513892Y236134D01*
X512225Y237340D01*
X512825Y237973D01*
X513364Y238610D01*
X513760Y239142D01*
X513175Y239728D01*
X513341Y239620D01*
X513549Y239585D01*
X513802Y239622D01*
X514098Y239731D01*
X514179Y239774D01*
X514255Y239892D01*
X514607Y240538D01*
X514898Y241188D01*
X515127Y241840D01*
X515293Y242496D01*
X515398Y243155D01*
X515441Y243817D01*
X519781Y239977D01*
D02*
G37*
G36*
X913083Y243634D02*
X913598Y243315D01*
X914164Y243033D01*
X914779Y242788D01*
X915445Y242582D01*
X916161Y242412D01*
X916928Y242281D01*
X917745Y242187D01*
X919301Y242121D01*
X919325Y242122D01*
X921443Y242271D01*
X921963Y242360D01*
X922389Y242469D01*
X922723Y242598D01*
X922963Y242747D01*
X923110Y242915D01*
X923164Y243104D01*
X923017Y239082D01*
X922977Y239272D01*
X922842Y239441D01*
X922612Y239591D01*
X922288Y239721D01*
X921869Y239830D01*
X921355Y239920D01*
X920747Y239990D01*
X919246Y240070D01*
X919114Y240071D01*
X918612Y240061D01*
X916928Y239911D01*
X916161Y239779D01*
X915445Y239610D01*
X914779Y239403D01*
X914164Y239159D01*
X913598Y238877D01*
X913083Y238557D01*
X912619Y238200D01*
Y243991D01*
X913083Y243634D01*
D02*
G37*
G36*
X771392Y243888D02*
X771356Y243680D01*
X771392Y243428D01*
X771499Y243134D01*
X771679Y242796D01*
X771930Y242415D01*
X772254Y241992D01*
X773116Y241014D01*
X773654Y240461D01*
X772218Y239024D01*
X771665Y239563D01*
X770264Y240749D01*
X769883Y241000D01*
X769545Y241180D01*
X769251Y241287D01*
X768999Y241323D01*
X768791Y241287D01*
X768626Y241180D01*
X771499Y244053D01*
X771392Y243888D01*
D02*
G37*
G36*
X806824Y243215D02*
X806962Y242625D01*
X807162Y242026D01*
X807425Y241418D01*
X807750Y240801D01*
X808137Y240175D01*
X808242Y240025D01*
X808534Y239869D01*
X808831Y239760D01*
X809084Y239722D01*
X809294Y239756D01*
X809460Y239863D01*
X808825Y239238D01*
X809097Y238896D01*
X810305Y237581D01*
X808869Y236144D01*
X808207Y236779D01*
X807191Y237628D01*
X806622Y237068D01*
X806719Y237222D01*
X806745Y237421D01*
X806701Y237664D01*
X806585Y237951D01*
X806453Y238186D01*
X806274Y238313D01*
X805648Y238700D01*
X805031Y239024D01*
X804423Y239287D01*
X803824Y239487D01*
X803234Y239625D01*
X802653Y239701D01*
X806748Y243796D01*
X806824Y243215D01*
D02*
G37*
G36*
X874215Y242583D02*
X874390Y242191D01*
X874632Y241758D01*
X874942Y241282D01*
X875318Y240765D01*
X876273Y239606D01*
X877496Y238281D01*
X878209Y237556D01*
X877320Y235571D01*
X876725Y236126D01*
X876112Y236619D01*
X875483Y237048D01*
X874837Y237415D01*
X874174Y237719D01*
X873494Y237959D01*
X872797Y238137D01*
X872084Y238252D01*
X871354Y238303D01*
X870606Y238292D01*
X874107Y242934D01*
X874215Y242583D01*
D02*
G37*
G36*
X863592Y240423D02*
X863756Y239925D01*
X863985Y239401D01*
X864277Y238854D01*
X864632Y238282D01*
X865052Y237685D01*
X866082Y236419D01*
X866692Y235750D01*
X867367Y235056D01*
X866191Y233358D01*
X865562Y233954D01*
X864928Y234487D01*
X864289Y234959D01*
X863646Y235369D01*
X862997Y235717D01*
X862344Y236003D01*
X861687Y236227D01*
X861024Y236388D01*
X860357Y236488D01*
X859685Y236525D01*
X863491Y240898D01*
X863592Y240423D01*
D02*
G37*
G36*
X561595Y233002D02*
X561545Y233016D01*
X561463Y232991D01*
X561348Y232926D01*
X561201Y232823D01*
X561021Y232680D01*
X560287Y232016D01*
X559635Y231377D01*
X558916Y232095D01*
Y231079D01*
X558617Y231066D01*
X558328Y231028D01*
X558050Y230963D01*
X557782Y230872D01*
X557526Y230756D01*
X557280Y230614D01*
X557045Y230446D01*
X556821Y230252D01*
X556608Y230032D01*
X556406Y229787D01*
Y234404D01*
X556608Y234158D01*
X556821Y233939D01*
X557045Y233745D01*
X557280Y233577D01*
X557526Y233435D01*
X557782Y233318D01*
X558050Y233228D01*
X558328Y233163D01*
X558518Y233137D01*
X558537Y233156D01*
X559747Y234527D01*
X559812Y234642D01*
X559837Y234724D01*
X559823Y234774D01*
X561595Y233002D01*
D02*
G37*
G36*
X879813Y235966D02*
X881415Y234575D01*
X881845Y234272D01*
X882223Y234049D01*
X882549Y233906D01*
X882823Y233844D01*
X883046Y233862D01*
X883215Y233960D01*
X880308Y231172D01*
X880412Y231336D01*
X880435Y231554D01*
X880377Y231823D01*
X880238Y232146D01*
X880018Y232521D01*
X879717Y232948D01*
X879335Y233429D01*
X878330Y234547D01*
X877706Y235185D01*
X879175Y236590D01*
X879813Y235966D01*
D02*
G37*
G36*
X918242Y233706D02*
X918757Y233387D01*
X919323Y233105D01*
X919938Y232861D01*
X920604Y232654D01*
X921320Y232485D01*
X921824Y232398D01*
X922022Y232432D01*
X922455Y232541D01*
X922795Y232670D01*
X923043Y232819D01*
X923197Y232987D01*
X923258Y233176D01*
X923189Y232247D01*
X924688Y232184D01*
Y230152D01*
X923771Y230133D01*
X923029Y230067D01*
X922961Y229154D01*
X922928Y229344D01*
X922799Y229514D01*
X922575Y229663D01*
X922255Y229793D01*
X921839Y229903D01*
X921730Y229922D01*
X921320Y229851D01*
X920604Y229682D01*
X919938Y229475D01*
X919323Y229231D01*
X918757Y228949D01*
X918242Y228630D01*
X917778Y228273D01*
Y234063D01*
X918242Y233706D01*
D02*
G37*
G36*
X260236Y231240D02*
X260547Y231541D01*
X262139Y230259D01*
X261689Y229787D01*
X262396Y229080D01*
X262230Y229188D01*
X262022Y229223D01*
X261769Y229186D01*
X261473Y229076D01*
X261133Y228895D01*
X260750Y228641D01*
X260685Y228591D01*
X260489Y228334D01*
X260063Y227693D01*
X259699Y227053D01*
X259397Y226413D01*
X259156Y225774D01*
X258978Y225135D01*
X258862Y224497D01*
X258807Y223860D01*
X254545Y227783D01*
X255064Y227875D01*
X255601Y228031D01*
X256156Y228250D01*
X256729Y228531D01*
X257320Y228876D01*
X257930Y229283D01*
X258557Y229753D01*
X258768Y229935D01*
X259083Y230308D01*
X259337Y230691D01*
X259519Y231031D01*
X259628Y231327D01*
X259665Y231579D01*
X259630Y231788D01*
X259522Y231954D01*
X260236Y231240D01*
D02*
G37*
G36*
X328371Y229692D02*
X327727Y229640D01*
X327084Y229527D01*
X326441Y229352D01*
X325798Y229114D01*
X325156Y228815D01*
X324514Y228454D01*
X323873Y228031D01*
X323261Y227568D01*
X322718Y226927D01*
X322464Y226543D01*
X322282Y226204D01*
X322173Y225908D01*
X322136Y225655D01*
X322171Y225446D01*
X322279Y225281D01*
X319405Y228155D01*
X319571Y228047D01*
X319780Y228012D01*
X320032Y228049D01*
X320328Y228158D01*
X320668Y228340D01*
X321051Y228593D01*
X321478Y228919D01*
X321801Y229205D01*
X322485Y229995D01*
X322957Y230621D01*
X323367Y231228D01*
X323714Y231815D01*
X323997Y232384D01*
X324218Y232933D01*
X324375Y233463D01*
X324470Y233975D01*
X328371Y229692D01*
D02*
G37*
G36*
X297929Y230012D02*
X298402Y230463D01*
X299734Y228922D01*
X299383Y228557D01*
X300095Y227845D01*
X299929Y227953D01*
X299720Y227988D01*
X299468Y227951D01*
X299172Y227842D01*
X298832Y227661D01*
X298449Y227407D01*
X298208Y227223D01*
X297969Y226942D01*
X297505Y226312D01*
X297104Y225697D01*
X296766Y225097D01*
X296490Y224512D01*
X296277Y223942D01*
X296127Y223387D01*
X296039Y222847D01*
X292059Y227055D01*
X292679Y227117D01*
X293302Y227241D01*
X293928Y227427D01*
X294557Y227675D01*
X295190Y227985D01*
X295826Y228356D01*
X296465Y228790D01*
X296689Y228963D01*
X296782Y229073D01*
X297036Y229457D01*
X297218Y229796D01*
X297327Y230092D01*
X297364Y230345D01*
X297329Y230554D01*
X297221Y230719D01*
X297929Y230012D01*
D02*
G37*
G36*
X571856Y227344D02*
X571221Y226683D01*
X570269Y225544D01*
X570861Y224943D01*
X570699Y225048D01*
X570493Y225081D01*
X570244Y225043D01*
X569951Y224933D01*
X569735Y224817D01*
X569689Y224751D01*
X569302Y224125D01*
X568977Y223507D01*
X568714Y222899D01*
X568513Y222299D01*
X568375Y221707D01*
X568298Y221125D01*
X564200Y225223D01*
X564782Y225300D01*
X565373Y225439D01*
X565973Y225639D01*
X566582Y225902D01*
X567200Y226227D01*
X567826Y226614D01*
X567891Y226660D01*
X568018Y226897D01*
X568128Y227194D01*
X568165Y227447D01*
X568131Y227657D01*
X568024Y227823D01*
X568636Y227202D01*
X569105Y227574D01*
X570419Y228781D01*
X571856Y227344D01*
D02*
G37*
G36*
X758570Y232985D02*
X759152Y232545D01*
X759764Y232169D01*
X759832Y232136D01*
X760320Y232624D01*
X760213Y232459D01*
X760177Y232251D01*
X760213Y231999D01*
X760233Y231942D01*
X760405Y231859D01*
X761076Y231614D01*
X761775Y231435D01*
X762504Y231321D01*
X763262Y231272D01*
X764050Y231288D01*
X764867Y231370D01*
X761765Y226409D01*
X761683Y226578D01*
X761525Y226814D01*
X761294Y227115D01*
X760606Y227913D01*
X759984Y228559D01*
X759085Y229320D01*
X758704Y229571D01*
X758366Y229751D01*
X758072Y229858D01*
X757820Y229894D01*
X757612Y229858D01*
X757447Y229751D01*
X758154Y230458D01*
X757579Y231055D01*
X758016Y233491D01*
X758570Y232985D01*
D02*
G37*
G36*
X699123Y232417D02*
X699256Y231815D01*
X699452Y231207D01*
X699710Y230592D01*
X700030Y229969D01*
X700412Y229340D01*
X700855Y228703D01*
X700975Y228551D01*
X701073Y228468D01*
X701457Y228214D01*
X701796Y228032D01*
X702092Y227923D01*
X702345Y227886D01*
X702554Y227921D01*
X702719Y228029D01*
X702025Y227335D01*
X702560Y226751D01*
X701088Y225349D01*
X700554Y225863D01*
X699846Y225155D01*
X699953Y225321D01*
X699988Y225530D01*
X699951Y225782D01*
X699842Y226078D01*
X699660Y226418D01*
X699407Y226801D01*
X699312Y226924D01*
X699122Y227085D01*
X698488Y227539D01*
X697866Y227930D01*
X697254Y228260D01*
X696654Y228527D01*
X696064Y228732D01*
X695486Y228874D01*
X694918Y228955D01*
X699051Y233011D01*
X699123Y232417D01*
D02*
G37*
G36*
X235504Y229124D02*
X234971Y228564D01*
X234487Y227998D01*
X234053Y227426D01*
X233668Y226849D01*
X233333Y226267D01*
X233048Y225680D01*
X232811Y225087D01*
X232624Y224488D01*
X232487Y223884D01*
X232399Y223275D01*
X228218Y227456D01*
X228827Y227544D01*
X229431Y227681D01*
X230030Y227868D01*
X230623Y228104D01*
X231210Y228390D01*
X231793Y228725D01*
X232369Y229110D01*
X232941Y229544D01*
X233507Y230028D01*
X234067Y230561D01*
X235504Y229124D01*
D02*
G37*
G36*
X516832Y221954D02*
X516240Y221873D01*
X515643Y221734D01*
X515040Y221535D01*
X514433Y221277D01*
X513820Y220961D01*
X513231Y220603D01*
X513144Y220440D01*
X513035Y220144D01*
X512997Y219891D01*
X513032Y219681D01*
X513138Y219515D01*
X512541Y220121D01*
X511953Y219659D01*
X510683Y218496D01*
X509246Y219933D01*
X509857Y220571D01*
X510881Y221806D01*
X510318Y222378D01*
X510477Y222276D01*
X510680Y222246D01*
X510927Y222286D01*
X511217Y222398D01*
X511345Y222468D01*
X511711Y223070D01*
X512027Y223683D01*
X512285Y224290D01*
X512484Y224893D01*
X512623Y225490D01*
X512705Y226082D01*
X516832Y221954D01*
D02*
G37*
G36*
X579004Y220996D02*
X578571Y220516D01*
X578196Y219999D01*
X577879Y219445D01*
X577620Y218853D01*
X577468Y218379D01*
X577553Y218294D01*
X577459Y218353D01*
X577418Y218224D01*
X577274Y217558D01*
X577187Y216855D01*
X577159Y216115D01*
X577187Y215337D01*
X577274Y214523D01*
X574348Y216337D01*
X574218Y216210D01*
X573672Y216757D01*
X572292Y217613D01*
X572461Y217696D01*
X572697Y217854D01*
X572998Y218087D01*
X573796Y218775D01*
X573880Y218857D01*
X574415Y219481D01*
X574657Y219835D01*
X574832Y220148D01*
X574940Y220419D01*
X574982Y220648D01*
X574957Y220836D01*
X574865Y220982D01*
X575464Y220383D01*
X576937Y221803D01*
X579004Y220996D01*
D02*
G37*
G36*
X918941Y223038D02*
X919456Y222719D01*
X920021Y222437D01*
X920637Y222192D01*
X921303Y221986D01*
X921956Y221832D01*
X922112Y221875D01*
X922409Y222005D01*
X922607Y222154D01*
X922706Y222324D01*
X922707Y222513D01*
X922913Y221670D01*
X923602Y221591D01*
X925387Y221516D01*
Y219484D01*
X924470Y219465D01*
X923474Y219376D01*
X923690Y218492D01*
X923596Y218681D01*
X923409Y218849D01*
X923131Y218998D01*
X922760Y219127D01*
X922310Y219233D01*
X922019Y219183D01*
X921303Y219014D01*
X920637Y218807D01*
X920021Y218563D01*
X919456Y218281D01*
X918941Y217962D01*
X918476Y217605D01*
Y220243D01*
X918259Y221516D01*
X918476Y221518D01*
Y223395D01*
X918941Y223038D01*
D02*
G37*
G36*
X878228Y224209D02*
X879782Y222871D01*
X880159Y222624D01*
X880466Y222476D01*
X880702Y222427D01*
X880867Y222478D01*
X880962Y222629D01*
X880987Y222878D01*
X881132Y218882D01*
X881364Y218562D01*
X881446Y218401D01*
X881378Y218399D01*
X881160Y218556D01*
X880792Y218873D01*
X877821Y221732D01*
X876703Y222845D01*
X877568Y224854D01*
X878228Y224209D01*
D02*
G37*
G36*
X752565Y224869D02*
X753249Y225553D01*
X753141Y225388D01*
X753106Y225180D01*
X753141Y224928D01*
X753249Y224634D01*
X753429Y224296D01*
X753680Y223915D01*
X753924Y223596D01*
X756744Y220955D01*
X751732Y217921D01*
X751826Y218747D01*
X751854Y219541D01*
X751816Y220305D01*
X751713Y221037D01*
X751544Y221739D01*
X751309Y222409D01*
X751158Y222730D01*
X751001Y222787D01*
X750749Y222823D01*
X750541Y222787D01*
X750376Y222680D01*
X750909Y223213D01*
X750641Y223657D01*
X750209Y224234D01*
X749711Y224781D01*
X751502Y225863D01*
X752565Y224869D01*
D02*
G37*
G36*
X275626Y223390D02*
X275779Y222841D01*
X275994Y222277D01*
X276272Y221696D01*
X276612Y221099D01*
X277016Y220486D01*
X277482Y219857D01*
X277906Y219363D01*
X278500Y218859D01*
X278883Y218605D01*
X279223Y218424D01*
X279519Y218314D01*
X279771Y218277D01*
X279981Y218313D01*
X280146Y218420D01*
X277272Y215546D01*
X277380Y215712D01*
X277415Y215921D01*
X277378Y216173D01*
X277269Y216469D01*
X277087Y216809D01*
X276833Y217192D01*
X276602Y217495D01*
X276009Y217978D01*
X275369Y218409D01*
X274731Y218778D01*
X274096Y219085D01*
X273463Y219330D01*
X272832Y219513D01*
X272204Y219635D01*
X271578Y219694D01*
X275537Y223922D01*
X275626Y223390D01*
D02*
G37*
G36*
X310302Y217638D02*
X310798Y218111D01*
X312061Y216500D01*
X311756Y216185D01*
X312469Y215471D01*
X312304Y215579D01*
X312095Y215614D01*
X311842Y215577D01*
X311546Y215468D01*
X311207Y215286D01*
X310823Y215032D01*
X310519Y214799D01*
X310265Y214506D01*
X309792Y213880D01*
X309383Y213273D01*
X309036Y212685D01*
X308753Y212117D01*
X308532Y211567D01*
X308375Y211037D01*
X308280Y210526D01*
X304379Y214808D01*
X305022Y214860D01*
X305666Y214973D01*
X306309Y215149D01*
X306951Y215386D01*
X307593Y215685D01*
X308235Y216046D01*
X308876Y216469D01*
X309115Y216650D01*
X309157Y216699D01*
X309410Y217082D01*
X309592Y217422D01*
X309701Y217718D01*
X309738Y217970D01*
X309703Y218179D01*
X309596Y218345D01*
X310302Y217638D01*
D02*
G37*
G36*
X524670Y214546D02*
X524089Y214470D01*
X523499Y214332D01*
X522900Y214132D01*
X522292Y213869D01*
X521675Y213544D01*
X521049Y213158D01*
X520928Y213072D01*
X520781Y212798D01*
X520672Y212502D01*
X520635Y212250D01*
X520670Y212041D01*
X520778Y211875D01*
X520152Y212501D01*
X519770Y212197D01*
X518454Y210989D01*
X517018Y212425D01*
X517653Y213088D01*
X518524Y214129D01*
X517904Y214749D01*
X518069Y214641D01*
X518279Y214606D01*
X518531Y214643D01*
X518827Y214752D01*
X519101Y214899D01*
X519187Y215020D01*
X519573Y215646D01*
X519898Y216263D01*
X520160Y216871D01*
X520361Y217470D01*
X520499Y218060D01*
X520575Y218641D01*
X524670Y214546D01*
D02*
G37*
G36*
X944773Y213558D02*
X947250Y213540D01*
Y208460D01*
X944773Y208365D01*
Y208104D01*
X944638Y208172D01*
X944397Y208232D01*
X944052Y208286D01*
X943632Y208321D01*
X938025Y208107D01*
Y213893D01*
X938271Y213826D01*
X938667Y213766D01*
X939213Y213713D01*
X941304Y213633D01*
X944638Y213828D01*
X944773Y213895D01*
Y213558D01*
D02*
G37*
G36*
X711441Y217903D02*
X711906Y217510D01*
X712572Y218176D01*
X712464Y218011D01*
X712427Y217803D01*
X712462Y217553D01*
X712569Y217260D01*
X712746Y216924D01*
X712804Y216836D01*
X713359Y216480D01*
X714006Y216130D01*
X714657Y215842D01*
X715312Y215616D01*
X715972Y215452D01*
X716635Y215350D01*
X717302Y215310D01*
X713480Y210953D01*
X713380Y211434D01*
X713216Y211938D01*
X712989Y212466D01*
X712698Y213017D01*
X712344Y213592D01*
X711926Y214190D01*
X711455Y214772D01*
X711329Y214879D01*
X710950Y215128D01*
X710614Y215306D01*
X710321Y215412D01*
X710071Y215447D01*
X709863Y215410D01*
X709698Y215302D01*
X710401Y216005D01*
X710292Y216126D01*
X709619Y216818D01*
X710810Y218501D01*
X711441Y217903D01*
D02*
G37*
G36*
X924475Y208107D02*
X924212Y208174D01*
X923764Y208234D01*
X922313Y208333D01*
X913522Y208460D01*
Y213540D01*
X924475Y213893D01*
Y208107D01*
D02*
G37*
G36*
X896288Y213826D02*
X896736Y213766D01*
X898187Y213667D01*
X906978Y213540D01*
Y208460D01*
X896025Y208107D01*
Y213893D01*
X896288Y213826D01*
D02*
G37*
G36*
X266872Y213538D02*
X267034Y213027D01*
X267259Y212493D01*
X267548Y211937D01*
X267900Y211358D01*
X268316Y210758D01*
X268951Y209968D01*
X269308Y209667D01*
X269691Y209413D01*
X270030Y209231D01*
X270327Y209122D01*
X270579Y209085D01*
X270788Y209120D01*
X270954Y209228D01*
X270241Y208515D01*
X270613Y208132D01*
X269402Y206469D01*
X268782Y207057D01*
X268080Y206354D01*
X268187Y206520D01*
X268223Y206728D01*
X268186Y206981D01*
X268076Y207277D01*
X267895Y207617D01*
X267674Y207951D01*
X267492Y208086D01*
X266849Y208501D01*
X266204Y208854D01*
X265555Y209146D01*
X264903Y209375D01*
X264248Y209542D01*
X263590Y209647D01*
X262929Y209691D01*
X266773Y214027D01*
X266872Y213538D01*
D02*
G37*
G36*
X285446Y211720D02*
X285746Y211472D01*
X286420Y212146D01*
X286313Y211980D01*
X286277Y211772D01*
X286314Y211519D01*
X286424Y211223D01*
X286605Y210883D01*
X286684Y210764D01*
X286707Y210748D01*
X287352Y210355D01*
X288007Y210025D01*
X288672Y209757D01*
X289347Y209552D01*
X290032Y209409D01*
X290727Y209328D01*
X291432Y209309D01*
X287750Y204825D01*
X287644Y205250D01*
X287473Y205707D01*
X287237Y206195D01*
X286936Y206715D01*
X286570Y207265D01*
X285666Y208432D01*
X285192Y208834D01*
X284809Y209087D01*
X284470Y209269D01*
X284173Y209378D01*
X283921Y209415D01*
X283712Y209380D01*
X283546Y209272D01*
X284252Y209978D01*
X283768Y210487D01*
X284830Y212299D01*
X285446Y211720D01*
D02*
G37*
G36*
X277120Y202788D02*
X277085Y202579D01*
X277122Y202327D01*
X277231Y202031D01*
X277413Y201691D01*
X277666Y201308D01*
X277815Y201114D01*
X277943Y201003D01*
X278570Y200533D01*
X279180Y200126D01*
X279771Y199781D01*
X280344Y199500D01*
X280899Y199281D01*
X281436Y199125D01*
X281955Y199033D01*
X277693Y195110D01*
X277638Y195747D01*
X277522Y196385D01*
X277344Y197024D01*
X277103Y197663D01*
X276801Y198302D01*
X276437Y198943D01*
X276011Y199584D01*
X275934Y199684D01*
X275617Y199895D01*
X275277Y200076D01*
X274981Y200186D01*
X274729Y200223D01*
X274520Y200187D01*
X274354Y200080D01*
X275051Y200777D01*
X274973Y200867D01*
X274361Y201509D01*
X275953Y202791D01*
X276519Y202244D01*
X277228Y202953D01*
X277120Y202788D01*
D02*
G37*
G36*
X607418Y204546D02*
X607660Y204385D01*
X607944Y204237D01*
X608270Y204101D01*
X608637Y203978D01*
X609047Y203866D01*
X609992Y203680D01*
X610528Y203606D01*
X611106Y203543D01*
X606957Y199394D01*
X606894Y199972D01*
X606634Y201453D01*
X606522Y201863D01*
X606399Y202230D01*
X606263Y202556D01*
X606115Y202840D01*
X605954Y203082D01*
X605782Y203282D01*
X607218Y204718D01*
X607418Y204546D01*
D02*
G37*
G36*
X881090Y198986D02*
X881043Y199176D01*
X880902Y199345D01*
X880668Y199495D01*
X880339Y199625D01*
X879916Y199734D01*
X879399Y199824D01*
X878789Y199894D01*
X877285Y199974D01*
X876393Y199984D01*
Y202016D01*
X877285Y202026D01*
X879399Y202176D01*
X879916Y202265D01*
X880339Y202375D01*
X880668Y202505D01*
X880902Y202654D01*
X881043Y202824D01*
X881090Y203013D01*
Y198986D01*
D02*
G37*
G36*
X913834Y203132D02*
X914349Y202813D01*
X914914Y202531D01*
X915529Y202286D01*
X916195Y202080D01*
X916911Y201910D01*
X917678Y201779D01*
X918495Y201685D01*
X919489Y201643D01*
X921250Y201769D01*
X921750Y201859D01*
X922151Y201969D01*
X922455Y202099D01*
X922661Y202248D01*
X922769Y202418D01*
X922779Y202607D01*
X923568Y198586D01*
X923483Y198774D01*
X923305Y198943D01*
X923036Y199092D01*
X922673Y199221D01*
X922219Y199330D01*
X921672Y199419D01*
X921033Y199489D01*
X919568Y199563D01*
X919362Y199559D01*
X917678Y199409D01*
X916911Y199277D01*
X916195Y199108D01*
X915529Y198901D01*
X914914Y198657D01*
X914349Y198375D01*
X913834Y198055D01*
X913369Y197698D01*
Y203489D01*
X913834Y203132D01*
D02*
G37*
G36*
X864441Y203538D02*
X864956Y203219D01*
X865521Y202937D01*
X866137Y202693D01*
X866803Y202486D01*
X867519Y202317D01*
X868286Y202185D01*
X869102Y202091D01*
X870887Y202016D01*
Y199984D01*
X869969Y199965D01*
X868286Y199815D01*
X867519Y199683D01*
X866803Y199514D01*
X866137Y199307D01*
X865521Y199063D01*
X864956Y198781D01*
X864441Y198462D01*
X863977Y198105D01*
Y203895D01*
X864441Y203538D01*
D02*
G37*
G36*
X340992Y194448D02*
X340391Y194379D01*
X339784Y194247D01*
X339171Y194054D01*
X338551Y193799D01*
X337926Y193482D01*
X337295Y193103D01*
X336792Y192754D01*
X336663Y192559D01*
X336481Y192220D01*
X336372Y191923D01*
X336335Y191671D01*
X336370Y191462D01*
X336478Y191297D01*
X335802Y191973D01*
X335365Y191593D01*
X334710Y190965D01*
X333326Y192456D01*
X333970Y193124D01*
X334281Y193493D01*
X333604Y194170D01*
X333769Y194063D01*
X333979Y194027D01*
X334231Y194064D01*
X334527Y194174D01*
X334867Y194355D01*
X335159Y194549D01*
X335527Y195058D01*
X335921Y195679D01*
X336252Y196287D01*
X336522Y196884D01*
X336729Y197468D01*
X336874Y198040D01*
X336956Y198601D01*
X340992Y194448D01*
D02*
G37*
G36*
X919191Y193038D02*
X919706Y192719D01*
X920271Y192437D01*
X920887Y192193D01*
X921553Y191986D01*
X922071Y191863D01*
X922112Y191875D01*
X922409Y192005D01*
X922607Y192154D01*
X922706Y192324D01*
X922707Y192513D01*
X922904Y191708D01*
X923036Y191685D01*
X923852Y191591D01*
X925637Y191516D01*
Y189484D01*
X924719Y189465D01*
X923479Y189354D01*
X923690Y188492D01*
X923596Y188681D01*
X923409Y188849D01*
X923131Y188998D01*
X922760Y189127D01*
X922415Y189208D01*
X922269Y189183D01*
X921553Y189014D01*
X920887Y188807D01*
X920271Y188563D01*
X919706Y188281D01*
X919191Y187962D01*
X918727Y187605D01*
Y189483D01*
X918606Y189484D01*
X918259Y191516D01*
X918727Y191521D01*
Y193395D01*
X919191Y193038D01*
D02*
G37*
G36*
X882475Y188107D02*
X881998Y188291D01*
X880991Y188602D01*
X880461Y188728D01*
X879350Y188922D01*
X878768Y188990D01*
X877552Y189068D01*
X876918Y189077D01*
X876205Y191109D01*
X877115Y191119D01*
X879207Y191270D01*
X879693Y191360D01*
X880072Y191471D01*
X880346Y191601D01*
X880513Y191752D01*
X880575Y191923D01*
X880530Y192114D01*
X882475Y188107D01*
D02*
G37*
G36*
X666705Y187717D02*
X666186Y187624D01*
X665649Y187469D01*
X665094Y187250D01*
X664521Y186969D01*
X663930Y186624D01*
X663320Y186217D01*
X663047Y186012D01*
X662913Y185809D01*
X662731Y185469D01*
X662622Y185173D01*
X662585Y184921D01*
X662620Y184712D01*
X662728Y184547D01*
X662067Y185207D01*
X661385Y184618D01*
X660703Y183959D01*
X659111Y185240D01*
X659723Y185883D01*
X660273Y186525D01*
X660479Y186795D01*
X659854Y187420D01*
X660020Y187313D01*
X660229Y187277D01*
X660481Y187314D01*
X660777Y187424D01*
X661017Y187552D01*
X661187Y187807D01*
X661551Y188447D01*
X661853Y189087D01*
X662094Y189726D01*
X662272Y190365D01*
X662388Y191003D01*
X662443Y191640D01*
X666705Y187717D01*
D02*
G37*
G36*
X867831Y192632D02*
X868346Y192312D01*
X868912Y192030D01*
X869527Y191786D01*
X870193Y191579D01*
X870909Y191410D01*
X871676Y191278D01*
X872493Y191185D01*
X874277Y191109D01*
Y189077D01*
X873360Y189058D01*
X871676Y188908D01*
X870909Y188777D01*
X870193Y188607D01*
X869527Y188401D01*
X868912Y188156D01*
X868346Y187875D01*
X867831Y187555D01*
X867367Y187198D01*
Y192989D01*
X867831Y192632D01*
D02*
G37*
G36*
X591538Y193487D02*
X591219Y192972D01*
X590937Y192407D01*
X590693Y191791D01*
X590486Y191125D01*
X590317Y190409D01*
X590185Y189642D01*
X590091Y188825D01*
X590016Y187041D01*
X587984D01*
X587965Y187958D01*
X587815Y189642D01*
X587683Y190409D01*
X587514Y191125D01*
X587308Y191791D01*
X587063Y192407D01*
X586781Y192972D01*
X586462Y193487D01*
X586105Y193951D01*
X591895D01*
X591538Y193487D01*
D02*
G37*
G36*
X328032Y187193D02*
X328652Y187781D01*
X329863Y186118D01*
X329491Y185735D01*
X330204Y185022D01*
X330038Y185130D01*
X329829Y185165D01*
X329577Y185128D01*
X329281Y185019D01*
X328941Y184837D01*
X328558Y184583D01*
X328349Y184424D01*
X327566Y183492D01*
X327150Y182892D01*
X326798Y182313D01*
X326509Y181757D01*
X326284Y181223D01*
X326122Y180712D01*
X326023Y180223D01*
X322179Y184559D01*
X322840Y184603D01*
X323498Y184708D01*
X324153Y184875D01*
X324805Y185104D01*
X325454Y185396D01*
X326099Y185749D01*
X326742Y186164D01*
X326924Y186299D01*
X327145Y186633D01*
X327326Y186973D01*
X327436Y187269D01*
X327473Y187521D01*
X327437Y187731D01*
X327330Y187896D01*
X328032Y187193D01*
D02*
G37*
G36*
X350571Y185191D02*
X349910Y185147D01*
X349252Y185042D01*
X348597Y184875D01*
X347945Y184646D01*
X347296Y184354D01*
X346651Y184001D01*
X346008Y183586D01*
X345993Y183575D01*
X345855Y183367D01*
X345674Y183027D01*
X345564Y182731D01*
X345527Y182479D01*
X345563Y182269D01*
X345670Y182104D01*
X344988Y182787D01*
X344731Y182570D01*
X344098Y181969D01*
X342887Y183632D01*
X343505Y184269D01*
X342797Y184978D01*
X342962Y184870D01*
X343171Y184835D01*
X343423Y184872D01*
X343719Y184981D01*
X344059Y185163D01*
X344442Y185417D01*
X344540Y185491D01*
X345184Y186258D01*
X345600Y186858D01*
X345952Y187437D01*
X346241Y187993D01*
X346466Y188527D01*
X346628Y189038D01*
X346727Y189527D01*
X350571Y185191D01*
D02*
G37*
G36*
X600915Y187652D02*
X600596Y187137D01*
X600314Y186572D01*
X600070Y185956D01*
X599863Y185291D01*
X599694Y184574D01*
X599562Y183808D01*
X599468Y182991D01*
X599393Y181206D01*
X597361D01*
X597342Y182124D01*
X597192Y183808D01*
X597061Y184574D01*
X596891Y185291D01*
X596685Y185956D01*
X596440Y186572D01*
X596158Y187137D01*
X595839Y187652D01*
X595482Y188117D01*
X601273D01*
X600915Y187652D01*
D02*
G37*
G36*
X874493Y184206D02*
X875008Y183887D01*
X875573Y183605D01*
X876188Y183360D01*
X876854Y183154D01*
X877570Y182985D01*
X878337Y182853D01*
X878983Y182779D01*
X879954Y182842D01*
X880528Y182931D01*
X881011Y183039D01*
X881401Y183168D01*
X881700Y183316D01*
X881906Y183484D01*
X882020Y183672D01*
X880629Y179648D01*
X880648Y179838D01*
X880564Y180009D01*
X880379Y180160D01*
X880093Y180290D01*
X879705Y180401D01*
X879214Y180491D01*
X878878Y180531D01*
X878337Y180483D01*
X877570Y180351D01*
X876854Y180182D01*
X876188Y179975D01*
X875573Y179731D01*
X875008Y179449D01*
X874493Y179130D01*
X874028Y178773D01*
Y184563D01*
X874493Y184206D01*
D02*
G37*
G36*
X380529Y185775D02*
X381118Y185322D01*
X381735Y184935D01*
X382165Y184719D01*
X382570Y185124D01*
X382463Y184959D01*
X382427Y184751D01*
X382450Y184584D01*
X383047Y184354D01*
X383744Y184160D01*
X384467Y184031D01*
X385218Y183967D01*
X385994Y183968D01*
X386798Y184033D01*
X383605Y179142D01*
X383513Y179355D01*
X383348Y179628D01*
X383110Y179961D01*
X382417Y180807D01*
X382014Y181245D01*
X381335Y181820D01*
X380954Y182071D01*
X380616Y182251D01*
X380322Y182358D01*
X380070Y182394D01*
X379862Y182358D01*
X379697Y182251D01*
X380406Y182960D01*
X379412Y183972D01*
X379966Y186292D01*
X380529Y185775D01*
D02*
G37*
G36*
X923090Y178986D02*
X923043Y179176D01*
X922903Y179345D01*
X922668Y179495D01*
X922339Y179625D01*
X921916Y179734D01*
X921399Y179824D01*
X920788Y179894D01*
X919285Y179974D01*
X918393Y179984D01*
Y182016D01*
X919285Y182026D01*
X921399Y182176D01*
X921916Y182265D01*
X922339Y182375D01*
X922668Y182505D01*
X922903Y182654D01*
X923043Y182824D01*
X923090Y183013D01*
Y178986D01*
D02*
G37*
G36*
X676544Y177446D02*
X675799Y177455D01*
X675071Y177401D01*
X674359Y177285D01*
X673663Y177105D01*
X672984Y176863D01*
X672322Y176558D01*
X671965Y176354D01*
X671924Y176277D01*
X671814Y175981D01*
X671777Y175728D01*
X671813Y175520D01*
X671920Y175354D01*
X671325Y175949D01*
X671046Y175758D01*
X670433Y175264D01*
X669836Y174707D01*
X668936Y176680D01*
X669647Y177404D01*
X669751Y177523D01*
X669046Y178228D01*
X669212Y178120D01*
X669421Y178085D01*
X669673Y178122D01*
X669969Y178231D01*
X670309Y178413D01*
X670692Y178667D01*
X670868Y178801D01*
X671821Y179891D01*
X672197Y180410D01*
X672506Y180888D01*
X672748Y181326D01*
X672923Y181722D01*
X673031Y182077D01*
X676544Y177446D01*
D02*
G37*
G36*
X917968Y180282D02*
X917796Y180082D01*
X917635Y179840D01*
X917487Y179556D01*
X917351Y179230D01*
X917227Y178863D01*
X917116Y178453D01*
X916930Y177507D01*
X916856Y176972D01*
X916793Y176394D01*
X912644Y180543D01*
X913222Y180606D01*
X914703Y180866D01*
X915113Y180977D01*
X915480Y181101D01*
X915806Y181237D01*
X916090Y181385D01*
X916332Y181546D01*
X916532Y181718D01*
X917968Y180282D01*
D02*
G37*
G36*
X621343Y175228D02*
X620610Y174487D01*
X621325Y173772D01*
X621159Y173880D01*
X620950Y173915D01*
X620698Y173878D01*
X620402Y173769D01*
X620062Y173587D01*
X619679Y173333D01*
X619418Y173134D01*
X617413Y170855D01*
X617247Y170571D01*
X617152Y170346D01*
X613932Y175216D01*
X614731Y175155D01*
X615505Y175159D01*
X616252Y175228D01*
X616974Y175361D01*
X617669Y175559D01*
X618339Y175821D01*
X618517Y175912D01*
X618557Y176019D01*
X618594Y176271D01*
X618559Y176481D01*
X618451Y176646D01*
X618961Y176137D01*
X618982Y176148D01*
X619600Y176539D01*
X620191Y176994D01*
X620757Y177515D01*
X621343Y175228D01*
D02*
G37*
G36*
X337214Y178012D02*
X337882Y178627D01*
X339335Y177206D01*
X338702Y176546D01*
X338692Y176534D01*
X339396Y175830D01*
X339230Y175938D01*
X339021Y175973D01*
X338769Y175936D01*
X338473Y175826D01*
X338133Y175645D01*
X337750Y175391D01*
X337722Y175369D01*
X337622Y175250D01*
X337175Y174614D01*
X336791Y173987D01*
X336469Y173367D01*
X336208Y172756D01*
X336010Y172152D01*
X335874Y171557D01*
X335800Y170970D01*
X331688Y175047D01*
X332262Y175125D01*
X332847Y175265D01*
X333442Y175468D01*
X334047Y175732D01*
X334661Y176059D01*
X335285Y176448D01*
X335920Y176900D01*
X336011Y176972D01*
X336083Y177058D01*
X336337Y177441D01*
X336519Y177781D01*
X336628Y178077D01*
X336665Y178329D01*
X336630Y178538D01*
X336522Y178704D01*
X337214Y178012D01*
D02*
G37*
G36*
X707244Y182221D02*
X707747Y181801D01*
X708410Y182465D01*
X708303Y182299D01*
X708267Y182091D01*
X708303Y181840D01*
X708410Y181545D01*
X708590Y181207D01*
X708721Y181009D01*
X709176Y180687D01*
X709802Y180300D01*
X710419Y179976D01*
X711027Y179713D01*
X711627Y179513D01*
X712216Y179375D01*
X712797Y179298D01*
X708703Y175204D01*
X708627Y175785D01*
X708489Y176375D01*
X708288Y176974D01*
X708026Y177582D01*
X707701Y178199D01*
X707314Y178825D01*
X706992Y179280D01*
X706794Y179411D01*
X706456Y179591D01*
X706162Y179699D01*
X705910Y179734D01*
X705702Y179699D01*
X705537Y179591D01*
X706208Y180263D01*
X705145Y181419D01*
X706582Y182856D01*
X707244Y182221D01*
D02*
G37*
G36*
X127374Y181715D02*
X127513Y181125D01*
X127713Y180526D01*
X127976Y179918D01*
X128300Y179301D01*
X128687Y178675D01*
X129136Y178040D01*
X129647Y177396D01*
X130856Y176081D01*
X129419Y174644D01*
X128757Y175279D01*
X127460Y176364D01*
X126825Y176813D01*
X126199Y177200D01*
X125582Y177524D01*
X124974Y177787D01*
X124375Y177987D01*
X123785Y178125D01*
X123204Y178202D01*
X127298Y182296D01*
X127374Y181715D01*
D02*
G37*
G36*
X562557Y175754D02*
X562935Y176122D01*
X564372Y174685D01*
X563965Y174267D01*
X565435Y172715D01*
X564774Y172630D01*
X563081Y172302D01*
X562614Y172168D01*
X562218Y172031D01*
X562199Y171995D01*
X562089Y171698D01*
X562052Y171446D01*
X562088Y171237D01*
X562195Y171072D01*
X561548Y171719D01*
X561502Y171694D01*
X561229Y171512D01*
X561004Y171317D01*
X559567Y172754D01*
X559785Y172999D01*
X559987Y173280D01*
X559322Y173945D01*
X559487Y173838D01*
X559696Y173802D01*
X559949Y173839D01*
X560245Y173949D01*
X560386Y174024D01*
X560546Y174411D01*
X560709Y174871D01*
X560999Y175920D01*
X561127Y176509D01*
X561244Y177141D01*
X562557Y175754D01*
D02*
G37*
G36*
X585656Y179541D02*
X586576Y178702D01*
X586950Y178400D01*
X587266Y178175D01*
X587524Y178028D01*
X587725Y177959D01*
X587869Y177968D01*
X587955Y178055D01*
X587984Y178219D01*
X590016Y174750D01*
X587984Y173313D01*
X587955Y173535D01*
X587869Y173794D01*
X587725Y174090D01*
X587524Y174423D01*
X587266Y174794D01*
X585656Y176647D01*
X585110Y177203D01*
Y180077D01*
X585656Y179541D01*
D02*
G37*
G36*
X943024Y172280D02*
X943099Y172276D01*
X944004Y172266D01*
X944208Y170234D01*
X943312Y170224D01*
X943024Y170203D01*
Y168355D01*
X942559Y168712D01*
X942044Y169031D01*
X941479Y169313D01*
X940863Y169557D01*
X940197Y169764D01*
X940081Y169792D01*
X939967Y169745D01*
X939749Y169596D01*
X939627Y169426D01*
X939602Y169237D01*
X939522Y169924D01*
X939481Y169933D01*
X938715Y170065D01*
X937898Y170159D01*
X936113Y170234D01*
Y172266D01*
X937030Y172285D01*
X938715Y172435D01*
X939221Y172522D01*
X939135Y173258D01*
X939205Y173069D01*
X939367Y172901D01*
X939622Y172752D01*
X939872Y172659D01*
X940197Y172736D01*
X940863Y172943D01*
X941479Y173187D01*
X942044Y173469D01*
X942559Y173788D01*
X943024Y174145D01*
Y172280D01*
D02*
G37*
G36*
X374027Y178110D02*
X374844Y177398D01*
X375499Y178053D01*
X375392Y177888D01*
X375356Y177680D01*
X375392Y177428D01*
X375499Y177134D01*
X375679Y176796D01*
X375799Y176614D01*
X375963Y176489D01*
X377147Y175725D01*
X377707Y175438D01*
X378246Y175214D01*
X378764Y175053D01*
X379260Y174956D01*
X374941Y171093D01*
X374895Y171749D01*
X374787Y172402D01*
X374617Y173053D01*
X374385Y173702D01*
X374091Y174349D01*
X373736Y174993D01*
X373651Y175123D01*
X373545Y175180D01*
X373251Y175287D01*
X372999Y175323D01*
X372791Y175287D01*
X372626Y175180D01*
X373217Y175771D01*
X372838Y176276D01*
X372296Y176914D01*
X371693Y177549D01*
X373339Y178777D01*
X374027Y178110D01*
D02*
G37*
G36*
X665646Y169080D02*
X665480Y169188D01*
X665272Y169223D01*
X665019Y169186D01*
X664723Y169076D01*
X664383Y168895D01*
X664000Y168641D01*
X663574Y168315D01*
X662590Y167446D01*
X662032Y166903D01*
X660595Y168340D01*
X661138Y168897D01*
X662334Y170308D01*
X662587Y170691D01*
X662769Y171031D01*
X662878Y171327D01*
X662915Y171579D01*
X662880Y171788D01*
X662772Y171954D01*
X665646Y169080D01*
D02*
G37*
G36*
X629606Y169348D02*
X628971Y168686D01*
X627886Y167389D01*
X627812Y167285D01*
X628396Y166701D01*
X628231Y166809D01*
X628022Y166844D01*
X627769Y166807D01*
X627473Y166698D01*
X627368Y166642D01*
X627050Y166128D01*
X626726Y165511D01*
X626463Y164903D01*
X626263Y164304D01*
X626124Y163714D01*
X626049Y163133D01*
X621954Y167227D01*
X622535Y167304D01*
X623125Y167442D01*
X623724Y167642D01*
X624332Y167904D01*
X624949Y168229D01*
X625462Y168547D01*
X625519Y168652D01*
X625628Y168948D01*
X625665Y169200D01*
X625630Y169409D01*
X625522Y169575D01*
X626106Y168991D01*
X626210Y169065D01*
X626854Y169576D01*
X628169Y170785D01*
X629606Y169348D01*
D02*
G37*
G36*
X876832Y173381D02*
X877347Y173061D01*
X877912Y172779D01*
X878528Y172535D01*
X879193Y172328D01*
X879910Y172159D01*
X879987Y172146D01*
X880259Y172217D01*
X880580Y172347D01*
X880806Y172497D01*
X880935Y172666D01*
X880969Y172856D01*
X881029Y171987D01*
X881493Y171933D01*
X883278Y171858D01*
Y169826D01*
X882360Y169808D01*
X881185Y169703D01*
X881244Y168834D01*
X881184Y169023D01*
X881031Y169192D01*
X880785Y169340D01*
X880446Y169469D01*
X880096Y169558D01*
X879910Y169526D01*
X879193Y169356D01*
X878528Y169150D01*
X877912Y168906D01*
X877347Y168624D01*
X876832Y168304D01*
X876367Y167947D01*
Y171239D01*
X876327Y171858D01*
X876367Y171859D01*
Y173738D01*
X876832Y173381D01*
D02*
G37*
G36*
X700991Y174331D02*
X701692Y173746D01*
X701878Y173932D01*
X701858Y173854D01*
X701900Y173724D01*
X702005Y173542D01*
X702109Y173398D01*
X702287Y173249D01*
X702922Y172800D01*
X703549Y172414D01*
X704168Y172089D01*
X704778Y171826D01*
X705379Y171624D01*
X705972Y171485D01*
X706557Y171407D01*
X702452Y167302D01*
X702375Y167887D01*
X702235Y168480D01*
X702034Y169081D01*
X701770Y169692D01*
X701445Y170310D01*
X701059Y170937D01*
X700818Y171277D01*
X700723Y171340D01*
X700385Y171520D01*
X700091Y171628D01*
X699839Y171663D01*
X699631Y171628D01*
X699466Y171520D01*
X700127Y172181D01*
X700100Y172216D01*
X698894Y173528D01*
X700331Y174965D01*
X700991Y174331D01*
D02*
G37*
G36*
X301468Y166103D02*
X300833Y165441D01*
X299956Y164391D01*
X300575Y163772D01*
X300410Y163880D01*
X300201Y163915D01*
X299948Y163878D01*
X299652Y163769D01*
X299381Y163624D01*
X299300Y163508D01*
X298913Y162882D01*
X298588Y162265D01*
X298325Y161657D01*
X298125Y161058D01*
X297987Y160468D01*
X297911Y159887D01*
X293816Y163982D01*
X294397Y164058D01*
X294987Y164196D01*
X295586Y164396D01*
X296194Y164659D01*
X296811Y164984D01*
X297437Y165371D01*
X297553Y165452D01*
X297698Y165723D01*
X297807Y166019D01*
X297844Y166271D01*
X297809Y166481D01*
X297701Y166646D01*
X298326Y166021D01*
X298717Y166331D01*
X300032Y167540D01*
X301468Y166103D01*
D02*
G37*
G36*
X551349Y161412D02*
X551086Y161147D01*
X551803Y160430D01*
X551638Y160537D01*
X551429Y160573D01*
X551176Y160536D01*
X550880Y160426D01*
X550541Y160245D01*
X550158Y159991D01*
X549731Y159665D01*
X549688Y159627D01*
X547670Y157354D01*
X547430Y156997D01*
X547261Y156696D01*
X547163Y156452D01*
X543901Y161289D01*
X544693Y161236D01*
X545461Y161247D01*
X546205Y161323D01*
X546923Y161462D01*
X547617Y161667D01*
X548286Y161935D01*
X548842Y162222D01*
X548926Y162380D01*
X549036Y162677D01*
X549073Y162929D01*
X549037Y163138D01*
X548930Y163303D01*
X549560Y162673D01*
X550144Y163125D01*
X550714Y163651D01*
X551349Y161412D01*
D02*
G37*
G36*
X692922Y166721D02*
X693872Y165926D01*
X694499Y166553D01*
X694391Y166388D01*
X694356Y166180D01*
X694391Y165928D01*
X694499Y165634D01*
X694666Y165320D01*
X694854Y165187D01*
X695480Y164800D01*
X696097Y164476D01*
X696705Y164213D01*
X697304Y164013D01*
X697894Y163874D01*
X698475Y163799D01*
X694380Y159704D01*
X694304Y160285D01*
X694166Y160875D01*
X693966Y161474D01*
X693703Y162082D01*
X693379Y162699D01*
X692992Y163325D01*
X692859Y163513D01*
X692545Y163680D01*
X692251Y163787D01*
X691999Y163823D01*
X691791Y163787D01*
X691626Y163680D01*
X692261Y164315D01*
X692032Y164604D01*
X690823Y165919D01*
X692260Y167356D01*
X692922Y166721D01*
D02*
G37*
G36*
X308463Y158955D02*
X307901Y158354D01*
X307402Y157738D01*
X307078Y157269D01*
X307646Y156701D01*
X307481Y156809D01*
X307271Y156844D01*
X307019Y156807D01*
X306730Y156700D01*
X306592Y156461D01*
X306281Y155800D01*
X306033Y155124D01*
X305848Y154432D01*
X305725Y153726D01*
X305666Y153004D01*
X305669Y152268D01*
X301069Y155818D01*
X301440Y155926D01*
X301849Y156101D01*
X302298Y156342D01*
X302786Y156649D01*
X303312Y157023D01*
X304124Y157682D01*
X304333Y157929D01*
X304587Y158312D01*
X304769Y158652D01*
X304878Y158948D01*
X304915Y159200D01*
X304880Y159409D01*
X304772Y159575D01*
X305470Y158877D01*
X305805Y159185D01*
X306526Y159892D01*
X308463Y158955D01*
D02*
G37*
G36*
X324358Y165707D02*
X324469Y165060D01*
X324642Y164413D01*
X324877Y163768D01*
X325174Y163124D01*
X325532Y162481D01*
X325610Y162363D01*
X325723Y162302D01*
X326019Y162193D01*
X326272Y162156D01*
X326480Y162191D01*
X326646Y162299D01*
X326053Y161706D01*
X326436Y161198D01*
X326981Y160559D01*
X327587Y159921D01*
X325961Y158673D01*
X325275Y159337D01*
X324424Y160077D01*
X323772Y159425D01*
X323880Y159591D01*
X323915Y159800D01*
X323878Y160052D01*
X323769Y160348D01*
X323587Y160688D01*
X323488Y160838D01*
X323340Y160950D01*
X322149Y161710D01*
X321584Y161995D01*
X321040Y162217D01*
X320515Y162376D01*
X320010Y162472D01*
X324309Y166356D01*
X324358Y165707D01*
D02*
G37*
G36*
X650116Y165215D02*
X650254Y164625D01*
X650454Y164026D01*
X650717Y163418D01*
X651041Y162801D01*
X651428Y162175D01*
X651877Y161540D01*
X652389Y160896D01*
X653597Y159581D01*
X652160Y158144D01*
X651498Y158779D01*
X650201Y159864D01*
X649566Y160313D01*
X648940Y160700D01*
X648323Y161024D01*
X647715Y161287D01*
X647116Y161487D01*
X646526Y161625D01*
X645945Y161702D01*
X650040Y165796D01*
X650116Y165215D01*
D02*
G37*
G36*
X635541Y156567D02*
X635385Y156405D01*
X635133Y156108D01*
X635037Y155973D01*
X634961Y155846D01*
X634905Y155728D01*
X634869Y155619D01*
X634853Y155518D01*
X634857Y155426D01*
X634880Y155343D01*
X632881Y157343D01*
X632964Y157319D01*
X633056Y157315D01*
X633156Y157332D01*
X633265Y157368D01*
X633383Y157424D01*
X633510Y157500D01*
X633646Y157596D01*
X633790Y157712D01*
X634104Y158004D01*
X635541Y156567D01*
D02*
G37*
G36*
X573546Y159201D02*
X572965Y159125D01*
X572375Y158987D01*
X571776Y158787D01*
X571168Y158524D01*
X570551Y158200D01*
X569925Y157813D01*
X569290Y157364D01*
X568646Y156853D01*
X567331Y155644D01*
X565894Y157081D01*
X566529Y157743D01*
X567614Y159040D01*
X568063Y159675D01*
X568450Y160301D01*
X568774Y160918D01*
X569037Y161526D01*
X569237Y162125D01*
X569375Y162715D01*
X569451Y163296D01*
X573546Y159201D01*
D02*
G37*
G36*
X948273Y148104D02*
X947809Y148462D01*
X947294Y148781D01*
X946729Y149063D01*
X946113Y149307D01*
X945447Y149514D01*
X944731Y149683D01*
X943964Y149815D01*
X943148Y149909D01*
X942612Y149931D01*
X941101Y149824D01*
X940584Y149734D01*
X940161Y149625D01*
X939832Y149495D01*
X939597Y149346D01*
X939456Y149176D01*
X939410Y148986D01*
Y153013D01*
X939456Y152824D01*
X939597Y152654D01*
X939832Y152505D01*
X940161Y152375D01*
X940584Y152265D01*
X941101Y152175D01*
X941712Y152106D01*
X942567Y152060D01*
X943964Y152185D01*
X944731Y152317D01*
X945447Y152486D01*
X946113Y152692D01*
X946729Y152937D01*
X947294Y153219D01*
X947809Y153538D01*
X948273Y153895D01*
Y148104D01*
D02*
G37*
G36*
X351991Y157818D02*
X352437Y157491D01*
X353070Y158124D01*
X352963Y157959D01*
X352927Y157751D01*
X352963Y157499D01*
X353070Y157205D01*
X353145Y157064D01*
X353157Y157057D01*
X353792Y156777D01*
X354461Y156564D01*
X355165Y156417D01*
X355904Y156338D01*
X356677Y156325D01*
X357484Y156379D01*
X358326Y156500D01*
X355446Y151377D01*
X355389Y151446D01*
X355234Y151612D01*
X353184Y153678D01*
X351835Y154820D01*
X351454Y155071D01*
X351116Y155251D01*
X350822Y155358D01*
X350570Y155394D01*
X350362Y155358D01*
X350197Y155251D01*
X350913Y155967D01*
X350448Y156436D01*
X351460Y158298D01*
X351991Y157818D01*
D02*
G37*
G36*
X320597Y150660D02*
X319930Y149972D01*
X319269Y149214D01*
X319928Y148555D01*
X319763Y148662D01*
X319554Y148698D01*
X319301Y148661D01*
X319005Y148551D01*
X318666Y148370D01*
X318459Y148233D01*
X318309Y148036D01*
X317545Y146852D01*
X317257Y146292D01*
X317034Y145753D01*
X316873Y145236D01*
X316776Y144739D01*
X312913Y149059D01*
X313569Y149105D01*
X314222Y149213D01*
X314874Y149383D01*
X315522Y149614D01*
X316169Y149908D01*
X316814Y150264D01*
X316980Y150372D01*
X317051Y150505D01*
X317161Y150801D01*
X317198Y151054D01*
X317162Y151263D01*
X317055Y151428D01*
X317654Y150830D01*
X318096Y151161D01*
X318734Y151703D01*
X319370Y152307D01*
X320597Y150660D01*
D02*
G37*
G36*
X646696Y148688D02*
X645442Y147405D01*
X646146Y146701D01*
X645981Y146809D01*
X645771Y146844D01*
X645519Y146807D01*
X645223Y146698D01*
X644883Y146516D01*
X644500Y146262D01*
X644073Y145936D01*
X643589Y145508D01*
X642580Y144476D01*
X642548Y144539D01*
X642532Y144524D01*
X641096Y145961D01*
X641577Y146456D01*
X639869Y149829D01*
X640692Y149683D01*
X642168Y149529D01*
X642822Y149521D01*
X643288Y149550D01*
X643272Y149575D01*
X643296Y149551D01*
X643419Y149559D01*
X643961Y149642D01*
X644447Y149771D01*
X644876Y149946D01*
X645250Y150167D01*
X645567Y150433D01*
X646696Y148688D01*
D02*
G37*
G36*
X875191Y153538D02*
X875706Y153219D01*
X876271Y152937D01*
X876887Y152693D01*
X877553Y152486D01*
X878269Y152317D01*
X879035Y152185D01*
X879226Y152163D01*
X879399Y152175D01*
X879916Y152265D01*
X880339Y152375D01*
X880668Y152505D01*
X880902Y152654D01*
X881043Y152824D01*
X881090Y153013D01*
Y152039D01*
X881637Y152016D01*
Y149984D01*
X881090Y149973D01*
Y148986D01*
X881043Y149176D01*
X880902Y149346D01*
X880668Y149495D01*
X880339Y149625D01*
X879916Y149734D01*
X879399Y149824D01*
X879286Y149837D01*
X879035Y149815D01*
X878269Y149683D01*
X877553Y149514D01*
X876887Y149307D01*
X876271Y149063D01*
X875706Y148781D01*
X875191Y148462D01*
X874726Y148105D01*
Y153895D01*
X875191Y153538D01*
D02*
G37*
G36*
X250296Y152451D02*
X249715Y152375D01*
X249125Y152237D01*
X248526Y152037D01*
X247918Y151774D01*
X247301Y151450D01*
X246675Y151063D01*
X246040Y150614D01*
X245396Y150103D01*
X244081Y148894D01*
X242644Y150331D01*
X243279Y150993D01*
X244364Y152290D01*
X244813Y152925D01*
X245200Y153551D01*
X245524Y154168D01*
X245787Y154776D01*
X245987Y155375D01*
X246126Y155965D01*
X246201Y156546D01*
X250296Y152451D01*
D02*
G37*
G36*
X344493Y150721D02*
X345132Y150186D01*
X345785Y150839D01*
X345677Y150674D01*
X345641Y150465D01*
X345677Y150214D01*
X345785Y149919D01*
X345964Y149582D01*
X346050Y149452D01*
X346425Y149187D01*
X347051Y148800D01*
X347668Y148476D01*
X348276Y148213D01*
X348875Y148013D01*
X349465Y147874D01*
X350046Y147799D01*
X345952Y143704D01*
X345876Y144285D01*
X345737Y144875D01*
X345537Y145474D01*
X345274Y146082D01*
X344950Y146699D01*
X344563Y147325D01*
X344298Y147700D01*
X344168Y147786D01*
X343831Y147965D01*
X343536Y148073D01*
X343285Y148109D01*
X343076Y148073D01*
X342911Y147965D01*
X343577Y148632D01*
X342394Y149919D01*
X343831Y151356D01*
X344493Y150721D01*
D02*
G37*
G36*
X333594Y144897D02*
X333520Y144082D01*
X333514Y143304D01*
X333576Y142563D01*
X333706Y141858D01*
X333903Y141191D01*
X334157Y140588D01*
X334223Y140552D01*
X334519Y140443D01*
X334771Y140406D01*
X334981Y140441D01*
X335146Y140549D01*
X334527Y139930D01*
X334902Y139409D01*
X335370Y138888D01*
X333452Y137933D01*
X332997Y138400D01*
X332272Y137675D01*
X332380Y137841D01*
X332415Y138050D01*
X332378Y138302D01*
X332269Y138598D01*
X332087Y138938D01*
X331833Y139321D01*
X331507Y139747D01*
X330638Y140731D01*
X330095Y141289D01*
X330140Y141333D01*
X328532Y142984D01*
X333735Y145748D01*
X333594Y144897D01*
D02*
G37*
G36*
X654725Y137122D02*
X654633Y137170D01*
X654505Y137167D01*
X654340Y137112D01*
X654138Y137007D01*
X653900Y136849D01*
X653625Y136641D01*
X652966Y136070D01*
X652160Y135295D01*
X650723Y136731D01*
X651137Y137152D01*
X652278Y138471D01*
X652436Y138709D01*
X652541Y138911D01*
X652596Y139076D01*
X652599Y139204D01*
X652551Y139296D01*
X654725Y137122D01*
D02*
G37*
G36*
X670784Y143588D02*
X671499Y144303D01*
X671392Y144138D01*
X671356Y143930D01*
X671392Y143678D01*
X671499Y143384D01*
X671679Y143046D01*
X671930Y142665D01*
X672168Y142353D01*
X674362Y140397D01*
X674630Y140233D01*
X674838Y140142D01*
X669938Y136961D01*
X670005Y137766D01*
X670007Y138545D01*
X669945Y139296D01*
X669818Y140020D01*
X669627Y140717D01*
X669370Y141387D01*
X669305Y141518D01*
X669251Y141537D01*
X668999Y141573D01*
X668791Y141537D01*
X668626Y141430D01*
X669108Y141912D01*
X669049Y142030D01*
X668663Y142645D01*
X668212Y143234D01*
X667697Y143795D01*
X670031Y144335D01*
X670784Y143588D01*
D02*
G37*
G36*
X660647Y131809D02*
X662396D01*
X662416Y131146D01*
X662441Y130871D01*
X663391Y130374D01*
X663202Y130417D01*
X663033Y130339D01*
X662884Y130140D01*
X662754Y129819D01*
X662666Y129462D01*
X662712Y129259D01*
X662890Y128665D01*
X663107Y128088D01*
X663363Y127528D01*
X663659Y126986D01*
X663995Y126461D01*
X664369Y125953D01*
X662402D01*
X662396Y125344D01*
X661787Y125953D01*
X658391D01*
X658766Y126461D01*
X659101Y126986D01*
X659398Y127528D01*
X659654Y128088D01*
X659871Y128665D01*
X660049Y129259D01*
X660187Y129871D01*
X660225Y130112D01*
X660205Y130391D01*
X660116Y130942D01*
X660006Y131411D01*
X659877Y131800D01*
X659728Y132107D01*
X659559Y132333D01*
X659370Y132477D01*
X660647Y131809D01*
D02*
G37*
G36*
X326077Y136973D02*
X326157Y136277D01*
X326300Y135591D01*
X326505Y134915D01*
X326772Y134249D01*
X327101Y133594D01*
X327175Y133473D01*
X327448Y133372D01*
X327701Y133335D01*
X327910Y133370D01*
X328075Y133478D01*
X327515Y132918D01*
X327947Y132313D01*
X328464Y131688D01*
X329043Y131073D01*
X327227Y130015D01*
X326519Y130706D01*
X325869Y131272D01*
X325201Y130604D01*
X325309Y130770D01*
X325344Y130978D01*
X325307Y131231D01*
X325198Y131527D01*
X325016Y131867D01*
X324785Y132216D01*
X324586Y132389D01*
X324005Y132820D01*
X322937Y133487D01*
X322450Y133723D01*
X321995Y133895D01*
X321571Y134001D01*
X326059Y137679D01*
X326077Y136973D01*
D02*
G37*
G36*
X624646Y114997D02*
X624515Y114920D01*
X624297Y114750D01*
X623602Y114135D01*
X622962Y113510D01*
X622166Y112571D01*
X621913Y112188D01*
X621731Y111848D01*
X621622Y111552D01*
X621585Y111299D01*
X621620Y111091D01*
X621728Y110925D01*
X621029Y111624D01*
X619437Y110071D01*
X617633Y111141D01*
X618128Y111685D01*
X618557Y112260D01*
X618920Y112867D01*
X619195Y113458D01*
X618854Y113799D01*
X619020Y113691D01*
X619229Y113656D01*
X619271Y113662D01*
X619448Y114176D01*
X619613Y114878D01*
X619712Y115612D01*
X619745Y116377D01*
X619712Y117174D01*
X619614Y118003D01*
X624646Y114997D01*
D02*
G37*
G36*
X631452Y106689D02*
X631413Y106760D01*
X631353Y106823D01*
X631273Y106879D01*
X631174Y106927D01*
X631053Y106968D01*
X630913Y107002D01*
X630752Y107028D01*
X630571Y107046D01*
X630563Y107047D01*
X630344Y106823D01*
X629190Y105469D01*
X628943Y105103D01*
X628765Y104779D01*
X628657Y104498D01*
X628617Y104259D01*
X628646Y104062D01*
X628745Y103908D01*
X625979Y106673D01*
X626133Y106575D01*
X626330Y106546D01*
X626569Y106586D01*
X626850Y106694D01*
X627174Y106872D01*
X627541Y107119D01*
X627949Y107435D01*
X628894Y108273D01*
X629430Y108796D01*
X630149Y108077D01*
Y109094D01*
X630370Y109097D01*
X630752Y109127D01*
X630913Y109153D01*
X631053Y109187D01*
X631174Y109228D01*
X631273Y109276D01*
X631353Y109332D01*
X631413Y109395D01*
X631452Y109466D01*
Y106689D01*
D02*
G37*
G36*
X654575Y106081D02*
X654219Y105973D01*
X653821Y105798D01*
X653383Y105556D01*
X652905Y105247D01*
X652385Y104871D01*
X651615Y104240D01*
X651384Y103967D01*
X651130Y103584D01*
X650949Y103245D01*
X650839Y102949D01*
X650802Y102696D01*
X650838Y102487D01*
X650945Y102322D01*
X650247Y103020D01*
X649898Y102698D01*
X649174Y101987D01*
X647203Y102890D01*
X647760Y103487D01*
X648255Y104100D01*
X648626Y104641D01*
X648072Y105195D01*
X648237Y105088D01*
X648446Y105052D01*
X648699Y105089D01*
X648943Y105180D01*
X649055Y105376D01*
X649361Y106039D01*
X649604Y106718D01*
X649783Y107413D01*
X649900Y108124D01*
X649954Y108852D01*
X649946Y109596D01*
X654575Y106081D01*
D02*
G37*
G36*
X670149Y105918D02*
X669959Y105831D01*
X669705Y105670D01*
X669389Y105435D01*
X668567Y104744D01*
X668058Y104263D01*
X667384Y103467D01*
X667130Y103084D01*
X666949Y102745D01*
X666839Y102449D01*
X666802Y102196D01*
X666838Y101987D01*
X666945Y101822D01*
X666231Y102536D01*
X666170Y102478D01*
X665414Y101727D01*
X663067Y102254D01*
X663572Y102806D01*
X664013Y103386D01*
X664389Y103995D01*
X664515Y104252D01*
X664072Y104695D01*
X664237Y104588D01*
X664446Y104552D01*
X664678Y104586D01*
X664701Y104633D01*
X664948Y105299D01*
X665132Y105995D01*
X665251Y106719D01*
X665305Y107472D01*
X665295Y108253D01*
X665221Y109064D01*
X670149Y105918D01*
D02*
G37*
G36*
X80538Y99559D02*
X80219Y99044D01*
X79937Y98479D01*
X79693Y97863D01*
X79486Y97197D01*
X79317Y96481D01*
X79185Y95715D01*
X79143Y95345D01*
X79179Y94910D01*
X79270Y94460D01*
X79382Y94092D01*
X79514Y93805D01*
X79666Y93600D01*
X79839Y93477D01*
X80032Y93436D01*
X79030D01*
X79016Y93113D01*
X76984D01*
X76977Y93436D01*
X75968D01*
X76161Y93477D01*
X76334Y93600D01*
X76486Y93805D01*
X76618Y94092D01*
X76730Y94460D01*
X76821Y94910D01*
X76861Y95203D01*
X76815Y95715D01*
X76683Y96481D01*
X76514Y97197D01*
X76308Y97863D01*
X76063Y98479D01*
X75781Y99044D01*
X75462Y99559D01*
X75105Y100023D01*
X80895D01*
X80538Y99559D01*
D02*
G37*
G36*
X642422Y94721D02*
X643644Y93698D01*
X644249Y94303D01*
X644141Y94138D01*
X644106Y93930D01*
X644141Y93678D01*
X644249Y93384D01*
X644354Y93187D01*
X644354Y93187D01*
X644980Y92800D01*
X645597Y92476D01*
X646205Y92213D01*
X646804Y92013D01*
X647394Y91875D01*
X647661Y91840D01*
X647930Y91877D01*
X648529Y92016D01*
X649131Y92213D01*
X649735Y92466D01*
X650343Y92776D01*
X650954Y93144D01*
X651567Y93568D01*
X652067Y93959D01*
X652872Y94818D01*
X652957Y94735D01*
X653425Y95183D01*
X654862Y93746D01*
X654427Y93292D01*
X655143Y92590D01*
X654976Y92697D01*
X654766Y92731D01*
X654513Y92693D01*
X654217Y92584D01*
X653877Y92402D01*
X653494Y92148D01*
X653407Y92081D01*
X653247Y91888D01*
X652823Y91275D01*
X652455Y90664D01*
X652145Y90056D01*
X651892Y89452D01*
X651695Y88850D01*
X651556Y88251D01*
X651473Y87656D01*
X647653Y91476D01*
X643880Y87704D01*
X643804Y88285D01*
X643666Y88875D01*
X643466Y89474D01*
X643203Y90082D01*
X642879Y90699D01*
X642492Y91325D01*
X642492Y91325D01*
X642295Y91430D01*
X642001Y91537D01*
X641749Y91573D01*
X641541Y91537D01*
X641376Y91430D01*
X641982Y92036D01*
X641532Y92604D01*
X640323Y93919D01*
X641760Y95356D01*
X642422Y94721D01*
D02*
G37*
G36*
X132038Y98559D02*
X131719Y98044D01*
X131437Y97479D01*
X131193Y96863D01*
X130986Y96197D01*
X130817Y95481D01*
X130685Y94714D01*
X130655Y94450D01*
X130679Y94160D01*
X130770Y93710D01*
X130882Y93342D01*
X131014Y93055D01*
X131166Y92850D01*
X131339Y92727D01*
X131532Y92687D01*
X130540D01*
X130516Y92113D01*
X128484D01*
X128472Y92687D01*
X127468D01*
X127661Y92727D01*
X127834Y92850D01*
X127986Y93055D01*
X128118Y93342D01*
X128230Y93710D01*
X128322Y94160D01*
X128347Y94353D01*
X128315Y94714D01*
X128183Y95481D01*
X128014Y96197D01*
X127808Y96863D01*
X127563Y97479D01*
X127281Y98044D01*
X126962Y98559D01*
X126605Y99024D01*
X132395D01*
X132038Y98559D01*
D02*
G37*
G36*
X90361Y90715D02*
X90367Y90470D01*
X90455Y90171D01*
X90623Y89820D01*
X90873Y89416D01*
X91204Y88958D01*
X91616Y88447D01*
X92685Y87266D01*
X93341Y86596D01*
X92404Y84659D01*
X91689Y85360D01*
X89923Y86915D01*
X89536Y87196D01*
X89514Y87167D01*
X89382Y86883D01*
X89270Y86517D01*
X89245Y86395D01*
X89471Y85003D01*
X89825Y83499D01*
X90281Y82050D01*
X90837Y80654D01*
X91495Y79313D01*
X92253Y78026D01*
X93113Y76792D01*
X94074Y75613D01*
X82296Y75461D01*
X83187Y76617D01*
X83983Y77834D01*
X84687Y79112D01*
X85296Y80451D01*
X85812Y81852D01*
X86234Y83313D01*
X86562Y84836D01*
X86777Y86288D01*
X86730Y86517D01*
X86618Y86883D01*
X86486Y87167D01*
X86334Y87370D01*
X86161Y87492D01*
X85968Y87533D01*
X86892D01*
X86937Y88065D01*
X86984Y89771D01*
X89016Y89837D01*
X89044Y88920D01*
X90436Y90907D01*
X90361Y90715D01*
D02*
G37*
G36*
X141978Y91589D02*
X142100Y91416D01*
X142305Y91264D01*
X142592Y91132D01*
X142960Y91020D01*
X143411Y90929D01*
X143943Y90857D01*
X145253Y90776D01*
X146031Y90766D01*
Y88734D01*
X145253Y88724D01*
X143411Y88572D01*
X142960Y88480D01*
X142592Y88368D01*
X142305Y88236D01*
X142100Y88084D01*
X141978Y87911D01*
X141937Y87718D01*
Y91782D01*
X141978Y91589D01*
D02*
G37*
G36*
X141339Y86742D02*
X141166Y86621D01*
X141014Y86417D01*
X140882Y86133D01*
X140770Y85767D01*
X140679Y85320D01*
X140607Y84792D01*
X140526Y83491D01*
X140516Y82719D01*
X138484D01*
X138474Y83491D01*
X138321Y85320D01*
X138230Y85767D01*
X138118Y86133D01*
X137986Y86417D01*
X137834Y86621D01*
X137661Y86742D01*
X137468Y86783D01*
X141532D01*
X141339Y86742D01*
D02*
G37*
G36*
X140526Y81503D02*
X140679Y79661D01*
X140770Y79210D01*
X140882Y78842D01*
X141014Y78555D01*
X141166Y78350D01*
X141339Y78228D01*
X141532Y78186D01*
X137468D01*
X137661Y78228D01*
X137834Y78350D01*
X137986Y78555D01*
X138118Y78842D01*
X138230Y79210D01*
X138321Y79661D01*
X138393Y80193D01*
X138474Y81503D01*
X138484Y82281D01*
X140516D01*
X140526Y81503D01*
D02*
G37*
G36*
X114715Y88122D02*
X114861Y86494D01*
X115105Y84923D01*
X115446Y83410D01*
X115884Y81954D01*
X116420Y80556D01*
X117054Y79215D01*
X117785Y77932D01*
X118614Y76706D01*
X119539Y75538D01*
X107760D01*
X108686Y76706D01*
X109515Y77932D01*
X110246Y79215D01*
X110879Y80556D01*
X111416Y81954D01*
X111854Y83410D01*
X112195Y84923D01*
X112439Y86494D01*
X112585Y88122D01*
X112634Y89808D01*
X114666D01*
X114715Y88122D01*
D02*
G37*
G36*
X45359Y69726D02*
X45641Y68248D01*
X46008Y66826D01*
X46460Y65459D01*
X46998Y64148D01*
X47621Y62891D01*
X48330Y61690D01*
X49124Y60544D01*
X50003Y59454D01*
X50968Y58418D01*
X49532Y56982D01*
X48496Y57947D01*
X47406Y58826D01*
X46260Y59620D01*
X45059Y60329D01*
X43802Y60952D01*
X42491Y61490D01*
X41124Y61942D01*
X39702Y62309D01*
X38224Y62591D01*
X36691Y62787D01*
X45163Y71259D01*
X45359Y69726D01*
D02*
G37*
G36*
X76468Y57282D02*
X75481Y56224D01*
X74582Y55114D01*
X73771Y53953D01*
X73049Y52739D01*
X72414Y51472D01*
X71868Y50154D01*
X71410Y48783D01*
X71040Y47360D01*
X70758Y45885D01*
X70564Y44358D01*
X62108Y52814D01*
X63635Y53008D01*
X65110Y53290D01*
X66533Y53660D01*
X67904Y54118D01*
X69222Y54664D01*
X70489Y55299D01*
X71703Y56021D01*
X72864Y56832D01*
X73974Y57731D01*
X75032Y58718D01*
X76468Y57282D01*
D02*
G37*
G36*
X903150Y37303D02*
X904367Y36285D01*
X905610Y35373D01*
X906878Y34568D01*
X908173Y33870D01*
X909493Y33278D01*
X910839Y32793D01*
X912211Y32415D01*
X913609Y32143D01*
X915033Y31977D01*
X906973Y23917D01*
X906807Y25341D01*
X906535Y26739D01*
X906157Y28111D01*
X905672Y29457D01*
X905080Y30777D01*
X904382Y32072D01*
X903577Y33340D01*
X902665Y34583D01*
X901647Y35800D01*
X900522Y36991D01*
X901959Y38428D01*
X903150Y37303D01*
D02*
G37*
G36*
X877750D02*
X878967Y36285D01*
X880210Y35373D01*
X881478Y34568D01*
X882773Y33870D01*
X884093Y33278D01*
X885439Y32793D01*
X886811Y32415D01*
X888209Y32143D01*
X889633Y31977D01*
X881573Y23917D01*
X881407Y25341D01*
X881135Y26739D01*
X880757Y28111D01*
X880272Y29457D01*
X879680Y30777D01*
X878982Y32072D01*
X878177Y33340D01*
X877265Y34583D01*
X876247Y35800D01*
X875122Y36991D01*
X876559Y38428D01*
X877750Y37303D01*
D02*
G37*
G36*
X852350D02*
X853567Y36285D01*
X854810Y35373D01*
X856078Y34568D01*
X857373Y33870D01*
X858693Y33278D01*
X860039Y32793D01*
X861411Y32415D01*
X862809Y32143D01*
X864233Y31977D01*
X856173Y23917D01*
X856007Y25341D01*
X855735Y26739D01*
X855357Y28111D01*
X854872Y29457D01*
X854280Y30777D01*
X853582Y32072D01*
X852777Y33340D01*
X851865Y34583D01*
X850847Y35800D01*
X849722Y36991D01*
X851159Y38428D01*
X852350Y37303D01*
D02*
G37*
G36*
X826950D02*
X828167Y36285D01*
X829410Y35373D01*
X830678Y34568D01*
X831973Y33870D01*
X833293Y33278D01*
X834639Y32793D01*
X836011Y32415D01*
X837409Y32143D01*
X838833Y31977D01*
X830773Y23917D01*
X830607Y25341D01*
X830335Y26739D01*
X829957Y28111D01*
X829472Y29457D01*
X828880Y30777D01*
X828182Y32072D01*
X827377Y33340D01*
X826465Y34583D01*
X825447Y35800D01*
X824322Y36991D01*
X825759Y38428D01*
X826950Y37303D01*
D02*
G37*
%LPC*%
G36*
X857027Y528590D02*
X850804D01*
Y506270D01*
X859617D01*
Y526000D01*
X859420Y526991D01*
X858858Y527831D01*
X858018Y528393D01*
X857027Y528590D01*
D02*
G37*
G36*
X882980Y497340D02*
X882850D01*
X881859Y497143D01*
X881019Y496581D01*
X880457Y495741D01*
X880260Y494750D01*
Y491770D01*
X882980D01*
Y497340D01*
D02*
G37*
G36*
X910750Y487242D02*
X907770D01*
Y484522D01*
X913340D01*
Y484652D01*
X913143Y485643D01*
X912581Y486483D01*
X911741Y487044D01*
X910750Y487242D01*
D02*
G37*
G36*
X812196Y528590D02*
X805973D01*
X804982Y528393D01*
X804142Y527831D01*
X803580Y526991D01*
X803383Y526000D01*
Y506270D01*
X812196D01*
Y528590D01*
D02*
G37*
G36*
Y503730D02*
X803383D01*
Y484000D01*
X803580Y483009D01*
X804142Y482169D01*
X804982Y481607D01*
X805973Y481410D01*
X812196D01*
Y503730D01*
D02*
G37*
G36*
X812196Y471840D02*
X809216D01*
X808225Y471643D01*
X807385Y471081D01*
X806823Y470241D01*
X806626Y469250D01*
Y463520D01*
X812196D01*
Y471840D01*
D02*
G37*
G36*
Y460980D02*
X806626D01*
Y455250D01*
X806823Y454259D01*
X807385Y453419D01*
X808225Y452857D01*
X809216Y452660D01*
X812196D01*
Y460980D01*
D02*
G37*
%LPD*%
D13*
X393500Y483250D02*
Y496750D01*
X379250Y469000D02*
X393500Y483250D01*
X413500Y490000D02*
Y496750D01*
X392250Y468750D02*
X413500Y490000D01*
D67*
X498000Y390000D02*
D03*
Y400000D02*
D03*
D68*
X88000Y90500D02*
D03*
X78000D02*
D03*
X129500Y89750D02*
D03*
X139500D02*
D03*
X178250Y480000D02*
D03*
X188250D02*
D03*
D73*
X505215Y258465D02*
D03*
X512285Y265536D02*
D03*
X193286Y301285D02*
D03*
X186215Y294214D02*
D03*
X178214Y302465D02*
D03*
X185285Y309536D02*
D03*
X227215Y260965D02*
D03*
X234286Y268036D02*
D03*
X285786Y321035D02*
D03*
X278715Y313965D02*
D03*
X335785Y137036D02*
D03*
X328714Y129965D02*
D03*
X379035Y185786D02*
D03*
X371964Y178715D02*
D03*
X349535Y158785D02*
D03*
X342464Y151714D02*
D03*
X327285Y158785D02*
D03*
X320215Y151714D02*
D03*
X242964Y277215D02*
D03*
X250035Y284286D02*
D03*
X442464Y248715D02*
D03*
X449535Y255786D02*
D03*
X192715Y243465D02*
D03*
X199785Y250536D02*
D03*
X551964Y163715D02*
D03*
X559035Y170786D02*
D03*
X554035Y257036D02*
D03*
X546964Y249965D02*
D03*
X568786Y271786D02*
D03*
X561715Y264715D02*
D03*
X675035Y152036D02*
D03*
X667964Y144965D02*
D03*
X690965Y167215D02*
D03*
X698036Y174286D02*
D03*
X711786Y190035D02*
D03*
X704715Y182964D02*
D03*
X817535Y243785D02*
D03*
X810464Y236714D02*
D03*
X749715Y226215D02*
D03*
X756786Y233286D02*
D03*
X767964Y244715D02*
D03*
X775035Y251786D02*
D03*
X655965Y377965D02*
D03*
X663036Y385036D02*
D03*
X626214Y328965D02*
D03*
X633285Y336035D02*
D03*
X643214Y343465D02*
D03*
X650285Y350536D02*
D03*
X607785Y311786D02*
D03*
X600714Y304715D02*
D03*
X656714Y94465D02*
D03*
X663785Y101536D02*
D03*
X640714Y94965D02*
D03*
X647785Y102036D02*
D03*
D77*
X830966Y462250D02*
D03*
X813466D02*
D03*
X871750Y433250D02*
D03*
X889250D02*
D03*
D78*
X765291Y271209D02*
X807291D01*
X877000Y454500D02*
X883750Y447750D01*
X811750Y476750D02*
X841000D01*
X847250Y470500D01*
X867250D01*
X869999Y473249D01*
X877000D01*
Y454500D02*
Y468248D01*
X889250Y433250D02*
X889250Y433250D01*
X864501Y478251D02*
X869502Y483252D01*
X877000D01*
X864501Y478251D02*
X877000D01*
X906500Y468248D02*
X921248D01*
X918302Y475360D02*
X928396D01*
X929750Y476714D01*
X916191Y473249D02*
X918302Y475360D01*
X906500Y473249D02*
X916191D01*
X867500Y318750D02*
X885000Y301250D01*
X792000Y318750D02*
X867500D01*
X680750Y430000D02*
X792000Y318750D01*
X536500Y430000D02*
X680750D01*
X649558Y174250D02*
X658154Y182846D01*
X639821Y143250D02*
X646285Y149714D01*
X546000Y157500D02*
X552090Y163589D01*
X513046Y251725D02*
X513750Y252429D01*
X512500Y251179D02*
X513046Y251725D01*
X512138Y251541D02*
Y251725D01*
Y249959D02*
Y251541D01*
X512500Y251179D01*
X505215Y258465D02*
X512138Y251541D01*
X449495Y241684D02*
X450750Y240429D01*
X442464Y248715D02*
X449495Y241684D01*
X705037Y182964D02*
X712501Y175500D01*
X704715Y182964D02*
X705037D01*
X699574Y174286D02*
X706250Y167609D01*
X698036Y174286D02*
X699574D01*
X645129Y400854D02*
X651311Y407035D01*
X654715D01*
X242964Y277215D02*
Y277243D01*
X235860Y284348D02*
X242964Y277243D01*
X227609Y274712D02*
X234286Y268036D01*
X227609Y274712D02*
Y275847D01*
X228609Y223666D02*
X234785Y229842D01*
X704712Y167609D02*
X706250D01*
X636874Y285250D02*
X637750D01*
X626687Y295437D02*
X636874Y285250D01*
X712179Y175500D02*
X712501D01*
X622250Y163429D02*
X629035Y170215D01*
X631379Y153841D02*
X634823Y157285D01*
X639715D01*
X235860Y284319D02*
Y284348D01*
X234286Y268036D02*
Y269171D01*
X234785Y229842D02*
Y233715D01*
X235500Y337500D02*
Y337750D01*
X190500Y382750D02*
X235500Y337750D01*
X562250Y276254D02*
Y279250D01*
Y276254D02*
X566718Y271786D01*
X553362Y271000D02*
X559647Y264715D01*
X863650Y24500D02*
Y28850D01*
X838250Y24500D02*
X838750Y25000D01*
X22000Y420400D02*
X49650Y392750D01*
X202750D01*
X22000Y395000D02*
X34250Y382750D01*
X190500D01*
X22000Y369600D02*
X176650D01*
X84000Y497750D02*
X178000Y403750D01*
X264500D01*
X202750Y392750D02*
X238250Y357250D01*
X910892Y200594D02*
X929344D01*
X929594Y200844D01*
X916250Y190500D02*
X928250D01*
X193286Y301535D02*
Y309715D01*
Y301285D02*
Y301535D01*
X185285Y309536D02*
X193286Y301535D01*
X178214Y302215D02*
Y302465D01*
X186215Y294214D02*
X187179Y293250D01*
X199250D01*
X78000Y90500D02*
Y102500D01*
X129500Y89750D02*
Y101500D01*
X510250Y390000D02*
X510500Y389750D01*
X498000Y390000D02*
X510250D01*
X485000Y393750D02*
X491000Y399750D01*
X462371Y306099D02*
Y311129D01*
X443599Y302099D02*
X448750Y307250D01*
X407868Y302099D02*
X443599D01*
X334821Y374500D02*
X335750D01*
X507250Y204000D02*
X606500D01*
X610750Y199750D01*
X589000Y174750D02*
Y196428D01*
X483750Y59000D02*
X589000Y164250D01*
Y174750D01*
X574750Y189000D02*
X589000Y174750D01*
X501250Y189000D02*
X574750D01*
X37450Y70500D02*
X50250Y57700D01*
Y38250D02*
Y57700D01*
Y38250D02*
X57750Y30750D01*
X473250D01*
X598377Y155877D01*
Y190593D01*
X88000Y90500D02*
X100250Y78250D01*
Y65500D02*
Y78250D01*
Y65500D02*
X106750Y59000D01*
X483750D01*
X88000Y70750D02*
X88250Y70500D01*
X88000Y70750D02*
Y90500D01*
X500000Y89750D02*
X573250Y163000D01*
X564750Y176500D02*
X565000D01*
X139050Y70500D02*
X139500Y70950D01*
Y89750D01*
X62850Y45100D02*
X75750Y58000D01*
Y75750D01*
X68500Y83000D02*
X75750Y75750D01*
X610192Y327000D02*
X611750D01*
X316750Y370571D02*
X321214Y375036D01*
X316750Y364250D02*
Y370571D01*
X447250Y349000D02*
Y350811D01*
X576750Y344250D02*
X578500Y342500D01*
X512808Y344250D02*
X576750D01*
X511196Y342638D02*
X512808Y344250D01*
X482638Y342638D02*
X511196D01*
X481750Y341750D02*
X482638Y342638D01*
X564000Y336000D02*
X566250Y333750D01*
X517750Y336000D02*
X564000D01*
X439918Y266597D02*
X442620D01*
X434035Y260714D02*
X439918Y266597D01*
X384571Y180250D02*
X387250D01*
X379035Y185786D02*
X384571Y180250D01*
X320500Y165571D02*
Y166250D01*
Y165571D02*
X327285Y158785D01*
X294112Y160183D02*
X301215Y167285D01*
X328285Y367965D02*
X334821Y374500D01*
X372285Y321465D02*
X373301D01*
X380719Y328882D01*
X365215Y328535D02*
X365285D01*
X372500Y335750D01*
X415785Y277964D02*
X422821Y285000D01*
X423500D01*
X426964Y268193D02*
X434119Y275347D01*
X426964Y267785D02*
Y268193D01*
X456571Y248750D02*
X456744D01*
X449535Y255786D02*
X456571Y248750D01*
X371964Y178715D02*
X378750Y171929D01*
Y171180D02*
Y171929D01*
X349535Y158785D02*
X355571Y152750D01*
X359000D01*
X342464Y151285D02*
Y151714D01*
Y151285D02*
X349750Y144000D01*
X330000Y142821D02*
Y146500D01*
Y142821D02*
X335785Y137036D01*
X322250Y136429D02*
X328714Y129965D01*
X322250Y136429D02*
Y137750D01*
X313750Y145250D02*
X320215Y151714D01*
X313000Y145250D02*
X313750D01*
X301863Y153792D02*
X308286Y160215D01*
X301863Y152091D02*
Y153792D01*
X270250Y318750D02*
X273929D01*
X278715Y313965D01*
X220250Y234250D02*
X226786Y240786D01*
X227715D01*
X255000Y224558D02*
X264096Y233654D01*
X255000Y224000D02*
Y224558D01*
X276058Y263500D02*
X276250D01*
X266654Y254096D02*
X276058Y263500D01*
X275846Y244904D02*
X285500Y254558D01*
X275500Y288500D02*
X285343Y298343D01*
X261750Y274750D02*
X262750D01*
X253657Y266657D02*
X261750Y274750D01*
X253657Y265407D02*
Y266657D01*
X285786Y320528D02*
X296657Y309657D01*
X285786Y320528D02*
Y321035D01*
X278821Y328000D02*
X285786Y321035D01*
X278499Y328000D02*
X278821D01*
X244000Y290321D02*
X250035Y284286D01*
X244000Y290321D02*
Y292500D01*
X264967Y254096D02*
X266654D01*
X254904Y242846D02*
X255404D01*
X235472Y260965D02*
X242343Y254093D01*
X227215Y260965D02*
X235472D01*
X220000Y268179D02*
X227215Y260965D01*
X220000Y268179D02*
Y268250D01*
X186000Y250179D02*
X192715Y243465D01*
X199785Y250536D02*
Y250708D01*
X207077Y258000D01*
X867250Y304705D02*
Y308000D01*
X917250Y181000D02*
X930564D01*
X913000Y176750D02*
X917250Y181000D01*
X872250Y151000D02*
X889250D01*
X889250Y151000D01*
X873891Y170842D02*
X889092D01*
X889250Y171000D01*
X886750Y182000D02*
X888000Y180750D01*
X871552Y181668D02*
X886418D01*
X886750Y182000D01*
X864890Y190093D02*
X887343D01*
X889250Y201000D02*
X889250Y201000D01*
X930000Y192250D02*
X931250Y191000D01*
X888750Y191500D02*
X889250Y191000D01*
X930750Y230500D02*
X931250Y231000D01*
X915301Y231168D02*
X930082D01*
X910142Y241096D02*
X926346D01*
X928750Y243500D02*
X931250Y241000D01*
X929250Y252500D02*
X930904Y250846D01*
X904392D02*
X930904D01*
X880391Y220595D02*
X888345D01*
X872750Y263665D02*
Y263750D01*
X884391Y229937D02*
Y229937D01*
X872232Y242096D02*
X884391Y229937D01*
X870390Y242096D02*
X872232D01*
X884391Y229937D02*
X886955Y232500D01*
X870390Y252846D02*
Y252949D01*
X882244Y241096D02*
X887346D01*
X872750Y263665D02*
X886833Y249583D01*
X904346Y281317D02*
X930372D01*
X930652Y281598D02*
X931250Y281000D01*
X917643Y270847D02*
X931097D01*
X931250Y271000D01*
X931250Y271000D01*
X880000Y281000D02*
X889250D01*
X880330Y271000D02*
X889250D01*
X867232Y284098D02*
X880330Y271000D01*
X865890Y284098D02*
X867232D01*
X866000Y295000D02*
X880000Y281000D01*
X867250Y304705D02*
X880955Y291000D01*
X889250D01*
X885000Y301250D02*
X889000D01*
X931250Y151000D02*
X950750D01*
X930650Y331600D02*
X931250Y331000D01*
X904392Y331600D02*
X930650D01*
X930750Y291500D02*
X931250Y291000D01*
X930500Y300250D02*
X931250Y301000D01*
X929500Y252750D02*
X931250Y251000D01*
X888750Y181500D02*
X889250Y181000D01*
X888250Y242000D02*
X889250Y241000D01*
X509964Y218535D02*
Y219214D01*
X516500Y225750D01*
X517035Y211465D02*
X517493D01*
X524374Y218345D01*
X519250Y242929D02*
Y243750D01*
X512536Y236215D02*
X519250Y242929D01*
X518871Y258950D02*
X520000D01*
X512285Y265536D02*
X518871Y258950D01*
X542536Y249965D02*
X546964D01*
X537750Y254750D02*
X542536Y249965D01*
X552215Y257036D02*
X554035D01*
X546250Y263000D02*
X552215Y257036D01*
X559647Y264715D02*
X561715D01*
X566718Y271786D02*
X568786D01*
X544750Y239000D02*
X544957Y239207D01*
X551886D01*
X555714Y243036D01*
X553375Y232095D02*
X558916D01*
X562785Y235965D01*
X571214Y228140D02*
Y228785D01*
X564500Y221425D02*
X571214Y228140D01*
X583500Y239558D02*
X591846Y247904D01*
X616000Y306124D02*
X626687Y295437D01*
X597536Y304715D02*
X600714D01*
X591500Y310750D02*
X597536Y304715D01*
X607785Y311786D02*
Y315464D01*
X602500Y320750D02*
X607785Y315464D01*
X627250Y342071D02*
Y344750D01*
Y342071D02*
X633285Y336035D01*
X643214Y343465D02*
Y344035D01*
X636500Y350750D02*
X643214Y344035D01*
X650285Y350536D02*
Y352051D01*
X642368Y359969D02*
X650285Y352051D01*
X668500Y390500D02*
Y393250D01*
X663036Y385036D02*
X668500Y390500D01*
X654250Y393200D02*
X655021D01*
X661786Y399964D01*
X667500Y372071D02*
Y373923D01*
X660714Y365285D02*
X667500Y372071D01*
X674173Y364602D02*
X675631D01*
X667785Y358214D02*
X674173Y364602D01*
X678214Y347536D02*
Y351684D01*
X706133Y331703D02*
Y333100D01*
X699715Y325285D02*
X706133Y331703D01*
X706786Y318286D02*
X714500Y326000D01*
X706786Y318214D02*
Y318286D01*
X660404Y325096D02*
X668750Y333442D01*
X652058Y316750D02*
X660404Y325096D01*
X660750Y307058D02*
X669596Y315904D01*
X747527Y289598D02*
X747635D01*
X740214Y282285D02*
X747527Y289598D01*
X755701Y283630D02*
X756971D01*
X747286Y275215D02*
X755701Y283630D01*
X800521Y258950D02*
X803000D01*
X794536Y252964D02*
X800521Y258950D01*
X802950Y243500D02*
X809735Y236714D01*
X810464D01*
X781821Y245000D02*
X783250D01*
X775035Y251786D02*
X781821Y245000D01*
X772960Y235250D02*
Y239720D01*
X767964Y244715D02*
X772960Y239720D01*
X762476Y227595D02*
X765385D01*
X756786Y233286D02*
X762476Y227595D01*
X755500Y217354D02*
Y220429D01*
X749715Y226215D02*
X755500Y220429D01*
X718071Y183750D02*
X719750D01*
X711786Y190035D02*
X718071Y183750D01*
X613500Y171430D02*
X616109D01*
X621964Y177285D01*
X682500Y144000D02*
Y144571D01*
X675035Y152036D02*
X682500Y144571D01*
X673720Y136500D02*
Y139209D01*
X667964Y144965D02*
X673720Y139209D01*
X669000Y106750D02*
Y109551D01*
X663785Y101536D02*
X669000Y106750D01*
X653750Y108000D02*
Y109801D01*
X647785Y102036D02*
X653750Y108000D01*
X640714Y94965D02*
X647679Y88000D01*
X654143Y94465D02*
X656714D01*
X647679Y88000D02*
X654143Y94465D01*
X630149Y108077D02*
X635000D01*
X625285Y103215D02*
X630149Y108077D01*
X651130Y373130D02*
X655965Y377965D01*
X651130Y368352D02*
Y373130D01*
X512138Y251725D02*
X513046D01*
X505465Y243286D02*
X512138Y249959D01*
X573500Y216929D02*
X578285Y221714D01*
X573500Y214000D02*
Y216929D01*
X618214Y110286D02*
X623378Y115449D01*
Y118590D01*
X813500Y247821D02*
X817535Y243785D01*
X813500Y247821D02*
Y253500D01*
X560285Y172036D02*
X564750Y176500D01*
X543500Y157500D02*
X546000D01*
X888750Y251500D02*
X889250Y251000D01*
X889095Y220845D02*
X889250Y221000D01*
X888500Y231750D02*
X889250Y231000D01*
X888345Y220595D02*
X888845Y221095D01*
X886955Y232500D02*
X888102Y231352D01*
X931250Y171000D02*
X931250Y171000D01*
X931250Y171000D02*
X931500Y171250D01*
X945500D01*
X930344Y200094D02*
X931250Y201000D01*
X930907Y181343D02*
X931250Y181000D01*
X930750Y221500D02*
X931250Y221000D01*
X916000Y220500D02*
X929750D01*
X909250Y291500D02*
X930750D01*
X931101Y350851D02*
X931250Y351000D01*
X931148Y361102D02*
X931250Y361000D01*
X904892Y361102D02*
X931148D01*
X912500Y351750D02*
X930202D01*
X678214Y351684D02*
X683381Y356851D01*
X931250Y321000D02*
X931250Y321000D01*
X931100Y320850D02*
X931250Y321000D01*
X906642Y320850D02*
X931100D01*
X929803Y299250D02*
X930651Y300099D01*
X904346Y301683D02*
X927370D01*
X874750Y360500D02*
X875250Y361000D01*
X889250D01*
X869140Y351000D02*
Y351390D01*
X871000Y353250D01*
X869140Y350851D02*
Y351000D01*
X868140Y340101D02*
X875181Y333060D01*
X882578D01*
X884638Y331000D01*
X889250D01*
X867250Y329250D02*
X875500Y321000D01*
X889250D01*
X889000Y301250D02*
X889250Y301000D01*
X465250Y225000D02*
X501250Y189000D01*
X465250Y225000D02*
Y287743D01*
X456750Y296243D02*
X465250Y287743D01*
X469750Y241500D02*
X507250Y204000D01*
X469750Y241500D02*
Y315000D01*
X435112Y349638D02*
X469750Y315000D01*
X580330Y356862D02*
X610192Y327000D01*
X447250Y350811D02*
X453301Y356862D01*
X580330D01*
X586000Y361250D02*
X591250Y356000D01*
X437500Y356750D02*
X442000Y361250D01*
X586000D01*
X275750Y497750D02*
X462371Y311129D01*
X266250Y497750D02*
X275750D01*
X188250Y480000D02*
Y484250D01*
X174750Y497750D02*
X188250Y484250D01*
X169250Y480000D02*
X178250D01*
X169000Y479750D02*
X169250Y480000D01*
X506500Y414750D02*
X545250Y453500D01*
X464750Y414750D02*
X506500D01*
X442750Y392750D02*
X464750Y414750D01*
X398134Y386058D02*
X434554Y349638D01*
X435112D01*
X287808Y480000D02*
X448750Y319058D01*
X352250Y404500D02*
X371250Y385500D01*
X188250Y480000D02*
X287808D01*
X448750Y307250D02*
Y319058D01*
X371250Y385500D02*
X372250D01*
X440750Y314250D02*
Y316000D01*
X398134Y386058D02*
Y388750D01*
X506250Y399750D02*
X536500Y430000D01*
X178214Y302215D02*
X186215Y294214D01*
X113650Y187887D02*
X320763Y395000D01*
X324990D01*
X113650Y70500D02*
Y187887D01*
X68500Y83000D02*
Y149000D01*
X324000Y404500D01*
X352250D01*
X203750Y89750D02*
X399250Y285250D01*
Y310250D01*
X139500Y89750D02*
X203750D01*
X500000D01*
X296500Y387780D02*
Y423500D01*
X312250Y439250D01*
X264500Y403750D02*
X288250Y380000D01*
X176650Y369600D02*
X223500Y322750D01*
X123500Y182000D02*
X167750Y137750D01*
X639129Y143942D02*
X639821Y143250D01*
X639129Y143942D02*
Y146091D01*
X651442Y131590D02*
Y136013D01*
X655714Y140286D01*
X678500Y158750D02*
X812750Y24500D01*
X812850D01*
X667888Y158750D02*
X678500D01*
X659000Y151000D02*
X660138D01*
X667888Y158750D01*
X690965Y167215D02*
X698179Y160000D01*
X667000Y163250D02*
X682500D01*
X805500Y40250D01*
X822500D01*
X838250Y24500D01*
X825000Y88550D02*
Y253500D01*
X633500Y401500D02*
Y413500D01*
X641500Y421500D01*
X677500D01*
X850750Y248250D01*
Y88200D02*
Y248250D01*
Y88200D02*
X914450Y24500D01*
X776386Y264097D02*
X783403D01*
X787465Y260035D01*
X807291Y271209D02*
X825000Y253500D01*
X726058Y247000D02*
X735654Y256596D01*
X725750Y247000D02*
X726058D01*
X736500Y239058D02*
X744846Y247404D01*
X736500Y238750D02*
Y239058D01*
X744846Y247404D02*
X753750Y256308D01*
Y257250D01*
X735654Y256596D02*
X743750Y264692D01*
Y265000D01*
X685285Y340465D02*
X691821Y347000D01*
X692750D01*
X669596Y315904D02*
X678500Y324808D01*
Y325500D01*
X619750Y335429D02*
X626214Y328965D01*
X619750Y335429D02*
Y336000D01*
X614313Y283063D02*
X625250Y272126D01*
Y271750D02*
Y272126D01*
X604376Y293000D02*
X614313Y283063D01*
X602750Y293000D02*
X604376D01*
X448723Y241684D02*
X449495D01*
X408714Y285035D02*
X415618Y291939D01*
Y292348D01*
X410346Y248154D02*
X419500Y257308D01*
Y257500D01*
X401154Y257346D02*
X409808Y266000D01*
X410500D01*
X401500Y239308D02*
X410346Y248154D01*
X401500Y238500D02*
Y239308D01*
X392558Y248750D02*
X401154Y257346D01*
X392250Y248750D02*
X392558D01*
X356937Y272563D02*
X368124Y283750D01*
X368500D01*
X344563Y284937D02*
X355750Y296124D01*
Y296500D01*
X345374Y261000D02*
X356937Y272563D01*
X345250Y261000D02*
X345374D01*
X333626Y274000D02*
X344563Y284937D01*
X333250Y274000D02*
X333626D01*
X329154Y334596D02*
X337808Y343250D01*
X338000D01*
X347192Y334250D02*
X348250D01*
X338346Y325404D02*
X347192Y334250D01*
X319558Y325000D02*
X329154Y334596D01*
X319500Y325000D02*
X319558D01*
X328750Y315808D02*
X338346Y325404D01*
X328750Y315750D02*
Y315808D01*
X303563Y234187D02*
X315000Y245624D01*
Y246000D01*
X315937Y221813D02*
X327624Y233500D01*
X328250D01*
X305124Y211000D02*
X315937Y221813D01*
X304500Y211000D02*
X305124D01*
X292626Y223250D02*
X303563Y234187D01*
X292250Y223250D02*
X292626D01*
X245962Y234596D02*
X246500Y234058D01*
Y234000D02*
Y234058D01*
Y234442D02*
X254904Y242846D01*
X246500Y234058D02*
Y234442D01*
X272192Y223500D02*
X281846Y213846D01*
X271750Y223500D02*
X272192D01*
X263808Y213500D02*
X272654Y204654D01*
X263000Y213500D02*
X263808D01*
X281846Y213846D02*
X290192Y205500D01*
X291500D01*
X272654Y204654D02*
X281500Y195808D01*
Y195250D02*
Y195808D01*
X331904Y189596D02*
X340558Y198250D01*
X340750D01*
X341096Y180404D02*
X349692Y189000D01*
X350500D01*
X323058Y180750D02*
X331904Y189596D01*
X322250Y180750D02*
X323058D01*
X332000Y171308D02*
X341096Y180404D01*
X332000Y171250D02*
Y171308D01*
X182000Y320750D02*
X182250D01*
X193286Y309715D01*
X661380Y131809D02*
X662785Y133215D01*
X631379Y153841D02*
X633087D01*
X647630Y176178D02*
X649558Y174250D01*
X647630Y176178D02*
Y176343D01*
X659034Y165342D02*
X667346Y173654D01*
X657380Y165342D02*
X659034D01*
X653511Y158230D02*
X661980D01*
X646241Y165500D02*
X653511Y158230D01*
X661980D02*
X667000Y163250D01*
X667346Y173654D02*
X674942Y181250D01*
X676750D01*
X658154Y182846D02*
X666250Y190942D01*
Y191500D01*
X582654Y257096D02*
X591250Y265693D01*
Y266000D01*
X591846Y247904D02*
X601250Y257308D01*
Y257500D01*
X573750Y248193D02*
X582654Y257096D01*
X573750Y248000D02*
Y248193D01*
X693813Y209313D02*
X704376Y198750D01*
X705500D01*
X706187Y221687D02*
X716374Y211500D01*
X717250D01*
X695250Y232624D02*
X706187Y221687D01*
X695250Y232624D02*
Y232750D01*
X682750Y220376D02*
X693813Y209313D01*
X682750Y220376D02*
Y220750D01*
X661380Y123590D02*
Y131809D01*
X167750Y137750D02*
X231500D01*
X250000Y156250D01*
X861500Y201000D02*
X889250D01*
X860650Y240335D02*
X880391Y220595D01*
X859723Y240335D02*
X860650D01*
X581000Y282250D02*
X588750D01*
X608500Y262500D01*
X627250D01*
X658000Y293250D01*
X664000D01*
X796750Y160500D01*
Y91400D02*
Y160500D01*
Y91400D02*
X863650Y24500D01*
X825000Y88550D02*
X889050Y24500D01*
X930564Y181000D02*
X930907Y181343D01*
X870390Y252949D02*
X882244Y241096D01*
X887346D02*
X888250Y242000D01*
X371250Y385500D02*
X440750Y316000D01*
X888845Y221095D02*
X889095Y220845D01*
X927370Y301683D02*
X929803Y299250D01*
X930500Y300250D02*
X930651Y300099D01*
X929500Y301250D02*
X930500Y300250D01*
X928250Y190500D02*
X930000Y192250D01*
X888102Y231352D02*
X888500Y231750D01*
X930372Y281317D02*
X930652Y281598D01*
X887343Y190093D02*
X888750Y191500D01*
X930202Y351750D02*
X931101Y350851D01*
X929250Y252500D02*
X929500Y252750D01*
X868750Y351000D02*
X869140Y351390D01*
X868750Y351000D02*
X869140D01*
X889250D01*
X926346Y241096D02*
X928750Y243500D01*
X929750Y220500D02*
X930750Y221500D01*
X929594Y200844D02*
X930344Y200094D01*
X930082Y231168D02*
X930750Y230500D01*
X886833Y249583D02*
X888750Y251500D01*
X491000Y399750D02*
X506250D01*
X888000Y180750D02*
X888750Y181500D01*
D79*
X938500Y511500D02*
X958021Y491979D01*
Y169521D02*
Y491979D01*
X949500Y161000D02*
X958021Y169521D01*
X889250Y381000D02*
X931250D01*
X889250Y161000D02*
X931250D01*
X949500D01*
D80*
X831500Y446750D02*
Y461716D01*
X830966Y462250D02*
X831500Y461716D01*
X871750Y417000D02*
Y433250D01*
X889250Y381000D02*
Y433250D01*
X922000Y448750D02*
X931250Y439500D01*
Y381000D02*
Y439500D01*
D82*
X889250Y261000D02*
X931250D01*
X889250Y211000D02*
X931250D01*
X889250Y311000D02*
X931250D01*
X889250Y341000D02*
X931250D01*
X947500D01*
X931250Y311000D02*
X947000D01*
X931250Y261000D02*
X948250D01*
X931250Y211000D02*
X947250D01*
X931250Y371000D02*
X948750D01*
X889250D02*
X931250D01*
D83*
X812850Y24500D02*
D03*
D84*
X838250D02*
D03*
X863650D02*
D03*
X889050D02*
D03*
X914450D02*
D03*
X22000Y420400D02*
D03*
Y395000D02*
D03*
Y369600D02*
D03*
X96500Y522750D02*
D03*
X84000Y497750D02*
D03*
X39000D02*
D03*
X26500Y522750D02*
D03*
X187250D02*
D03*
X174750Y497750D02*
D03*
X129750D02*
D03*
X117250Y522750D02*
D03*
X278750D02*
D03*
X266250Y497750D02*
D03*
X221250D02*
D03*
X208750Y522750D02*
D03*
X936750Y58850D02*
D03*
X703500Y514000D02*
D03*
X922000Y448750D02*
D03*
D85*
X22000Y344200D02*
D03*
X936750Y84250D02*
D03*
D86*
X139050Y70500D02*
D03*
D87*
X113650D02*
D03*
X88250D02*
D03*
X62850D02*
D03*
X37450D02*
D03*
X139050Y45100D02*
D03*
X113650D02*
D03*
X88250D02*
D03*
X62850D02*
D03*
X37450D02*
D03*
D88*
X469200Y523850D02*
D03*
X337800D02*
D03*
D89*
X438500Y496750D02*
D03*
X413500D02*
D03*
X393500D02*
D03*
X368500D02*
D03*
D90*
X910250Y118500D02*
D03*
Y403500D02*
D03*
D91*
X37750Y188500D02*
D03*
D92*
X630387Y251250D02*
D03*
X638165Y259028D02*
D03*
X645944Y266806D02*
D03*
X653722Y274585D02*
D03*
X661500Y282363D02*
D03*
X638165Y243472D02*
D03*
X645944Y251250D02*
D03*
X653722Y259028D02*
D03*
X661500Y266806D02*
D03*
X669278Y274585D02*
D03*
X645944Y235694D02*
D03*
X653722Y243472D02*
D03*
X661500Y251250D02*
D03*
X669278Y259028D02*
D03*
X677056Y266806D02*
D03*
X653722Y227915D02*
D03*
X661500Y235694D02*
D03*
X669278Y243472D02*
D03*
X677056Y251250D02*
D03*
X684835Y259028D02*
D03*
X661500Y220137D02*
D03*
X669278Y227915D02*
D03*
X677056Y235694D02*
D03*
X684835Y243472D02*
D03*
X692613Y251250D02*
D03*
X630000Y80000D02*
D03*
X621929Y72750D02*
D03*
X765291Y271209D02*
D03*
X680381Y486608D02*
D03*
X791000Y439000D02*
D03*
X811750Y439250D02*
D03*
X791500Y464250D02*
D03*
X791250Y491500D02*
D03*
Y520750D02*
D03*
X831500Y446750D02*
D03*
X905250Y514250D02*
D03*
X909000Y500500D02*
D03*
X919000Y488500D02*
D03*
X919500Y514750D02*
D03*
X887500Y471500D02*
D03*
X896000D02*
D03*
X887250Y480000D02*
D03*
X896250D02*
D03*
X871750Y417000D02*
D03*
X864501Y478251D02*
D03*
X921248Y468248D02*
D03*
X929750Y476714D02*
D03*
X562250Y279250D02*
D03*
X553362Y271000D02*
D03*
X680000Y475750D02*
D03*
X758300Y436800D02*
D03*
X221000Y250500D02*
D03*
X235500Y337500D02*
D03*
X379250Y469000D02*
D03*
X392250Y468750D02*
D03*
X159750Y298000D02*
D03*
X910892Y200594D02*
D03*
X916250Y190500D02*
D03*
X229231Y417231D02*
D03*
X199250Y293250D02*
D03*
X129500Y101500D02*
D03*
X78000Y102500D02*
D03*
X510500Y389750D02*
D03*
X485000Y393750D02*
D03*
X169000Y479750D02*
D03*
X437500Y356750D02*
D03*
X462371Y306099D02*
D03*
X335750Y374500D02*
D03*
X610750Y199750D02*
D03*
X598377Y190593D02*
D03*
X573250Y163000D02*
D03*
X565000Y176500D02*
D03*
X589000Y196428D02*
D03*
X591250Y356000D02*
D03*
X316750Y364250D02*
D03*
X302613Y351101D02*
D03*
X447250Y349000D02*
D03*
X578500Y342500D02*
D03*
X508250Y349750D02*
D03*
X459750Y348500D02*
D03*
X481750Y341750D02*
D03*
X517750Y336000D02*
D03*
X611750Y327000D02*
D03*
X566250Y333750D02*
D03*
X440750Y314250D02*
D03*
X442620Y266597D02*
D03*
X387250Y180250D02*
D03*
X320500Y166250D02*
D03*
X294112Y160183D02*
D03*
X270250Y318750D02*
D03*
X330000Y146500D02*
D03*
X186000Y250179D02*
D03*
X380719Y328882D02*
D03*
X372500Y335750D02*
D03*
X407868Y302099D02*
D03*
X399250Y310250D02*
D03*
X434119Y275347D02*
D03*
X359000Y152750D02*
D03*
X313000Y145250D02*
D03*
X322250Y137750D02*
D03*
X301863Y152091D02*
D03*
X237250Y217750D02*
D03*
X220250Y234250D02*
D03*
X255000Y224000D02*
D03*
X276250Y263500D02*
D03*
X285500Y254558D02*
D03*
X275500Y288500D02*
D03*
X262750Y274750D02*
D03*
X235860Y284348D02*
D03*
X244000Y292500D02*
D03*
X228609Y223666D02*
D03*
X207077Y258000D02*
D03*
X227609Y275847D02*
D03*
X349750Y144000D02*
D03*
X378750Y171180D02*
D03*
X417462Y210250D02*
D03*
X456744Y248750D02*
D03*
X423500Y285000D02*
D03*
X456750Y296243D02*
D03*
X324990Y395000D02*
D03*
X278499Y328000D02*
D03*
X220000Y268250D02*
D03*
X867250Y308000D02*
D03*
X913000Y176750D02*
D03*
X872250Y151000D02*
D03*
X873891Y170842D02*
D03*
X871552Y181668D02*
D03*
X864890Y190093D02*
D03*
X915301Y231168D02*
D03*
X910142Y241096D02*
D03*
X904392Y250846D02*
D03*
X872750Y263750D02*
D03*
X870390Y242096D02*
D03*
Y252846D02*
D03*
X904346Y281317D02*
D03*
X917643Y270847D02*
D03*
X865890Y284098D02*
D03*
X866000Y295000D02*
D03*
X570250Y465000D02*
D03*
X535500Y480000D02*
D03*
X588668Y479418D02*
D03*
X623250Y481250D02*
D03*
X479101Y454649D02*
D03*
X947250Y211000D02*
D03*
X948250Y261000D02*
D03*
X947000Y311000D02*
D03*
X947500Y341000D02*
D03*
X948750Y371000D02*
D03*
X950750Y151000D02*
D03*
X904392Y331600D02*
D03*
X520000Y258950D02*
D03*
X564500Y221425D02*
D03*
X613500Y171430D02*
D03*
X635000Y108077D02*
D03*
X653750Y109801D02*
D03*
X669000Y109551D02*
D03*
X673720Y136500D02*
D03*
X706250Y167609D02*
D03*
X712501Y175500D02*
D03*
X755500Y217354D02*
D03*
X802950Y243500D02*
D03*
X803000Y258950D02*
D03*
X667500Y373923D02*
D03*
X654250Y393200D02*
D03*
X516500Y225750D02*
D03*
X524374Y218345D02*
D03*
X519250Y243750D02*
D03*
X537750Y254750D02*
D03*
X546250Y263000D02*
D03*
X553375Y232095D02*
D03*
X544750Y239000D02*
D03*
X591500Y310750D02*
D03*
X602500Y320750D02*
D03*
X573376Y292598D02*
D03*
X627250Y344750D02*
D03*
X636500Y350750D02*
D03*
X642368Y359969D02*
D03*
X668500Y393250D02*
D03*
X675631Y364602D02*
D03*
X714500Y326000D02*
D03*
X706133Y333100D02*
D03*
X756971Y283630D02*
D03*
X747635Y289598D02*
D03*
X772960Y235250D02*
D03*
X765385Y227595D02*
D03*
X783250Y245000D02*
D03*
X719750Y183750D02*
D03*
X682500Y144000D02*
D03*
X622250Y163429D02*
D03*
X647679Y88000D02*
D03*
X668750Y333442D02*
D03*
X652058Y316750D02*
D03*
X660750Y307058D02*
D03*
X616000Y306124D02*
D03*
X583500Y239558D02*
D03*
X645129Y400854D02*
D03*
X651130Y368352D02*
D03*
X512138Y251725D02*
D03*
X573500Y214000D02*
D03*
X623378Y118590D02*
D03*
X813500Y253500D02*
D03*
X543500Y157500D02*
D03*
X945500Y171250D02*
D03*
X916000Y220500D02*
D03*
X909250Y291500D02*
D03*
X904892Y361102D02*
D03*
X912500Y351750D02*
D03*
X683381Y356851D02*
D03*
X906642Y320850D02*
D03*
X904346Y301683D02*
D03*
X874750Y360500D02*
D03*
X869140Y350851D02*
D03*
X868140Y340101D02*
D03*
X867250Y329250D02*
D03*
X512000Y303500D02*
D03*
X947250Y453250D02*
D03*
X666500Y526500D02*
D03*
X808250Y90750D02*
D03*
X872750Y90250D02*
D03*
X644750Y412500D02*
D03*
X178750Y155000D02*
D03*
X545250Y453500D02*
D03*
X442750Y392750D02*
D03*
X372250Y385500D02*
D03*
X398134Y388750D02*
D03*
X159250Y286000D02*
D03*
X288250Y380000D02*
D03*
X296500Y387780D02*
D03*
X238250Y357250D02*
D03*
X223500Y322750D02*
D03*
X312250Y439250D02*
D03*
X123500Y182000D02*
D03*
X639129Y146091D02*
D03*
X651442Y131590D02*
D03*
X659000Y151000D02*
D03*
X646241Y165500D02*
D03*
X698179Y160000D02*
D03*
X633500Y401500D02*
D03*
X776386Y264097D02*
D03*
X725750Y247000D02*
D03*
X736500Y238750D02*
D03*
X753750Y257250D02*
D03*
X743750Y265000D02*
D03*
X692750Y347000D02*
D03*
X678500Y325500D02*
D03*
X619750Y336000D02*
D03*
X637750Y285250D02*
D03*
X625250Y271750D02*
D03*
X602750Y293000D02*
D03*
X448723Y241684D02*
D03*
X415618Y292348D02*
D03*
X419500Y257500D02*
D03*
X410500Y266000D02*
D03*
X401500Y238500D02*
D03*
X392250Y248750D02*
D03*
X368500Y283750D02*
D03*
X355750Y296500D02*
D03*
X345250Y261000D02*
D03*
X333250Y274000D02*
D03*
X338000Y343250D02*
D03*
X348250Y334250D02*
D03*
X319500Y325000D02*
D03*
X328750Y315750D02*
D03*
X315000Y246000D02*
D03*
X328250Y233500D02*
D03*
X304500Y211000D02*
D03*
X292250Y223250D02*
D03*
X246500Y234000D02*
D03*
X271750Y223500D02*
D03*
X263000Y213500D02*
D03*
X291500Y205500D02*
D03*
X281500Y195250D02*
D03*
X340750Y198250D02*
D03*
X350500Y189000D02*
D03*
X322250Y180750D02*
D03*
X332000Y171250D02*
D03*
X182000Y320750D02*
D03*
X631379Y153841D02*
D03*
X647630Y176343D02*
D03*
X657380Y165342D02*
D03*
X676750Y181250D02*
D03*
X666250Y191500D02*
D03*
X591250Y266000D02*
D03*
X601250Y257500D02*
D03*
X573750Y248000D02*
D03*
X705500Y198750D02*
D03*
X717250Y211500D02*
D03*
X695250Y232750D02*
D03*
X682750Y220750D02*
D03*
X661380Y123590D02*
D03*
X250000Y156250D02*
D03*
X861500Y201000D02*
D03*
X859723Y240335D02*
D03*
X581000Y282250D02*
D03*
D93*
X938500Y511500D02*
D03*
D94*
X891750Y475750D02*
D03*
D95*
X877000Y483252D02*
D03*
Y478251D02*
D03*
Y473249D02*
D03*
Y468248D02*
D03*
X906500D02*
D03*
Y473249D02*
D03*
Y478251D02*
D03*
Y483252D02*
D03*
D96*
X884250Y461000D02*
D03*
X889250D02*
D03*
X894250D02*
D03*
X899250D02*
D03*
Y490500D02*
D03*
X894250D02*
D03*
X889250D02*
D03*
X884250D02*
D03*
D97*
X849534Y505000D02*
D03*
X813466D02*
D03*
D98*
X889250Y381000D02*
D03*
D99*
Y371000D02*
D03*
Y361000D02*
D03*
Y351000D02*
D03*
Y341000D02*
D03*
Y331000D02*
D03*
Y321000D02*
D03*
Y311000D02*
D03*
Y301000D02*
D03*
Y291000D02*
D03*
Y281000D02*
D03*
Y271000D02*
D03*
Y261000D02*
D03*
Y251000D02*
D03*
Y241000D02*
D03*
Y231000D02*
D03*
Y221000D02*
D03*
Y211000D02*
D03*
Y201000D02*
D03*
Y191000D02*
D03*
Y181000D02*
D03*
Y171000D02*
D03*
Y161000D02*
D03*
Y151000D02*
D03*
Y141000D02*
D03*
X931250Y381000D02*
D03*
Y371000D02*
D03*
Y361000D02*
D03*
Y351000D02*
D03*
Y341000D02*
D03*
Y331000D02*
D03*
Y321000D02*
D03*
Y311000D02*
D03*
Y301000D02*
D03*
Y291000D02*
D03*
Y281000D02*
D03*
Y271000D02*
D03*
Y261000D02*
D03*
Y251000D02*
D03*
Y241000D02*
D03*
Y231000D02*
D03*
Y221000D02*
D03*
Y211000D02*
D03*
Y201000D02*
D03*
Y191000D02*
D03*
Y181000D02*
D03*
Y171000D02*
D03*
Y161000D02*
D03*
Y151000D02*
D03*
Y141000D02*
D03*
D100*
X242343Y254093D02*
D03*
X253657Y265407D02*
D03*
X296657Y309657D02*
D03*
X285343Y298343D02*
D03*
D101*
X264096Y233654D02*
D03*
X254904Y242846D02*
D03*
X275846Y244904D02*
D03*
X266654Y254096D02*
D03*
X582654Y257096D02*
D03*
X591846Y247904D02*
D03*
X669596Y315904D02*
D03*
X660404Y325096D02*
D03*
X667346Y173654D02*
D03*
X658154Y182846D02*
D03*
X744846Y247404D02*
D03*
X735654Y256596D02*
D03*
X341096Y180404D02*
D03*
X331904Y189596D02*
D03*
X410346Y248154D02*
D03*
X401154Y257346D02*
D03*
X338346Y325404D02*
D03*
X329154Y334596D02*
D03*
D102*
X321214Y375036D02*
D03*
X328285Y367965D02*
D03*
X301215Y167285D02*
D03*
X308286Y160215D02*
D03*
X408714Y285035D02*
D03*
X415785Y277964D02*
D03*
X434035Y260714D02*
D03*
X426964Y267785D02*
D03*
X372285Y321465D02*
D03*
X365215Y328535D02*
D03*
X234785Y233715D02*
D03*
X227715Y240786D02*
D03*
X517035Y211465D02*
D03*
X509964Y218535D02*
D03*
X505465Y243286D02*
D03*
X512536Y236215D02*
D03*
X555714Y243036D02*
D03*
X562785Y235965D02*
D03*
X578285Y221714D02*
D03*
X571214Y228785D02*
D03*
X629035Y170215D02*
D03*
X621964Y177285D02*
D03*
X662785Y133215D02*
D03*
X655714Y140286D02*
D03*
X639715Y157285D02*
D03*
X646786Y150215D02*
D03*
X787465Y260035D02*
D03*
X794536Y252964D02*
D03*
X699715Y325285D02*
D03*
X706786Y318214D02*
D03*
X685285Y340465D02*
D03*
X678214Y347536D02*
D03*
X667785Y358214D02*
D03*
X660714Y365285D02*
D03*
X654715Y407035D02*
D03*
X661786Y399964D02*
D03*
X740214Y282285D02*
D03*
X747286Y275215D02*
D03*
X618214Y110286D02*
D03*
X625285Y103215D02*
D03*
D103*
X272654Y204654D02*
D03*
X281846Y213846D02*
D03*
D104*
X303563Y234187D02*
D03*
X315937Y221813D02*
D03*
X344563Y284937D02*
D03*
X356937Y272563D02*
D03*
D105*
X614313Y283063D02*
D03*
X626687Y295437D02*
D03*
X706187Y221687D02*
D03*
X693813Y209313D02*
D03*
M02*
