G04*
G04 #@! TF.GenerationSoftware,Altium Limited,Altium Designer,19.1.8 (144)*
G04*
G04 Layer_Color=16711935*
%FSLAX44Y44*%
%MOMM*%
G71*
G01*
G75*
%ADD39R,0.6508X0.5508*%
%ADD40R,0.5508X0.6508*%
G04:AMPARAMS|DCode=45|XSize=0.5508mm|YSize=0.6508mm|CornerRadius=0mm|HoleSize=0mm|Usage=FLASHONLY|Rotation=45.000|XOffset=0mm|YOffset=0mm|HoleType=Round|Shape=Rectangle|*
%AMROTATEDRECTD45*
4,1,4,0.0354,-0.4248,-0.4248,0.0354,-0.0354,0.4248,0.4248,-0.0354,0.0354,-0.4248,0.0*
%
%ADD45ROTATEDRECTD45*%

%ADD49R,0.9008X1.4508*%
%ADD50R,1.5508X1.5508*%
%ADD51C,1.5508*%
%ADD52R,1.5508X1.5508*%
%ADD53R,1.6008X1.6008*%
%ADD54C,1.6008*%
%ADD55C,2.9508*%
%ADD56C,1.5708*%
%ADD57C,2.0508*%
%ADD58C,5.0508*%
%ADD59C,0.8128*%
%ADD60C,1.3208*%
%ADD106R,1.7508X1.7508*%
%ADD107R,0.9008X0.3308*%
%ADD108R,0.3308X0.9008*%
%ADD109R,1.5494X4.2508*%
%ADD110R,1.8508X0.6508*%
%ADD111O,1.8508X0.6508*%
G04:AMPARAMS|DCode=112|XSize=1.4508mm|YSize=1.3508mm|CornerRadius=0mm|HoleSize=0mm|Usage=FLASHONLY|Rotation=315.000|XOffset=0mm|YOffset=0mm|HoleType=Round|Shape=Rectangle|*
%AMROTATEDRECTD112*
4,1,4,-0.9905,0.0354,-0.0354,0.9905,0.9905,-0.0354,0.0354,-0.9905,-0.9905,0.0354,0.0*
%
%ADD112ROTATEDRECTD112*%

G04:AMPARAMS|DCode=113|XSize=0.8508mm|YSize=0.9508mm|CornerRadius=0mm|HoleSize=0mm|Usage=FLASHONLY|Rotation=135.000|XOffset=0mm|YOffset=0mm|HoleType=Round|Shape=Rectangle|*
%AMROTATEDRECTD113*
4,1,4,0.6370,0.0354,-0.0354,-0.6370,-0.6370,-0.0354,0.0354,0.6370,0.6370,0.0354,0.0*
%
%ADD113ROTATEDRECTD113*%

G04:AMPARAMS|DCode=114|XSize=0.5508mm|YSize=0.6508mm|CornerRadius=0mm|HoleSize=0mm|Usage=FLASHONLY|Rotation=315.000|XOffset=0mm|YOffset=0mm|HoleType=Round|Shape=Rectangle|*
%AMROTATEDRECTD114*
4,1,4,-0.4248,-0.0354,0.0354,0.4248,0.4248,0.0354,-0.0354,-0.4248,-0.4248,-0.0354,0.0*
%
%ADD114ROTATEDRECTD114*%

G04:AMPARAMS|DCode=115|XSize=0.8508mm|YSize=0.9508mm|CornerRadius=0mm|HoleSize=0mm|Usage=FLASHONLY|Rotation=45.000|XOffset=0mm|YOffset=0mm|HoleType=Round|Shape=Rectangle|*
%AMROTATEDRECTD115*
4,1,4,0.0354,-0.6370,-0.6370,0.0354,-0.0354,0.6370,0.6370,-0.0354,0.0354,-0.6370,0.0*
%
%ADD115ROTATEDRECTD115*%

G04:AMPARAMS|DCode=116|XSize=0.9008mm|YSize=1.4508mm|CornerRadius=0mm|HoleSize=0mm|Usage=FLASHONLY|Rotation=135.000|XOffset=0mm|YOffset=0mm|HoleType=Round|Shape=Rectangle|*
%AMROTATEDRECTD116*
4,1,4,0.8314,0.1945,-0.1945,-0.8314,-0.8314,-0.1945,0.1945,0.8314,0.8314,0.1945,0.0*
%
%ADD116ROTATEDRECTD116*%

G04:AMPARAMS|DCode=117|XSize=0.9008mm|YSize=1.4508mm|CornerRadius=0mm|HoleSize=0mm|Usage=FLASHONLY|Rotation=225.000|XOffset=0mm|YOffset=0mm|HoleType=Round|Shape=Rectangle|*
%AMROTATEDRECTD117*
4,1,4,-0.1945,0.8314,0.8314,-0.1945,0.1945,-0.8314,-0.8314,0.1945,-0.1945,0.8314,0.0*
%
%ADD117ROTATEDRECTD117*%

D39*
X498000Y390000D02*
D03*
Y400000D02*
D03*
D40*
X88000Y90500D02*
D03*
X78000D02*
D03*
X129500Y89750D02*
D03*
X139500D02*
D03*
X178250Y480000D02*
D03*
X188250D02*
D03*
D45*
X505215Y258465D02*
D03*
X512285Y265536D02*
D03*
X193286Y301285D02*
D03*
X186215Y294214D02*
D03*
X178214Y302465D02*
D03*
X185285Y309536D02*
D03*
X227215Y260965D02*
D03*
X234286Y268036D02*
D03*
X285786Y321035D02*
D03*
X278715Y313965D02*
D03*
X335785Y137036D02*
D03*
X328714Y129965D02*
D03*
X379035Y185786D02*
D03*
X371964Y178715D02*
D03*
X349535Y158785D02*
D03*
X342464Y151714D02*
D03*
X327285Y158785D02*
D03*
X320215Y151714D02*
D03*
X242964Y277215D02*
D03*
X250035Y284286D02*
D03*
X442464Y248715D02*
D03*
X449535Y255786D02*
D03*
X192715Y243465D02*
D03*
X199785Y250536D02*
D03*
X551964Y163715D02*
D03*
X559035Y170786D02*
D03*
X554035Y257036D02*
D03*
X546964Y249965D02*
D03*
X568786Y271786D02*
D03*
X561715Y264715D02*
D03*
X675035Y152036D02*
D03*
X667964Y144965D02*
D03*
X690965Y167215D02*
D03*
X698036Y174286D02*
D03*
X711786Y190035D02*
D03*
X704715Y182964D02*
D03*
X817535Y243785D02*
D03*
X810464Y236714D02*
D03*
X749715Y226215D02*
D03*
X756786Y233286D02*
D03*
X767964Y244715D02*
D03*
X775035Y251786D02*
D03*
X655965Y377965D02*
D03*
X663036Y385036D02*
D03*
X626214Y328965D02*
D03*
X633285Y336035D02*
D03*
X643214Y343465D02*
D03*
X650285Y350536D02*
D03*
X607785Y311786D02*
D03*
X600714Y304715D02*
D03*
X656714Y94465D02*
D03*
X663785Y101536D02*
D03*
X640714Y94965D02*
D03*
X647785Y102036D02*
D03*
D49*
X830966Y462250D02*
D03*
X813466D02*
D03*
X871750Y433250D02*
D03*
X889250D02*
D03*
D50*
X812850Y24500D02*
D03*
D51*
X838250D02*
D03*
X863650D02*
D03*
X889050D02*
D03*
X914450D02*
D03*
X22000Y420400D02*
D03*
Y395000D02*
D03*
Y369600D02*
D03*
X96500Y522750D02*
D03*
X84000Y497750D02*
D03*
X39000D02*
D03*
X26500Y522750D02*
D03*
X187250D02*
D03*
X174750Y497750D02*
D03*
X129750D02*
D03*
X117250Y522750D02*
D03*
X278750D02*
D03*
X266250Y497750D02*
D03*
X221250D02*
D03*
X208750Y522750D02*
D03*
X936750Y58850D02*
D03*
X703500Y514000D02*
D03*
X922000Y448750D02*
D03*
D52*
X22000Y344200D02*
D03*
X936750Y84250D02*
D03*
D53*
X139050Y70500D02*
D03*
D54*
X113650D02*
D03*
X88250D02*
D03*
X62850D02*
D03*
X37450D02*
D03*
X139050Y45100D02*
D03*
X113650D02*
D03*
X88250D02*
D03*
X62850D02*
D03*
X37450D02*
D03*
D55*
X469200Y523850D02*
D03*
X337800D02*
D03*
D56*
X438500Y496750D02*
D03*
X413500D02*
D03*
X393500D02*
D03*
X368500D02*
D03*
D57*
X910250Y118500D02*
D03*
Y403500D02*
D03*
D58*
X37750Y188500D02*
D03*
D59*
X630387Y251250D02*
D03*
X638165Y259028D02*
D03*
X645944Y266806D02*
D03*
X653722Y274585D02*
D03*
X661500Y282363D02*
D03*
X638165Y243472D02*
D03*
X645944Y251250D02*
D03*
X653722Y259028D02*
D03*
X661500Y266806D02*
D03*
X669278Y274585D02*
D03*
X645944Y235694D02*
D03*
X653722Y243472D02*
D03*
X661500Y251250D02*
D03*
X669278Y259028D02*
D03*
X677056Y266806D02*
D03*
X653722Y227915D02*
D03*
X661500Y235694D02*
D03*
X669278Y243472D02*
D03*
X677056Y251250D02*
D03*
X684835Y259028D02*
D03*
X661500Y220137D02*
D03*
X669278Y227915D02*
D03*
X677056Y235694D02*
D03*
X684835Y243472D02*
D03*
X692613Y251250D02*
D03*
X630000Y80000D02*
D03*
X621929Y72750D02*
D03*
X765291Y271209D02*
D03*
X680381Y486608D02*
D03*
X791000Y439000D02*
D03*
X811750Y439250D02*
D03*
X791500Y464250D02*
D03*
X791250Y491500D02*
D03*
Y520750D02*
D03*
X831500Y446750D02*
D03*
X905250Y514250D02*
D03*
X909000Y500500D02*
D03*
X919000Y488500D02*
D03*
X919500Y514750D02*
D03*
X887500Y471500D02*
D03*
X896000D02*
D03*
X887250Y480000D02*
D03*
X896250D02*
D03*
X871750Y417000D02*
D03*
X864501Y478251D02*
D03*
X921248Y468248D02*
D03*
X929750Y476714D02*
D03*
X562250Y279250D02*
D03*
X553362Y271000D02*
D03*
X680000Y475750D02*
D03*
X758300Y436800D02*
D03*
X221000Y250500D02*
D03*
X235500Y337500D02*
D03*
X379250Y469000D02*
D03*
X392250Y468750D02*
D03*
X159750Y298000D02*
D03*
X910892Y200594D02*
D03*
X916250Y190500D02*
D03*
X229231Y417231D02*
D03*
X199250Y293250D02*
D03*
X129500Y101500D02*
D03*
X78000Y102500D02*
D03*
X510500Y389750D02*
D03*
X485000Y393750D02*
D03*
X169000Y479750D02*
D03*
X437500Y356750D02*
D03*
X462371Y306099D02*
D03*
X335750Y374500D02*
D03*
X610750Y199750D02*
D03*
X598377Y190593D02*
D03*
X573250Y163000D02*
D03*
X565000Y176500D02*
D03*
X589000Y196428D02*
D03*
X591250Y356000D02*
D03*
X316750Y364250D02*
D03*
X302613Y351101D02*
D03*
X447250Y349000D02*
D03*
X578500Y342500D02*
D03*
X508250Y349750D02*
D03*
X459750Y348500D02*
D03*
X481750Y341750D02*
D03*
X517750Y336000D02*
D03*
X611750Y327000D02*
D03*
X566250Y333750D02*
D03*
X440750Y314250D02*
D03*
X442620Y266597D02*
D03*
X387250Y180250D02*
D03*
X320500Y166250D02*
D03*
X294112Y160183D02*
D03*
X270250Y318750D02*
D03*
X330000Y146500D02*
D03*
X186000Y250179D02*
D03*
X380719Y328882D02*
D03*
X372500Y335750D02*
D03*
X407868Y302099D02*
D03*
X399250Y310250D02*
D03*
X434119Y275347D02*
D03*
X359000Y152750D02*
D03*
X313000Y145250D02*
D03*
X322250Y137750D02*
D03*
X301863Y152091D02*
D03*
X237250Y217750D02*
D03*
X220250Y234250D02*
D03*
X255000Y224000D02*
D03*
X276250Y263500D02*
D03*
X285500Y254558D02*
D03*
X275500Y288500D02*
D03*
X262750Y274750D02*
D03*
X235860Y284348D02*
D03*
X244000Y292500D02*
D03*
X228609Y223666D02*
D03*
X207077Y258000D02*
D03*
X227609Y275847D02*
D03*
X349750Y144000D02*
D03*
X378750Y171180D02*
D03*
X417462Y210250D02*
D03*
X456744Y248750D02*
D03*
X423500Y285000D02*
D03*
X456750Y296243D02*
D03*
X324990Y395000D02*
D03*
X278499Y328000D02*
D03*
X220000Y268250D02*
D03*
X867250Y308000D02*
D03*
X913000Y176750D02*
D03*
X872250Y151000D02*
D03*
X873891Y170842D02*
D03*
X871552Y181668D02*
D03*
X864890Y190093D02*
D03*
X915301Y231168D02*
D03*
X910142Y241096D02*
D03*
X904392Y250846D02*
D03*
X872750Y263750D02*
D03*
X870390Y242096D02*
D03*
Y252846D02*
D03*
X904346Y281317D02*
D03*
X917643Y270847D02*
D03*
X865890Y284098D02*
D03*
X866000Y295000D02*
D03*
X570250Y465000D02*
D03*
X535500Y480000D02*
D03*
X588668Y479418D02*
D03*
X623250Y481250D02*
D03*
X479101Y454649D02*
D03*
X947250Y211000D02*
D03*
X948250Y261000D02*
D03*
X947000Y311000D02*
D03*
X947500Y341000D02*
D03*
X948750Y371000D02*
D03*
X950750Y151000D02*
D03*
X904392Y331600D02*
D03*
X520000Y258950D02*
D03*
X564500Y221425D02*
D03*
X613500Y171430D02*
D03*
X635000Y108077D02*
D03*
X653750Y109801D02*
D03*
X669000Y109551D02*
D03*
X673720Y136500D02*
D03*
X706250Y167609D02*
D03*
X712501Y175500D02*
D03*
X755500Y217354D02*
D03*
X802950Y243500D02*
D03*
X803000Y258950D02*
D03*
X667500Y373923D02*
D03*
X654250Y393200D02*
D03*
X516500Y225750D02*
D03*
X524374Y218345D02*
D03*
X519250Y243750D02*
D03*
X537750Y254750D02*
D03*
X546250Y263000D02*
D03*
X553375Y232095D02*
D03*
X544750Y239000D02*
D03*
X591500Y310750D02*
D03*
X602500Y320750D02*
D03*
X573376Y292598D02*
D03*
X627250Y344750D02*
D03*
X636500Y350750D02*
D03*
X642368Y359969D02*
D03*
X668500Y393250D02*
D03*
X675631Y364602D02*
D03*
X714500Y326000D02*
D03*
X706133Y333100D02*
D03*
X756971Y283630D02*
D03*
X747635Y289598D02*
D03*
X772960Y235250D02*
D03*
X765385Y227595D02*
D03*
X783250Y245000D02*
D03*
X719750Y183750D02*
D03*
X682500Y144000D02*
D03*
X622250Y163429D02*
D03*
X647679Y88000D02*
D03*
X668750Y333442D02*
D03*
X652058Y316750D02*
D03*
X660750Y307058D02*
D03*
X616000Y306124D02*
D03*
X583500Y239558D02*
D03*
X645129Y400854D02*
D03*
X651130Y368352D02*
D03*
X512138Y251725D02*
D03*
X573500Y214000D02*
D03*
X623378Y118590D02*
D03*
X813500Y253500D02*
D03*
X543500Y157500D02*
D03*
X945500Y171250D02*
D03*
X916000Y220500D02*
D03*
X909250Y291500D02*
D03*
X904892Y361102D02*
D03*
X912500Y351750D02*
D03*
X683381Y356851D02*
D03*
X906642Y320850D02*
D03*
X904346Y301683D02*
D03*
X874750Y360500D02*
D03*
X869140Y350851D02*
D03*
X868140Y340101D02*
D03*
X867250Y329250D02*
D03*
X512000Y303500D02*
D03*
X947250Y453250D02*
D03*
X666500Y526500D02*
D03*
X808250Y90750D02*
D03*
X872750Y90250D02*
D03*
X644750Y412500D02*
D03*
X178750Y155000D02*
D03*
X545250Y453500D02*
D03*
X442750Y392750D02*
D03*
X372250Y385500D02*
D03*
X398134Y388750D02*
D03*
X159250Y286000D02*
D03*
X288250Y380000D02*
D03*
X296500Y387780D02*
D03*
X238250Y357250D02*
D03*
X223500Y322750D02*
D03*
X312250Y439250D02*
D03*
X123500Y182000D02*
D03*
X639129Y146091D02*
D03*
X651442Y131590D02*
D03*
X659000Y151000D02*
D03*
X646241Y165500D02*
D03*
X698179Y160000D02*
D03*
X633500Y401500D02*
D03*
X776386Y264097D02*
D03*
X725750Y247000D02*
D03*
X736500Y238750D02*
D03*
X753750Y257250D02*
D03*
X743750Y265000D02*
D03*
X692750Y347000D02*
D03*
X678500Y325500D02*
D03*
X619750Y336000D02*
D03*
X637750Y285250D02*
D03*
X625250Y271750D02*
D03*
X602750Y293000D02*
D03*
X448723Y241684D02*
D03*
X415618Y292348D02*
D03*
X419500Y257500D02*
D03*
X410500Y266000D02*
D03*
X401500Y238500D02*
D03*
X392250Y248750D02*
D03*
X368500Y283750D02*
D03*
X355750Y296500D02*
D03*
X345250Y261000D02*
D03*
X333250Y274000D02*
D03*
X338000Y343250D02*
D03*
X348250Y334250D02*
D03*
X319500Y325000D02*
D03*
X328750Y315750D02*
D03*
X315000Y246000D02*
D03*
X328250Y233500D02*
D03*
X304500Y211000D02*
D03*
X292250Y223250D02*
D03*
X246500Y234000D02*
D03*
X271750Y223500D02*
D03*
X263000Y213500D02*
D03*
X291500Y205500D02*
D03*
X281500Y195250D02*
D03*
X340750Y198250D02*
D03*
X350500Y189000D02*
D03*
X322250Y180750D02*
D03*
X332000Y171250D02*
D03*
X182000Y320750D02*
D03*
X631379Y153841D02*
D03*
X647630Y176343D02*
D03*
X657380Y165342D02*
D03*
X676750Y181250D02*
D03*
X666250Y191500D02*
D03*
X591250Y266000D02*
D03*
X601250Y257500D02*
D03*
X573750Y248000D02*
D03*
X705500Y198750D02*
D03*
X717250Y211500D02*
D03*
X695250Y232750D02*
D03*
X682750Y220750D02*
D03*
X661380Y123590D02*
D03*
X250000Y156250D02*
D03*
X861500Y201000D02*
D03*
X859723Y240335D02*
D03*
X581000Y282250D02*
D03*
D60*
X938500Y511500D02*
D03*
D106*
X891750Y475750D02*
D03*
D107*
X877000Y483252D02*
D03*
Y478251D02*
D03*
Y473249D02*
D03*
Y468248D02*
D03*
X906500D02*
D03*
Y473249D02*
D03*
Y478251D02*
D03*
Y483252D02*
D03*
D108*
X884250Y461000D02*
D03*
X889250D02*
D03*
X894250D02*
D03*
X899250D02*
D03*
Y490500D02*
D03*
X894250D02*
D03*
X889250D02*
D03*
X884250D02*
D03*
D109*
X849534Y505000D02*
D03*
X813466D02*
D03*
D110*
X889250Y381000D02*
D03*
D111*
Y371000D02*
D03*
Y361000D02*
D03*
Y351000D02*
D03*
Y341000D02*
D03*
Y331000D02*
D03*
Y321000D02*
D03*
Y311000D02*
D03*
Y301000D02*
D03*
Y291000D02*
D03*
Y281000D02*
D03*
Y271000D02*
D03*
Y261000D02*
D03*
Y251000D02*
D03*
Y241000D02*
D03*
Y231000D02*
D03*
Y221000D02*
D03*
Y211000D02*
D03*
Y201000D02*
D03*
Y191000D02*
D03*
Y181000D02*
D03*
Y171000D02*
D03*
Y161000D02*
D03*
Y151000D02*
D03*
Y141000D02*
D03*
X931250Y381000D02*
D03*
Y371000D02*
D03*
Y361000D02*
D03*
Y351000D02*
D03*
Y341000D02*
D03*
Y331000D02*
D03*
Y321000D02*
D03*
Y311000D02*
D03*
Y301000D02*
D03*
Y291000D02*
D03*
Y281000D02*
D03*
Y271000D02*
D03*
Y261000D02*
D03*
Y251000D02*
D03*
Y241000D02*
D03*
Y231000D02*
D03*
Y221000D02*
D03*
Y211000D02*
D03*
Y201000D02*
D03*
Y191000D02*
D03*
Y181000D02*
D03*
Y171000D02*
D03*
Y161000D02*
D03*
Y151000D02*
D03*
Y141000D02*
D03*
D112*
X242343Y254093D02*
D03*
X253657Y265407D02*
D03*
X296657Y309657D02*
D03*
X285343Y298343D02*
D03*
D113*
X264096Y233654D02*
D03*
X254904Y242846D02*
D03*
X275846Y244904D02*
D03*
X266654Y254096D02*
D03*
X582654Y257096D02*
D03*
X591846Y247904D02*
D03*
X669596Y315904D02*
D03*
X660404Y325096D02*
D03*
X667346Y173654D02*
D03*
X658154Y182846D02*
D03*
X744846Y247404D02*
D03*
X735654Y256596D02*
D03*
X341096Y180404D02*
D03*
X331904Y189596D02*
D03*
X410346Y248154D02*
D03*
X401154Y257346D02*
D03*
X338346Y325404D02*
D03*
X329154Y334596D02*
D03*
D114*
X321214Y375036D02*
D03*
X328285Y367965D02*
D03*
X301215Y167285D02*
D03*
X308286Y160215D02*
D03*
X408714Y285035D02*
D03*
X415785Y277964D02*
D03*
X434035Y260714D02*
D03*
X426964Y267785D02*
D03*
X372285Y321465D02*
D03*
X365215Y328535D02*
D03*
X234785Y233715D02*
D03*
X227715Y240786D02*
D03*
X517035Y211465D02*
D03*
X509964Y218535D02*
D03*
X505465Y243286D02*
D03*
X512536Y236215D02*
D03*
X555714Y243036D02*
D03*
X562785Y235965D02*
D03*
X578285Y221714D02*
D03*
X571214Y228785D02*
D03*
X629035Y170215D02*
D03*
X621964Y177285D02*
D03*
X662785Y133215D02*
D03*
X655714Y140286D02*
D03*
X639715Y157285D02*
D03*
X646786Y150215D02*
D03*
X787465Y260035D02*
D03*
X794536Y252964D02*
D03*
X699715Y325285D02*
D03*
X706786Y318214D02*
D03*
X685285Y340465D02*
D03*
X678214Y347536D02*
D03*
X667785Y358214D02*
D03*
X660714Y365285D02*
D03*
X654715Y407035D02*
D03*
X661786Y399964D02*
D03*
X740214Y282285D02*
D03*
X747286Y275215D02*
D03*
X618214Y110286D02*
D03*
X625285Y103215D02*
D03*
D115*
X272654Y204654D02*
D03*
X281846Y213846D02*
D03*
D116*
X303563Y234187D02*
D03*
X315937Y221813D02*
D03*
X344563Y284937D02*
D03*
X356937Y272563D02*
D03*
D117*
X614313Y283063D02*
D03*
X626687Y295437D02*
D03*
X706187Y221687D02*
D03*
X693813Y209313D02*
D03*
M02*
