G04*
G04 #@! TF.GenerationSoftware,Altium Limited,Altium Designer,19.1.8 (144)*
G04*
G04 Layer_Physical_Order=2*
G04 Layer_Color=36540*
%FSLAX44Y44*%
%MOMM*%
G71*
G01*
G75*
%ADD84C,1.5000*%
%ADD87C,1.5500*%
%ADD88C,2.9000*%
%ADD89C,1.5200*%
%ADD92C,0.7620*%
G36*
X963941Y3059D02*
X3059D01*
Y539191D01*
X327231D01*
X327776Y537667D01*
X325693Y535957D01*
X323563Y533363D01*
X321981Y530402D01*
X321007Y527190D01*
X320803Y525120D01*
X337800D01*
X354797D01*
X354593Y527190D01*
X353619Y530402D01*
X352037Y533363D01*
X349907Y535957D01*
X347824Y537667D01*
X348369Y539191D01*
X458631D01*
X459176Y537667D01*
X457093Y535957D01*
X454963Y533363D01*
X453381Y530402D01*
X452407Y527190D01*
X452203Y525120D01*
X469200D01*
X486197D01*
X485993Y527190D01*
X485019Y530402D01*
X483437Y533363D01*
X481307Y535957D01*
X479224Y537667D01*
X479769Y539191D01*
X963941D01*
Y3059D01*
D02*
G37*
%LPC*%
G36*
X791250Y526707D02*
X788971Y526253D01*
X787038Y524962D01*
X785747Y523030D01*
X785294Y520750D01*
X785747Y518471D01*
X787038Y516538D01*
X788971Y515247D01*
X791250Y514794D01*
X793530Y515247D01*
X795462Y516538D01*
X796753Y518471D01*
X797206Y520750D01*
X796753Y523030D01*
X795462Y524962D01*
X793530Y526253D01*
X791250Y526707D01*
D02*
G37*
G36*
X278750Y532364D02*
X276262Y532037D01*
X273943Y531076D01*
X271952Y529548D01*
X270424Y527557D01*
X269463Y525238D01*
X269136Y522750D01*
X269463Y520262D01*
X270424Y517943D01*
X271952Y515952D01*
X273943Y514424D01*
X276262Y513463D01*
X278750Y513136D01*
X281238Y513463D01*
X283557Y514424D01*
X285548Y515952D01*
X287076Y517943D01*
X288037Y520262D01*
X288364Y522750D01*
X288037Y525238D01*
X287076Y527557D01*
X285548Y529548D01*
X283557Y531076D01*
X281238Y532037D01*
X278750Y532364D01*
D02*
G37*
G36*
X208750D02*
X206262Y532037D01*
X203943Y531076D01*
X201952Y529548D01*
X200424Y527557D01*
X199463Y525238D01*
X199136Y522750D01*
X199463Y520262D01*
X200424Y517943D01*
X201952Y515952D01*
X203943Y514424D01*
X206262Y513463D01*
X208750Y513136D01*
X211238Y513463D01*
X213557Y514424D01*
X215548Y515952D01*
X217076Y517943D01*
X218037Y520262D01*
X218364Y522750D01*
X218037Y525238D01*
X217076Y527557D01*
X215548Y529548D01*
X213557Y531076D01*
X211238Y532037D01*
X208750Y532364D01*
D02*
G37*
G36*
X187250D02*
X184762Y532037D01*
X182443Y531076D01*
X180452Y529548D01*
X178924Y527557D01*
X177963Y525238D01*
X177636Y522750D01*
X177963Y520262D01*
X178924Y517943D01*
X180452Y515952D01*
X182443Y514424D01*
X184762Y513463D01*
X187250Y513136D01*
X189738Y513463D01*
X192057Y514424D01*
X194048Y515952D01*
X195576Y517943D01*
X196537Y520262D01*
X196864Y522750D01*
X196537Y525238D01*
X195576Y527557D01*
X194048Y529548D01*
X192057Y531076D01*
X189738Y532037D01*
X187250Y532364D01*
D02*
G37*
G36*
X117250D02*
X114762Y532037D01*
X112443Y531076D01*
X110452Y529548D01*
X108924Y527557D01*
X107963Y525238D01*
X107636Y522750D01*
X107963Y520262D01*
X108924Y517943D01*
X110452Y515952D01*
X112443Y514424D01*
X114762Y513463D01*
X117250Y513136D01*
X119738Y513463D01*
X122057Y514424D01*
X124048Y515952D01*
X125576Y517943D01*
X126537Y520262D01*
X126864Y522750D01*
X126537Y525238D01*
X125576Y527557D01*
X124048Y529548D01*
X122057Y531076D01*
X119738Y532037D01*
X117250Y532364D01*
D02*
G37*
G36*
X96500D02*
X94012Y532037D01*
X91693Y531076D01*
X89702Y529548D01*
X88174Y527557D01*
X87213Y525238D01*
X86886Y522750D01*
X87213Y520262D01*
X88174Y517943D01*
X89702Y515952D01*
X91693Y514424D01*
X94012Y513463D01*
X96500Y513136D01*
X98988Y513463D01*
X101307Y514424D01*
X103298Y515952D01*
X104826Y517943D01*
X105787Y520262D01*
X106114Y522750D01*
X105787Y525238D01*
X104826Y527557D01*
X103298Y529548D01*
X101307Y531076D01*
X98988Y532037D01*
X96500Y532364D01*
D02*
G37*
G36*
X26500D02*
X24012Y532037D01*
X21693Y531076D01*
X19702Y529548D01*
X18174Y527557D01*
X17213Y525238D01*
X16886Y522750D01*
X17213Y520262D01*
X18174Y517943D01*
X19702Y515952D01*
X21693Y514424D01*
X24012Y513463D01*
X26500Y513136D01*
X28988Y513463D01*
X31307Y514424D01*
X33298Y515952D01*
X34826Y517943D01*
X35787Y520262D01*
X36114Y522750D01*
X35787Y525238D01*
X34826Y527557D01*
X33298Y529548D01*
X31307Y531076D01*
X28988Y532037D01*
X26500Y532364D01*
D02*
G37*
G36*
X486197Y522580D02*
X470470D01*
Y506853D01*
X472540Y507057D01*
X475752Y508031D01*
X478713Y509613D01*
X481307Y511743D01*
X483437Y514337D01*
X485019Y517298D01*
X485993Y520510D01*
X486197Y522580D01*
D02*
G37*
G36*
X354797D02*
X339070D01*
Y506853D01*
X341140Y507057D01*
X344352Y508031D01*
X347313Y509613D01*
X349907Y511743D01*
X352037Y514337D01*
X353619Y517298D01*
X354593Y520510D01*
X354797Y522580D01*
D02*
G37*
G36*
X336530D02*
X320803D01*
X321007Y520510D01*
X321981Y517298D01*
X323563Y514337D01*
X325693Y511743D01*
X328287Y509613D01*
X331247Y508031D01*
X334460Y507057D01*
X336530Y506853D01*
Y522580D01*
D02*
G37*
G36*
X467930D02*
X452203D01*
X452407Y520510D01*
X453381Y517298D01*
X454963Y514337D01*
X457093Y511743D01*
X459687Y509613D01*
X462648Y508031D01*
X465860Y507057D01*
X467930Y506853D01*
Y522580D01*
D02*
G37*
G36*
X703500Y523614D02*
X701012Y523287D01*
X698693Y522326D01*
X696702Y520798D01*
X695174Y518807D01*
X694213Y516488D01*
X693886Y514000D01*
X694213Y511512D01*
X695174Y509193D01*
X696702Y507202D01*
X698693Y505674D01*
X701012Y504713D01*
X703500Y504386D01*
X705988Y504713D01*
X708307Y505674D01*
X710298Y507202D01*
X711826Y509193D01*
X712787Y511512D01*
X713114Y514000D01*
X712787Y516488D01*
X711826Y518807D01*
X710298Y520798D01*
X708307Y522326D01*
X705988Y523287D01*
X703500Y523614D01*
D02*
G37*
G36*
X938500Y519954D02*
X936312Y519666D01*
X934273Y518822D01*
X932522Y517478D01*
X931178Y515727D01*
X930334Y513688D01*
X930046Y511500D01*
X930334Y509312D01*
X931178Y507273D01*
X932522Y505522D01*
X934273Y504178D01*
X936312Y503334D01*
X938500Y503046D01*
X940688Y503334D01*
X942727Y504178D01*
X944478Y505522D01*
X945822Y507273D01*
X946666Y509312D01*
X946954Y511500D01*
X946666Y513688D01*
X945822Y515727D01*
X944478Y517478D01*
X942727Y518822D01*
X940688Y519666D01*
X938500Y519954D01*
D02*
G37*
G36*
X413500Y506465D02*
X410986Y506134D01*
X408643Y505163D01*
X406630Y503620D01*
X405087Y501608D01*
X404292Y499690D01*
X402708D01*
X401913Y501608D01*
X400370Y503620D01*
X398358Y505163D01*
X396014Y506134D01*
X393500Y506465D01*
X390986Y506134D01*
X388643Y505163D01*
X386630Y503620D01*
X385087Y501608D01*
X384116Y499264D01*
X383785Y496750D01*
X384116Y494236D01*
X385087Y491893D01*
X386630Y489880D01*
X388643Y488336D01*
X390986Y487366D01*
X393500Y487035D01*
X396014Y487366D01*
X398358Y488336D01*
X400370Y489880D01*
X401913Y491893D01*
X402708Y493810D01*
X404292D01*
X405087Y491893D01*
X406630Y489880D01*
X408643Y488336D01*
X410986Y487366D01*
X413500Y487035D01*
X416015Y487366D01*
X418358Y488336D01*
X420370Y489880D01*
X421913Y491893D01*
X422884Y494236D01*
X423215Y496750D01*
X422884Y499264D01*
X421913Y501608D01*
X420370Y503620D01*
X418358Y505163D01*
X416015Y506134D01*
X413500Y506465D01*
D02*
G37*
G36*
X222520Y507709D02*
Y499020D01*
X231209D01*
X231031Y500371D01*
X230020Y502813D01*
X228411Y504911D01*
X226313Y506520D01*
X223871Y507532D01*
X222520Y507709D01*
D02*
G37*
G36*
X219980D02*
X218629Y507532D01*
X216187Y506520D01*
X214089Y504911D01*
X212480Y502813D01*
X211468Y500371D01*
X211291Y499020D01*
X219980D01*
Y507709D01*
D02*
G37*
G36*
X40270D02*
Y499020D01*
X48959D01*
X48781Y500371D01*
X47770Y502813D01*
X46161Y504911D01*
X44063Y506520D01*
X41621Y507532D01*
X40270Y507709D01*
D02*
G37*
G36*
X37730D02*
X36379Y507532D01*
X33937Y506520D01*
X31839Y504911D01*
X30230Y502813D01*
X29218Y500371D01*
X29041Y499020D01*
X37730D01*
Y507709D01*
D02*
G37*
G36*
X369770Y506810D02*
Y498020D01*
X378560D01*
X378379Y499397D01*
X377357Y501864D01*
X375732Y503982D01*
X373614Y505607D01*
X371147Y506629D01*
X369770Y506810D01*
D02*
G37*
G36*
X367230Y506810D02*
X365853Y506629D01*
X363386Y505607D01*
X361268Y503982D01*
X359643Y501864D01*
X358621Y499397D01*
X358440Y498020D01*
X367230D01*
Y506810D01*
D02*
G37*
G36*
X266250Y507364D02*
X263762Y507037D01*
X261443Y506076D01*
X259452Y504548D01*
X257924Y502557D01*
X256963Y500238D01*
X256636Y497750D01*
X256963Y495262D01*
X257924Y492943D01*
X259452Y490952D01*
X261443Y489424D01*
X263762Y488463D01*
X266250Y488136D01*
X268738Y488463D01*
X271057Y489424D01*
X273048Y490952D01*
X274576Y492943D01*
X275537Y495262D01*
X275864Y497750D01*
X275537Y500238D01*
X274576Y502557D01*
X273048Y504548D01*
X271057Y506076D01*
X268738Y507037D01*
X266250Y507364D01*
D02*
G37*
G36*
X174750D02*
X172262Y507037D01*
X169943Y506076D01*
X167952Y504548D01*
X166424Y502557D01*
X165463Y500238D01*
X165136Y497750D01*
X165463Y495262D01*
X166424Y492943D01*
X167952Y490952D01*
X169943Y489424D01*
X172262Y488463D01*
X174750Y488136D01*
X177238Y488463D01*
X179557Y489424D01*
X181548Y490952D01*
X183076Y492943D01*
X184037Y495262D01*
X184364Y497750D01*
X184037Y500238D01*
X183076Y502557D01*
X181548Y504548D01*
X179557Y506076D01*
X177238Y507037D01*
X174750Y507364D01*
D02*
G37*
G36*
X129750D02*
X127262Y507037D01*
X124943Y506076D01*
X122952Y504548D01*
X121424Y502557D01*
X120463Y500238D01*
X120136Y497750D01*
X120463Y495262D01*
X121424Y492943D01*
X122952Y490952D01*
X124943Y489424D01*
X127262Y488463D01*
X129750Y488136D01*
X132238Y488463D01*
X134557Y489424D01*
X136548Y490952D01*
X138076Y492943D01*
X139037Y495262D01*
X139364Y497750D01*
X139037Y500238D01*
X138076Y502557D01*
X136548Y504548D01*
X134557Y506076D01*
X132238Y507037D01*
X129750Y507364D01*
D02*
G37*
G36*
X84000D02*
X81512Y507037D01*
X79193Y506076D01*
X77202Y504548D01*
X75674Y502557D01*
X74713Y500238D01*
X74386Y497750D01*
X74713Y495262D01*
X75674Y492943D01*
X77202Y490952D01*
X79193Y489424D01*
X81512Y488463D01*
X84000Y488136D01*
X86488Y488463D01*
X88807Y489424D01*
X90798Y490952D01*
X92326Y492943D01*
X93287Y495262D01*
X93614Y497750D01*
X93287Y500238D01*
X92326Y502557D01*
X90798Y504548D01*
X88807Y506076D01*
X86488Y507037D01*
X84000Y507364D01*
D02*
G37*
G36*
X231209Y496480D02*
X222520D01*
Y487791D01*
X223871Y487968D01*
X226313Y488980D01*
X228411Y490589D01*
X230020Y492687D01*
X231031Y495129D01*
X231209Y496480D01*
D02*
G37*
G36*
X219980D02*
X211291D01*
X211468Y495129D01*
X212480Y492687D01*
X214089Y490589D01*
X216187Y488980D01*
X218629Y487968D01*
X219980Y487791D01*
Y496480D01*
D02*
G37*
G36*
X48959D02*
X40270D01*
Y487791D01*
X41621Y487968D01*
X44063Y488980D01*
X46161Y490589D01*
X47770Y492687D01*
X48781Y495129D01*
X48959Y496480D01*
D02*
G37*
G36*
X37730D02*
X29041D01*
X29218Y495129D01*
X30230Y492687D01*
X31839Y490589D01*
X33937Y488980D01*
X36379Y487968D01*
X37730Y487791D01*
Y496480D01*
D02*
G37*
G36*
X438500Y506465D02*
X435986Y506134D01*
X433643Y505163D01*
X431630Y503620D01*
X430087Y501608D01*
X429116Y499264D01*
X428785Y496750D01*
X429116Y494236D01*
X430087Y491893D01*
X431630Y489880D01*
X433643Y488336D01*
X435986Y487366D01*
X438500Y487035D01*
X441015Y487366D01*
X443358Y488336D01*
X445370Y489880D01*
X446913Y491893D01*
X447884Y494236D01*
X448215Y496750D01*
X447884Y499264D01*
X446913Y501608D01*
X445370Y503620D01*
X443358Y505163D01*
X441015Y506134D01*
X438500Y506465D01*
D02*
G37*
G36*
X378560Y495480D02*
X369770D01*
Y486690D01*
X371147Y486871D01*
X373614Y487893D01*
X375732Y489518D01*
X377357Y491636D01*
X378379Y494103D01*
X378560Y495480D01*
D02*
G37*
G36*
X367230D02*
X358440D01*
X358621Y494103D01*
X359643Y491636D01*
X361268Y489518D01*
X363386Y487893D01*
X365853Y486871D01*
X367230Y486690D01*
Y495480D01*
D02*
G37*
G36*
X791250Y497457D02*
X788971Y497003D01*
X787038Y495712D01*
X785747Y493779D01*
X785294Y491500D01*
X785747Y489221D01*
X787038Y487288D01*
X788971Y485997D01*
X791250Y485544D01*
X793530Y485997D01*
X795462Y487288D01*
X796753Y489221D01*
X797206Y491500D01*
X796753Y493779D01*
X795462Y495712D01*
X793530Y497003D01*
X791250Y497457D01*
D02*
G37*
G36*
X680381Y492564D02*
X678102Y492111D01*
X676169Y490820D01*
X674878Y488887D01*
X674425Y486608D01*
X674878Y484328D01*
X676169Y482396D01*
X678102Y481105D01*
X680381Y480651D01*
X682661Y481105D01*
X684593Y482396D01*
X685884Y484328D01*
X686338Y486608D01*
X685884Y488887D01*
X684593Y490820D01*
X682661Y492111D01*
X680381Y492564D01*
D02*
G37*
G36*
X929750Y482670D02*
X927471Y482217D01*
X925538Y480926D01*
X924247Y478993D01*
X923794Y476714D01*
X924247Y474435D01*
X925538Y472502D01*
X927471Y471211D01*
X929750Y470757D01*
X932029Y471211D01*
X933962Y472502D01*
X935253Y474435D01*
X935706Y476714D01*
X935253Y478993D01*
X933962Y480926D01*
X932029Y482217D01*
X929750Y482670D01*
D02*
G37*
G36*
X379250Y474957D02*
X376971Y474503D01*
X375038Y473212D01*
X373747Y471279D01*
X373294Y469000D01*
X373747Y466721D01*
X375038Y464788D01*
X376971Y463497D01*
X379250Y463044D01*
X381530Y463497D01*
X383462Y464788D01*
X384753Y466721D01*
X384948Y467702D01*
X386502D01*
X386747Y466470D01*
X388038Y464538D01*
X389971Y463247D01*
X392250Y462794D01*
X394529Y463247D01*
X396462Y464538D01*
X397753Y466470D01*
X398206Y468750D01*
X397753Y471029D01*
X396462Y472962D01*
X394529Y474253D01*
X392250Y474706D01*
X389971Y474253D01*
X388038Y472962D01*
X386747Y471029D01*
X386552Y470048D01*
X384998D01*
X384753Y471279D01*
X383462Y473212D01*
X381530Y474503D01*
X379250Y474957D01*
D02*
G37*
G36*
X570250Y470956D02*
X567971Y470503D01*
X566038Y469212D01*
X564747Y467280D01*
X564294Y465000D01*
X564747Y462721D01*
X566038Y460788D01*
X567971Y459497D01*
X570250Y459044D01*
X572529Y459497D01*
X574462Y460788D01*
X575753Y462721D01*
X576207Y465000D01*
X575753Y467280D01*
X574462Y469212D01*
X572529Y470503D01*
X570250Y470956D01*
D02*
G37*
G36*
X791500Y470206D02*
X789221Y469753D01*
X787288Y468462D01*
X785997Y466529D01*
X785544Y464250D01*
X785997Y461971D01*
X787288Y460038D01*
X789221Y458747D01*
X791500Y458293D01*
X793779Y458747D01*
X795712Y460038D01*
X797003Y461971D01*
X797456Y464250D01*
X797003Y466529D01*
X795712Y468462D01*
X793779Y469753D01*
X791500Y470206D01*
D02*
G37*
G36*
X545250Y459456D02*
X542971Y459003D01*
X541038Y457712D01*
X539747Y455779D01*
X539294Y453500D01*
X539747Y451221D01*
X541038Y449288D01*
X542971Y447997D01*
X545250Y447544D01*
X547529Y447997D01*
X549462Y449288D01*
X550753Y451221D01*
X551207Y453500D01*
X550753Y455779D01*
X549462Y457712D01*
X547529Y459003D01*
X545250Y459456D01*
D02*
G37*
G36*
X922000Y458364D02*
X919512Y458037D01*
X917193Y457076D01*
X915202Y455548D01*
X913674Y453557D01*
X912713Y451238D01*
X912386Y448750D01*
X912713Y446262D01*
X913674Y443943D01*
X915202Y441952D01*
X917193Y440424D01*
X919512Y439463D01*
X922000Y439136D01*
X924488Y439463D01*
X926807Y440424D01*
X928798Y441952D01*
X930326Y443943D01*
X931287Y446262D01*
X931614Y448750D01*
X931287Y451238D01*
X930326Y453557D01*
X928798Y455548D01*
X926807Y457076D01*
X924488Y458037D01*
X922000Y458364D01*
D02*
G37*
G36*
X811750Y445206D02*
X809471Y444753D01*
X807538Y443462D01*
X806247Y441529D01*
X805794Y439250D01*
X806247Y436971D01*
X807538Y435038D01*
X809471Y433747D01*
X811750Y433293D01*
X814029Y433747D01*
X815962Y435038D01*
X817253Y436971D01*
X817707Y439250D01*
X817253Y441529D01*
X815962Y443462D01*
X814029Y444753D01*
X811750Y445206D01*
D02*
G37*
G36*
X312250D02*
X309971Y444753D01*
X308038Y443462D01*
X306747Y441529D01*
X306294Y439250D01*
X306747Y436971D01*
X308038Y435038D01*
X309971Y433747D01*
X312250Y433293D01*
X314529Y433747D01*
X316462Y435038D01*
X317753Y436971D01*
X318207Y439250D01*
X317753Y441529D01*
X316462Y443462D01*
X314529Y444753D01*
X312250Y445206D01*
D02*
G37*
G36*
X791000Y444957D02*
X788720Y444503D01*
X786788Y443212D01*
X785497Y441279D01*
X785043Y439000D01*
X785497Y436721D01*
X786788Y434788D01*
X788720Y433497D01*
X791000Y433044D01*
X793279Y433497D01*
X795212Y434788D01*
X796503Y436721D01*
X796956Y439000D01*
X796503Y441279D01*
X795212Y443212D01*
X793279Y444503D01*
X791000Y444957D01*
D02*
G37*
G36*
X910520Y415640D02*
X910317Y415627D01*
X910250Y415636D01*
X910183Y415627D01*
X909980Y415640D01*
X907369Y415297D01*
X907176Y415231D01*
X907109Y415222D01*
X907047Y415196D01*
X906847Y415157D01*
X904414Y414149D01*
X904244Y414036D01*
X904182Y414010D01*
X904128Y413969D01*
X903946Y413879D01*
X901857Y412276D01*
X901722Y412122D01*
X901669Y412081D01*
X901628Y412028D01*
X901474Y411893D01*
X899871Y409804D01*
X899781Y409622D01*
X899740Y409568D01*
X899714Y409506D01*
X899601Y409336D01*
X898593Y406903D01*
X898553Y406703D01*
X898528Y406641D01*
X898519Y406574D01*
X898453Y406381D01*
X898110Y403770D01*
X898119Y403634D01*
X898092Y403500D01*
X898119Y403366D01*
X898110Y403229D01*
X898453Y400619D01*
X898519Y400426D01*
X898528Y400359D01*
X898553Y400297D01*
X898593Y400097D01*
X899601Y397664D01*
X899714Y397494D01*
X899740Y397432D01*
X899781Y397379D01*
X899871Y397196D01*
X901474Y395107D01*
X901628Y394972D01*
X901669Y394919D01*
X901722Y394878D01*
X901857Y394724D01*
X903946Y393121D01*
X904128Y393031D01*
X904182Y392990D01*
X904244Y392964D01*
X904414Y392851D01*
X906847Y391843D01*
X907047Y391804D01*
X907109Y391778D01*
X907176Y391769D01*
X907369Y391703D01*
X909980Y391360D01*
X910183Y391373D01*
X910250Y391364D01*
X910317Y391373D01*
X910520Y391360D01*
X913131Y391703D01*
X913324Y391769D01*
X913391Y391778D01*
X913453Y391804D01*
X913653Y391843D01*
X916086Y392851D01*
X916255Y392964D01*
X916318Y392990D01*
X916371Y393031D01*
X916554Y393121D01*
X918643Y394724D01*
X918778Y394878D01*
X918831Y394919D01*
X918872Y394972D01*
X919026Y395107D01*
X920629Y397196D01*
X920719Y397379D01*
X920760Y397432D01*
X920786Y397494D01*
X920899Y397664D01*
X921907Y400097D01*
X921946Y400297D01*
X921972Y400359D01*
X921981Y400426D01*
X922047Y400619D01*
X922390Y403229D01*
X922381Y403366D01*
X922408Y403500D01*
X922381Y403634D01*
X922390Y403770D01*
X922047Y406381D01*
X921981Y406574D01*
X921972Y406641D01*
X921946Y406703D01*
X921907Y406903D01*
X920899Y409336D01*
X920786Y409506D01*
X920760Y409568D01*
X920719Y409621D01*
X920629Y409804D01*
X919026Y411893D01*
X918872Y412028D01*
X918831Y412081D01*
X918778Y412122D01*
X918643Y412276D01*
X916554Y413879D01*
X916372Y413969D01*
X916318Y414010D01*
X916255Y414036D01*
X916086Y414149D01*
X913653Y415157D01*
X913453Y415196D01*
X913391Y415222D01*
X913324Y415231D01*
X913131Y415297D01*
X910520Y415640D01*
D02*
G37*
G36*
X22000Y430014D02*
X19512Y429687D01*
X17193Y428726D01*
X15202Y427198D01*
X13674Y425207D01*
X12713Y422888D01*
X12386Y420400D01*
X12713Y417912D01*
X13674Y415593D01*
X15202Y413602D01*
X17193Y412074D01*
X19512Y411113D01*
X22000Y410786D01*
X24488Y411113D01*
X26807Y412074D01*
X28798Y413602D01*
X30326Y415593D01*
X31287Y417912D01*
X31614Y420400D01*
X31287Y422888D01*
X30326Y425207D01*
X28798Y427198D01*
X26807Y428726D01*
X24488Y429687D01*
X22000Y430014D01*
D02*
G37*
G36*
X633500Y407457D02*
X631221Y407003D01*
X629288Y405712D01*
X627997Y403779D01*
X627544Y401500D01*
X627997Y399221D01*
X629288Y397288D01*
X631221Y395997D01*
X633500Y395544D01*
X635779Y395997D01*
X637712Y397288D01*
X639003Y399221D01*
X639456Y401500D01*
X639003Y403779D01*
X637712Y405712D01*
X635779Y407003D01*
X633500Y407457D01*
D02*
G37*
G36*
X324990Y400956D02*
X322710Y400503D01*
X320778Y399212D01*
X319487Y397279D01*
X319033Y395000D01*
X319487Y392721D01*
X320778Y390788D01*
X322710Y389497D01*
X324990Y389044D01*
X327269Y389497D01*
X329202Y390788D01*
X330493Y392721D01*
X330946Y395000D01*
X330493Y397279D01*
X329202Y399212D01*
X327269Y400503D01*
X324990Y400956D01*
D02*
G37*
G36*
X485000Y399706D02*
X482720Y399253D01*
X480788Y397962D01*
X479497Y396030D01*
X479044Y393750D01*
X479497Y391471D01*
X480788Y389538D01*
X482720Y388247D01*
X485000Y387794D01*
X487279Y388247D01*
X489212Y389538D01*
X490503Y391471D01*
X490956Y393750D01*
X490503Y396030D01*
X489212Y397962D01*
X487279Y399253D01*
X485000Y399706D01*
D02*
G37*
G36*
X668500Y399207D02*
X666221Y398753D01*
X664288Y397462D01*
X662997Y395530D01*
X662544Y393250D01*
X662997Y390971D01*
X664288Y389038D01*
X666221Y387747D01*
X668500Y387294D01*
X670779Y387747D01*
X672712Y389038D01*
X674003Y390971D01*
X674456Y393250D01*
X674003Y395530D01*
X672712Y397462D01*
X670779Y398753D01*
X668500Y399207D01*
D02*
G37*
G36*
X654250Y399156D02*
X651971Y398703D01*
X650038Y397411D01*
X648747Y395479D01*
X648294Y393200D01*
X648747Y390920D01*
X650038Y388988D01*
X651971Y387697D01*
X654250Y387243D01*
X656529Y387697D01*
X658462Y388988D01*
X659753Y390920D01*
X660207Y393200D01*
X659753Y395479D01*
X658462Y397411D01*
X656529Y398703D01*
X654250Y399156D01*
D02*
G37*
G36*
X442750Y398706D02*
X440471Y398253D01*
X438538Y396962D01*
X437247Y395029D01*
X436794Y392750D01*
X437247Y390471D01*
X438538Y388538D01*
X440471Y387247D01*
X442750Y386794D01*
X445029Y387247D01*
X446962Y388538D01*
X448253Y390471D01*
X448707Y392750D01*
X448253Y395029D01*
X446962Y396962D01*
X445029Y398253D01*
X442750Y398706D01*
D02*
G37*
G36*
X296500Y393737D02*
X294221Y393284D01*
X292288Y391992D01*
X290997Y390060D01*
X290543Y387780D01*
X290694Y387024D01*
X289398Y385728D01*
X288250Y385956D01*
X285970Y385503D01*
X284038Y384212D01*
X282747Y382279D01*
X282293Y380000D01*
X282747Y377721D01*
X284038Y375788D01*
X285970Y374497D01*
X288250Y374044D01*
X290529Y374497D01*
X292462Y375788D01*
X293753Y377721D01*
X294206Y380000D01*
X294056Y380756D01*
X295352Y382052D01*
X296500Y381824D01*
X298779Y382277D01*
X300712Y383569D01*
X302003Y385501D01*
X302456Y387780D01*
X302003Y390060D01*
X300712Y391992D01*
X298779Y393284D01*
X296500Y393737D01*
D02*
G37*
G36*
X22000Y404614D02*
X19512Y404287D01*
X17193Y403326D01*
X15202Y401798D01*
X13674Y399807D01*
X12713Y397488D01*
X12386Y395000D01*
X12713Y392512D01*
X13674Y390193D01*
X15202Y388202D01*
X17193Y386674D01*
X19512Y385713D01*
X22000Y385386D01*
X24488Y385713D01*
X26807Y386674D01*
X28798Y388202D01*
X30326Y390193D01*
X31287Y392512D01*
X31614Y395000D01*
X31287Y397488D01*
X30326Y399807D01*
X28798Y401798D01*
X26807Y403326D01*
X24488Y404287D01*
X22000Y404614D01*
D02*
G37*
G36*
X398134Y394706D02*
X395855Y394253D01*
X393923Y392962D01*
X392631Y391029D01*
X392178Y388750D01*
X392631Y386471D01*
X393923Y384538D01*
X395855Y383247D01*
X398134Y382794D01*
X400414Y383247D01*
X402346Y384538D01*
X403637Y386471D01*
X404091Y388750D01*
X403637Y391029D01*
X402346Y392962D01*
X400414Y394253D01*
X398134Y394706D01*
D02*
G37*
G36*
X372250Y391456D02*
X369971Y391003D01*
X368038Y389712D01*
X366747Y387779D01*
X366294Y385500D01*
X366747Y383220D01*
X368038Y381288D01*
X369971Y379997D01*
X372250Y379543D01*
X374529Y379997D01*
X376462Y381288D01*
X377753Y383220D01*
X378206Y385500D01*
X377753Y387779D01*
X376462Y389712D01*
X374529Y391003D01*
X372250Y391456D01*
D02*
G37*
G36*
X335750Y380457D02*
X333471Y380003D01*
X331538Y378712D01*
X330247Y376780D01*
X329794Y374500D01*
X330247Y372221D01*
X331538Y370288D01*
X333471Y368997D01*
X335750Y368544D01*
X338029Y368997D01*
X339962Y370288D01*
X341253Y372221D01*
X341707Y374500D01*
X341253Y376780D01*
X339962Y378712D01*
X338029Y380003D01*
X335750Y380457D01*
D02*
G37*
G36*
X667500Y379879D02*
X665221Y379426D01*
X663288Y378134D01*
X661997Y376202D01*
X661544Y373923D01*
X661997Y371643D01*
X663288Y369711D01*
X665221Y368420D01*
X667500Y367966D01*
X669780Y368420D01*
X671712Y369711D01*
X673003Y371643D01*
X673456Y373923D01*
X673003Y376202D01*
X671712Y378134D01*
X669780Y379426D01*
X667500Y379879D01*
D02*
G37*
G36*
X22000Y379214D02*
X19512Y378887D01*
X17193Y377926D01*
X15202Y376398D01*
X13674Y374407D01*
X12713Y372088D01*
X12386Y369600D01*
X12713Y367112D01*
X13674Y364793D01*
X15202Y362802D01*
X17193Y361274D01*
X19512Y360313D01*
X22000Y359986D01*
X24488Y360313D01*
X26807Y361274D01*
X28798Y362802D01*
X30326Y364793D01*
X31287Y367112D01*
X31614Y369600D01*
X31287Y372088D01*
X30326Y374407D01*
X28798Y376398D01*
X26807Y377926D01*
X24488Y378887D01*
X22000Y379214D01*
D02*
G37*
G36*
X642368Y365925D02*
X640089Y365472D01*
X638156Y364181D01*
X636865Y362248D01*
X636412Y359969D01*
X636865Y357689D01*
X638156Y355757D01*
X640089Y354466D01*
X642368Y354012D01*
X644648Y354466D01*
X646580Y355757D01*
X647871Y357689D01*
X648325Y359969D01*
X647871Y362248D01*
X646580Y364181D01*
X644648Y365472D01*
X642368Y365925D01*
D02*
G37*
G36*
X238250Y363206D02*
X235970Y362753D01*
X234038Y361462D01*
X232747Y359529D01*
X232293Y357250D01*
X232747Y354971D01*
X234038Y353038D01*
X235970Y351747D01*
X238250Y351294D01*
X240529Y351747D01*
X242462Y353038D01*
X243753Y354971D01*
X244206Y357250D01*
X243753Y359529D01*
X242462Y361462D01*
X240529Y362753D01*
X238250Y363206D01*
D02*
G37*
G36*
X683381Y362808D02*
X681102Y362355D01*
X679169Y361063D01*
X677878Y359131D01*
X677425Y356851D01*
X677878Y354572D01*
X679169Y352640D01*
X681102Y351348D01*
X683381Y350895D01*
X685661Y351348D01*
X687593Y352640D01*
X688884Y354572D01*
X689338Y356851D01*
X688884Y359131D01*
X687593Y361063D01*
X685661Y362355D01*
X683381Y362808D01*
D02*
G37*
G36*
X591250Y361956D02*
X588971Y361503D01*
X587038Y360212D01*
X585747Y358279D01*
X585294Y356000D01*
X585747Y353721D01*
X587038Y351788D01*
X588971Y350497D01*
X591250Y350043D01*
X593529Y350497D01*
X595462Y351788D01*
X596753Y353721D01*
X597206Y356000D01*
X596753Y358279D01*
X595462Y360212D01*
X593529Y361503D01*
X591250Y361956D01*
D02*
G37*
G36*
X904892Y367058D02*
X902613Y366605D01*
X900680Y365313D01*
X899389Y363381D01*
X898936Y361102D01*
X899389Y358822D01*
X900680Y356890D01*
X902613Y355599D01*
X904892Y355145D01*
X906066Y355379D01*
X906997Y354029D01*
X906544Y351750D01*
X906997Y349470D01*
X908288Y347538D01*
X910221Y346247D01*
X912500Y345793D01*
X914780Y346247D01*
X916712Y347538D01*
X918003Y349470D01*
X918456Y351750D01*
X918003Y354029D01*
X916712Y355962D01*
X914780Y357253D01*
X912500Y357706D01*
X911327Y357473D01*
X910395Y358822D01*
X910849Y361102D01*
X910395Y363381D01*
X909104Y365313D01*
X907172Y366605D01*
X904892Y367058D01*
D02*
G37*
G36*
X508250Y355706D02*
X505971Y355253D01*
X504038Y353962D01*
X502747Y352029D01*
X502294Y349750D01*
X502747Y347471D01*
X504038Y345538D01*
X505971Y344247D01*
X508250Y343793D01*
X510530Y344247D01*
X512462Y345538D01*
X513753Y347471D01*
X514207Y349750D01*
X513753Y352029D01*
X512462Y353962D01*
X510530Y355253D01*
X508250Y355706D01*
D02*
G37*
G36*
X437500Y362706D02*
X435221Y362253D01*
X433288Y360962D01*
X431997Y359030D01*
X431544Y356750D01*
X431997Y354471D01*
X433288Y352538D01*
X435221Y351247D01*
X437500Y350794D01*
X439780Y351247D01*
X440249Y351561D01*
X441621Y350644D01*
X441294Y349000D01*
X441747Y346721D01*
X443038Y344788D01*
X444971Y343497D01*
X447250Y343044D01*
X449529Y343497D01*
X451462Y344788D01*
X452753Y346721D01*
X453206Y349000D01*
X452753Y351279D01*
X451462Y353212D01*
X449529Y354503D01*
X447250Y354957D01*
X444971Y354503D01*
X444501Y354189D01*
X443129Y355106D01*
X443456Y356750D01*
X443003Y359030D01*
X441712Y360962D01*
X439780Y362253D01*
X437500Y362706D01*
D02*
G37*
G36*
X627250Y350706D02*
X624971Y350253D01*
X623038Y348962D01*
X621747Y347029D01*
X621294Y344750D01*
X621747Y342471D01*
X623038Y340538D01*
X624971Y339247D01*
X627250Y338794D01*
X629529Y339247D01*
X631462Y340538D01*
X632753Y342471D01*
X633206Y344750D01*
X632753Y347029D01*
X631462Y348962D01*
X629529Y350253D01*
X627250Y350706D01*
D02*
G37*
G36*
X338000Y349207D02*
X335721Y348753D01*
X333788Y347462D01*
X332497Y345530D01*
X332044Y343250D01*
X332497Y340971D01*
X333788Y339038D01*
X335721Y337747D01*
X338000Y337294D01*
X340280Y337747D01*
X342212Y339038D01*
X343503Y340971D01*
X343956Y343250D01*
X343503Y345530D01*
X342212Y347462D01*
X340280Y348753D01*
X338000Y349207D01*
D02*
G37*
G36*
X578500Y348456D02*
X576221Y348003D01*
X574288Y346712D01*
X572997Y344779D01*
X572544Y342500D01*
X572997Y340221D01*
X574288Y338288D01*
X576221Y336997D01*
X578500Y336544D01*
X580779Y336997D01*
X582712Y338288D01*
X584003Y340221D01*
X584456Y342500D01*
X584003Y344779D01*
X582712Y346712D01*
X580779Y348003D01*
X578500Y348456D01*
D02*
G37*
G36*
X481750Y347706D02*
X479471Y347253D01*
X477538Y345962D01*
X476247Y344029D01*
X475794Y341750D01*
X476247Y339470D01*
X477538Y337538D01*
X479471Y336247D01*
X481750Y335793D01*
X484030Y336247D01*
X485962Y337538D01*
X487253Y339470D01*
X487706Y341750D01*
X487253Y344029D01*
X485962Y345962D01*
X484030Y347253D01*
X481750Y347706D01*
D02*
G37*
G36*
X29500Y353772D02*
X14500D01*
X13707Y353614D01*
X13035Y353165D01*
X12586Y352493D01*
X12428Y351700D01*
Y336700D01*
X12586Y335907D01*
X13035Y335235D01*
X13707Y334786D01*
X14500Y334628D01*
X29500D01*
X30293Y334786D01*
X30965Y335235D01*
X31414Y335907D01*
X31572Y336700D01*
Y351700D01*
X31414Y352493D01*
X30965Y353165D01*
X30293Y353614D01*
X29500Y353772D01*
D02*
G37*
G36*
X235500Y343456D02*
X233221Y343003D01*
X231288Y341712D01*
X229997Y339780D01*
X229544Y337500D01*
X229997Y335221D01*
X231288Y333288D01*
X233221Y331997D01*
X235500Y331544D01*
X237780Y331997D01*
X239712Y333288D01*
X241003Y335221D01*
X241457Y337500D01*
X241003Y339780D01*
X239712Y341712D01*
X237780Y343003D01*
X235500Y343456D01*
D02*
G37*
G36*
X517750Y341956D02*
X515471Y341503D01*
X513538Y340212D01*
X512247Y338279D01*
X511794Y336000D01*
X512247Y333721D01*
X513538Y331788D01*
X515471Y330497D01*
X517750Y330044D01*
X520029Y330497D01*
X521962Y331788D01*
X523253Y333721D01*
X523706Y336000D01*
X523253Y338279D01*
X521962Y340212D01*
X520029Y341503D01*
X517750Y341956D01*
D02*
G37*
G36*
X372500Y341707D02*
X370220Y341253D01*
X368288Y339962D01*
X366997Y338029D01*
X366544Y335750D01*
X366997Y333471D01*
X368288Y331538D01*
X370220Y330247D01*
X372500Y329794D01*
X374779Y330247D01*
X376712Y331538D01*
X378003Y333471D01*
X378456Y335750D01*
X378003Y338029D01*
X376712Y339962D01*
X374779Y341253D01*
X372500Y341707D01*
D02*
G37*
G36*
X566250Y339706D02*
X563971Y339253D01*
X562038Y337962D01*
X560747Y336030D01*
X560294Y333750D01*
X560747Y331471D01*
X562038Y329538D01*
X563971Y328247D01*
X566250Y327794D01*
X568529Y328247D01*
X570462Y329538D01*
X571753Y331471D01*
X572206Y333750D01*
X571753Y336030D01*
X570462Y337962D01*
X568529Y339253D01*
X566250Y339706D01*
D02*
G37*
G36*
X668750Y339399D02*
X666470Y338945D01*
X664538Y337654D01*
X663247Y335722D01*
X662794Y333442D01*
X663247Y331163D01*
X664538Y329230D01*
X666470Y327939D01*
X668750Y327486D01*
X671029Y327939D01*
X672962Y329230D01*
X674253Y331163D01*
X674706Y333442D01*
X674253Y335722D01*
X672962Y337654D01*
X671029Y338945D01*
X668750Y339399D01*
D02*
G37*
G36*
X874750Y366456D02*
X872471Y366003D01*
X870538Y364712D01*
X869247Y362779D01*
X868794Y360500D01*
X869239Y358263D01*
X869234Y358195D01*
X868450Y356670D01*
X866861Y356354D01*
X864929Y355063D01*
X863637Y353131D01*
X863184Y350851D01*
X863637Y348572D01*
X864929Y346639D01*
X864798Y344893D01*
X863929Y344313D01*
X862637Y342380D01*
X862184Y340101D01*
X862637Y337821D01*
X863929Y335889D01*
X863928Y334056D01*
X863038Y333462D01*
X861747Y331529D01*
X861294Y329250D01*
X861747Y326970D01*
X863038Y325038D01*
X864971Y323747D01*
X867250Y323293D01*
X869529Y323747D01*
X871462Y325038D01*
X872753Y326970D01*
X873206Y329250D01*
X872753Y331529D01*
X871462Y333462D01*
X871462Y335294D01*
X872352Y335889D01*
X873643Y337821D01*
X874097Y340101D01*
X873643Y342380D01*
X872352Y344312D01*
X872483Y346058D01*
X873352Y346639D01*
X874643Y348572D01*
X875097Y350851D01*
X874652Y353088D01*
X874656Y353156D01*
X875441Y354681D01*
X877029Y354997D01*
X878962Y356288D01*
X880253Y358220D01*
X880706Y360500D01*
X880253Y362779D01*
X878962Y364712D01*
X877029Y366003D01*
X874750Y366456D01*
D02*
G37*
G36*
X278499Y333956D02*
X276219Y333503D01*
X274287Y332212D01*
X272996Y330280D01*
X272542Y328000D01*
X272996Y325721D01*
X274287Y323788D01*
X276219Y322497D01*
X278499Y322044D01*
X280778Y322497D01*
X282711Y323788D01*
X284002Y325721D01*
X284455Y328000D01*
X284002Y330280D01*
X282711Y332212D01*
X280778Y333503D01*
X278499Y333956D01*
D02*
G37*
G36*
X611750Y332957D02*
X609471Y332503D01*
X607538Y331212D01*
X606247Y329280D01*
X605794Y327000D01*
X606247Y324721D01*
X607538Y322788D01*
X609471Y321497D01*
X611750Y321044D01*
X614030Y321497D01*
X615962Y322788D01*
X617253Y324721D01*
X617706Y327000D01*
X617253Y329280D01*
X615962Y331212D01*
X614030Y332503D01*
X611750Y332957D01*
D02*
G37*
G36*
X714500Y331956D02*
X712221Y331503D01*
X710288Y330212D01*
X708997Y328279D01*
X708543Y326000D01*
X708997Y323721D01*
X710288Y321788D01*
X712221Y320497D01*
X714500Y320044D01*
X716779Y320497D01*
X718712Y321788D01*
X720003Y323721D01*
X720456Y326000D01*
X720003Y328279D01*
X718712Y330212D01*
X716779Y331503D01*
X714500Y331956D01*
D02*
G37*
G36*
X319500Y330956D02*
X317220Y330503D01*
X315288Y329212D01*
X313997Y327280D01*
X313543Y325000D01*
X313997Y322721D01*
X315288Y320788D01*
X317220Y319497D01*
X319500Y319044D01*
X321779Y319497D01*
X323712Y320788D01*
X325003Y322721D01*
X325456Y325000D01*
X325003Y327280D01*
X323712Y329212D01*
X321779Y330503D01*
X319500Y330956D01*
D02*
G37*
G36*
X223500Y328707D02*
X221221Y328253D01*
X219288Y326962D01*
X217997Y325029D01*
X217544Y322750D01*
X217997Y320471D01*
X219288Y318538D01*
X221221Y317247D01*
X223500Y316793D01*
X225779Y317247D01*
X227712Y318538D01*
X229003Y320471D01*
X229457Y322750D01*
X229003Y325029D01*
X227712Y326962D01*
X225779Y328253D01*
X223500Y328707D01*
D02*
G37*
G36*
X904392Y337557D02*
X902113Y337103D01*
X900180Y335812D01*
X898889Y333880D01*
X898436Y331600D01*
X898889Y329321D01*
X900180Y327388D01*
X901675Y326390D01*
X902105Y325633D01*
X902087Y324548D01*
X901139Y323129D01*
X900686Y320850D01*
X901139Y318570D01*
X902430Y316638D01*
X904363Y315347D01*
X906642Y314893D01*
X908922Y315347D01*
X910854Y316638D01*
X912145Y318570D01*
X912599Y320850D01*
X912145Y323129D01*
X910854Y325061D01*
X909359Y326060D01*
X908929Y326816D01*
X908947Y327902D01*
X909895Y329321D01*
X910349Y331600D01*
X909895Y333880D01*
X908604Y335812D01*
X906672Y337103D01*
X904392Y337557D01*
D02*
G37*
G36*
X652058Y322706D02*
X649778Y322253D01*
X647846Y320962D01*
X646555Y319030D01*
X646101Y316750D01*
X646555Y314471D01*
X647846Y312538D01*
X649778Y311247D01*
X652058Y310794D01*
X654337Y311247D01*
X656270Y312538D01*
X657561Y314471D01*
X658014Y316750D01*
X657561Y319030D01*
X656270Y320962D01*
X654337Y322253D01*
X652058Y322706D01*
D02*
G37*
G36*
X440750Y320206D02*
X438470Y319753D01*
X436538Y318462D01*
X435247Y316529D01*
X434794Y314250D01*
X435247Y311971D01*
X436538Y310038D01*
X438470Y308747D01*
X440750Y308293D01*
X443029Y308747D01*
X444962Y310038D01*
X446253Y311971D01*
X446706Y314250D01*
X446253Y316529D01*
X444962Y318462D01*
X443029Y319753D01*
X440750Y320206D01*
D02*
G37*
G36*
X591500Y316707D02*
X589221Y316253D01*
X587288Y314962D01*
X585997Y313029D01*
X585544Y310750D01*
X585997Y308471D01*
X587288Y306538D01*
X589221Y305247D01*
X591500Y304793D01*
X593779Y305247D01*
X595712Y306538D01*
X597003Y308471D01*
X597457Y310750D01*
X597003Y313029D01*
X595712Y314962D01*
X593779Y316253D01*
X591500Y316707D01*
D02*
G37*
G36*
X512000Y309457D02*
X509720Y309003D01*
X507788Y307712D01*
X506497Y305779D01*
X506044Y303500D01*
X506497Y301221D01*
X507788Y299288D01*
X509720Y297997D01*
X512000Y297544D01*
X514279Y297997D01*
X516212Y299288D01*
X517503Y301221D01*
X517956Y303500D01*
X517503Y305779D01*
X516212Y307712D01*
X514279Y309003D01*
X512000Y309457D01*
D02*
G37*
G36*
X399250Y316206D02*
X396971Y315753D01*
X395038Y314462D01*
X393747Y312529D01*
X393293Y310250D01*
X393747Y307971D01*
X395038Y306038D01*
X396971Y304747D01*
X399250Y304293D01*
X400858Y304613D01*
X402125Y303548D01*
X402178Y303440D01*
X401912Y302099D01*
X402365Y299819D01*
X403656Y297887D01*
X405588Y296596D01*
X407868Y296142D01*
X410147Y296596D01*
X412080Y297887D01*
X413371Y299819D01*
X413824Y302099D01*
X413371Y304378D01*
X412080Y306311D01*
X410147Y307602D01*
X407868Y308055D01*
X406260Y307735D01*
X404993Y308800D01*
X404940Y308908D01*
X405206Y310250D01*
X404753Y312529D01*
X403462Y314462D01*
X401529Y315753D01*
X399250Y316206D01*
D02*
G37*
G36*
X355750Y302456D02*
X353471Y302003D01*
X351538Y300712D01*
X350247Y298779D01*
X349794Y296500D01*
X350247Y294221D01*
X351538Y292288D01*
X353471Y290997D01*
X355750Y290543D01*
X358030Y290997D01*
X359962Y292288D01*
X361253Y294221D01*
X361707Y296500D01*
X361253Y298779D01*
X359962Y300712D01*
X358030Y302003D01*
X355750Y302456D01*
D02*
G37*
G36*
X462371Y312055D02*
X460091Y311602D01*
X458159Y310311D01*
X456867Y308378D01*
X456414Y306099D01*
X456867Y303820D01*
X457027Y303580D01*
X456191Y302089D01*
X454471Y301747D01*
X452538Y300455D01*
X451247Y298523D01*
X450794Y296243D01*
X451247Y293964D01*
X452538Y292032D01*
X454471Y290740D01*
X456750Y290287D01*
X459030Y290740D01*
X460962Y292032D01*
X462253Y293964D01*
X462706Y296243D01*
X462253Y298523D01*
X462093Y298762D01*
X462929Y300254D01*
X464650Y300596D01*
X466582Y301887D01*
X467874Y303820D01*
X468327Y306099D01*
X467874Y308378D01*
X466582Y310311D01*
X464650Y311602D01*
X462371Y312055D01*
D02*
G37*
G36*
X199250Y299207D02*
X196971Y298753D01*
X195038Y297462D01*
X193747Y295529D01*
X193293Y293250D01*
X193747Y290971D01*
X195038Y289038D01*
X196971Y287747D01*
X199250Y287294D01*
X201529Y287747D01*
X203462Y289038D01*
X204753Y290971D01*
X205206Y293250D01*
X204753Y295529D01*
X203462Y297462D01*
X201529Y298753D01*
X199250Y299207D01*
D02*
G37*
G36*
X602750Y298957D02*
X600471Y298503D01*
X598538Y297212D01*
X597247Y295279D01*
X596794Y293000D01*
X597247Y290721D01*
X598538Y288788D01*
X600471Y287497D01*
X602750Y287043D01*
X605029Y287497D01*
X606962Y288788D01*
X608253Y290721D01*
X608707Y293000D01*
X608253Y295279D01*
X606962Y297212D01*
X605029Y298503D01*
X602750Y298957D01*
D02*
G37*
G36*
X244000Y298456D02*
X241721Y298003D01*
X239788Y296712D01*
X238497Y294779D01*
X238043Y292500D01*
X238497Y290221D01*
X239788Y288288D01*
X241721Y286997D01*
X244000Y286544D01*
X246279Y286997D01*
X248212Y288288D01*
X249503Y290221D01*
X249956Y292500D01*
X249503Y294779D01*
X248212Y296712D01*
X246279Y298003D01*
X244000Y298456D01*
D02*
G37*
G36*
X275500Y294457D02*
X273221Y294003D01*
X271288Y292712D01*
X269997Y290779D01*
X269544Y288500D01*
X269997Y286221D01*
X271288Y284288D01*
X273221Y282997D01*
X275500Y282544D01*
X277780Y282997D01*
X279712Y284288D01*
X281003Y286221D01*
X281457Y288500D01*
X281003Y290779D01*
X279712Y292712D01*
X277780Y294003D01*
X275500Y294457D01*
D02*
G37*
G36*
X423500Y290956D02*
X421221Y290503D01*
X419288Y289212D01*
X417997Y287279D01*
X417543Y285000D01*
X417997Y282721D01*
X419288Y280788D01*
X421221Y279497D01*
X423500Y279044D01*
X425779Y279497D01*
X427712Y280788D01*
X429003Y282721D01*
X429456Y285000D01*
X429003Y287279D01*
X427712Y289212D01*
X425779Y290503D01*
X423500Y290956D01*
D02*
G37*
G36*
X867250Y313956D02*
X864971Y313503D01*
X863038Y312212D01*
X861747Y310279D01*
X861294Y308000D01*
X861747Y305721D01*
X863038Y303788D01*
X864971Y302497D01*
X865452Y302401D01*
Y300847D01*
X863720Y300503D01*
X861788Y299212D01*
X860497Y297279D01*
X860043Y295000D01*
X860497Y292721D01*
X861788Y290788D01*
X862447Y290348D01*
Y288824D01*
X861678Y288310D01*
X860387Y286377D01*
X859934Y284098D01*
X860387Y281818D01*
X861678Y279886D01*
X863611Y278595D01*
X865890Y278141D01*
X868170Y278595D01*
X870102Y279886D01*
X871393Y281818D01*
X871847Y284098D01*
X871393Y286377D01*
X870102Y288310D01*
X869443Y288750D01*
Y290274D01*
X870212Y290788D01*
X871503Y292721D01*
X871956Y295000D01*
X871503Y297279D01*
X870212Y299212D01*
X868279Y300503D01*
X867798Y300599D01*
Y302153D01*
X869529Y302497D01*
X871462Y303788D01*
X872753Y305721D01*
X873206Y308000D01*
X872753Y310279D01*
X871462Y312212D01*
X869529Y313503D01*
X867250Y313956D01*
D02*
G37*
G36*
X756971Y289586D02*
X754691Y289133D01*
X752759Y287842D01*
X751468Y285909D01*
X751014Y283630D01*
X751468Y281350D01*
X752759Y279418D01*
X754691Y278127D01*
X756971Y277673D01*
X759250Y278127D01*
X761183Y279418D01*
X762474Y281350D01*
X762927Y283630D01*
X762474Y285909D01*
X761183Y287842D01*
X759250Y289133D01*
X756971Y289586D01*
D02*
G37*
G36*
X581000Y288207D02*
X578721Y287753D01*
X576788Y286462D01*
X575497Y284529D01*
X575044Y282250D01*
X575497Y279971D01*
X576788Y278038D01*
X578721Y276747D01*
X581000Y276294D01*
X583279Y276747D01*
X585212Y278038D01*
X586503Y279971D01*
X586956Y282250D01*
X586503Y284529D01*
X585212Y286462D01*
X583279Y287753D01*
X581000Y288207D01*
D02*
G37*
G36*
X904346Y307639D02*
X902066Y307186D01*
X900134Y305895D01*
X898843Y303962D01*
X898390Y301683D01*
X898843Y299403D01*
X900134Y297471D01*
X902066Y296180D01*
X903348Y295925D01*
X904049Y294232D01*
X903747Y293779D01*
X903294Y291500D01*
X903747Y289221D01*
X904049Y288768D01*
X903348Y287075D01*
X902066Y286820D01*
X900134Y285529D01*
X898843Y283597D01*
X898390Y281317D01*
X898843Y279038D01*
X900134Y277105D01*
X902066Y275814D01*
X904346Y275361D01*
X906625Y275814D01*
X908558Y277105D01*
X909849Y279038D01*
X910302Y281317D01*
X909849Y283597D01*
X909547Y284049D01*
X910248Y285742D01*
X911529Y285997D01*
X913462Y287288D01*
X914753Y289221D01*
X915207Y291500D01*
X914753Y293779D01*
X913462Y295712D01*
X911529Y297003D01*
X910248Y297258D01*
X909547Y298951D01*
X909849Y299403D01*
X910302Y301683D01*
X909849Y303962D01*
X908558Y305895D01*
X906625Y307186D01*
X904346Y307639D01*
D02*
G37*
G36*
X434119Y281304D02*
X431840Y280851D01*
X429907Y279559D01*
X428616Y277627D01*
X428163Y275347D01*
X428616Y273068D01*
X429907Y271136D01*
X431840Y269844D01*
X434119Y269391D01*
X436399Y269844D01*
X438331Y271136D01*
X439622Y273068D01*
X440076Y275347D01*
X439622Y277627D01*
X438331Y279559D01*
X436399Y280851D01*
X434119Y281304D01*
D02*
G37*
G36*
X262750Y280706D02*
X260471Y280253D01*
X258538Y278962D01*
X257247Y277029D01*
X256793Y274750D01*
X257247Y272470D01*
X258538Y270538D01*
X260471Y269247D01*
X262750Y268794D01*
X265029Y269247D01*
X266962Y270538D01*
X268253Y272470D01*
X268706Y274750D01*
X268253Y277029D01*
X266962Y278962D01*
X265029Y280253D01*
X262750Y280706D01*
D02*
G37*
G36*
X333250Y279956D02*
X330971Y279503D01*
X329038Y278212D01*
X327747Y276280D01*
X327294Y274000D01*
X327747Y271721D01*
X329038Y269788D01*
X330971Y268497D01*
X333250Y268044D01*
X335530Y268497D01*
X337462Y269788D01*
X338753Y271721D01*
X339207Y274000D01*
X338753Y276280D01*
X337462Y278212D01*
X335530Y279503D01*
X333250Y279956D01*
D02*
G37*
G36*
X625250Y277707D02*
X622971Y277253D01*
X621038Y275962D01*
X619747Y274029D01*
X619294Y271750D01*
X619747Y269471D01*
X621038Y267538D01*
X622971Y266247D01*
X625250Y265794D01*
X627529Y266247D01*
X629462Y267538D01*
X630753Y269471D01*
X631207Y271750D01*
X630753Y274029D01*
X629462Y275962D01*
X627529Y277253D01*
X625250Y277707D01*
D02*
G37*
G36*
X765291Y277165D02*
X763012Y276712D01*
X761079Y275421D01*
X759788Y273488D01*
X759335Y271209D01*
X759788Y268930D01*
X761079Y266997D01*
X763012Y265706D01*
X765291Y265252D01*
X767571Y265706D01*
X769503Y266997D01*
X770794Y268930D01*
X771248Y271209D01*
X770794Y273488D01*
X769503Y275421D01*
X767571Y276712D01*
X765291Y277165D01*
D02*
G37*
G36*
X553362Y276956D02*
X551082Y276503D01*
X549150Y275212D01*
X547859Y273279D01*
X547405Y271000D01*
X547859Y268720D01*
X549150Y266788D01*
X551082Y265497D01*
X553362Y265044D01*
X555641Y265497D01*
X557574Y266788D01*
X558865Y268720D01*
X559318Y271000D01*
X558865Y273279D01*
X557574Y275212D01*
X555641Y276503D01*
X553362Y276956D01*
D02*
G37*
G36*
X917643Y276804D02*
X915363Y276350D01*
X913431Y275059D01*
X912140Y273127D01*
X911686Y270847D01*
X912140Y268568D01*
X913431Y266635D01*
X915363Y265344D01*
X917643Y264891D01*
X919922Y265344D01*
X921855Y266635D01*
X923146Y268568D01*
X923599Y270847D01*
X923146Y273127D01*
X921855Y275059D01*
X919922Y276350D01*
X917643Y276804D01*
D02*
G37*
G36*
X220000Y274207D02*
X217721Y273753D01*
X215788Y272462D01*
X214497Y270529D01*
X214044Y268250D01*
X214497Y265971D01*
X215788Y264038D01*
X217721Y262747D01*
X220000Y262294D01*
X222279Y262747D01*
X224212Y264038D01*
X225503Y265971D01*
X225956Y268250D01*
X225503Y270529D01*
X224212Y272462D01*
X222279Y273753D01*
X220000Y274207D01*
D02*
G37*
G36*
X410500Y271957D02*
X408220Y271503D01*
X406288Y270212D01*
X404997Y268279D01*
X404543Y266000D01*
X404997Y263721D01*
X406288Y261788D01*
X408220Y260497D01*
X410500Y260044D01*
X412779Y260497D01*
X414712Y261788D01*
X416003Y263721D01*
X416456Y266000D01*
X416003Y268279D01*
X414712Y270212D01*
X412779Y271503D01*
X410500Y271957D01*
D02*
G37*
G36*
X743750Y270956D02*
X741471Y270503D01*
X739538Y269212D01*
X738247Y267279D01*
X737794Y265000D01*
X738247Y262721D01*
X739538Y260788D01*
X741471Y259497D01*
X743750Y259044D01*
X746029Y259497D01*
X747962Y260788D01*
X749253Y262721D01*
X749706Y265000D01*
X749253Y267279D01*
X747962Y269212D01*
X746029Y270503D01*
X743750Y270956D01*
D02*
G37*
G36*
X276250Y269457D02*
X273971Y269003D01*
X272038Y267712D01*
X270747Y265779D01*
X270294Y263500D01*
X270747Y261221D01*
X272038Y259288D01*
X273971Y257997D01*
X276250Y257544D01*
X278529Y257997D01*
X280462Y259288D01*
X281753Y261221D01*
X282206Y263500D01*
X281753Y265779D01*
X280462Y267712D01*
X278529Y269003D01*
X276250Y269457D01*
D02*
G37*
G36*
X520000Y264906D02*
X517721Y264453D01*
X515788Y263161D01*
X514497Y261229D01*
X514044Y258950D01*
X514497Y256670D01*
X515788Y254738D01*
X517721Y253447D01*
X520000Y252993D01*
X522279Y253447D01*
X524212Y254738D01*
X525503Y256670D01*
X525956Y258950D01*
X525503Y261229D01*
X524212Y263161D01*
X522279Y264453D01*
X520000Y264906D01*
D02*
G37*
G36*
X803000Y264906D02*
X800721Y264453D01*
X798788Y263161D01*
X797497Y261229D01*
X797044Y258950D01*
X797497Y256670D01*
X798788Y254738D01*
X800721Y253447D01*
X803000Y252993D01*
X805279Y253447D01*
X807212Y254738D01*
X808503Y256670D01*
X808956Y258950D01*
X808503Y261229D01*
X807212Y263161D01*
X805279Y264453D01*
X803000Y264906D01*
D02*
G37*
G36*
X207077Y263956D02*
X204798Y263503D01*
X202866Y262212D01*
X201574Y260279D01*
X201121Y258000D01*
X201574Y255721D01*
X202866Y253788D01*
X204798Y252497D01*
X207077Y252043D01*
X209357Y252497D01*
X211289Y253788D01*
X212580Y255721D01*
X213034Y258000D01*
X212580Y260279D01*
X211289Y262212D01*
X209357Y263503D01*
X207077Y263956D01*
D02*
G37*
G36*
X601250Y263456D02*
X598971Y263003D01*
X597038Y261712D01*
X595747Y259779D01*
X595294Y257500D01*
X595747Y255221D01*
X597038Y253288D01*
X598971Y251997D01*
X601250Y251544D01*
X603530Y251997D01*
X605462Y253288D01*
X606753Y255221D01*
X607206Y257500D01*
X606753Y259779D01*
X605462Y261712D01*
X603530Y263003D01*
X601250Y263456D01*
D02*
G37*
G36*
X537750Y260707D02*
X535471Y260253D01*
X533538Y258962D01*
X532247Y257029D01*
X531794Y254750D01*
X532247Y252471D01*
X533538Y250538D01*
X535471Y249247D01*
X537750Y248794D01*
X540029Y249247D01*
X541962Y250538D01*
X543253Y252471D01*
X543707Y254750D01*
X543253Y257029D01*
X541962Y258962D01*
X540029Y260253D01*
X537750Y260707D01*
D02*
G37*
G36*
X872750Y269706D02*
X870471Y269253D01*
X868538Y267962D01*
X867247Y266029D01*
X866794Y263750D01*
X867247Y261471D01*
X868273Y259935D01*
X868156Y258785D01*
X867843Y258170D01*
X866179Y257058D01*
X864887Y255126D01*
X864434Y252846D01*
X864887Y250567D01*
X866179Y248634D01*
X866779Y248233D01*
Y246709D01*
X866179Y246308D01*
X865385Y245120D01*
X864134Y244626D01*
X863502Y244836D01*
X862002Y245838D01*
X859723Y246292D01*
X857443Y245838D01*
X855511Y244547D01*
X854220Y242615D01*
X853766Y240335D01*
X854220Y238056D01*
X855511Y236123D01*
X857443Y234832D01*
X859723Y234379D01*
X862002Y234832D01*
X863934Y236123D01*
X864728Y237311D01*
X865979Y237805D01*
X866611Y237595D01*
X868111Y236593D01*
X870390Y236139D01*
X872670Y236593D01*
X874602Y237884D01*
X875893Y239816D01*
X876347Y242096D01*
X875893Y244375D01*
X874602Y246308D01*
X874002Y246709D01*
Y248233D01*
X874602Y248634D01*
X875893Y250567D01*
X876347Y252846D01*
X875893Y255126D01*
X874868Y256661D01*
X874985Y257811D01*
X875298Y258426D01*
X876962Y259538D01*
X878253Y261471D01*
X878706Y263750D01*
X878253Y266029D01*
X876962Y267962D01*
X875029Y269253D01*
X872750Y269706D01*
D02*
G37*
G36*
X221000Y256457D02*
X218721Y256003D01*
X216788Y254712D01*
X215497Y252780D01*
X215044Y250500D01*
X215497Y248221D01*
X216788Y246288D01*
X218721Y244997D01*
X221000Y244544D01*
X223279Y244997D01*
X225212Y246288D01*
X226503Y248221D01*
X226957Y250500D01*
X226503Y252780D01*
X225212Y254712D01*
X223279Y256003D01*
X221000Y256457D01*
D02*
G37*
G36*
X456744Y254706D02*
X454464Y254253D01*
X452532Y252962D01*
X451241Y251029D01*
X450787Y248750D01*
X451241Y246471D01*
X452532Y244538D01*
X454464Y243247D01*
X456744Y242794D01*
X459023Y243247D01*
X460956Y244538D01*
X462247Y246471D01*
X462700Y248750D01*
X462247Y251029D01*
X460956Y252962D01*
X459023Y254253D01*
X456744Y254706D01*
D02*
G37*
G36*
X392250D02*
X389971Y254253D01*
X388038Y252962D01*
X386747Y251029D01*
X386294Y248750D01*
X386747Y246471D01*
X388038Y244538D01*
X389971Y243247D01*
X392250Y242794D01*
X394529Y243247D01*
X396462Y244538D01*
X397753Y246471D01*
X398206Y248750D01*
X397753Y251029D01*
X396462Y252962D01*
X394529Y254253D01*
X392250Y254706D01*
D02*
G37*
G36*
X725750Y252957D02*
X723471Y252503D01*
X721538Y251212D01*
X720247Y249279D01*
X719794Y247000D01*
X720247Y244721D01*
X721538Y242788D01*
X723471Y241497D01*
X725750Y241044D01*
X728029Y241497D01*
X729962Y242788D01*
X731253Y244721D01*
X731706Y247000D01*
X731253Y249279D01*
X729962Y251212D01*
X728029Y252503D01*
X725750Y252957D01*
D02*
G37*
G36*
X315000Y251956D02*
X312721Y251503D01*
X310788Y250212D01*
X309497Y248279D01*
X309044Y246000D01*
X309497Y243720D01*
X310788Y241788D01*
X312721Y240497D01*
X315000Y240044D01*
X317279Y240497D01*
X319212Y241788D01*
X320503Y243720D01*
X320956Y246000D01*
X320503Y248279D01*
X319212Y250212D01*
X317279Y251503D01*
X315000Y251956D01*
D02*
G37*
G36*
X783250Y250956D02*
X780971Y250503D01*
X779038Y249212D01*
X777747Y247279D01*
X777293Y245000D01*
X777747Y242721D01*
X779038Y240788D01*
X780971Y239497D01*
X783250Y239044D01*
X785529Y239497D01*
X787462Y240788D01*
X788753Y242721D01*
X789206Y245000D01*
X788753Y247279D01*
X787462Y249212D01*
X785529Y250503D01*
X783250Y250956D01*
D02*
G37*
G36*
X519250Y249706D02*
X516971Y249253D01*
X515038Y247962D01*
X513747Y246029D01*
X513294Y243750D01*
X513747Y241471D01*
X515038Y239538D01*
X516971Y238247D01*
X519250Y237794D01*
X521530Y238247D01*
X523462Y239538D01*
X524753Y241471D01*
X525206Y243750D01*
X524753Y246029D01*
X523462Y247962D01*
X521530Y249253D01*
X519250Y249706D01*
D02*
G37*
G36*
X802950Y249456D02*
X800670Y249003D01*
X798738Y247712D01*
X797446Y245779D01*
X796993Y243500D01*
X797446Y241220D01*
X798738Y239288D01*
X800670Y237997D01*
X802950Y237544D01*
X805229Y237997D01*
X807161Y239288D01*
X808453Y241220D01*
X808906Y243500D01*
X808453Y245779D01*
X807161Y247712D01*
X805229Y249003D01*
X802950Y249456D01*
D02*
G37*
G36*
X583500Y245514D02*
X581221Y245061D01*
X579288Y243769D01*
X577997Y241837D01*
X577543Y239558D01*
X577997Y237278D01*
X579288Y235346D01*
X581221Y234055D01*
X583500Y233601D01*
X585779Y234055D01*
X587712Y235346D01*
X589003Y237278D01*
X589456Y239558D01*
X589003Y241837D01*
X587712Y243769D01*
X585779Y245061D01*
X583500Y245514D01*
D02*
G37*
G36*
X220250Y240207D02*
X217971Y239753D01*
X216038Y238462D01*
X214747Y236529D01*
X214294Y234250D01*
X214747Y231971D01*
X216038Y230038D01*
X217971Y228747D01*
X220250Y228293D01*
X222530Y228747D01*
X224462Y230038D01*
X225753Y231971D01*
X226206Y234250D01*
X225753Y236529D01*
X224462Y238462D01*
X222530Y239753D01*
X220250Y240207D01*
D02*
G37*
G36*
X246500Y239956D02*
X244221Y239503D01*
X242288Y238212D01*
X240997Y236279D01*
X240544Y234000D01*
X240997Y231721D01*
X242288Y229788D01*
X244221Y228497D01*
X246500Y228043D01*
X248780Y228497D01*
X250712Y229788D01*
X252003Y231721D01*
X252456Y234000D01*
X252003Y236279D01*
X250712Y238212D01*
X248780Y239503D01*
X246500Y239956D01*
D02*
G37*
G36*
X695250Y238706D02*
X692971Y238253D01*
X691038Y236962D01*
X689747Y235030D01*
X689294Y232750D01*
X689747Y230471D01*
X691038Y228538D01*
X692971Y227247D01*
X695250Y226794D01*
X697529Y227247D01*
X699462Y228538D01*
X700753Y230471D01*
X701206Y232750D01*
X700753Y235030D01*
X699462Y236962D01*
X697529Y238253D01*
X695250Y238706D01*
D02*
G37*
G36*
X553375Y238052D02*
X551096Y237598D01*
X549163Y236307D01*
X547872Y234375D01*
X547419Y232095D01*
X547872Y229816D01*
X549163Y227883D01*
X551096Y226592D01*
X553375Y226139D01*
X555654Y226592D01*
X557587Y227883D01*
X558878Y229816D01*
X559332Y232095D01*
X558878Y234375D01*
X557587Y236307D01*
X555654Y237598D01*
X553375Y238052D01*
D02*
G37*
G36*
X765385Y233552D02*
X763106Y233098D01*
X761173Y231807D01*
X759882Y229875D01*
X759429Y227595D01*
X759882Y225316D01*
X761173Y223383D01*
X763106Y222092D01*
X765385Y221639D01*
X767665Y222092D01*
X769597Y223383D01*
X770888Y225316D01*
X771342Y227595D01*
X770888Y229875D01*
X769597Y231807D01*
X767665Y233098D01*
X765385Y233552D01*
D02*
G37*
G36*
X516500Y231706D02*
X514221Y231253D01*
X512288Y229962D01*
X510997Y228029D01*
X510544Y225750D01*
X510997Y223470D01*
X512288Y221538D01*
X514221Y220247D01*
X516500Y219793D01*
X518779Y220247D01*
X520712Y221538D01*
X522003Y223470D01*
X522457Y225750D01*
X522003Y228029D01*
X520712Y229962D01*
X518779Y231253D01*
X516500Y231706D01*
D02*
G37*
G36*
X271750Y229457D02*
X269471Y229003D01*
X267538Y227712D01*
X266247Y225779D01*
X265794Y223500D01*
X266247Y221221D01*
X267538Y219288D01*
X269471Y217997D01*
X271750Y217544D01*
X274029Y217997D01*
X275962Y219288D01*
X277253Y221221D01*
X277707Y223500D01*
X277253Y225779D01*
X275962Y227712D01*
X274029Y229003D01*
X271750Y229457D01*
D02*
G37*
G36*
X292250Y229207D02*
X289971Y228753D01*
X288038Y227462D01*
X286747Y225529D01*
X286294Y223250D01*
X286747Y220971D01*
X288038Y219038D01*
X289971Y217747D01*
X292250Y217293D01*
X294529Y217747D01*
X296462Y219038D01*
X297753Y220971D01*
X298207Y223250D01*
X297753Y225529D01*
X296462Y227462D01*
X294529Y228753D01*
X292250Y229207D01*
D02*
G37*
G36*
X564500Y227382D02*
X562221Y226928D01*
X560288Y225637D01*
X558997Y223705D01*
X558544Y221425D01*
X558997Y219146D01*
X560288Y217213D01*
X562221Y215922D01*
X564500Y215469D01*
X566780Y215922D01*
X568712Y217213D01*
X570003Y219146D01*
X570457Y221425D01*
X570003Y223705D01*
X568712Y225637D01*
X566780Y226928D01*
X564500Y227382D01*
D02*
G37*
G36*
X904392Y256803D02*
X902113Y256349D01*
X900180Y255058D01*
X898889Y253126D01*
X898436Y250846D01*
X898889Y248567D01*
X900180Y246634D01*
X902113Y245343D01*
X903886Y244991D01*
X904738Y243523D01*
X904639Y243375D01*
X904186Y241096D01*
X904639Y238816D01*
X905931Y236884D01*
X907863Y235593D01*
X909219Y235323D01*
X909943Y233664D01*
X909798Y233447D01*
X909345Y231168D01*
X909798Y228888D01*
X911089Y226956D01*
X911747Y226517D01*
X911788Y224712D01*
X910497Y222779D01*
X910043Y220500D01*
X910497Y218221D01*
X911788Y216288D01*
X913720Y214997D01*
X916000Y214543D01*
X918279Y214997D01*
X920212Y216288D01*
X921503Y218221D01*
X921956Y220500D01*
X921503Y222779D01*
X920212Y224712D01*
X919555Y225151D01*
X919513Y226956D01*
X920804Y228888D01*
X921258Y231168D01*
X920804Y233447D01*
X919513Y235380D01*
X917581Y236671D01*
X916225Y236941D01*
X915501Y238600D01*
X915646Y238816D01*
X916099Y241096D01*
X915646Y243375D01*
X914354Y245308D01*
X912422Y246599D01*
X910649Y246952D01*
X909796Y248419D01*
X909895Y248567D01*
X910349Y250846D01*
X909895Y253126D01*
X908604Y255058D01*
X906672Y256349D01*
X904392Y256803D01*
D02*
G37*
G36*
X717250Y217456D02*
X714971Y217003D01*
X713038Y215712D01*
X711747Y213780D01*
X711293Y211500D01*
X711747Y209221D01*
X713038Y207288D01*
X714971Y205997D01*
X717250Y205544D01*
X719529Y205997D01*
X721462Y207288D01*
X722753Y209221D01*
X723206Y211500D01*
X722753Y213780D01*
X721462Y215712D01*
X719529Y217003D01*
X717250Y217456D01*
D02*
G37*
G36*
X291500Y211456D02*
X289221Y211003D01*
X287288Y209712D01*
X285997Y207779D01*
X285543Y205500D01*
X285997Y203221D01*
X287288Y201288D01*
X289221Y199997D01*
X291500Y199543D01*
X293779Y199997D01*
X295712Y201288D01*
X297003Y203221D01*
X297456Y205500D01*
X297003Y207779D01*
X295712Y209712D01*
X293779Y211003D01*
X291500Y211456D01*
D02*
G37*
G36*
X610750Y205706D02*
X608471Y205253D01*
X606538Y203962D01*
X605247Y202029D01*
X604794Y199750D01*
X605247Y197470D01*
X606538Y195538D01*
X608471Y194247D01*
X610750Y193794D01*
X613030Y194247D01*
X614962Y195538D01*
X616253Y197470D01*
X616707Y199750D01*
X616253Y202029D01*
X614962Y203962D01*
X613030Y205253D01*
X610750Y205706D01*
D02*
G37*
G36*
X340750Y204206D02*
X338470Y203753D01*
X336538Y202462D01*
X335247Y200529D01*
X334794Y198250D01*
X335247Y195971D01*
X336538Y194038D01*
X338470Y192747D01*
X340750Y192293D01*
X343029Y192747D01*
X344962Y194038D01*
X346253Y195971D01*
X346706Y198250D01*
X346253Y200529D01*
X344962Y202462D01*
X343029Y203753D01*
X340750Y204206D01*
D02*
G37*
G36*
X666250Y197456D02*
X663971Y197003D01*
X662038Y195712D01*
X660747Y193779D01*
X660294Y191500D01*
X660747Y189221D01*
X662038Y187288D01*
X663971Y185997D01*
X666250Y185543D01*
X668529Y185997D01*
X670462Y187288D01*
X671753Y189221D01*
X672206Y191500D01*
X671753Y193779D01*
X670462Y195712D01*
X668529Y197003D01*
X666250Y197456D01*
D02*
G37*
G36*
X589000Y202384D02*
X586721Y201931D01*
X584788Y200640D01*
X583497Y198707D01*
X583044Y196428D01*
X583497Y194148D01*
X584788Y192216D01*
X586721Y190925D01*
X589000Y190471D01*
X590933Y190856D01*
X591497Y190756D01*
X592551Y189941D01*
X592874Y188314D01*
X594165Y186381D01*
X596098Y185090D01*
X598377Y184637D01*
X600657Y185090D01*
X602589Y186381D01*
X603880Y188314D01*
X604334Y190593D01*
X603880Y192873D01*
X602589Y194805D01*
X600657Y196096D01*
X598377Y196550D01*
X596444Y196165D01*
X595880Y196265D01*
X594827Y197080D01*
X594503Y198707D01*
X593212Y200640D01*
X591279Y201931D01*
X589000Y202384D01*
D02*
G37*
G36*
X910892Y206550D02*
X908613Y206097D01*
X906681Y204806D01*
X905389Y202873D01*
X904936Y200594D01*
X905389Y198314D01*
X906681Y196382D01*
X908613Y195091D01*
X910242Y194767D01*
X911001Y193327D01*
X911013Y193178D01*
X910747Y192779D01*
X910294Y190500D01*
X910747Y188221D01*
X912038Y186288D01*
X913971Y184997D01*
X916250Y184543D01*
X918530Y184997D01*
X920462Y186288D01*
X921753Y188221D01*
X922206Y190500D01*
X921753Y192779D01*
X920462Y194712D01*
X918530Y196003D01*
X916901Y196327D01*
X916142Y197767D01*
X916129Y197916D01*
X916395Y198314D01*
X916849Y200594D01*
X916395Y202873D01*
X915104Y204806D01*
X913172Y206097D01*
X910892Y206550D01*
D02*
G37*
G36*
X123500Y187956D02*
X121221Y187503D01*
X119288Y186212D01*
X117997Y184279D01*
X117544Y182000D01*
X117997Y179720D01*
X119288Y177788D01*
X121221Y176497D01*
X123500Y176043D01*
X125779Y176497D01*
X127712Y177788D01*
X129003Y179720D01*
X129457Y182000D01*
X129003Y184279D01*
X127712Y186212D01*
X125779Y187503D01*
X123500Y187956D01*
D02*
G37*
G36*
X322250Y186707D02*
X319971Y186253D01*
X318038Y184962D01*
X316747Y183029D01*
X316294Y180750D01*
X316747Y178471D01*
X318038Y176538D01*
X319971Y175247D01*
X322250Y174794D01*
X324529Y175247D01*
X326462Y176538D01*
X327753Y178471D01*
X328206Y180750D01*
X327753Y183029D01*
X326462Y184962D01*
X324529Y186253D01*
X322250Y186707D01*
D02*
G37*
G36*
X913000Y182706D02*
X910721Y182253D01*
X908788Y180962D01*
X907497Y179029D01*
X907044Y176750D01*
X907497Y174471D01*
X908788Y172538D01*
X910721Y171247D01*
X913000Y170793D01*
X915279Y171247D01*
X917212Y172538D01*
X918503Y174471D01*
X918957Y176750D01*
X918503Y179029D01*
X917212Y180962D01*
X915279Y182253D01*
X913000Y182706D01*
D02*
G37*
G36*
X565000Y182456D02*
X562721Y182003D01*
X560788Y180712D01*
X559497Y178779D01*
X559044Y176500D01*
X559497Y174221D01*
X560788Y172288D01*
X562721Y170997D01*
X565000Y170544D01*
X567280Y170997D01*
X569212Y172288D01*
X570503Y174221D01*
X570956Y176500D01*
X570503Y178779D01*
X569212Y180712D01*
X567280Y182003D01*
X565000Y182456D01*
D02*
G37*
G36*
X613500Y177387D02*
X611221Y176933D01*
X609288Y175642D01*
X607997Y173710D01*
X607543Y171430D01*
X607997Y169151D01*
X609288Y167218D01*
X611221Y165927D01*
X613500Y165474D01*
X615779Y165927D01*
X617712Y167218D01*
X619003Y169151D01*
X619456Y171430D01*
X619003Y173710D01*
X617712Y175642D01*
X615779Y176933D01*
X613500Y177387D01*
D02*
G37*
G36*
X945500Y177206D02*
X943221Y176753D01*
X941288Y175462D01*
X939997Y173529D01*
X939544Y171250D01*
X939997Y168971D01*
X941288Y167038D01*
X943221Y165747D01*
X945500Y165294D01*
X947779Y165747D01*
X949712Y167038D01*
X951003Y168971D01*
X951457Y171250D01*
X951003Y173529D01*
X949712Y175462D01*
X947779Y176753D01*
X945500Y177206D01*
D02*
G37*
G36*
X378750Y177137D02*
X376470Y176683D01*
X374538Y175392D01*
X373247Y173460D01*
X372794Y171180D01*
X373247Y168901D01*
X374538Y166968D01*
X376470Y165677D01*
X378750Y165224D01*
X381029Y165677D01*
X382962Y166968D01*
X384253Y168901D01*
X384706Y171180D01*
X384253Y173460D01*
X382962Y175392D01*
X381029Y176683D01*
X378750Y177137D01*
D02*
G37*
G36*
X861500Y206957D02*
X859221Y206503D01*
X857288Y205212D01*
X855997Y203279D01*
X855544Y201000D01*
X855997Y198721D01*
X857288Y196788D01*
X859221Y195497D01*
X859715Y195399D01*
X859789Y195315D01*
X860294Y193730D01*
X859387Y192373D01*
X858934Y190093D01*
X859387Y187814D01*
X860678Y185881D01*
X862611Y184590D01*
X864890Y184137D01*
X865814Y182767D01*
X865595Y181668D01*
X866049Y179388D01*
X867340Y177456D01*
X868935Y176390D01*
X869299Y175737D01*
X869370Y174592D01*
X868388Y173122D01*
X867934Y170842D01*
X868388Y168563D01*
X869679Y166630D01*
X871611Y165339D01*
X873891Y164886D01*
X876170Y165339D01*
X878102Y166630D01*
X879394Y168563D01*
X879847Y170842D01*
X879394Y173122D01*
X878102Y175054D01*
X876507Y176120D01*
X876144Y176773D01*
X876072Y177919D01*
X877055Y179388D01*
X877508Y181668D01*
X877055Y183947D01*
X875763Y185880D01*
X873831Y187171D01*
X871552Y187624D01*
X870628Y188995D01*
X870847Y190093D01*
X870393Y192373D01*
X869102Y194305D01*
X867170Y195596D01*
X866675Y195695D01*
X866601Y195778D01*
X866096Y197364D01*
X867003Y198721D01*
X867457Y201000D01*
X867003Y203279D01*
X865712Y205212D01*
X863780Y206503D01*
X861500Y206957D01*
D02*
G37*
G36*
X712501Y181457D02*
X710222Y181003D01*
X708289Y179712D01*
X706998Y177780D01*
X706545Y175500D01*
X706817Y174132D01*
X706250Y173566D01*
X703971Y173112D01*
X702038Y171821D01*
X700747Y169889D01*
X700294Y167609D01*
X700747Y165330D01*
X702038Y163397D01*
X703971Y162106D01*
X706250Y161653D01*
X708529Y162106D01*
X710462Y163397D01*
X711753Y165330D01*
X712206Y167609D01*
X711934Y168977D01*
X712501Y169544D01*
X714781Y169997D01*
X716713Y171288D01*
X718004Y173221D01*
X718458Y175500D01*
X718004Y177780D01*
X716713Y179712D01*
X714781Y181003D01*
X712501Y181457D01*
D02*
G37*
G36*
X37750Y215616D02*
X33508Y215282D01*
X29371Y214288D01*
X25440Y212660D01*
X21812Y210437D01*
X18576Y207674D01*
X15813Y204438D01*
X13590Y200810D01*
X11961Y196879D01*
X10968Y192742D01*
X10634Y188500D01*
X10968Y184258D01*
X11961Y180121D01*
X13590Y176190D01*
X15813Y172562D01*
X18576Y169326D01*
X21812Y166563D01*
X25440Y164340D01*
X29371Y162712D01*
X33508Y161718D01*
X37750Y161384D01*
X41992Y161718D01*
X46129Y162712D01*
X50060Y164340D01*
X53688Y166563D01*
X56924Y169326D01*
X59687Y172562D01*
X61910Y176190D01*
X63538Y180121D01*
X64532Y184258D01*
X64866Y188500D01*
X64532Y192742D01*
X63538Y196879D01*
X61910Y200810D01*
X59687Y204438D01*
X56924Y207674D01*
X53688Y210437D01*
X50060Y212660D01*
X46129Y214288D01*
X41992Y215282D01*
X37750Y215616D01*
D02*
G37*
G36*
X647630Y182299D02*
X645350Y181846D01*
X643418Y180555D01*
X642127Y178622D01*
X641673Y176343D01*
X642127Y174063D01*
X643324Y172271D01*
X643412Y172096D01*
X643162Y170469D01*
X642029Y169712D01*
X640738Y167779D01*
X640285Y165500D01*
X640738Y163221D01*
X642029Y161288D01*
X643962Y159997D01*
X646241Y159544D01*
X648521Y159997D01*
X650453Y161288D01*
X651744Y163221D01*
X652198Y165500D01*
X651744Y167779D01*
X650546Y169572D01*
X650459Y169747D01*
X650709Y171374D01*
X651842Y172131D01*
X653133Y174063D01*
X653586Y176343D01*
X653133Y178622D01*
X651842Y180555D01*
X649909Y181846D01*
X647630Y182299D01*
D02*
G37*
G36*
X573250Y168957D02*
X570971Y168503D01*
X569038Y167212D01*
X567747Y165280D01*
X567294Y163000D01*
X567747Y160721D01*
X569038Y158788D01*
X570971Y157497D01*
X573250Y157044D01*
X575530Y157497D01*
X577462Y158788D01*
X578753Y160721D01*
X579207Y163000D01*
X578753Y165280D01*
X577462Y167212D01*
X575530Y168503D01*
X573250Y168957D01*
D02*
G37*
G36*
X543500Y163456D02*
X541221Y163003D01*
X539288Y161712D01*
X537997Y159779D01*
X537544Y157500D01*
X537997Y155220D01*
X539288Y153288D01*
X541221Y151997D01*
X543500Y151544D01*
X545779Y151997D01*
X547712Y153288D01*
X549003Y155220D01*
X549456Y157500D01*
X549003Y159779D01*
X547712Y161712D01*
X545779Y163003D01*
X543500Y163456D01*
D02*
G37*
G36*
X250000Y162206D02*
X247721Y161753D01*
X245788Y160462D01*
X244497Y158530D01*
X244044Y156250D01*
X244497Y153971D01*
X245788Y152038D01*
X247721Y150747D01*
X250000Y150294D01*
X252279Y150747D01*
X254212Y152038D01*
X255503Y153971D01*
X255956Y156250D01*
X255503Y158530D01*
X254212Y160462D01*
X252279Y161753D01*
X250000Y162206D01*
D02*
G37*
G36*
X872250Y156957D02*
X869970Y156503D01*
X868038Y155212D01*
X866747Y153279D01*
X866293Y151000D01*
X866747Y148721D01*
X868038Y146788D01*
X869970Y145497D01*
X872250Y145044D01*
X874529Y145497D01*
X876462Y146788D01*
X877753Y148721D01*
X878206Y151000D01*
X877753Y153279D01*
X876462Y155212D01*
X874529Y156503D01*
X872250Y156957D01*
D02*
G37*
G36*
X659000D02*
X656721Y156503D01*
X654788Y155212D01*
X653497Y153279D01*
X653044Y151000D01*
X653497Y148721D01*
X654788Y146788D01*
X656721Y145497D01*
X659000Y145044D01*
X661279Y145497D01*
X663212Y146788D01*
X664503Y148721D01*
X664957Y151000D01*
X664503Y153279D01*
X663212Y155212D01*
X661279Y156503D01*
X659000Y156957D01*
D02*
G37*
G36*
X639129Y152048D02*
X636850Y151594D01*
X634917Y150303D01*
X633626Y148371D01*
X633173Y146091D01*
X633626Y143812D01*
X634917Y141879D01*
X636850Y140588D01*
X639129Y140135D01*
X641409Y140588D01*
X643341Y141879D01*
X644632Y143812D01*
X645086Y146091D01*
X644632Y148371D01*
X643341Y150303D01*
X641409Y151594D01*
X639129Y152048D01*
D02*
G37*
G36*
X349750Y149956D02*
X347471Y149503D01*
X345538Y148212D01*
X344247Y146279D01*
X343794Y144000D01*
X344247Y141721D01*
X345538Y139788D01*
X347471Y138497D01*
X349750Y138043D01*
X352029Y138497D01*
X353962Y139788D01*
X355253Y141721D01*
X355706Y144000D01*
X355253Y146279D01*
X353962Y148212D01*
X352029Y149503D01*
X349750Y149956D01*
D02*
G37*
G36*
X301863Y158048D02*
X299583Y157594D01*
X297651Y156303D01*
X296360Y154371D01*
X295906Y152091D01*
X296360Y149812D01*
X297651Y147880D01*
X299583Y146588D01*
X301863Y146135D01*
X304142Y146588D01*
X306008Y147835D01*
X306298Y147759D01*
X307422Y147153D01*
X307044Y145250D01*
X307497Y142971D01*
X308788Y141038D01*
X310721Y139747D01*
X313000Y139293D01*
X315131Y139717D01*
X315759Y139339D01*
X316487Y138721D01*
X316294Y137750D01*
X316747Y135471D01*
X318038Y133538D01*
X319971Y132247D01*
X322250Y131793D01*
X324529Y132247D01*
X326462Y133538D01*
X327753Y135471D01*
X328206Y137750D01*
X327753Y140029D01*
X326462Y141962D01*
X324529Y143253D01*
X322250Y143706D01*
X320119Y143282D01*
X319491Y143661D01*
X318763Y144279D01*
X318957Y145250D01*
X318503Y147529D01*
X317212Y149462D01*
X315280Y150753D01*
X313000Y151207D01*
X310721Y150753D01*
X308855Y149507D01*
X308565Y149582D01*
X307441Y150188D01*
X307819Y152091D01*
X307366Y154371D01*
X306075Y156303D01*
X304142Y157594D01*
X301863Y158048D01*
D02*
G37*
G36*
X910520Y130640D02*
X910317Y130627D01*
X910250Y130636D01*
X910183Y130627D01*
X909980Y130640D01*
X907369Y130297D01*
X907176Y130231D01*
X907109Y130222D01*
X907047Y130196D01*
X906847Y130157D01*
X904414Y129149D01*
X904244Y129036D01*
X904182Y129010D01*
X904128Y128969D01*
X903946Y128879D01*
X901857Y127276D01*
X901722Y127122D01*
X901669Y127081D01*
X901628Y127028D01*
X901474Y126893D01*
X899871Y124804D01*
X899781Y124621D01*
X899740Y124568D01*
X899714Y124506D01*
X899601Y124336D01*
X898593Y121903D01*
X898553Y121703D01*
X898528Y121641D01*
X898519Y121574D01*
X898453Y121381D01*
X898110Y118770D01*
X898119Y118634D01*
X898092Y118500D01*
X898119Y118366D01*
X898110Y118230D01*
X898453Y115619D01*
X898519Y115426D01*
X898528Y115359D01*
X898553Y115296D01*
X898593Y115097D01*
X899601Y112664D01*
X899714Y112494D01*
X899740Y112432D01*
X899781Y112379D01*
X899871Y112196D01*
X901474Y110107D01*
X901628Y109972D01*
X901669Y109919D01*
X901722Y109878D01*
X901857Y109724D01*
X903946Y108121D01*
X904128Y108031D01*
X904182Y107990D01*
X904244Y107964D01*
X904414Y107851D01*
X906847Y106843D01*
X907047Y106804D01*
X907109Y106778D01*
X907176Y106769D01*
X907369Y106703D01*
X909980Y106360D01*
X910183Y106373D01*
X910250Y106364D01*
X910317Y106373D01*
X910520Y106360D01*
X913131Y106703D01*
X913324Y106769D01*
X913391Y106778D01*
X913453Y106804D01*
X913653Y106843D01*
X916086Y107851D01*
X916255Y107964D01*
X916318Y107990D01*
X916371Y108031D01*
X916554Y108121D01*
X918643Y109724D01*
X918778Y109878D01*
X918831Y109919D01*
X918872Y109972D01*
X919026Y110107D01*
X920629Y112196D01*
X920719Y112378D01*
X920760Y112432D01*
X920786Y112494D01*
X920899Y112664D01*
X921907Y115097D01*
X921946Y115296D01*
X921972Y115359D01*
X921981Y115426D01*
X922047Y115619D01*
X922390Y118230D01*
X922381Y118366D01*
X922408Y118500D01*
X922381Y118634D01*
X922390Y118770D01*
X922047Y121381D01*
X921981Y121574D01*
X921972Y121641D01*
X921946Y121703D01*
X921907Y121903D01*
X920899Y124336D01*
X920786Y124506D01*
X920760Y124568D01*
X920719Y124621D01*
X920629Y124804D01*
X919026Y126893D01*
X918872Y127028D01*
X918831Y127081D01*
X918778Y127122D01*
X918643Y127276D01*
X916554Y128879D01*
X916372Y128969D01*
X916318Y129010D01*
X916255Y129036D01*
X916086Y129149D01*
X913653Y130157D01*
X913453Y130196D01*
X913391Y130222D01*
X913324Y130231D01*
X913131Y130297D01*
X910520Y130640D01*
D02*
G37*
G36*
X673720Y142457D02*
X671440Y142003D01*
X669508Y140712D01*
X668216Y138779D01*
X667763Y136500D01*
X668216Y134221D01*
X669508Y132288D01*
X671440Y130997D01*
X673720Y130544D01*
X675999Y130997D01*
X677931Y132288D01*
X679223Y134221D01*
X679676Y136500D01*
X679223Y138779D01*
X677931Y140712D01*
X675999Y142003D01*
X673720Y142457D01*
D02*
G37*
G36*
X651442Y137547D02*
X649163Y137093D01*
X647230Y135802D01*
X645939Y133870D01*
X645486Y131590D01*
X645939Y129311D01*
X647230Y127379D01*
X649163Y126087D01*
X651442Y125634D01*
X653721Y126087D01*
X655654Y127379D01*
X656945Y129311D01*
X657398Y131590D01*
X656945Y133870D01*
X655654Y135802D01*
X653721Y137093D01*
X651442Y137547D01*
D02*
G37*
G36*
X653750Y115757D02*
X651471Y115304D01*
X649538Y114012D01*
X648247Y112080D01*
X647794Y109801D01*
X648247Y107521D01*
X649538Y105589D01*
X651471Y104298D01*
X653750Y103844D01*
X656029Y104298D01*
X657962Y105589D01*
X659253Y107521D01*
X659706Y109801D01*
X659253Y112080D01*
X657962Y114012D01*
X656029Y115304D01*
X653750Y115757D01*
D02*
G37*
G36*
X669000Y115507D02*
X666721Y115054D01*
X664788Y113762D01*
X663497Y111830D01*
X663044Y109551D01*
X663497Y107271D01*
X664788Y105339D01*
X666721Y104047D01*
X669000Y103594D01*
X671280Y104047D01*
X673212Y105339D01*
X674503Y107271D01*
X674957Y109551D01*
X674503Y111830D01*
X673212Y113762D01*
X671280Y115054D01*
X669000Y115507D01*
D02*
G37*
G36*
X635000Y114034D02*
X632721Y113581D01*
X630788Y112289D01*
X629497Y110357D01*
X629044Y108077D01*
X629497Y105798D01*
X630788Y103866D01*
X632721Y102574D01*
X635000Y102121D01*
X637279Y102574D01*
X639212Y103866D01*
X640503Y105798D01*
X640956Y108077D01*
X640503Y110357D01*
X639212Y112289D01*
X637279Y113581D01*
X635000Y114034D01*
D02*
G37*
G36*
X78000Y108456D02*
X75721Y108003D01*
X73788Y106712D01*
X72497Y104779D01*
X72044Y102500D01*
X72497Y100220D01*
X73788Y98288D01*
X75721Y96997D01*
X78000Y96544D01*
X80280Y96997D01*
X82212Y98288D01*
X83503Y100220D01*
X83956Y102500D01*
X83503Y104779D01*
X82212Y106712D01*
X80280Y108003D01*
X78000Y108456D01*
D02*
G37*
G36*
X808250Y96706D02*
X805971Y96253D01*
X804038Y94962D01*
X802747Y93029D01*
X802293Y90750D01*
X802747Y88471D01*
X804038Y86538D01*
X805971Y85247D01*
X808250Y84794D01*
X810529Y85247D01*
X812462Y86538D01*
X813753Y88471D01*
X814206Y90750D01*
X813753Y93029D01*
X812462Y94962D01*
X810529Y96253D01*
X808250Y96706D01*
D02*
G37*
G36*
X944250Y93822D02*
X929250D01*
X928457Y93664D01*
X927785Y93215D01*
X927336Y92543D01*
X927178Y91750D01*
Y76750D01*
X927336Y75957D01*
X927785Y75285D01*
X928457Y74836D01*
X929250Y74678D01*
X944250D01*
X945043Y74836D01*
X945715Y75285D01*
X946164Y75957D01*
X946322Y76750D01*
Y91750D01*
X946164Y92543D01*
X945715Y93215D01*
X945043Y93664D01*
X944250Y93822D01*
D02*
G37*
G36*
X621929Y78706D02*
X619650Y78253D01*
X617717Y76962D01*
X616426Y75029D01*
X615973Y72750D01*
X616426Y70470D01*
X617717Y68538D01*
X619650Y67247D01*
X621929Y66793D01*
X624208Y67247D01*
X626141Y68538D01*
X627432Y70470D01*
X627885Y72750D01*
X627432Y75029D01*
X626141Y76962D01*
X624208Y78253D01*
X621929Y78706D01*
D02*
G37*
G36*
X146800Y80322D02*
X131300D01*
X130507Y80164D01*
X129835Y79715D01*
X129386Y79043D01*
X129228Y78250D01*
Y62750D01*
X129386Y61957D01*
X129835Y61285D01*
X130507Y60836D01*
X131300Y60678D01*
X146800D01*
X147593Y60836D01*
X148265Y61285D01*
X148714Y61957D01*
X148872Y62750D01*
Y78250D01*
X148714Y79043D01*
X148265Y79715D01*
X147593Y80164D01*
X146800Y80322D01*
D02*
G37*
G36*
X113650Y80366D02*
X111096Y80030D01*
X108717Y79044D01*
X106673Y77477D01*
X105105Y75433D01*
X104120Y73054D01*
X103784Y70500D01*
X104120Y67946D01*
X105105Y65567D01*
X106673Y63523D01*
X108717Y61955D01*
X111096Y60970D01*
X113650Y60634D01*
X116204Y60970D01*
X118583Y61955D01*
X120627Y63523D01*
X122194Y65567D01*
X123180Y67946D01*
X123516Y70500D01*
X123180Y73054D01*
X122194Y75433D01*
X120627Y77477D01*
X118583Y79044D01*
X116204Y80030D01*
X113650Y80366D01*
D02*
G37*
G36*
X88250D02*
X85696Y80030D01*
X83317Y79044D01*
X81273Y77477D01*
X79705Y75433D01*
X78720Y73054D01*
X78384Y70500D01*
X78720Y67946D01*
X79705Y65567D01*
X81273Y63523D01*
X83317Y61955D01*
X85696Y60970D01*
X88250Y60634D01*
X90804Y60970D01*
X93183Y61955D01*
X95227Y63523D01*
X96795Y65567D01*
X97780Y67946D01*
X98116Y70500D01*
X97780Y73054D01*
X96795Y75433D01*
X95227Y77477D01*
X93183Y79044D01*
X90804Y80030D01*
X88250Y80366D01*
D02*
G37*
G36*
X62850D02*
X60296Y80030D01*
X57917Y79044D01*
X55873Y77477D01*
X54305Y75433D01*
X53320Y73054D01*
X52984Y70500D01*
X53320Y67946D01*
X54305Y65567D01*
X55873Y63523D01*
X57917Y61955D01*
X60296Y60970D01*
X62850Y60634D01*
X65404Y60970D01*
X67783Y61955D01*
X69827Y63523D01*
X71395Y65567D01*
X72380Y67946D01*
X72716Y70500D01*
X72380Y73054D01*
X71395Y75433D01*
X69827Y77477D01*
X67783Y79044D01*
X65404Y80030D01*
X62850Y80366D01*
D02*
G37*
G36*
X37450D02*
X34896Y80030D01*
X32517Y79044D01*
X30473Y77477D01*
X28905Y75433D01*
X27920Y73054D01*
X27584Y70500D01*
X27920Y67946D01*
X28905Y65567D01*
X30473Y63523D01*
X32517Y61955D01*
X34896Y60970D01*
X37450Y60634D01*
X40004Y60970D01*
X42383Y61955D01*
X44427Y63523D01*
X45995Y65567D01*
X46980Y67946D01*
X47316Y70500D01*
X46980Y73054D01*
X45995Y75433D01*
X44427Y77477D01*
X42383Y79044D01*
X40004Y80030D01*
X37450Y80366D01*
D02*
G37*
G36*
X938020Y68809D02*
Y60120D01*
X946709D01*
X946532Y61471D01*
X945520Y63913D01*
X943911Y66011D01*
X941813Y67620D01*
X939371Y68632D01*
X938020Y68809D01*
D02*
G37*
G36*
X935480Y68809D02*
X934129Y68632D01*
X931687Y67620D01*
X929589Y66011D01*
X927980Y63913D01*
X926968Y61471D01*
X926791Y60120D01*
X935480D01*
Y68809D01*
D02*
G37*
G36*
Y57580D02*
X926791D01*
X926968Y56229D01*
X927980Y53787D01*
X929589Y51689D01*
X931687Y50080D01*
X934129Y49068D01*
X935480Y48891D01*
Y57580D01*
D02*
G37*
G36*
X946709D02*
X938020D01*
Y48891D01*
X939371Y49068D01*
X941813Y50080D01*
X943911Y51689D01*
X945520Y53787D01*
X946532Y56229D01*
X946709Y57580D01*
D02*
G37*
G36*
X38720Y55312D02*
Y46370D01*
X47662D01*
X47475Y47786D01*
X46438Y50289D01*
X44789Y52439D01*
X42639Y54088D01*
X40136Y55125D01*
X38720Y55312D01*
D02*
G37*
G36*
X140320D02*
Y46370D01*
X149262D01*
X149075Y47786D01*
X148038Y50289D01*
X146389Y52439D01*
X144239Y54088D01*
X141736Y55125D01*
X140320Y55312D01*
D02*
G37*
G36*
X36180Y55312D02*
X34764Y55125D01*
X32261Y54088D01*
X30111Y52439D01*
X28462Y50289D01*
X27425Y47786D01*
X27238Y46370D01*
X36180D01*
Y55312D01*
D02*
G37*
G36*
X137780D02*
X136364Y55125D01*
X133861Y54088D01*
X131711Y52439D01*
X130062Y50289D01*
X129025Y47786D01*
X128838Y46370D01*
X137780D01*
Y55312D01*
D02*
G37*
G36*
X113650Y54966D02*
X111096Y54630D01*
X108717Y53644D01*
X106673Y52077D01*
X105105Y50033D01*
X104120Y47654D01*
X103784Y45100D01*
X104120Y42546D01*
X105105Y40167D01*
X106673Y38123D01*
X108717Y36555D01*
X111096Y35570D01*
X113650Y35234D01*
X116204Y35570D01*
X118583Y36555D01*
X120627Y38123D01*
X122194Y40167D01*
X123180Y42546D01*
X123516Y45100D01*
X123180Y47654D01*
X122194Y50033D01*
X120627Y52077D01*
X118583Y53644D01*
X116204Y54630D01*
X113650Y54966D01*
D02*
G37*
G36*
X88250D02*
X85696Y54630D01*
X83317Y53644D01*
X81273Y52077D01*
X79705Y50033D01*
X78720Y47654D01*
X78384Y45100D01*
X78720Y42546D01*
X79705Y40167D01*
X81273Y38123D01*
X83317Y36555D01*
X85696Y35570D01*
X88250Y35234D01*
X90804Y35570D01*
X93183Y36555D01*
X95227Y38123D01*
X96795Y40167D01*
X97780Y42546D01*
X98116Y45100D01*
X97780Y47654D01*
X96795Y50033D01*
X95227Y52077D01*
X93183Y53644D01*
X90804Y54630D01*
X88250Y54966D01*
D02*
G37*
G36*
X62850D02*
X60296Y54630D01*
X57917Y53644D01*
X55873Y52077D01*
X54305Y50033D01*
X53320Y47654D01*
X52984Y45100D01*
X53320Y42546D01*
X54305Y40167D01*
X55873Y38123D01*
X57917Y36555D01*
X60296Y35570D01*
X62850Y35234D01*
X65404Y35570D01*
X67783Y36555D01*
X69827Y38123D01*
X71395Y40167D01*
X72380Y42546D01*
X72716Y45100D01*
X72380Y47654D01*
X71395Y50033D01*
X69827Y52077D01*
X67783Y53644D01*
X65404Y54630D01*
X62850Y54966D01*
D02*
G37*
G36*
X137780Y43830D02*
X128838D01*
X129025Y42414D01*
X130062Y39911D01*
X131711Y37761D01*
X133861Y36112D01*
X136364Y35075D01*
X137780Y34888D01*
Y43830D01*
D02*
G37*
G36*
X36180D02*
X27238D01*
X27425Y42414D01*
X28462Y39911D01*
X30111Y37761D01*
X32261Y36112D01*
X34764Y35075D01*
X36180Y34888D01*
Y43830D01*
D02*
G37*
G36*
X149262D02*
X140320D01*
Y34888D01*
X141736Y35075D01*
X144239Y36112D01*
X146389Y37761D01*
X148038Y39911D01*
X149075Y42414D01*
X149262Y43830D01*
D02*
G37*
G36*
X47662D02*
X38720D01*
Y34888D01*
X40136Y35075D01*
X42639Y36112D01*
X44789Y37761D01*
X46438Y39911D01*
X47475Y42414D01*
X47662Y43830D01*
D02*
G37*
G36*
X820350Y34072D02*
X805350D01*
X804557Y33914D01*
X803885Y33465D01*
X803436Y32793D01*
X803278Y32000D01*
Y17000D01*
X803436Y16207D01*
X803885Y15535D01*
X804557Y15086D01*
X805350Y14928D01*
X820350D01*
X821143Y15086D01*
X821815Y15535D01*
X822264Y16207D01*
X822422Y17000D01*
Y32000D01*
X822264Y32793D01*
X821815Y33465D01*
X821143Y33914D01*
X820350Y34072D01*
D02*
G37*
G36*
X914450Y34114D02*
X911962Y33787D01*
X909643Y32826D01*
X907652Y31298D01*
X906124Y29307D01*
X905163Y26988D01*
X904836Y24500D01*
X905163Y22012D01*
X906124Y19693D01*
X907652Y17702D01*
X909643Y16174D01*
X911962Y15213D01*
X914450Y14886D01*
X916938Y15213D01*
X919257Y16174D01*
X921248Y17702D01*
X922776Y19693D01*
X923737Y22012D01*
X924064Y24500D01*
X923737Y26988D01*
X922776Y29307D01*
X921248Y31298D01*
X919257Y32826D01*
X916938Y33787D01*
X914450Y34114D01*
D02*
G37*
G36*
X889050D02*
X886562Y33787D01*
X884243Y32826D01*
X882252Y31298D01*
X880724Y29307D01*
X879763Y26988D01*
X879436Y24500D01*
X879763Y22012D01*
X880724Y19693D01*
X882252Y17702D01*
X884243Y16174D01*
X886562Y15213D01*
X889050Y14886D01*
X891538Y15213D01*
X893857Y16174D01*
X895848Y17702D01*
X897376Y19693D01*
X898337Y22012D01*
X898664Y24500D01*
X898337Y26988D01*
X897376Y29307D01*
X895848Y31298D01*
X893857Y32826D01*
X891538Y33787D01*
X889050Y34114D01*
D02*
G37*
G36*
X863650D02*
X861162Y33787D01*
X858843Y32826D01*
X856852Y31298D01*
X855324Y29307D01*
X854363Y26988D01*
X854036Y24500D01*
X854363Y22012D01*
X855324Y19693D01*
X856852Y17702D01*
X858843Y16174D01*
X861162Y15213D01*
X863650Y14886D01*
X866138Y15213D01*
X868457Y16174D01*
X870448Y17702D01*
X871976Y19693D01*
X872937Y22012D01*
X873264Y24500D01*
X872937Y26988D01*
X871976Y29307D01*
X870448Y31298D01*
X868457Y32826D01*
X866138Y33787D01*
X863650Y34114D01*
D02*
G37*
G36*
X838250D02*
X835762Y33787D01*
X833443Y32826D01*
X831452Y31298D01*
X829924Y29307D01*
X828963Y26988D01*
X828636Y24500D01*
X828963Y22012D01*
X829924Y19693D01*
X831452Y17702D01*
X833443Y16174D01*
X835762Y15213D01*
X838250Y14886D01*
X840738Y15213D01*
X843057Y16174D01*
X845048Y17702D01*
X846576Y19693D01*
X847537Y22012D01*
X847864Y24500D01*
X847537Y26988D01*
X846576Y29307D01*
X845048Y31298D01*
X843057Y32826D01*
X840738Y33787D01*
X838250Y34114D01*
D02*
G37*
%LPD*%
D84*
X39000Y497750D02*
D03*
X221250D02*
D03*
X936750Y58850D02*
D03*
D87*
X139050Y45100D02*
D03*
X37450D02*
D03*
D88*
X469200Y523850D02*
D03*
X337800D02*
D03*
D89*
X368500Y496750D02*
D03*
D92*
X630387Y251250D02*
D03*
X638165Y259028D02*
D03*
X645944Y266806D02*
D03*
X653722Y274585D02*
D03*
X661500Y282363D02*
D03*
X638165Y243472D02*
D03*
X645944Y251250D02*
D03*
X653722Y259028D02*
D03*
X661500Y266806D02*
D03*
X669278Y274585D02*
D03*
X645944Y235694D02*
D03*
X653722Y243472D02*
D03*
X661500Y251250D02*
D03*
X669278Y259028D02*
D03*
X677056Y266806D02*
D03*
X653722Y227915D02*
D03*
X661500Y235694D02*
D03*
X669278Y243472D02*
D03*
X677056Y251250D02*
D03*
X684835Y259028D02*
D03*
X661500Y220137D02*
D03*
X669278Y227915D02*
D03*
X677056Y235694D02*
D03*
X684835Y243472D02*
D03*
X692613Y251250D02*
D03*
X630000Y80000D02*
D03*
X831500Y446750D02*
D03*
X905250Y514250D02*
D03*
X909000Y500500D02*
D03*
X919000Y488500D02*
D03*
X919500Y514750D02*
D03*
X887500Y471500D02*
D03*
X896000D02*
D03*
X887250Y480000D02*
D03*
X896250D02*
D03*
X871750Y417000D02*
D03*
X864501Y478251D02*
D03*
X921248Y468248D02*
D03*
X562250Y279250D02*
D03*
X680000Y475750D02*
D03*
X758300Y436800D02*
D03*
X159750Y298000D02*
D03*
X229231Y417231D02*
D03*
X129500Y101500D02*
D03*
X510500Y389750D02*
D03*
X169000Y479750D02*
D03*
X316750Y364250D02*
D03*
X302613Y351101D02*
D03*
X459750Y348500D02*
D03*
X442620Y266597D02*
D03*
X387250Y180250D02*
D03*
X320500Y166250D02*
D03*
X294112Y160183D02*
D03*
X270250Y318750D02*
D03*
X330000Y146500D02*
D03*
X186000Y250179D02*
D03*
X380719Y328882D02*
D03*
X359000Y152750D02*
D03*
X237250Y217750D02*
D03*
X255000Y224000D02*
D03*
X285500Y254558D02*
D03*
X235860Y284348D02*
D03*
X228609Y223666D02*
D03*
X227609Y275847D02*
D03*
X417462Y210250D02*
D03*
X535500Y480000D02*
D03*
X588668Y479418D02*
D03*
X623250Y481250D02*
D03*
X479101Y454649D02*
D03*
X947250Y211000D02*
D03*
X948250Y261000D02*
D03*
X947000Y311000D02*
D03*
X947500Y341000D02*
D03*
X948750Y371000D02*
D03*
X950750Y151000D02*
D03*
X755500Y217354D02*
D03*
X524374Y218345D02*
D03*
X546250Y263000D02*
D03*
X544750Y239000D02*
D03*
X602500Y320750D02*
D03*
X573376Y292598D02*
D03*
X636500Y350750D02*
D03*
X675631Y364602D02*
D03*
X706133Y333100D02*
D03*
X747635Y289598D02*
D03*
X772960Y235250D02*
D03*
X719750Y183750D02*
D03*
X682500Y144000D02*
D03*
X622250Y163429D02*
D03*
X647679Y88000D02*
D03*
X660750Y307058D02*
D03*
X616000Y306124D02*
D03*
X645129Y400854D02*
D03*
X651130Y368352D02*
D03*
X512138Y251725D02*
D03*
X573500Y214000D02*
D03*
X623378Y118590D02*
D03*
X813500Y253500D02*
D03*
X947250Y453250D02*
D03*
X666500Y526500D02*
D03*
X872750Y90250D02*
D03*
X644750Y412500D02*
D03*
X178750Y155000D02*
D03*
X159250Y286000D02*
D03*
X698179Y160000D02*
D03*
X776386Y264097D02*
D03*
X736500Y238750D02*
D03*
X753750Y257250D02*
D03*
X692750Y347000D02*
D03*
X678500Y325500D02*
D03*
X619750Y336000D02*
D03*
X637750Y285250D02*
D03*
X448723Y241684D02*
D03*
X415618Y292348D02*
D03*
X419500Y257500D02*
D03*
X401500Y238500D02*
D03*
X368500Y283750D02*
D03*
X345250Y261000D02*
D03*
X348250Y334250D02*
D03*
X328750Y315750D02*
D03*
X328250Y233500D02*
D03*
X304500Y211000D02*
D03*
X263000Y213500D02*
D03*
X281500Y195250D02*
D03*
X350500Y189000D02*
D03*
X332000Y171250D02*
D03*
X182000Y320750D02*
D03*
X631379Y153841D02*
D03*
X657380Y165342D02*
D03*
X676750Y181250D02*
D03*
X591250Y266000D02*
D03*
X573750Y248000D02*
D03*
X705500Y198750D02*
D03*
X682750Y220750D02*
D03*
X661380Y123590D02*
D03*
M02*
