G04*
G04 #@! TF.GenerationSoftware,Altium Limited,Altium Designer,19.1.8 (144)*
G04*
G04 Layer_Color=8421504*
%FSLAX44Y44*%
%MOMM*%
G71*
G01*
G75*
G04:AMPARAMS|DCode=15|XSize=0.4016mm|YSize=1.9016mm|CornerRadius=0mm|HoleSize=0mm|Usage=FLASHONLY|Rotation=45.000|XOffset=0mm|YOffset=0mm|HoleType=Round|Shape=Round|*
%AMOVALD15*
21,1,1.5000,0.4016,0.0000,0.0000,135.0*
1,1,0.4016,0.5303,-0.5303*
1,1,0.4016,-0.5303,0.5303*
%
%ADD15OVALD15*%

G04:AMPARAMS|DCode=16|XSize=0.4016mm|YSize=1.9016mm|CornerRadius=0mm|HoleSize=0mm|Usage=FLASHONLY|Rotation=135.000|XOffset=0mm|YOffset=0mm|HoleType=Round|Shape=Round|*
%AMOVALD16*
21,1,1.5000,0.4016,0.0000,0.0000,225.0*
1,1,0.4016,0.5303,0.5303*
1,1,0.4016,-0.5303,-0.5303*
%
%ADD16OVALD16*%

%ADD17P,7.9219X4X90.0*%
%ADD18R,1.8016X1.1016*%
%ADD19R,1.8016X1.1016*%
G04:AMPARAMS|DCode=20|XSize=1.8016mm|YSize=1.1016mm|CornerRadius=0.3008mm|HoleSize=0mm|Usage=FLASHONLY|Rotation=0.000|XOffset=0mm|YOffset=0mm|HoleType=Round|Shape=RoundedRectangle|*
%AMROUNDEDRECTD20*
21,1,1.8016,0.5000,0,0,0.0*
21,1,1.2000,1.1016,0,0,0.0*
1,1,0.6016,0.6000,-0.2500*
1,1,0.6016,-0.6000,-0.2500*
1,1,0.6016,-0.6000,0.2500*
1,1,0.6016,0.6000,0.2500*
%
%ADD20ROUNDEDRECTD20*%
%ADD21R,0.7016X0.6016*%
%ADD22R,1.3112X0.5508*%
%ADD23R,0.6016X0.7016*%
G04:AMPARAMS|DCode=24|XSize=1.0016mm|YSize=1.5016mm|CornerRadius=0mm|HoleSize=0mm|Usage=FLASHONLY|Rotation=135.000|XOffset=0mm|YOffset=0mm|HoleType=Round|Shape=Rectangle|*
%AMROTATEDRECTD24*
4,1,4,0.8850,0.1768,-0.1768,-0.8850,-0.8850,-0.1768,0.1768,0.8850,0.8850,0.1768,0.0*
%
%ADD24ROTATEDRECTD24*%

G04:AMPARAMS|DCode=25|XSize=1.1516mm|YSize=1.0516mm|CornerRadius=0mm|HoleSize=0mm|Usage=FLASHONLY|Rotation=45.000|XOffset=0mm|YOffset=0mm|HoleType=Round|Shape=Rectangle|*
%AMROTATEDRECTD25*
4,1,4,-0.0354,-0.7790,-0.7790,-0.0354,0.0354,0.7790,0.7790,0.0354,-0.0354,-0.7790,0.0*
%
%ADD25ROTATEDRECTD25*%

%ADD26R,2.2016X5.7016*%
%ADD27R,0.9016X0.9016*%
G04:AMPARAMS|DCode=28|XSize=0.6016mm|YSize=0.7016mm|CornerRadius=0mm|HoleSize=0mm|Usage=FLASHONLY|Rotation=45.000|XOffset=0mm|YOffset=0mm|HoleType=Round|Shape=Rectangle|*
%AMROTATEDRECTD28*
4,1,4,0.0354,-0.4608,-0.4608,0.0354,-0.0354,0.4608,0.4608,-0.0354,0.0354,-0.4608,0.0*
%
%ADD28ROTATEDRECTD28*%

%ADD29R,2.5146X1.9812*%
%ADD30R,1.5016X0.9516*%
%ADD31R,0.9016X0.9016*%
%ADD32R,0.9516X1.5016*%
D15*
X193998Y264008D02*
D03*
X197533Y267544D02*
D03*
X201069Y271079D02*
D03*
X204605Y274615D02*
D03*
X208140Y278150D02*
D03*
X211676Y281686D02*
D03*
X215211Y285222D02*
D03*
X218747Y288757D02*
D03*
X222282Y292293D02*
D03*
X225818Y295828D02*
D03*
X229353Y299364D02*
D03*
X232889Y302899D02*
D03*
X236424Y306435D02*
D03*
X239960Y309970D02*
D03*
X243496Y313506D02*
D03*
X247031Y317041D02*
D03*
X250567Y320577D02*
D03*
X254102Y324112D02*
D03*
X257638Y327648D02*
D03*
X261173Y331183D02*
D03*
X264709Y334719D02*
D03*
X268244Y338255D02*
D03*
X271780Y341790D02*
D03*
X275315Y345326D02*
D03*
X278851Y348861D02*
D03*
X282386Y352397D02*
D03*
X285922Y355932D02*
D03*
X289457Y359468D02*
D03*
X292993Y363003D02*
D03*
X296528Y366539D02*
D03*
X300064Y370074D02*
D03*
X303600Y373610D02*
D03*
X307135Y377145D02*
D03*
X310671Y380681D02*
D03*
X314206Y384216D02*
D03*
X317742Y387752D02*
D03*
X466941Y238552D02*
D03*
X463406Y235017D02*
D03*
X459870Y231481D02*
D03*
X456335Y227946D02*
D03*
X452799Y224410D02*
D03*
X449264Y220875D02*
D03*
X445728Y217339D02*
D03*
X442192Y213804D02*
D03*
X438657Y210268D02*
D03*
X435121Y206733D02*
D03*
X431586Y203197D02*
D03*
X428050Y199662D02*
D03*
X424515Y196126D02*
D03*
X420979Y192591D02*
D03*
X417444Y189055D02*
D03*
X413908Y185519D02*
D03*
X410373Y181984D02*
D03*
X406837Y178448D02*
D03*
X403302Y174913D02*
D03*
X399766Y171377D02*
D03*
X396231Y167842D02*
D03*
X392695Y164306D02*
D03*
X389160Y160771D02*
D03*
X385624Y157235D02*
D03*
X382088Y153700D02*
D03*
X378553Y150164D02*
D03*
X375017Y146629D02*
D03*
X371482Y143093D02*
D03*
X367946Y139558D02*
D03*
X364411Y136022D02*
D03*
X360875Y132486D02*
D03*
X357340Y128951D02*
D03*
X353804Y125415D02*
D03*
X350269Y121880D02*
D03*
X346733Y118344D02*
D03*
X343198Y114809D02*
D03*
X674228Y114778D02*
D03*
X677764Y118314D02*
D03*
X681299Y121849D02*
D03*
X684835Y125385D02*
D03*
X688370Y128921D02*
D03*
X691906Y132456D02*
D03*
X695441Y135992D02*
D03*
X698977Y139527D02*
D03*
X702512Y143063D02*
D03*
X706048Y146598D02*
D03*
X709583Y150134D02*
D03*
X713119Y153669D02*
D03*
X716654Y157205D02*
D03*
X720190Y160740D02*
D03*
X723725Y164276D02*
D03*
X727261Y167811D02*
D03*
X730797Y171347D02*
D03*
X734332Y174883D02*
D03*
X737868Y178418D02*
D03*
X741403Y181954D02*
D03*
X744939Y185489D02*
D03*
X748474Y189025D02*
D03*
X752010Y192560D02*
D03*
X755545Y196096D02*
D03*
X759081Y199631D02*
D03*
X762616Y203167D02*
D03*
X766152Y206702D02*
D03*
X769687Y210238D02*
D03*
X773223Y213773D02*
D03*
X776758Y217309D02*
D03*
X780294Y220844D02*
D03*
X783829Y224380D02*
D03*
X787365Y227915D02*
D03*
X790900Y231451D02*
D03*
X794436Y234987D02*
D03*
X797972Y238522D02*
D03*
X648772Y387722D02*
D03*
X645237Y384186D02*
D03*
X641701Y380651D02*
D03*
X638166Y377115D02*
D03*
X634630Y373579D02*
D03*
X631094Y370044D02*
D03*
X627559Y366508D02*
D03*
X624023Y362973D02*
D03*
X620488Y359437D02*
D03*
X616952Y355902D02*
D03*
X613417Y352366D02*
D03*
X609881Y348831D02*
D03*
X606346Y345295D02*
D03*
X602810Y341760D02*
D03*
X599275Y338224D02*
D03*
X595739Y334689D02*
D03*
X592203Y331153D02*
D03*
X588668Y327618D02*
D03*
X585132Y324082D02*
D03*
X581597Y320546D02*
D03*
X578061Y317011D02*
D03*
X574526Y313475D02*
D03*
X570990Y309940D02*
D03*
X567455Y306404D02*
D03*
X563919Y302869D02*
D03*
X560384Y299333D02*
D03*
X556848Y295798D02*
D03*
X553313Y292262D02*
D03*
X549777Y288727D02*
D03*
X546242Y285191D02*
D03*
X542706Y281656D02*
D03*
X539170Y278120D02*
D03*
X535635Y274585D02*
D03*
X532099Y271049D02*
D03*
X528564Y267514D02*
D03*
X525028Y263978D02*
D03*
D16*
X343198Y387752D02*
D03*
X346733Y384216D02*
D03*
X350269Y380681D02*
D03*
X353804Y377145D02*
D03*
X357340Y373610D02*
D03*
X360875Y370074D02*
D03*
X364411Y366539D02*
D03*
X367946Y363003D02*
D03*
X371482Y359468D02*
D03*
X375017Y355932D02*
D03*
X378553Y352397D02*
D03*
X382088Y348861D02*
D03*
X385624Y345326D02*
D03*
X389160Y341790D02*
D03*
X392695Y338255D02*
D03*
X396231Y334719D02*
D03*
X399766Y331183D02*
D03*
X403302Y327648D02*
D03*
X406837Y324112D02*
D03*
X410373Y320577D02*
D03*
X413908Y317041D02*
D03*
X417444Y313506D02*
D03*
X420979Y309970D02*
D03*
X424515Y306435D02*
D03*
X428050Y302899D02*
D03*
X431586Y299364D02*
D03*
X435121Y295828D02*
D03*
X438657Y292293D02*
D03*
X442192Y288757D02*
D03*
X445728Y285222D02*
D03*
X449264Y281686D02*
D03*
X452799Y278150D02*
D03*
X456335Y274615D02*
D03*
X459870Y271079D02*
D03*
X463406Y267544D02*
D03*
X466941Y264008D02*
D03*
X317742Y114809D02*
D03*
X314206Y118344D02*
D03*
X310671Y121880D02*
D03*
X307135Y125415D02*
D03*
X303600Y128951D02*
D03*
X300064Y132486D02*
D03*
X296528Y136022D02*
D03*
X292993Y139558D02*
D03*
X289457Y143093D02*
D03*
X285922Y146629D02*
D03*
X282386Y150164D02*
D03*
X278851Y153700D02*
D03*
X275315Y157235D02*
D03*
X271780Y160771D02*
D03*
X268244Y164306D02*
D03*
X264709Y167842D02*
D03*
X261173Y171377D02*
D03*
X257638Y174913D02*
D03*
X254102Y178448D02*
D03*
X250567Y181984D02*
D03*
X247031Y185519D02*
D03*
X243496Y189055D02*
D03*
X239960Y192591D02*
D03*
X236424Y196126D02*
D03*
X232889Y199662D02*
D03*
X229353Y203197D02*
D03*
X225818Y206733D02*
D03*
X222282Y210268D02*
D03*
X218747Y213804D02*
D03*
X215211Y217339D02*
D03*
X211676Y220875D02*
D03*
X208140Y224410D02*
D03*
X204605Y227946D02*
D03*
X201069Y231481D02*
D03*
X197533Y235017D02*
D03*
X193998Y238552D02*
D03*
X525028Y238522D02*
D03*
X528564Y234987D02*
D03*
X532099Y231451D02*
D03*
X535635Y227915D02*
D03*
X539170Y224380D02*
D03*
X542706Y220844D02*
D03*
X546242Y217309D02*
D03*
X549777Y213773D02*
D03*
X553313Y210238D02*
D03*
X556848Y206702D02*
D03*
X560384Y203167D02*
D03*
X563919Y199631D02*
D03*
X567455Y196096D02*
D03*
X570990Y192560D02*
D03*
X574526Y189025D02*
D03*
X578061Y185489D02*
D03*
X581597Y181954D02*
D03*
X585132Y178418D02*
D03*
X588668Y174883D02*
D03*
X592203Y171347D02*
D03*
X595739Y167812D02*
D03*
X599275Y164276D02*
D03*
X602810Y160740D02*
D03*
X606346Y157205D02*
D03*
X609881Y153669D02*
D03*
X613417Y150134D02*
D03*
X616952Y146598D02*
D03*
X620488Y143063D02*
D03*
X624023Y139527D02*
D03*
X627559Y135992D02*
D03*
X631094Y132456D02*
D03*
X634630Y128921D02*
D03*
X638166Y125385D02*
D03*
X641701Y121849D02*
D03*
X645237Y118314D02*
D03*
X648772Y114778D02*
D03*
X797972Y263978D02*
D03*
X794436Y267514D02*
D03*
X790900Y271049D02*
D03*
X787365Y274585D02*
D03*
X783829Y278120D02*
D03*
X780294Y281656D02*
D03*
X776758Y285191D02*
D03*
X773223Y288727D02*
D03*
X769687Y292262D02*
D03*
X766152Y295798D02*
D03*
X762616Y299333D02*
D03*
X759081Y302869D02*
D03*
X755545Y306404D02*
D03*
X752010Y309940D02*
D03*
X748474Y313475D02*
D03*
X744939Y317011D02*
D03*
X741403Y320546D02*
D03*
X737868Y324082D02*
D03*
X734332Y327618D02*
D03*
X730797Y331153D02*
D03*
X727261Y334689D02*
D03*
X723725Y338224D02*
D03*
X720190Y341760D02*
D03*
X716654Y345295D02*
D03*
X713119Y348831D02*
D03*
X709583Y352366D02*
D03*
X706048Y355902D02*
D03*
X702512Y359437D02*
D03*
X698977Y362973D02*
D03*
X695441Y366508D02*
D03*
X691906Y370044D02*
D03*
X688370Y373579D02*
D03*
X684835Y377115D02*
D03*
X681299Y380651D02*
D03*
X677764Y384186D02*
D03*
X674228Y387722D02*
D03*
D17*
X661500Y251250D02*
D03*
D18*
X758300Y452730D02*
D03*
X707500D02*
D03*
D19*
X758300Y485750D02*
D03*
D20*
X707500D02*
D03*
D21*
X691000Y485750D02*
D03*
Y475750D02*
D03*
X535500Y499000D02*
D03*
Y489000D02*
D03*
X588668Y499000D02*
D03*
Y489000D02*
D03*
X149537Y280479D02*
D03*
Y270479D02*
D03*
X150068Y298233D02*
D03*
Y308233D02*
D03*
X522000Y312750D02*
D03*
Y322750D02*
D03*
X496000Y301500D02*
D03*
Y291500D02*
D03*
X497000Y344500D02*
D03*
Y334500D02*
D03*
X472500Y351500D02*
D03*
Y341500D02*
D03*
X617250Y415250D02*
D03*
Y425250D02*
D03*
X624250Y512750D02*
D03*
Y522750D02*
D03*
D22*
X549500Y499000D02*
D03*
Y489500D02*
D03*
Y480000D02*
D03*
X573500D02*
D03*
Y499000D02*
D03*
D23*
X559500Y465000D02*
D03*
X549500D02*
D03*
X495500Y313000D02*
D03*
X505500D02*
D03*
X173500Y178000D02*
D03*
X163500D02*
D03*
X819500Y90500D02*
D03*
X829500D02*
D03*
D24*
X240015Y427308D02*
D03*
X248146Y448874D02*
D03*
X261581Y435439D02*
D03*
D25*
X613003Y96247D02*
D03*
X602750Y106500D02*
D03*
X599922Y83166D02*
D03*
X589669Y93419D02*
D03*
D26*
X112237Y239116D02*
D03*
Y334116D02*
D03*
D27*
X481250Y291750D02*
D03*
Y307750D02*
D03*
X633000Y412500D02*
D03*
Y428500D02*
D03*
X947250Y442250D02*
D03*
Y426250D02*
D03*
D28*
X614964Y79714D02*
D03*
X622035Y86785D02*
D03*
D29*
X507249Y499353D02*
D03*
Y454649D02*
D03*
D30*
X606500Y481250D02*
D03*
Y498750D02*
D03*
D31*
X176750Y164750D02*
D03*
X160750D02*
D03*
X860250Y90500D02*
D03*
X844250D02*
D03*
X654000Y522750D02*
D03*
X638000D02*
D03*
D32*
X930250Y426250D02*
D03*
X912750D02*
D03*
M02*
